Project Version="4.2.1" TempoMode="FamiStudio" Name="Musical Covers" Author="Sunbeam Fluff" Expansions="EPSM"
	Instrument Name="1. Acoustic Grand Piano" Color="ff6464" Folder="1. Piano" Expansion="EPSM" EpsmPatch="0" EpsmReg0="58" EpsmReg1="192" EpsmReg2="0" EpsmReg3="31" EpsmReg4="23" EpsmReg5="0" EpsmReg6="7" EpsmReg7="5" EpsmReg8="0" EpsmReg9="5" EpsmReg10="47" EpsmReg11="23" EpsmReg12="0" EpsmReg13="3" EpsmReg14="5" EpsmReg15="0" EpsmReg16="1" EpsmReg17="31" EpsmReg18="23" EpsmReg19="0" EpsmReg20="7" EpsmReg21="5" EpsmReg22="0" EpsmReg23="0" EpsmReg24="15" EpsmReg25="23" EpsmReg26="0" EpsmReg27="3" EpsmReg28="5" EpsmReg29="0" EpsmReg30="8" EPSMSquareEnvelopeShape="0" EPSMSquareEnvelopeAutoPitch="True" EPSMSquareEnvelopeAutoPitchOctave="0"
	Instrument Name="2. Bright Acoustic Piano" Color="ff6464" Folder="1. Piano" Expansion="EPSM" EpsmPatch="0" EpsmReg0="4" EpsmReg1="192" EpsmReg2="2" EpsmReg3="31" EpsmReg4="23" EpsmReg5="0" EpsmReg6="3" EpsmReg7="5" EpsmReg8="0" EpsmReg9="2" EpsmReg10="37" EpsmReg11="23" EpsmReg12="0" EpsmReg13="3" EpsmReg14="5" EpsmReg15="8" EpsmReg16="1" EpsmReg17="31" EpsmReg18="23" EpsmReg19="0" EpsmReg20="3" EpsmReg21="5" EpsmReg22="0" EpsmReg23="2" EpsmReg24="19" EpsmReg25="23" EpsmReg26="0" EpsmReg27="3" EpsmReg28="5" EpsmReg29="0" EpsmReg30="8" EPSMSquareEnvelopeShape="0" EPSMSquareEnvelopeAutoPitch="True" EPSMSquareEnvelopeAutoPitchOctave="0"
	Instrument Name="3. Electric Grand Piano" Color="ff6464" Folder="1. Piano" Expansion="EPSM" EpsmPatch="0" EpsmReg0="4" EpsmReg1="192" EpsmReg2="112" EpsmReg3="33" EpsmReg4="86" EpsmReg5="5" EpsmReg6="6" EpsmReg7="100" EpsmReg8="0" EpsmReg9="0" EpsmReg10="0" EpsmReg11="153" EpsmReg12="133" EpsmReg13="4" EpsmReg14="21" EpsmReg15="0" EpsmReg16="65" EpsmReg17="26" EpsmReg18="84" EpsmReg19="7" EpsmReg20="6" EpsmReg21="100" EpsmReg22="0" EpsmReg23="48" EpsmReg24="7" EpsmReg25="153" EpsmReg26="132" EpsmReg27="4" EpsmReg28="101" EpsmReg29="0" EpsmReg30="0" EPSMSquareEnvelopeShape="0" EPSMSquareEnvelopeAutoPitch="True" EPSMSquareEnvelopeAutoPitchOctave="3"
		Envelope Type="Volume" Length="1" Values="0"
	Instrument Name="4. Honky-tonk Piano" Color="ff6464" Folder="1. Piano" Expansion="EPSM" EpsmPatch="0" EpsmReg0="4" EpsmReg1="243" EpsmReg2="1" EpsmReg3="0" EpsmReg4="23" EpsmReg5="0" EpsmReg6="3" EpsmReg7="5" EpsmReg8="0" EpsmReg9="1" EpsmReg10="63" EpsmReg11="23" EpsmReg12="0" EpsmReg13="3" EpsmReg14="5" EpsmReg15="0" EpsmReg16="1" EpsmReg17="15" EpsmReg18="23" EpsmReg19="0" EpsmReg20="3" EpsmReg21="5" EpsmReg22="0" EpsmReg23="4" EpsmReg24="15" EpsmReg25="23" EpsmReg26="0" EpsmReg27="3" EpsmReg28="5" EpsmReg29="0" EpsmReg30="8" EPSMSquareEnvelopeShape="0" EPSMSquareEnvelopeAutoPitch="True" EPSMSquareEnvelopeAutoPitchOctave="0"
	Instrument Name="5. Electric Piano 1" Color="ff6464" Folder="1. Piano" Expansion="EPSM" EpsmPatch="0" EpsmReg0="59" EpsmReg1="192" EpsmReg2="0" EpsmReg3="31" EpsmReg4="23" EpsmReg5="0" EpsmReg6="3" EpsmReg7="15" EpsmReg8="0" EpsmReg9="0" EpsmReg10="63" EpsmReg11="215" EpsmReg12="0" EpsmReg13="3" EpsmReg14="15" EpsmReg15="0" EpsmReg16="0" EpsmReg17="41" EpsmReg18="23" EpsmReg19="0" EpsmReg20="3" EpsmReg21="15" EpsmReg22="0" EpsmReg23="1" EpsmReg24="15" EpsmReg25="23" EpsmReg26="0" EpsmReg27="3" EpsmReg28="15" EpsmReg29="0" EpsmReg30="8" EPSMSquareEnvelopeShape="0" EPSMSquareEnvelopeAutoPitch="True" EPSMSquareEnvelopeAutoPitchOctave="0"
	Instrument Name="6. Electric Piano 2" Color="ff6464" Folder="1. Piano" Expansion="EPSM" EpsmPatch="0" EpsmReg0="59" EpsmReg1="192" EpsmReg2="1" EpsmReg3="31" EpsmReg4="23" EpsmReg5="0" EpsmReg6="3" EpsmReg7="15" EpsmReg8="0" EpsmReg9="1" EpsmReg10="63" EpsmReg11="215" EpsmReg12="0" EpsmReg13="3" EpsmReg14="15" EpsmReg15="0" EpsmReg16="0" EpsmReg17="41" EpsmReg18="23" EpsmReg19="0" EpsmReg20="3" EpsmReg21="15" EpsmReg22="0" EpsmReg23="0" EpsmReg24="15" EpsmReg25="23" EpsmReg26="0" EpsmReg27="3" EpsmReg28="15" EpsmReg29="0" EpsmReg30="8" EPSMSquareEnvelopeShape="0" EPSMSquareEnvelopeAutoPitch="True" EPSMSquareEnvelopeAutoPitchOctave="0"
	Instrument Name="7. Harpsichord" Color="ff6464" Folder="1. Piano" Expansion="EPSM" EpsmPatch="0" EpsmReg0="57" EpsmReg1="192" EpsmReg2="22" EpsmReg3="38" EpsmReg4="159" EpsmReg5="128" EpsmReg6="1" EpsmReg7="5" EpsmReg8="0" EpsmReg9="58" EpsmReg10="33" EpsmReg11="223" EpsmReg12="0" EpsmReg13="1" EpsmReg14="6" EpsmReg15="0" EpsmReg16="80" EpsmReg17="35" EpsmReg18="223" EpsmReg19="128" EpsmReg20="0" EpsmReg21="2" EpsmReg22="0" EpsmReg23="112" EpsmReg24="6" EpsmReg25="31" EpsmReg26="6" EpsmReg27="6" EpsmReg28="71" EpsmReg29="0" EpsmReg30="0" EPSMSquareEnvelopeShape="0" EPSMSquareEnvelopeAutoPitch="True" EPSMSquareEnvelopeAutoPitchOctave="3"
		Envelope Type="Volume" Length="1" Values="0"
	Instrument Name="8. Clavi" Color="ff6464" Folder="1. Piano" Expansion="EPSM" EpsmPatch="0" EpsmReg0="57" EpsmReg1="192" EpsmReg2="16" EpsmReg3="28" EpsmReg4="159" EpsmReg5="128" EpsmReg6="1" EpsmReg7="5" EpsmReg8="0" EpsmReg9="48" EpsmReg10="33" EpsmReg11="159" EpsmReg12="0" EpsmReg13="1" EpsmReg14="6" EpsmReg15="0" EpsmReg16="80" EpsmReg17="30" EpsmReg18="223" EpsmReg19="128" EpsmReg20="0" EpsmReg21="2" EpsmReg22="0" EpsmReg23="112" EpsmReg24="6" EpsmReg25="31" EpsmReg26="6" EpsmReg27="6" EpsmReg28="71" EpsmReg29="0" EpsmReg30="0" EPSMSquareEnvelopeShape="0" EPSMSquareEnvelopeAutoPitch="True" EPSMSquareEnvelopeAutoPitchOctave="3"
		Envelope Type="Volume" Length="1" Values="0"
	Instrument Name="9. Celesta" Color="ff7f51" Folder="2. Chromatic Percussion" Expansion="EPSM" EpsmPatch="0" EpsmReg0="0" EpsmReg1="192" EpsmReg2="19" EpsmReg3="8" EpsmReg4="83" EpsmReg5="1" EpsmReg6="27" EpsmReg7="64" EpsmReg8="0" EpsmReg9="113" EpsmReg10="17" EpsmReg11="91" EpsmReg12="3" EpsmReg13="26" EpsmReg14="6" EpsmReg15="0" EpsmReg16="59" EpsmReg17="34" EpsmReg18="29" EpsmReg19="15" EpsmReg20="31" EpsmReg21="248" EpsmReg22="0" EpsmReg23="113" EpsmReg24="0" EpsmReg25="31" EpsmReg26="0" EpsmReg27="5" EpsmReg28="6" EpsmReg29="0" EpsmReg30="48" EPSMSquareEnvelopeShape="0" EPSMSquareEnvelopeAutoPitch="True" EPSMSquareEnvelopeAutoPitchOctave="3"
		Envelope Type="Volume" Length="1" Values="0"
	Instrument Name="10. Glockenspiel" Color="ff7f51" Folder="2. Chromatic Percussion" Expansion="EPSM" EpsmPatch="0" EpsmReg0="12" EpsmReg1="192" EpsmReg2="23" EpsmReg3="30" EpsmReg4="31" EpsmReg5="7" EpsmReg6="0" EpsmReg7="242" EpsmReg8="0" EpsmReg9="113" EpsmReg10="0" EpsmReg11="159" EpsmReg12="7" EpsmReg13="0" EpsmReg14="243" EpsmReg15="0" EpsmReg16="53" EpsmReg17="51" EpsmReg18="31" EpsmReg19="11" EpsmReg20="0" EpsmReg21="246" EpsmReg22="0" EpsmReg23="113" EpsmReg24="15" EpsmReg25="159" EpsmReg26="7" EpsmReg27="0" EpsmReg28="243" EpsmReg29="0" EpsmReg30="0" EPSMSquareEnvelopeShape="0" EPSMSquareEnvelopeAutoPitch="True" EPSMSquareEnvelopeAutoPitchOctave="3"
		Envelope Type="Volume" Length="1" Values="0"
	Instrument Name="11. Music Box" Color="ff7f51" Folder="2. Chromatic Percussion" Expansion="EPSM" EpsmPatch="0" EpsmReg0="6" EpsmReg1="243" EpsmReg2="1" EpsmReg3="0" EpsmReg4="23" EpsmReg5="0" EpsmReg6="7" EpsmReg7="5" EpsmReg8="0" EpsmReg9="1" EpsmReg10="63" EpsmReg11="23" EpsmReg12="0" EpsmReg13="7" EpsmReg14="5" EpsmReg15="0" EpsmReg16="1" EpsmReg17="15" EpsmReg18="23" EpsmReg19="0" EpsmReg20="7" EpsmReg21="5" EpsmReg22="0" EpsmReg23="5" EpsmReg24="31" EpsmReg25="23" EpsmReg26="0" EpsmReg27="7" EpsmReg28="5" EpsmReg29="0" EpsmReg30="8" EPSMSquareEnvelopeShape="0" EPSMSquareEnvelopeAutoPitch="True" EPSMSquareEnvelopeAutoPitchOctave="0"
	Instrument Name="12. Vibraphone" Color="ff7f51" Folder="2. Chromatic Percussion" Expansion="EPSM" EpsmPatch="0" EpsmReg0="2" EpsmReg1="243" EpsmReg2="2" EpsmReg3="47" EpsmReg4="27" EpsmReg5="0" EpsmReg6="7" EpsmReg7="7" EpsmReg8="0" EpsmReg9="2" EpsmReg10="15" EpsmReg11="27" EpsmReg12="0" EpsmReg13="7" EpsmReg14="7" EpsmReg15="0" EpsmReg16="2" EpsmReg17="31" EpsmReg18="219" EpsmReg19="0" EpsmReg20="7" EpsmReg21="7" EpsmReg22="0" EpsmReg23="1" EpsmReg24="23" EpsmReg25="27" EpsmReg26="0" EpsmReg27="7" EpsmReg28="7" EpsmReg29="0" EpsmReg30="0" EPSMSquareEnvelopeShape="0" EPSMSquareEnvelopeAutoPitch="True" EPSMSquareEnvelopeAutoPitchOctave="3"
	Instrument Name="13. Marimba" Color="ff7f51" Folder="2. Chromatic Percussion" Expansion="EPSM" EpsmPatch="0" EpsmReg0="4" EpsmReg1="192" EpsmReg2="69" EpsmReg3="27" EpsmReg4="31" EpsmReg5="147" EpsmReg6="7" EpsmReg7="126" EpsmReg8="0" EpsmReg9="49" EpsmReg10="0" EpsmReg11="30" EpsmReg12="15" EpsmReg13="7" EpsmReg14="247" EpsmReg15="0" EpsmReg16="34" EpsmReg17="40" EpsmReg18="159" EpsmReg19="146" EpsmReg20="4" EpsmReg21="130" EpsmReg22="0" EpsmReg23="1" EpsmReg24="11" EpsmReg25="31" EpsmReg26="15" EpsmReg27="2" EpsmReg28="247" EpsmReg29="0" EpsmReg30="0" EPSMSquareEnvelopeShape="0" EPSMSquareEnvelopeAutoPitch="True" EPSMSquareEnvelopeAutoPitchOctave="3"
		Envelope Type="Volume" Length="1" Values="0"
	Instrument Name="14. Xylophone" Color="ff7f51" Folder="2. Chromatic Percussion" Expansion="EPSM" EpsmPatch="0" EpsmReg0="0" EpsmReg1="192" EpsmReg2="112" EpsmReg3="0" EpsmReg4="64" EpsmReg5="157" EpsmReg6="31" EpsmReg7="159" EpsmReg8="0" EpsmReg9="112" EpsmReg10="0" EpsmReg11="95" EpsmReg12="128" EpsmReg13="24" EpsmReg14="15" EpsmReg15="0" EpsmReg16="99" EpsmReg17="31" EpsmReg18="93" EpsmReg19="15" EpsmReg20="31" EpsmReg21="255" EpsmReg22="0" EpsmReg23="112" EpsmReg24="0" EpsmReg25="31" EpsmReg26="0" EpsmReg27="12" EpsmReg28="6" EpsmReg29="0" EpsmReg30="0" EPSMSquareEnvelopeShape="0" EPSMSquareEnvelopeAutoPitch="True" EPSMSquareEnvelopeAutoPitchOctave="3"
		Envelope Type="Volume" Length="1" Values="0"
	Instrument Name="15. Tubular Bells" Color="ff7f51" Folder="2. Chromatic Percussion" Expansion="EPSM" EpsmPatch="0" EpsmReg0="4" EpsmReg1="192" EpsmReg2="0" EpsmReg3="0" EpsmReg4="31" EpsmReg5="0" EpsmReg6="7" EpsmReg7="15" EpsmReg8="0" EpsmReg9="0" EpsmReg10="47" EpsmReg11="31" EpsmReg12="0" EpsmReg13="7" EpsmReg14="15" EpsmReg15="0" EpsmReg16="1" EpsmReg17="15" EpsmReg18="31" EpsmReg19="0" EpsmReg20="7" EpsmReg21="15" EpsmReg22="0" EpsmReg23="0" EpsmReg24="15" EpsmReg25="31" EpsmReg26="0" EpsmReg27="7" EpsmReg28="15" EpsmReg29="0" EpsmReg30="0" EPSMSquareEnvelopeShape="0" EPSMSquareEnvelopeAutoPitch="True" EPSMSquareEnvelopeAutoPitchOctave="3"
	Instrument Name="16. Dulcimer" Color="ff7f51" Folder="2. Chromatic Percussion" Expansion="EPSM" EpsmPatch="0" EpsmReg0="4" EpsmReg1="192" EpsmReg2="0" EpsmReg3="3" EpsmReg4="23" EpsmReg5="0" EpsmReg6="0" EpsmReg7="15" EpsmReg8="0" EpsmReg9="15" EpsmReg10="15" EpsmReg11="23" EpsmReg12="0" EpsmReg13="11" EpsmReg14="15" EpsmReg15="0" EpsmReg16="0" EpsmReg17="15" EpsmReg18="23" EpsmReg19="0" EpsmReg20="0" EpsmReg21="15" EpsmReg22="0" EpsmReg23="0" EpsmReg24="15" EpsmReg25="23" EpsmReg26="0" EpsmReg27="11" EpsmReg28="15" EpsmReg29="0" EpsmReg30="0" EPSMSquareEnvelopeShape="0" EPSMSquareEnvelopeAutoPitch="True" EPSMSquareEnvelopeAutoPitchOctave="3"
	Instrument Name="17. Drawbar Organ" Color="ffa83c" Folder="3. Organ" Expansion="EPSM" EpsmPatch="0" EpsmReg0="39" EpsmReg1="192" EpsmReg2="20" EpsmReg3="17" EpsmReg4="92" EpsmReg5="0" EpsmReg6="4" EpsmReg7="250" EpsmReg8="0" EpsmReg9="48" EpsmReg10="23" EpsmReg11="92" EpsmReg12="0" EpsmReg13="27" EpsmReg14="248" EpsmReg15="0" EpsmReg16="81" EpsmReg17="15" EpsmReg18="92" EpsmReg19="0" EpsmReg20="4" EpsmReg21="248" EpsmReg22="0" EpsmReg23="98" EpsmReg24="23" EpsmReg25="92" EpsmReg26="0" EpsmReg27="4" EpsmReg28="250" EpsmReg29="0" EpsmReg30="0" EPSMSquareEnvelopeShape="0" EPSMSquareEnvelopeAutoPitch="True" EPSMSquareEnvelopeAutoPitchOctave="3"
		Envelope Type="Volume" Length="1" Values="0"
	Instrument Name="18. Percussive Organ" Color="ffa83c" Folder="3. Organ" Expansion="EPSM" EpsmPatch="0" EpsmReg0="4" EpsmReg1="192" EpsmReg2="14" EpsmReg3="21" EpsmReg4="22" EpsmReg5="23" EpsmReg6="11" EpsmReg7="184" EpsmReg8="0" EpsmReg9="6" EpsmReg10="7" EpsmReg11="15" EpsmReg12="9" EpsmReg13="0" EpsmReg14="40" EpsmReg15="0" EpsmReg16="17" EpsmReg17="17" EpsmReg18="20" EpsmReg19="28" EpsmReg20="5" EpsmReg21="47" EpsmReg22="0" EpsmReg23="1" EpsmReg24="11" EpsmReg25="19" EpsmReg26="1" EpsmReg27="31" EpsmReg28="175" EpsmReg29="0" EpsmReg30="0" EPSMSquareEnvelopeShape="0" EPSMSquareEnvelopeAutoPitch="True" EPSMSquareEnvelopeAutoPitchOctave="3"
		Envelope Type="Volume" Length="1" Values="0"
	Instrument Name="19. Rock Organ" Color="ffa83c" Folder="3. Organ" Expansion="EPSM" EpsmPatch="0" EpsmReg0="36" EpsmReg1="192" EpsmReg2="19" EpsmReg3="25" EpsmReg4="84" EpsmReg5="140" EpsmReg6="0" EpsmReg7="42" EpsmReg8="0" EpsmReg9="1" EpsmReg10="0" EpsmReg11="148" EpsmReg12="0" EpsmReg13="0" EpsmReg14="10" EpsmReg15="0" EpsmReg16="1" EpsmReg17="24" EpsmReg18="148" EpsmReg19="128" EpsmReg20="0" EpsmReg21="10" EpsmReg22="0" EpsmReg23="82" EpsmReg24="0" EpsmReg25="148" EpsmReg26="0" EpsmReg27="0" EpsmReg28="10" EpsmReg29="0" EpsmReg30="0" EPSMSquareEnvelopeShape="0" EPSMSquareEnvelopeAutoPitch="True" EPSMSquareEnvelopeAutoPitchOctave="3"
		Envelope Type="Volume" Length="1" Values="0"
	Instrument Name="20. Church Organ" Color="ffa83c" Folder="3. Organ" Expansion="EPSM" EpsmPatch="0" EpsmReg0="22" EpsmReg1="192" EpsmReg2="19" EpsmReg3="27" EpsmReg4="146" EpsmReg5="10" EpsmReg6="0" EpsmReg7="35" EpsmReg8="0" EpsmReg9="1" EpsmReg10="9" EpsmReg11="12" EpsmReg12="10" EpsmReg13="0" EpsmReg14="21" EpsmReg15="0" EpsmReg16="4" EpsmReg17="6" EpsmReg18="18" EpsmReg19="10" EpsmReg20="0" EpsmReg21="41" EpsmReg22="0" EpsmReg23="0" EpsmReg24="4" EpsmReg25="12" EpsmReg26="10" EpsmReg27="0" EpsmReg28="21" EpsmReg29="0" EpsmReg30="0" EPSMSquareEnvelopeShape="0" EPSMSquareEnvelopeAutoPitch="True" EPSMSquareEnvelopeAutoPitchOctave="3"
		Envelope Type="Volume" Length="1" Values="0"
	Instrument Name="21. Reed Organ" Color="ffa83c" Folder="3. Organ" Expansion="EPSM" EpsmPatch="0" EpsmReg0="52" EpsmReg1="192" EpsmReg2="17" EpsmReg3="25" EpsmReg4="152" EpsmReg5="16" EpsmReg6="0" EpsmReg7="22" EpsmReg8="0" EpsmReg9="1" EpsmReg10="0" EpsmReg11="11" EpsmReg12="0" EpsmReg13="0" EpsmReg14="6" EpsmReg15="0" EpsmReg16="1" EpsmReg17="21" EpsmReg18="24" EpsmReg19="0" EpsmReg20="0" EpsmReg21="5" EpsmReg22="0" EpsmReg23="2" EpsmReg24="0" EpsmReg25="139" EpsmReg26="128" EpsmReg27="0" EpsmReg28="6" EpsmReg29="0" EpsmReg30="0" EPSMSquareEnvelopeShape="0" EPSMSquareEnvelopeAutoPitch="True" EPSMSquareEnvelopeAutoPitchOctave="3"
		Envelope Type="Volume" Length="1" Values="0"
	Instrument Name="22. Accordion" Color="ffa83c" Folder="3. Organ" Expansion="EPSM" EpsmPatch="0" EpsmReg0="27" EpsmReg1="192" EpsmReg2="3" EpsmReg3="15" EpsmReg4="15" EpsmReg5="0" EpsmReg6="3" EpsmReg7="11" EpsmReg8="0" EpsmReg9="0" EpsmReg10="31" EpsmReg11="15" EpsmReg12="0" EpsmReg13="3" EpsmReg14="11" EpsmReg15="0" EpsmReg16="2" EpsmReg17="23" EpsmReg18="15" EpsmReg19="0" EpsmReg20="3" EpsmReg21="11" EpsmReg22="0" EpsmReg23="1" EpsmReg24="15" EpsmReg25="15" EpsmReg26="0" EpsmReg27="3" EpsmReg28="11" EpsmReg29="0" EpsmReg30="0" EPSMSquareEnvelopeShape="0" EPSMSquareEnvelopeAutoPitch="True" EPSMSquareEnvelopeAutoPitchOctave="3"
	Instrument Name="23. Harmonica" Color="ffa83c" Folder="3. Organ" Expansion="EPSM" EpsmPatch="0" EpsmReg0="56" EpsmReg1="192" EpsmReg2="58" EpsmReg3="45" EpsmReg4="212" EpsmReg5="5" EpsmReg6="0" EpsmReg7="153" EpsmReg8="0" EpsmReg9="10" EpsmReg10="40" EpsmReg11="20" EpsmReg12="8" EpsmReg13="0" EpsmReg14="9" EpsmReg15="0" EpsmReg16="17" EpsmReg17="39" EpsmReg18="80" EpsmReg19="2" EpsmReg20="0" EpsmReg21="9" EpsmReg22="0" EpsmReg23="2" EpsmReg24="0" EpsmReg25="14" EpsmReg26="136" EpsmReg27="0" EpsmReg28="26" EpsmReg29="0" EpsmReg30="0" EPSMSquareEnvelopeShape="0" EPSMSquareEnvelopeAutoPitch="True" EPSMSquareEnvelopeAutoPitchOctave="3"
		Envelope Type="Volume" Length="1" Values="0"
	Instrument Name="24. Tango Accordion" Color="ffa83c" Folder="3. Organ" Expansion="EPSM" EpsmPatch="0" EpsmReg0="52" EpsmReg1="192" EpsmReg2="19" EpsmReg3="25" EpsmReg4="11" EpsmReg5="4" EpsmReg6="0" EpsmReg7="26" EpsmReg8="0" EpsmReg9="1" EpsmReg10="7" EpsmReg11="138" EpsmReg12="4" EpsmReg13="0" EpsmReg14="42" EpsmReg15="0" EpsmReg16="3" EpsmReg17="26" EpsmReg18="10" EpsmReg19="4" EpsmReg20="0" EpsmReg21="26" EpsmReg22="0" EpsmReg23="82" EpsmReg24="8" EpsmReg25="138" EpsmReg26="4" EpsmReg27="0" EpsmReg28="42" EpsmReg29="0" EpsmReg30="0" EPSMSquareEnvelopeShape="0" EPSMSquareEnvelopeAutoPitch="True" EPSMSquareEnvelopeAutoPitchOctave="3"
		Envelope Type="Volume" Length="1" Values="0"
	Instrument Name="25. Acoustic Guitar (nylon)" Color="ffcb3c" Folder="4. Guitar" Expansion="EPSM" EpsmPatch="0" EpsmReg0="24" EpsmReg1="192" EpsmReg2="5" EpsmReg3="48" EpsmReg4="31" EpsmReg5="18" EpsmReg6="0" EpsmReg7="38" EpsmReg8="0" EpsmReg9="48" EpsmReg10="19" EpsmReg11="31" EpsmReg12="10" EpsmReg13="4" EpsmReg14="38" EpsmReg15="0" EpsmReg16="49" EpsmReg17="45" EpsmReg18="31" EpsmReg19="14" EpsmReg20="4" EpsmReg21="38" EpsmReg22="0" EpsmReg23="0" EpsmReg24="0" EpsmReg25="95" EpsmReg26="10" EpsmReg27="3" EpsmReg28="38" EpsmReg29="0" EpsmReg30="0" EPSMSquareEnvelopeShape="0" EPSMSquareEnvelopeAutoPitch="True" EPSMSquareEnvelopeAutoPitchOctave="3"
		Envelope Type="Volume" Length="1" Values="0"
	Instrument Name="26. Acoustic Guitar (steel)" Color="ffcb3c" Folder="4. Guitar" Expansion="EPSM" EpsmPatch="0" EpsmReg0="24" EpsmReg1="192" EpsmReg2="5" EpsmReg3="32" EpsmReg4="31" EpsmReg5="18" EpsmReg6="0" EpsmReg7="38" EpsmReg8="0" EpsmReg9="48" EpsmReg10="19" EpsmReg11="31" EpsmReg12="10" EpsmReg13="4" EpsmReg14="38" EpsmReg15="0" EpsmReg16="49" EpsmReg17="45" EpsmReg18="31" EpsmReg19="14" EpsmReg20="4" EpsmReg21="38" EpsmReg22="0" EpsmReg23="0" EpsmReg24="0" EpsmReg25="95" EpsmReg26="10" EpsmReg27="3" EpsmReg28="38" EpsmReg29="0" EpsmReg30="0" EPSMSquareEnvelopeShape="0" EPSMSquareEnvelopeAutoPitch="True" EPSMSquareEnvelopeAutoPitchOctave="3"
		Envelope Type="Volume" Length="1" Values="0"
	Instrument Name="27. Electric Guitar (jazz)" Color="ffcb3c" Folder="4. Guitar" Expansion="EPSM" EpsmPatch="0" EpsmReg0="40" EpsmReg1="192" EpsmReg2="2" EpsmReg3="30" EpsmReg4="95" EpsmReg5="4" EpsmReg6="0" EpsmReg7="246" EpsmReg8="0" EpsmReg9="51" EpsmReg10="43" EpsmReg11="95" EpsmReg12="4" EpsmReg13="0" EpsmReg14="246" EpsmReg15="0" EpsmReg16="49" EpsmReg17="42" EpsmReg18="159" EpsmReg19="4" EpsmReg20="0" EpsmReg21="246" EpsmReg22="0" EpsmReg23="1" EpsmReg24="0" EpsmReg25="31" EpsmReg26="4" EpsmReg27="0" EpsmReg28="246" EpsmReg29="0" EpsmReg30="0" EPSMSquareEnvelopeShape="0" EPSMSquareEnvelopeAutoPitch="True" EPSMSquareEnvelopeAutoPitchOctave="3"
		Envelope Type="Volume" Length="1" Values="0"
	Instrument Name="28. Electric Guitar (clean)" Color="ffcb3c" Folder="4. Guitar" Expansion="EPSM" EpsmPatch="0" EpsmReg0="56" EpsmReg1="192" EpsmReg2="88" EpsmReg3="39" EpsmReg4="95" EpsmReg5="7" EpsmReg6="0" EpsmReg7="246" EpsmReg8="0" EpsmReg9="51" EpsmReg10="29" EpsmReg11="95" EpsmReg12="10" EpsmReg13="0" EpsmReg14="249" EpsmReg15="0" EpsmReg16="83" EpsmReg17="34" EpsmReg18="95" EpsmReg19="4" EpsmReg20="0" EpsmReg21="248" EpsmReg22="0" EpsmReg23="49" EpsmReg24="0" EpsmReg25="95" EpsmReg26="31" EpsmReg27="4" EpsmReg28="23" EpsmReg29="0" EpsmReg30="0" EPSMSquareEnvelopeShape="0" EPSMSquareEnvelopeAutoPitch="True" EPSMSquareEnvelopeAutoPitchOctave="3"
		Envelope Type="Volume" Length="1" Values="0"
	Instrument Name="29. Electric Guitar (muted)" Color="ffcb3c" Folder="4. Guitar" Expansion="EPSM" EpsmPatch="0" EpsmReg0="26" EpsmReg1="192" EpsmReg2="51" EpsmReg3="28" EpsmReg4="84" EpsmReg5="23" EpsmReg6="9" EpsmReg7="138" EpsmReg8="0" EpsmReg9="4" EpsmReg10="11" EpsmReg11="88" EpsmReg12="23" EpsmReg13="1" EpsmReg14="187" EpsmReg15="0" EpsmReg16="49" EpsmReg17="5" EpsmReg18="91" EpsmReg19="27" EpsmReg20="7" EpsmReg21="139" EpsmReg22="0" EpsmReg23="1" EpsmReg24="0" EpsmReg25="20" EpsmReg26="18" EpsmReg27="4" EpsmReg28="12" EpsmReg29="0" EpsmReg30="4" EPSMSquareEnvelopeShape="0" EPSMSquareEnvelopeAutoPitch="True" EPSMSquareEnvelopeAutoPitchOctave="3"
		Envelope Type="Volume" Length="1" Values="0"
	Instrument Name="30. Overdriven Guitar" Color="ffcb3c" Folder="4. Guitar" Expansion="EPSM" EpsmPatch="0" EpsmReg0="57" EpsmReg1="192" EpsmReg2="1" EpsmReg3="31" EpsmReg4="31" EpsmReg5="0" EpsmReg6="3" EpsmReg7="3" EpsmReg8="0" EpsmReg9="0" EpsmReg10="9" EpsmReg11="31" EpsmReg12="0" EpsmReg13="3" EpsmReg14="3" EpsmReg15="0" EpsmReg16="2" EpsmReg17="11" EpsmReg18="31" EpsmReg19="0" EpsmReg20="3" EpsmReg21="3" EpsmReg22="0" EpsmReg23="1" EpsmReg24="15" EpsmReg25="31" EpsmReg26="0" EpsmReg27="3" EpsmReg28="7" EpsmReg29="0" EpsmReg30="0" EPSMSquareEnvelopeShape="0" EPSMSquareEnvelopeAutoPitch="True" EPSMSquareEnvelopeAutoPitchOctave="3"
	Instrument Name="31. Distortion Guitar" Color="ffcb3c" Folder="4. Guitar" Expansion="EPSM" EpsmPatch="0" EpsmReg0="56" EpsmReg1="192" EpsmReg2="2" EpsmReg3="31" EpsmReg4="219" EpsmReg5="0" EpsmReg6="3" EpsmReg7="5" EpsmReg8="0" EpsmReg9="0" EpsmReg10="15" EpsmReg11="27" EpsmReg12="0" EpsmReg13="3" EpsmReg14="5" EpsmReg15="0" EpsmReg16="2" EpsmReg17="15" EpsmReg18="27" EpsmReg19="0" EpsmReg20="3" EpsmReg21="5" EpsmReg22="0" EpsmReg23="3" EpsmReg24="0" EpsmReg25="27" EpsmReg26="0" EpsmReg27="3" EpsmReg28="5" EpsmReg29="0" EpsmReg30="0" EPSMSquareEnvelopeShape="0" EPSMSquareEnvelopeAutoPitch="True" EPSMSquareEnvelopeAutoPitchOctave="3"
		Envelope Type="Volume" Length="1" Values="9"
	Instrument Name="32. Guitar harmonics" Color="ffcb3c" Folder="4. Guitar" Expansion="EPSM" EpsmPatch="0" EpsmReg0="2" EpsmReg1="192" EpsmReg2="2" EpsmReg3="31" EpsmReg4="11" EpsmReg5="0" EpsmReg6="3" EpsmReg7="7" EpsmReg8="0" EpsmReg9="7" EpsmReg10="0" EpsmReg11="11" EpsmReg12="0" EpsmReg13="3" EpsmReg14="7" EpsmReg15="0" EpsmReg16="3" EpsmReg17="47" EpsmReg18="11" EpsmReg19="0" EpsmReg20="3" EpsmReg21="7" EpsmReg22="0" EpsmReg23="0" EpsmReg24="15" EpsmReg25="11" EpsmReg26="0" EpsmReg27="3" EpsmReg28="7" EpsmReg29="0" EpsmReg30="8" EPSMSquareEnvelopeShape="0" EPSMSquareEnvelopeAutoPitch="True" EPSMSquareEnvelopeAutoPitchOctave="3"
	Instrument Name="33. Acoustic Bass" Color="ffe461" Folder="5. Bass" Expansion="EPSM" EpsmPatch="0" EpsmReg0="2" EpsmReg1="192" EpsmReg2="0" EpsmReg3="31" EpsmReg4="31" EpsmReg5="0" EpsmReg6="7" EpsmReg7="7" EpsmReg8="0" EpsmReg9="0" EpsmReg10="11" EpsmReg11="31" EpsmReg12="0" EpsmReg13="7" EpsmReg14="7" EpsmReg15="0" EpsmReg16="0" EpsmReg17="31" EpsmReg18="31" EpsmReg19="0" EpsmReg20="7" EpsmReg21="7" EpsmReg22="0" EpsmReg23="0" EpsmReg24="15" EpsmReg25="31" EpsmReg26="0" EpsmReg27="7" EpsmReg28="7" EpsmReg29="0" EpsmReg30="0" EPSMSquareEnvelopeShape="1" EPSMSquareEnvelopeAutoPitch="True" EPSMSquareEnvelopeAutoPitchOctave="0"
	Instrument Name="34. Electric Bass (finger)" Color="ffe461" Folder="5. Bass" Expansion="EPSM" EpsmPatch="0" EpsmReg0="0" EpsmReg1="192" EpsmReg2="0" EpsmReg3="31" EpsmReg4="31" EpsmReg5="0" EpsmReg6="7" EpsmReg7="15" EpsmReg8="0" EpsmReg9="1" EpsmReg10="63" EpsmReg11="31" EpsmReg12="0" EpsmReg13="7" EpsmReg14="15" EpsmReg15="0" EpsmReg16="0" EpsmReg17="15" EpsmReg18="31" EpsmReg19="0" EpsmReg20="7" EpsmReg21="15" EpsmReg22="0" EpsmReg23="1" EpsmReg24="15" EpsmReg25="31" EpsmReg26="0" EpsmReg27="7" EpsmReg28="15" EpsmReg29="0" EpsmReg30="0" EPSMSquareEnvelopeShape="0" EPSMSquareEnvelopeAutoPitch="True" EPSMSquareEnvelopeAutoPitchOctave="3"
	Instrument Name="35. Electric Bass (pick)" Color="ffe461" Folder="5. Bass" Expansion="EPSM" EpsmPatch="0" EpsmReg0="59" EpsmReg1="192" EpsmReg2="3" EpsmReg3="47" EpsmReg4="23" EpsmReg5="0" EpsmReg6="7" EpsmReg7="5" EpsmReg8="0" EpsmReg9="1" EpsmReg10="47" EpsmReg11="23" EpsmReg12="0" EpsmReg13="7" EpsmReg14="5" EpsmReg15="0" EpsmReg16="0" EpsmReg17="31" EpsmReg18="23" EpsmReg19="0" EpsmReg20="7" EpsmReg21="5" EpsmReg22="0" EpsmReg23="2" EpsmReg24="15" EpsmReg25="23" EpsmReg26="0" EpsmReg27="7" EpsmReg28="5" EpsmReg29="0" EpsmReg30="0" EPSMSquareEnvelopeShape="0" EPSMSquareEnvelopeAutoPitch="True" EPSMSquareEnvelopeAutoPitchOctave="0"
	Instrument Name="36. Fretless Bass" Color="ffe461" Folder="5. Bass" Expansion="EPSM" EpsmPatch="0" EpsmReg0="6" EpsmReg1="192" EpsmReg2="0" EpsmReg3="29" EpsmReg4="26" EpsmReg5="9" EpsmReg6="7" EpsmReg7="11" EpsmReg8="0" EpsmReg9="0" EpsmReg10="0" EpsmReg11="77" EpsmReg12="3" EpsmReg13="0" EpsmReg14="106" EpsmReg15="0" EpsmReg16="80" EpsmReg17="0" EpsmReg18="146" EpsmReg19="11" EpsmReg20="19" EpsmReg21="234" EpsmReg22="0" EpsmReg23="96" EpsmReg24="9" EpsmReg25="74" EpsmReg26="12" EpsmReg27="0" EpsmReg28="250" EpsmReg29="0" EpsmReg30="0" EPSMSquareEnvelopeShape="0" EPSMSquareEnvelopeAutoPitch="True" EPSMSquareEnvelopeAutoPitchOctave="3"
		Envelope Type="Volume" Length="1" Values="0"
	Instrument Name="37. Slap Bass 1" Color="ffe461" Folder="5. Bass" Expansion="EPSM" EpsmPatch="0" EpsmReg0="59" EpsmReg1="192" EpsmReg2="13" EpsmReg3="31" EpsmReg4="23" EpsmReg5="0" EpsmReg6="15" EpsmReg7="7" EpsmReg8="0" EpsmReg9="1" EpsmReg10="31" EpsmReg11="23" EpsmReg12="0" EpsmReg13="7" EpsmReg14="7" EpsmReg15="0" EpsmReg16="0" EpsmReg17="31" EpsmReg18="23" EpsmReg19="0" EpsmReg20="7" EpsmReg21="7" EpsmReg22="0" EpsmReg23="1" EpsmReg24="7" EpsmReg25="23" EpsmReg26="0" EpsmReg27="7" EpsmReg28="7" EpsmReg29="0" EpsmReg30="0" EPSMSquareEnvelopeShape="0" EPSMSquareEnvelopeAutoPitch="True" EPSMSquareEnvelopeAutoPitchOctave="0"
	Instrument Name="38. Slap Bass 2" Color="ffe461" Folder="5. Bass" Expansion="EPSM" EpsmPatch="0" EpsmReg0="32" EpsmReg1="192" EpsmReg2="63" EpsmReg3="14" EpsmReg4="159" EpsmReg5="14" EpsmReg6="6" EpsmReg7="39" EpsmReg8="0" EpsmReg9="3" EpsmReg10="56" EpsmReg11="159" EpsmReg12="15" EpsmReg13="8" EpsmReg14="39" EpsmReg15="0" EpsmReg16="0" EpsmReg17="24" EpsmReg18="95" EpsmReg19="13" EpsmReg20="8" EpsmReg21="39" EpsmReg22="0" EpsmReg23="1" EpsmReg24="0" EpsmReg25="95" EpsmReg26="7" EpsmReg27="8" EpsmReg28="23" EpsmReg29="0" EpsmReg30="0" EPSMSquareEnvelopeShape="0" EPSMSquareEnvelopeAutoPitch="True" EPSMSquareEnvelopeAutoPitchOctave="3"
		Envelope Type="Volume" Length="1" Values="0"
	Instrument Name="39. Synth Bass 1" Color="ffe461" Folder="5. Bass" Expansion="EPSM" EpsmPatch="0" EpsmReg0="32" EpsmReg1="192" EpsmReg2="54" EpsmReg3="25" EpsmReg4="223" EpsmReg5="7" EpsmReg6="7" EpsmReg7="32" EpsmReg8="0" EpsmReg9="53" EpsmReg10="55" EpsmReg11="223" EpsmReg12="6" EpsmReg13="6" EpsmReg14="22" EpsmReg15="0" EpsmReg16="48" EpsmReg17="19" EpsmReg18="159" EpsmReg19="9" EpsmReg20="6" EpsmReg21="23" EpsmReg22="0" EpsmReg23="49" EpsmReg24="0" EpsmReg25="159" EpsmReg26="6" EpsmReg27="8" EpsmReg28="246" EpsmReg29="0" EpsmReg30="0" EPSMSquareEnvelopeShape="0" EPSMSquareEnvelopeAutoPitch="True" EPSMSquareEnvelopeAutoPitchOctave="3"
		Envelope Type="Volume" Length="1" Values="0"
	Instrument Name="40. Synth Bass 2" Color="ffe461" Folder="5. Bass" Expansion="EPSM" EpsmPatch="0" EpsmReg0="61" EpsmReg1="192" EpsmReg2="68" EpsmReg3="23" EpsmReg4="85" EpsmReg5="30" EpsmReg6="12" EpsmReg7="11" EpsmReg8="0" EpsmReg9="20" EpsmReg10="0" EpsmReg11="89" EpsmReg12="30" EpsmReg13="10" EpsmReg14="10" EpsmReg15="0" EpsmReg16="2" EpsmReg17="5" EpsmReg18="84" EpsmReg19="30" EpsmReg20="9" EpsmReg21="9" EpsmReg22="0" EpsmReg23="51" EpsmReg24="24" EpsmReg25="84" EpsmReg26="30" EpsmReg27="5" EpsmReg28="137" EpsmReg29="0" EpsmReg30="0" EPSMSquareEnvelopeShape="0" EPSMSquareEnvelopeAutoPitch="True" EPSMSquareEnvelopeAutoPitchOctave="3"
		Envelope Type="Volume" Length="1" Values="0"
	Instrument Name="41. Violin" Color="dad960" Folder="6. Strings & Orchestral instruments" Expansion="EPSM" EpsmPatch="0" EpsmReg0="58" EpsmReg1="192" EpsmReg2="49" EpsmReg3="30" EpsmReg4="14" EpsmReg5="4" EpsmReg6="0" EpsmReg7="21" EpsmReg8="0" EpsmReg9="55" EpsmReg10="31" EpsmReg11="12" EpsmReg12="16" EpsmReg13="0" EpsmReg14="4" EpsmReg15="0" EpsmReg16="112" EpsmReg17="49" EpsmReg18="8" EpsmReg19="9" EpsmReg20="3" EpsmReg21="7" EpsmReg22="0" EpsmReg23="2" EpsmReg24="3" EpsmReg25="138" EpsmReg26="10" EpsmReg27="0" EpsmReg28="21" EpsmReg29="0" EpsmReg30="0" EPSMSquareEnvelopeShape="0" EPSMSquareEnvelopeAutoPitch="True" EPSMSquareEnvelopeAutoPitchOctave="3"
		Envelope Type="Volume" Length="1" Values="0"
	Instrument Name="42. Viola" Color="dad960" Folder="6. Strings & Orchestral instruments" Expansion="EPSM" EpsmPatch="0" EpsmReg0="58" EpsmReg1="192" EpsmReg2="49" EpsmReg3="30" EpsmReg4="14" EpsmReg5="4" EpsmReg6="0" EpsmReg7="21" EpsmReg8="0" EpsmReg9="52" EpsmReg10="30" EpsmReg11="12" EpsmReg12="16" EpsmReg13="0" EpsmReg14="4" EpsmReg15="0" EpsmReg16="112" EpsmReg17="61" EpsmReg18="8" EpsmReg19="9" EpsmReg20="3" EpsmReg21="7" EpsmReg22="0" EpsmReg23="2" EpsmReg24="3" EpsmReg25="138" EpsmReg26="10" EpsmReg27="0" EpsmReg28="21" EpsmReg29="0" EpsmReg30="0" EPSMSquareEnvelopeShape="0" EPSMSquareEnvelopeAutoPitch="True" EPSMSquareEnvelopeAutoPitchOctave="3"
		Envelope Type="Volume" Length="1" Values="0"
	Instrument Name="43. Cello" Color="dad960" Folder="6. Strings & Orchestral instruments" Expansion="EPSM" EpsmPatch="0" EpsmReg0="58" EpsmReg1="192" EpsmReg2="49" EpsmReg3="40" EpsmReg4="14" EpsmReg5="4" EpsmReg6="0" EpsmReg7="21" EpsmReg8="0" EpsmReg9="53" EpsmReg10="30" EpsmReg11="76" EpsmReg12="16" EpsmReg13="0" EpsmReg14="4" EpsmReg15="0" EpsmReg16="112" EpsmReg17="47" EpsmReg18="12" EpsmReg19="9" EpsmReg20="3" EpsmReg21="7" EpsmReg22="0" EpsmReg23="2" EpsmReg24="3" EpsmReg25="140" EpsmReg26="10" EpsmReg27="0" EpsmReg28="22" EpsmReg29="0" EpsmReg30="0" EPSMSquareEnvelopeShape="0" EPSMSquareEnvelopeAutoPitch="True" EPSMSquareEnvelopeAutoPitchOctave="3"
		Envelope Type="Volume" Length="1" Values="0"
	Instrument Name="44. Contrabass" Color="dad960" Folder="6. Strings & Orchestral instruments" Expansion="EPSM" EpsmPatch="0" EpsmReg0="58" EpsmReg1="192" EpsmReg2="49" EpsmReg3="43" EpsmReg4="14" EpsmReg5="4" EpsmReg6="0" EpsmReg7="21" EpsmReg8="0" EpsmReg9="52" EpsmReg10="44" EpsmReg11="12" EpsmReg12="16" EpsmReg13="0" EpsmReg14="4" EpsmReg15="0" EpsmReg16="112" EpsmReg17="31" EpsmReg18="12" EpsmReg19="9" EpsmReg20="3" EpsmReg21="7" EpsmReg22="0" EpsmReg23="2" EpsmReg24="0" EpsmReg25="140" EpsmReg26="10" EpsmReg27="0" EpsmReg28="21" EpsmReg29="0" EpsmReg30="0" EPSMSquareEnvelopeShape="0" EPSMSquareEnvelopeAutoPitch="True" EPSMSquareEnvelopeAutoPitchOctave="3"
		Envelope Type="Volume" Length="1" Values="0"
	Instrument Name="45. Tremolo Strings" Color="dad960" Folder="6. Strings & Orchestral instruments" Expansion="EPSM" EpsmPatch="0" EpsmReg0="60" EpsmReg1="192" EpsmReg2="49" EpsmReg3="21" EpsmReg4="204" EpsmReg5="129" EpsmReg6="0" EpsmReg7="19" EpsmReg8="0" EpsmReg9="1" EpsmReg10="6" EpsmReg11="11" EpsmReg12="10" EpsmReg13="0" EpsmReg14="38" EpsmReg15="0" EpsmReg16="1" EpsmReg17="19" EpsmReg18="137" EpsmReg19="11" EpsmReg20="0" EpsmReg21="68" EpsmReg22="0" EpsmReg23="1" EpsmReg24="0" EpsmReg25="10" EpsmReg26="10" EpsmReg27="0" EpsmReg28="23" EpsmReg29="0" EpsmReg30="0" EPSMSquareEnvelopeShape="0" EPSMSquareEnvelopeAutoPitch="True" EPSMSquareEnvelopeAutoPitchOctave="3"
		Envelope Type="Volume" Length="1" Values="0"
	Instrument Name="46. Pizzicato Strings" Color="dad960" Folder="6. Strings & Orchestral instruments" Expansion="EPSM" EpsmPatch="0" EpsmReg0="53" EpsmReg1="192" EpsmReg2="20" EpsmReg3="0" EpsmReg4="209" EpsmReg5="20" EpsmReg6="11" EpsmReg7="167" EpsmReg8="0" EpsmReg9="17" EpsmReg10="0" EpsmReg11="78" EpsmReg12="20" EpsmReg13="21" EpsmReg14="247" EpsmReg15="0" EpsmReg16="18" EpsmReg17="1" EpsmReg18="81" EpsmReg19="12" EpsmReg20="20" EpsmReg21="246" EpsmReg22="0" EpsmReg23="17" EpsmReg24="5" EpsmReg25="81" EpsmReg26="10" EpsmReg27="17" EpsmReg28="197" EpsmReg29="0" EpsmReg30="0" EPSMSquareEnvelopeShape="0" EPSMSquareEnvelopeAutoPitch="True" EPSMSquareEnvelopeAutoPitchOctave="3"
		Envelope Type="Volume" Length="1" Values="0"
	Instrument Name="47. Orchestral Harp" Color="dad960" Folder="6. Strings & Orchestral instruments" Expansion="EPSM" EpsmPatch="0" EpsmReg0="4" EpsmReg1="192" EpsmReg2="2" EpsmReg3="27" EpsmReg4="31" EpsmReg5="10" EpsmReg6="0" EpsmReg7="20" EpsmReg8="0" EpsmReg9="17" EpsmReg10="0" EpsmReg11="31" EpsmReg12="14" EpsmReg13="5" EpsmReg14="100" EpsmReg15="0" EpsmReg16="81" EpsmReg17="127" EpsmReg18="95" EpsmReg19="10" EpsmReg20="2" EpsmReg21="116" EpsmReg22="0" EpsmReg23="80" EpsmReg24="127" EpsmReg25="78" EpsmReg26="11" EpsmReg27="2" EpsmReg28="244" EpsmReg29="0" EpsmReg30="0" EPSMSquareEnvelopeShape="0" EPSMSquareEnvelopeAutoPitch="True" EPSMSquareEnvelopeAutoPitchOctave="3"
		Envelope Type="Volume" Length="1" Values="0"
	Instrument Name="48. Timpani" Color="dad960" Folder="6. Strings & Orchestral instruments" Expansion="EPSM" EpsmPatch="0" EpsmReg0="12" EpsmReg1="192" EpsmReg2="0" EpsmReg3="10" EpsmReg4="82" EpsmReg5="14" EpsmReg6="0" EpsmReg7="245" EpsmReg8="0" EpsmReg9="1" EpsmReg10="0" EpsmReg11="31" EpsmReg12="8" EpsmReg13="0" EpsmReg14="244" EpsmReg15="0" EpsmReg16="1" EpsmReg17="0" EpsmReg18="31" EpsmReg19="12" EpsmReg20="0" EpsmReg21="248" EpsmReg22="0" EpsmReg23="2" EpsmReg24="34" EpsmReg25="15" EpsmReg26="12" EpsmReg27="0" EpsmReg28="253" EpsmReg29="0" EpsmReg30="0" EPSMSquareEnvelopeShape="0" EPSMSquareEnvelopeAutoPitch="True" EPSMSquareEnvelopeAutoPitchOctave="3"
		Envelope Type="Volume" Length="1" Values="0"
	Instrument Name="49. String Ensembles 1" Color="91c76b" Folder="7. Ensemble" Expansion="EPSM" EpsmPatch="0" EpsmReg0="59" EpsmReg1="192" EpsmReg2="2" EpsmReg3="31" EpsmReg4="11" EpsmReg5="0" EpsmReg6="3" EpsmReg7="7" EpsmReg8="0" EpsmReg9="1" EpsmReg10="31" EpsmReg11="11" EpsmReg12="0" EpsmReg13="3" EpsmReg14="7" EpsmReg15="0" EpsmReg16="1" EpsmReg17="47" EpsmReg18="11" EpsmReg19="0" EpsmReg20="3" EpsmReg21="7" EpsmReg22="0" EpsmReg23="1" EpsmReg24="21" EpsmReg25="13" EpsmReg26="0" EpsmReg27="3" EpsmReg28="7" EpsmReg29="0" EpsmReg30="0" EPSMSquareEnvelopeShape="0" EPSMSquareEnvelopeAutoPitch="True" EPSMSquareEnvelopeAutoPitchOctave="3"
	Instrument Name="50. String Ensembles 2" Color="91c76b" Folder="7. Ensemble" Expansion="EPSM" EpsmPatch="0" EpsmReg0="59" EpsmReg1="192" EpsmReg2="2" EpsmReg3="31" EpsmReg4="7" EpsmReg5="0" EpsmReg6="3" EpsmReg7="3" EpsmReg8="0" EpsmReg9="1" EpsmReg10="31" EpsmReg11="7" EpsmReg12="0" EpsmReg13="3" EpsmReg14="3" EpsmReg15="0" EpsmReg16="4" EpsmReg17="47" EpsmReg18="7" EpsmReg19="0" EpsmReg20="3" EpsmReg21="3" EpsmReg22="0" EpsmReg23="1" EpsmReg24="21" EpsmReg25="7" EpsmReg26="0" EpsmReg27="3" EpsmReg28="3" EpsmReg29="0" EpsmReg30="0" EPSMSquareEnvelopeShape="0" EPSMSquareEnvelopeAutoPitch="True" EPSMSquareEnvelopeAutoPitchOctave="3"
	Instrument Name="51. SynthStrings 1" Color="91c76b" Folder="7. Ensemble" Expansion="EPSM" EpsmPatch="0" EpsmReg0="50" EpsmReg1="192" EpsmReg2="48" EpsmReg3="35" EpsmReg4="5" EpsmReg5="4" EpsmReg6="0" EpsmReg7="6" EpsmReg8="0" EpsmReg9="52" EpsmReg10="52" EpsmReg11="133" EpsmReg12="3" EpsmReg13="0" EpsmReg14="165" EpsmReg15="0" EpsmReg16="0" EpsmReg17="32" EpsmReg18="12" EpsmReg19="1" EpsmReg20="3" EpsmReg21="116" EpsmReg22="0" EpsmReg23="0" EpsmReg24="0" EpsmReg25="69" EpsmReg26="138" EpsmReg27="0" EpsmReg28="4" EpsmReg29="0" EpsmReg30="0" EPSMSquareEnvelopeShape="0" EPSMSquareEnvelopeAutoPitch="True" EPSMSquareEnvelopeAutoPitchOctave="3"
		Envelope Type="Volume" Length="1" Values="0"
	Instrument Name="52. SynthStrings 2" Color="91c76b" Folder="7. Ensemble" Expansion="EPSM" EpsmPatch="0" EpsmReg0="52" EpsmReg1="192" EpsmReg2="17" EpsmReg3="21" EpsmReg4="24" EpsmReg5="130" EpsmReg6="0" EpsmReg7="98" EpsmReg8="0" EpsmReg9="1" EpsmReg10="24" EpsmReg11="7" EpsmReg12="0" EpsmReg13="0" EpsmReg14="5" EpsmReg15="0" EpsmReg16="49" EpsmReg17="28" EpsmReg18="24" EpsmReg19="129" EpsmReg20="0" EpsmReg21="178" EpsmReg22="0" EpsmReg23="1" EpsmReg24="2" EpsmReg25="7" EpsmReg26="0" EpsmReg27="0" EpsmReg28="5" EpsmReg29="0" EpsmReg30="0" EPSMSquareEnvelopeShape="0" EPSMSquareEnvelopeAutoPitch="True" EPSMSquareEnvelopeAutoPitchOctave="3"
		Envelope Type="Volume" Length="1" Values="0"
	Instrument Name="53. Choir Aahs" Color="91c76b" Folder="7. Ensemble" Expansion="EPSM" EpsmPatch="0" EpsmReg0="4" EpsmReg1="192" EpsmReg2="48" EpsmReg3="42" EpsmReg4="78" EpsmReg5="128" EpsmReg6="0" EpsmReg7="81" EpsmReg8="0" EpsmReg9="48" EpsmReg10="5" EpsmReg11="76" EpsmReg12="128" EpsmReg13="0" EpsmReg14="5" EpsmReg15="0" EpsmReg16="112" EpsmReg17="30" EpsmReg18="138" EpsmReg19="0" EpsmReg20="0" EpsmReg21="81" EpsmReg22="0" EpsmReg23="112" EpsmReg24="2" EpsmReg25="137" EpsmReg26="128" EpsmReg27="0" EpsmReg28="5" EpsmReg29="0" EpsmReg30="0" EPSMSquareEnvelopeShape="0" EPSMSquareEnvelopeAutoPitch="True" EPSMSquareEnvelopeAutoPitchOctave="3"
		Envelope Type="Volume" Length="1" Values="0"
	Instrument Name="54. Voice Oohs" Color="91c76b" Folder="7. Ensemble" Expansion="EPSM" EpsmPatch="0" EpsmReg0="52" EpsmReg1="192" EpsmReg2="117" EpsmReg3="0" EpsmReg4="18" EpsmReg5="10" EpsmReg6="3" EpsmReg7="21" EpsmReg8="0" EpsmReg9="3" EpsmReg10="37" EpsmReg11="84" EpsmReg12="10" EpsmReg13="2" EpsmReg14="101" EpsmReg15="0" EpsmReg16="49" EpsmReg17="14" EpsmReg18="144" EpsmReg19="13" EpsmReg20="5" EpsmReg21="37" EpsmReg22="0" EpsmReg23="1" EpsmReg24="0" EpsmReg25="75" EpsmReg26="132" EpsmReg27="0" EpsmReg28="24" EpsmReg29="0" EpsmReg30="0" EPSMSquareEnvelopeShape="0" EPSMSquareEnvelopeAutoPitch="True" EPSMSquareEnvelopeAutoPitchOctave="3"
		Envelope Type="Volume" Length="1" Values="0"
	Instrument Name="55. Synth Voice" Color="91c76b" Folder="7. Ensemble" Expansion="EPSM" EpsmPatch="0" EpsmReg0="32" EpsmReg1="192" EpsmReg2="58" EpsmReg3="76" EpsmReg4="78" EpsmReg5="128" EpsmReg6="0" EpsmReg7="81" EpsmReg8="0" EpsmReg9="55" EpsmReg10="51" EpsmReg11="76" EpsmReg12="128" EpsmReg13="0" EpsmReg14="5" EpsmReg15="0" EpsmReg16="112" EpsmReg17="46" EpsmReg18="138" EpsmReg19="0" EpsmReg20="0" EpsmReg21="81" EpsmReg22="0" EpsmReg23="112" EpsmReg24="0" EpsmReg25="137" EpsmReg26="128" EpsmReg27="0" EpsmReg28="5" EpsmReg29="0" EpsmReg30="0" EPSMSquareEnvelopeShape="0" EPSMSquareEnvelopeAutoPitch="True" EPSMSquareEnvelopeAutoPitchOctave="3"
		Envelope Type="Volume" Length="1" Values="0"
	Instrument Name="56. Orchestra Hit" Color="91c76b" Folder="7. Ensemble" Expansion="EPSM" EpsmPatch="0" EpsmReg0="56" EpsmReg1="192" EpsmReg2="0" EpsmReg3="19" EpsmReg4="77" EpsmReg5="13" EpsmReg6="0" EpsmReg7="245" EpsmReg8="0" EpsmReg9="1" EpsmReg10="17" EpsmReg11="21" EpsmReg12="9" EpsmReg13="0" EpsmReg14="243" EpsmReg15="0" EpsmReg16="1" EpsmReg17="21" EpsmReg18="15" EpsmReg19="5" EpsmReg20="0" EpsmReg21="242" EpsmReg22="0" EpsmReg23="2" EpsmReg24="0" EpsmReg25="79" EpsmReg26="10" EpsmReg27="0" EpsmReg28="245" EpsmReg29="0" EpsmReg30="0" EPSMSquareEnvelopeShape="0" EPSMSquareEnvelopeAutoPitch="True" EPSMSquareEnvelopeAutoPitchOctave="3"
		Envelope Type="Volume" Length="1" Values="0"
	Instrument Name="57. Trumpet" Color="6ab96e" Folder="8. Brass" Expansion="EPSM" EpsmPatch="0" EpsmReg0="60" EpsmReg1="192" EpsmReg2="1" EpsmReg3="29" EpsmReg4="15" EpsmReg5="0" EpsmReg6="3" EpsmReg7="7" EpsmReg8="0" EpsmReg9="1" EpsmReg10="15" EpsmReg11="15" EpsmReg12="0" EpsmReg13="3" EpsmReg14="7" EpsmReg15="0" EpsmReg16="1" EpsmReg17="31" EpsmReg18="15" EpsmReg19="0" EpsmReg20="3" EpsmReg21="7" EpsmReg22="0" EpsmReg23="1" EpsmReg24="5" EpsmReg25="15" EpsmReg26="0" EpsmReg27="3" EpsmReg28="7" EpsmReg29="0" EpsmReg30="0" EPSMSquareEnvelopeShape="0" EPSMSquareEnvelopeAutoPitch="True" EPSMSquareEnvelopeAutoPitchOctave="3"
	Instrument Name="58. Trombone" Color="6ab96e" Folder="8. Brass" Expansion="EPSM" EpsmPatch="0" EpsmReg0="59" EpsmReg1="192" EpsmReg2="1" EpsmReg3="47" EpsmReg4="15" EpsmReg5="0" EpsmReg6="0" EpsmReg7="7" EpsmReg8="0" EpsmReg9="0" EpsmReg10="23" EpsmReg11="15" EpsmReg12="0" EpsmReg13="0" EpsmReg14="7" EpsmReg15="0" EpsmReg16="1" EpsmReg17="47" EpsmReg18="15" EpsmReg19="0" EpsmReg20="0" EpsmReg21="7" EpsmReg22="0" EpsmReg23="0" EpsmReg24="9" EpsmReg25="15" EpsmReg26="0" EpsmReg27="0" EpsmReg28="7" EpsmReg29="0" EpsmReg30="0" EPSMSquareEnvelopeShape="0" EPSMSquareEnvelopeAutoPitch="True" EPSMSquareEnvelopeAutoPitchOctave="3"
	Instrument Name="59. Tuba" Color="6ab96e" Folder="8. Brass" Expansion="EPSM" EpsmPatch="0" EpsmReg0="59" EpsmReg1="192" EpsmReg2="1" EpsmReg3="31" EpsmReg4="15" EpsmReg5="0" EpsmReg6="0" EpsmReg7="0" EpsmReg8="0" EpsmReg9="1" EpsmReg10="47" EpsmReg11="15" EpsmReg12="0" EpsmReg13="0" EpsmReg14="0" EpsmReg15="0" EpsmReg16="0" EpsmReg17="15" EpsmReg18="15" EpsmReg19="0" EpsmReg20="0" EpsmReg21="0" EpsmReg22="0" EpsmReg23="2" EpsmReg24="15" EpsmReg25="15" EpsmReg26="0" EpsmReg27="0" EpsmReg28="7" EpsmReg29="0" EpsmReg30="0" EPSMSquareEnvelopeShape="0" EPSMSquareEnvelopeAutoPitch="True" EPSMSquareEnvelopeAutoPitchOctave="3"
	Instrument Name="60. Muted Trumpet" Color="6ab96e" Folder="8. Brass" Expansion="EPSM" EpsmPatch="0" EpsmReg0="61" EpsmReg1="192" EpsmReg2="18" EpsmReg3="21" EpsmReg4="143" EpsmReg5="14" EpsmReg6="1" EpsmReg7="19" EpsmReg8="0" EpsmReg9="2" EpsmReg10="31" EpsmReg11="13" EpsmReg12="11" EpsmReg13="0" EpsmReg14="253" EpsmReg15="0" EpsmReg16="2" EpsmReg17="74" EpsmReg18="15" EpsmReg19="14" EpsmReg20="0" EpsmReg21="24" EpsmReg22="0" EpsmReg23="2" EpsmReg24="0" EpsmReg25="15" EpsmReg26="13" EpsmReg27="0" EpsmReg28="14" EpsmReg29="0" EpsmReg30="0" EPSMSquareEnvelopeShape="0" EPSMSquareEnvelopeAutoPitch="True" EPSMSquareEnvelopeAutoPitchOctave="3"
		Envelope Type="Volume" Length="1" Values="0"
	Instrument Name="61. French Horn" Color="6ab96e" Folder="8. Brass" Expansion="EPSM" EpsmPatch="0" EpsmReg0="60" EpsmReg1="192" EpsmReg2="1" EpsmReg3="34" EpsmReg4="135" EpsmReg5="4" EpsmReg6="0" EpsmReg7="54" EpsmReg8="0" EpsmReg9="1" EpsmReg10="0" EpsmReg11="148" EpsmReg12="0" EpsmReg13="0" EpsmReg14="5" EpsmReg15="0" EpsmReg16="0" EpsmReg17="127" EpsmReg18="0" EpsmReg19="0" EpsmReg20="0" EpsmReg21="0" EpsmReg22="0" EpsmReg23="0" EpsmReg24="127" EpsmReg25="0" EpsmReg26="0" EpsmReg27="0" EpsmReg28="0" EpsmReg29="0" EpsmReg30="0" EPSMSquareEnvelopeShape="0" EPSMSquareEnvelopeAutoPitch="True" EPSMSquareEnvelopeAutoPitchOctave="3"
		Envelope Type="Volume" Length="1" Values="0"
	Instrument Name="62. Brass Section" Color="6ab96e" Folder="8. Brass" Expansion="EPSM" EpsmPatch="0" EpsmReg0="61" EpsmReg1="192" EpsmReg2="1" EpsmReg3="31" EpsmReg4="15" EpsmReg5="0" EpsmReg6="7" EpsmReg7="7" EpsmReg8="0" EpsmReg9="0" EpsmReg10="31" EpsmReg11="16" EpsmReg12="0" EpsmReg13="7" EpsmReg14="7" EpsmReg15="0" EpsmReg16="7" EpsmReg17="47" EpsmReg18="16" EpsmReg19="0" EpsmReg20="7" EpsmReg21="7" EpsmReg22="0" EpsmReg23="1" EpsmReg24="15" EpsmReg25="15" EpsmReg26="0" EpsmReg27="7" EpsmReg28="7" EpsmReg29="0" EpsmReg30="0" EPSMSquareEnvelopeShape="0" EPSMSquareEnvelopeAutoPitch="True" EPSMSquareEnvelopeAutoPitchOctave="3"
	Instrument Name="63. Synth Brass 1" Color="6ab96e" Folder="8. Brass" Expansion="EPSM" EpsmPatch="0" EpsmReg0="50" EpsmReg1="192" EpsmReg2="1" EpsmReg3="20" EpsmReg4="20" EpsmReg5="6" EpsmReg6="0" EpsmReg7="246" EpsmReg8="0" EpsmReg9="49" EpsmReg10="28" EpsmReg11="31" EpsmReg12="0" EpsmReg13="0" EpsmReg14="13" EpsmReg15="0" EpsmReg16="113" EpsmReg17="42" EpsmReg18="31" EpsmReg19="0" EpsmReg20="0" EpsmReg21="12" EpsmReg22="0" EpsmReg23="1" EpsmReg24="0" EpsmReg25="14" EpsmReg26="0" EpsmReg27="0" EpsmReg28="7" EpsmReg29="0" EpsmReg30="0" EPSMSquareEnvelopeShape="0" EPSMSquareEnvelopeAutoPitch="True" EPSMSquareEnvelopeAutoPitchOctave="3"
		Envelope Type="Volume" Length="1" Values="0"
	Instrument Name="64. Synth Brass 2" Color="6ab96e" Folder="8. Brass" Expansion="EPSM" EpsmPatch="0" EpsmReg0="58" EpsmReg1="192" EpsmReg2="49" EpsmReg3="30" EpsmReg4="15" EpsmReg5="4" EpsmReg6="0" EpsmReg7="25" EpsmReg8="0" EpsmReg9="55" EpsmReg10="31" EpsmReg11="15" EpsmReg12="16" EpsmReg13="0" EpsmReg14="8" EpsmReg15="0" EpsmReg16="114" EpsmReg17="55" EpsmReg18="15" EpsmReg19="9" EpsmReg20="3" EpsmReg21="8" EpsmReg22="0" EpsmReg23="2" EpsmReg24="0" EpsmReg25="143" EpsmReg26="10" EpsmReg27="0" EpsmReg28="22" EpsmReg29="0" EpsmReg30="0" EPSMSquareEnvelopeShape="0" EPSMSquareEnvelopeAutoPitch="True" EPSMSquareEnvelopeAutoPitchOctave="3"
		Envelope Type="Volume" Length="1" Values="0"
	Instrument Name="65. Soprano Sax" Color="3ca598" Folder="9. Reed" Expansion="EPSM" EpsmPatch="0" EpsmReg0="53" EpsmReg1="192" EpsmReg2="33" EpsmReg3="32" EpsmReg4="78" EpsmReg5="0" EpsmReg6="1" EpsmReg7="72" EpsmReg8="0" EpsmReg9="50" EpsmReg10="13" EpsmReg11="73" EpsmReg12="5" EpsmReg13="2" EpsmReg14="54" EpsmReg15="0" EpsmReg16="32" EpsmReg17="14" EpsmReg18="73" EpsmReg19="0" EpsmReg20="2" EpsmReg21="23" EpsmReg22="0" EpsmReg23="18" EpsmReg24="0" EpsmReg25="138" EpsmReg26="128" EpsmReg27="2" EpsmReg28="8" EpsmReg29="0" EpsmReg30="0" EPSMSquareEnvelopeShape="0" EPSMSquareEnvelopeAutoPitch="True" EPSMSquareEnvelopeAutoPitchOctave="3"
		Envelope Type="Volume" Length="1" Values="0"
	Instrument Name="66. Alto Sax" Color="3ca598" Folder="9. Reed" Expansion="EPSM" EpsmPatch="0" EpsmReg0="53" EpsmReg1="192" EpsmReg2="33" EpsmReg3="26" EpsmReg4="142" EpsmReg5="0" EpsmReg6="1" EpsmReg7="72" EpsmReg8="0" EpsmReg9="49" EpsmReg10="5" EpsmReg11="138" EpsmReg12="5" EpsmReg13="2" EpsmReg14="54" EpsmReg15="0" EpsmReg16="32" EpsmReg17="11" EpsmReg18="81" EpsmReg19="0" EpsmReg20="2" EpsmReg21="23" EpsmReg22="0" EpsmReg23="20" EpsmReg24="4" EpsmReg25="139" EpsmReg26="128" EpsmReg27="2" EpsmReg28="8" EpsmReg29="0" EpsmReg30="0" EPSMSquareEnvelopeShape="0" EPSMSquareEnvelopeAutoPitch="True" EPSMSquareEnvelopeAutoPitchOctave="3"
		Envelope Type="Volume" Length="1" Values="0"
	Instrument Name="67. Tenor Sax" Color="3ca598" Folder="9. Reed" Expansion="EPSM" EpsmPatch="0" EpsmReg0="53" EpsmReg1="192" EpsmReg2="33" EpsmReg3="30" EpsmReg4="142" EpsmReg5="0" EpsmReg6="1" EpsmReg7="72" EpsmReg8="0" EpsmReg9="49" EpsmReg10="5" EpsmReg11="138" EpsmReg12="5" EpsmReg13="2" EpsmReg14="54" EpsmReg15="0" EpsmReg16="32" EpsmReg17="10" EpsmReg18="81" EpsmReg19="0" EpsmReg20="2" EpsmReg21="23" EpsmReg22="0" EpsmReg23="18" EpsmReg24="4" EpsmReg25="139" EpsmReg26="128" EpsmReg27="2" EpsmReg28="8" EpsmReg29="0" EpsmReg30="0" EPSMSquareEnvelopeShape="0" EPSMSquareEnvelopeAutoPitch="True" EPSMSquareEnvelopeAutoPitchOctave="3"
		Envelope Type="Volume" Length="1" Values="0"
	Instrument Name="68. Baritone Sax" Color="3ca598" Folder="9. Reed" Expansion="EPSM" EpsmPatch="0" EpsmReg0="53" EpsmReg1="192" EpsmReg2="33" EpsmReg3="23" EpsmReg4="142" EpsmReg5="0" EpsmReg6="1" EpsmReg7="72" EpsmReg8="0" EpsmReg9="49" EpsmReg10="5" EpsmReg11="142" EpsmReg12="5" EpsmReg13="2" EpsmReg14="54" EpsmReg15="0" EpsmReg16="32" EpsmReg17="10" EpsmReg18="145" EpsmReg19="0" EpsmReg20="2" EpsmReg21="23" EpsmReg22="0" EpsmReg23="19" EpsmReg24="4" EpsmReg25="145" EpsmReg26="128" EpsmReg27="2" EpsmReg28="8" EpsmReg29="0" EpsmReg30="0" EPSMSquareEnvelopeShape="0" EPSMSquareEnvelopeAutoPitch="True" EPSMSquareEnvelopeAutoPitchOctave="3"
		Envelope Type="Volume" Length="1" Values="0"
	Instrument Name="69. Oboe" Color="3ca598" Folder="9. Reed" Expansion="EPSM" EpsmPatch="0" EpsmReg0="56" EpsmReg1="192" EpsmReg2="1" EpsmReg3="39" EpsmReg4="24" EpsmReg5="151" EpsmReg6="0" EpsmReg7="10" EpsmReg8="0" EpsmReg9="1" EpsmReg10="30" EpsmReg11="16" EpsmReg12="159" EpsmReg13="0" EpsmReg14="10" EpsmReg15="0" EpsmReg16="1" EpsmReg17="40" EpsmReg18="22" EpsmReg19="31" EpsmReg20="0" EpsmReg21="10" EpsmReg22="0" EpsmReg23="4" EpsmReg24="0" EpsmReg25="24" EpsmReg26="31" EpsmReg27="0" EpsmReg28="10" EpsmReg29="0" EpsmReg30="0" EPSMSquareEnvelopeShape="0" EPSMSquareEnvelopeAutoPitch="True" EPSMSquareEnvelopeAutoPitchOctave="3"
		Envelope Type="Volume" Length="1" Values="0"
	Instrument Name="70. English Horn" Color="3ca598" Folder="9. Reed" Expansion="EPSM" EpsmPatch="0" EpsmReg0="56" EpsmReg1="192" EpsmReg2="1" EpsmReg3="38" EpsmReg4="24" EpsmReg5="151" EpsmReg6="0" EpsmReg7="10" EpsmReg8="0" EpsmReg9="1" EpsmReg10="30" EpsmReg11="16" EpsmReg12="159" EpsmReg13="0" EpsmReg14="10" EpsmReg15="0" EpsmReg16="1" EpsmReg17="40" EpsmReg18="22" EpsmReg19="31" EpsmReg20="0" EpsmReg21="10" EpsmReg22="0" EpsmReg23="2" EpsmReg24="0" EpsmReg25="13" EpsmReg26="31" EpsmReg27="0" EpsmReg28="8" EpsmReg29="0" EpsmReg30="0" EPSMSquareEnvelopeShape="0" EPSMSquareEnvelopeAutoPitch="True" EPSMSquareEnvelopeAutoPitchOctave="3"
		Envelope Type="Volume" Length="1" Values="0"
	Instrument Name="71. Bassoon" Color="3ca598" Folder="9. Reed" Expansion="EPSM" EpsmPatch="0" EpsmReg0="56" EpsmReg1="192" EpsmReg2="0" EpsmReg3="39" EpsmReg4="3" EpsmReg5="151" EpsmReg6="0" EpsmReg7="12" EpsmReg8="0" EpsmReg9="1" EpsmReg10="35" EpsmReg11="15" EpsmReg12="159" EpsmReg13="0" EpsmReg14="12" EpsmReg15="0" EpsmReg16="0" EpsmReg17="36" EpsmReg18="31" EpsmReg19="31" EpsmReg20="0" EpsmReg21="12" EpsmReg22="0" EpsmReg23="2" EpsmReg24="0" EpsmReg25="16" EpsmReg26="31" EpsmReg27="0" EpsmReg28="12" EpsmReg29="0" EpsmReg30="0" EPSMSquareEnvelopeShape="0" EPSMSquareEnvelopeAutoPitch="True" EPSMSquareEnvelopeAutoPitchOctave="3"
		Envelope Type="Volume" Length="1" Values="0"
	Instrument Name="72. Clarinet" Color="3ca598" Folder="9. Reed" Expansion="EPSM" EpsmPatch="0" EpsmReg0="56" EpsmReg1="192" EpsmReg2="2" EpsmReg3="31" EpsmReg4="15" EpsmReg5="0" EpsmReg6="0" EpsmReg7="0" EpsmReg8="0" EpsmReg9="1" EpsmReg10="31" EpsmReg11="15" EpsmReg12="0" EpsmReg13="0" EpsmReg14="0" EpsmReg15="0" EpsmReg16="2" EpsmReg17="63" EpsmReg18="15" EpsmReg19="0" EpsmReg20="0" EpsmReg21="0" EpsmReg22="0" EpsmReg23="0" EpsmReg24="15" EpsmReg25="15" EpsmReg26="0" EpsmReg27="0" EpsmReg28="7" EpsmReg29="0" EpsmReg30="0" EPSMSquareEnvelopeShape="0" EPSMSquareEnvelopeAutoPitch="True" EPSMSquareEnvelopeAutoPitchOctave="3"
		Envelope Type="Volume" Length="1" Values="0"
	Instrument Name="73. Piccolo" Color="3cbfcb" Folder="10. Pipe" Expansion="EPSM" EpsmPatch="0" EpsmReg0="23" EpsmReg1="192" EpsmReg2="50" EpsmReg3="0" EpsmReg4="200" EpsmReg5="0" EpsmReg6="0" EpsmReg7="8" EpsmReg8="0" EpsmReg9="114" EpsmReg10="6" EpsmReg11="136" EpsmReg12="8" EpsmReg13="0" EpsmReg14="120" EpsmReg15="0" EpsmReg16="50" EpsmReg17="17" EpsmReg18="140" EpsmReg19="140" EpsmReg20="10" EpsmReg21="200" EpsmReg22="0" EpsmReg23="18" EpsmReg24="11" EpsmReg25="200" EpsmReg26="141" EpsmReg27="0" EpsmReg28="120" EpsmReg29="0" EpsmReg30="0" EPSMSquareEnvelopeShape="0" EPSMSquareEnvelopeAutoPitch="True" EPSMSquareEnvelopeAutoPitchOctave="3"
		Envelope Type="Volume" Length="1" Values="0"
	Instrument Name="74. Flute" Color="3cbfcb" Folder="10. Pipe" Expansion="EPSM" EpsmPatch="0" EpsmReg0="58" EpsmReg1="192" EpsmReg2="1" EpsmReg3="48" EpsmReg4="15" EpsmReg5="0" EpsmReg6="7" EpsmReg7="7" EpsmReg8="0" EpsmReg9="1" EpsmReg10="31" EpsmReg11="15" EpsmReg12="0" EpsmReg13="7" EpsmReg14="7" EpsmReg15="0" EpsmReg16="2" EpsmReg17="47" EpsmReg18="15" EpsmReg19="0" EpsmReg20="7" EpsmReg21="7" EpsmReg22="0" EpsmReg23="0" EpsmReg24="15" EpsmReg25="15" EpsmReg26="0" EpsmReg27="7" EpsmReg28="7" EpsmReg29="0" EpsmReg30="0" EPSMSquareEnvelopeShape="0" EPSMSquareEnvelopeAutoPitch="True" EPSMSquareEnvelopeAutoPitchOctave="3"
	Instrument Name="75. Recorder" Color="3cbfcb" Folder="10. Pipe" Expansion="EPSM" EpsmPatch="0" EpsmReg0="59" EpsmReg1="192" EpsmReg2="113" EpsmReg3="8" EpsmReg4="82" EpsmReg5="14" EpsmReg6="3" EpsmReg7="101" EpsmReg8="0" EpsmReg9="2" EpsmReg10="55" EpsmReg11="81" EpsmReg12="16" EpsmReg13="2" EpsmReg14="85" EpsmReg15="0" EpsmReg16="50" EpsmReg17="36" EpsmReg18="139" EpsmReg19="4" EpsmReg20="0" EpsmReg21="37" EpsmReg22="0" EpsmReg23="2" EpsmReg24="0" EpsmReg25="79" EpsmReg26="132" EpsmReg27="0" EpsmReg28="8" EpsmReg29="0" EpsmReg30="0" EPSMSquareEnvelopeShape="0" EPSMSquareEnvelopeAutoPitch="True" EPSMSquareEnvelopeAutoPitchOctave="3"
		Envelope Type="Volume" Length="1" Values="0"
	Instrument Name="76. Pan Flute" Color="3cbfcb" Folder="10. Pipe" Expansion="EPSM" EpsmPatch="0" EpsmReg0="52" EpsmReg1="192" EpsmReg2="117" EpsmReg3="0" EpsmReg4="18" EpsmReg5="10" EpsmReg6="0" EpsmReg7="21" EpsmReg8="0" EpsmReg9="3" EpsmReg10="49" EpsmReg11="84" EpsmReg12="12" EpsmReg13="0" EpsmReg14="21" EpsmReg15="0" EpsmReg16="50" EpsmReg17="19" EpsmReg18="144" EpsmReg19="13" EpsmReg20="0" EpsmReg21="69" EpsmReg22="0" EpsmReg23="1" EpsmReg24="0" EpsmReg25="76" EpsmReg26="132" EpsmReg27="0" EpsmReg28="24" EpsmReg29="0" EpsmReg30="0" EPSMSquareEnvelopeShape="0" EPSMSquareEnvelopeAutoPitch="True" EPSMSquareEnvelopeAutoPitchOctave="3"
		Envelope Type="Volume" Length="1" Values="0"
	Instrument Name="77. Blown Bottle" Color="3cbfcb" Folder="10. Pipe" Expansion="EPSM" EpsmPatch="0" EpsmReg0="60" EpsmReg1="192" EpsmReg2="117" EpsmReg3="0" EpsmReg4="18" EpsmReg5="10" EpsmReg6="0" EpsmReg7="21" EpsmReg8="0" EpsmReg9="3" EpsmReg10="41" EpsmReg11="89" EpsmReg12="13" EpsmReg13="0" EpsmReg14="53" EpsmReg15="0" EpsmReg16="50" EpsmReg17="24" EpsmReg18="140" EpsmReg19="141" EpsmReg20="0" EpsmReg21="85" EpsmReg22="0" EpsmReg23="1" EpsmReg24="0" EpsmReg25="76" EpsmReg26="132" EpsmReg27="0" EpsmReg28="37" EpsmReg29="0" EpsmReg30="0" EPSMSquareEnvelopeShape="0" EPSMSquareEnvelopeAutoPitch="True" EPSMSquareEnvelopeAutoPitchOctave="3"
		Envelope Type="Volume" Length="1" Values="0"
	Instrument Name="78. Shakuhachi" Color="3cbfcb" Folder="10. Pipe" Expansion="EPSM" EpsmPatch="0" EpsmReg0="2" EpsmReg1="195" EpsmReg2="1" EpsmReg3="31" EpsmReg4="15" EpsmReg5="0" EpsmReg6="15" EpsmReg7="7" EpsmReg8="0" EpsmReg9="1" EpsmReg10="15" EpsmReg11="15" EpsmReg12="0" EpsmReg13="7" EpsmReg14="7" EpsmReg15="0" EpsmReg16="2" EpsmReg17="47" EpsmReg18="199" EpsmReg19="0" EpsmReg20="7" EpsmReg21="7" EpsmReg22="0" EpsmReg23="0" EpsmReg24="15" EpsmReg25="15" EpsmReg26="0" EpsmReg27="7" EpsmReg28="7" EpsmReg29="0" EpsmReg30="8" EPSMSquareEnvelopeShape="0" EPSMSquareEnvelopeAutoPitch="True" EPSMSquareEnvelopeAutoPitchOctave="3"
	Instrument Name="79. Whistle" Color="3cbfcb" Folder="10. Pipe" Expansion="EPSM" EpsmPatch="0" EpsmReg0="23" EpsmReg1="192" EpsmReg2="49" EpsmReg3="0" EpsmReg4="14" EpsmReg5="128" EpsmReg6="0" EpsmReg7="8" EpsmReg8="0" EpsmReg9="1" EpsmReg10="0" EpsmReg11="135" EpsmReg12="2" EpsmReg13="0" EpsmReg14="120" EpsmReg15="0" EpsmReg16="49" EpsmReg17="127" EpsmReg18="128" EpsmReg19="0" EpsmReg20="0" EpsmReg21="72" EpsmReg22="0" EpsmReg23="18" EpsmReg24="127" EpsmReg25="192" EpsmReg26="0" EpsmReg27="0" EpsmReg28="8" EpsmReg29="0" EpsmReg30="0" EPSMSquareEnvelopeShape="0" EPSMSquareEnvelopeAutoPitch="True" EPSMSquareEnvelopeAutoPitchOctave="3"
		Envelope Type="Volume" Length="1" Values="0"
	Instrument Name="80. Ocarina" Color="3cbfcb" Folder="10. Pipe" Expansion="EPSM" EpsmPatch="0" EpsmReg0="52" EpsmReg1="192" EpsmReg2="117" EpsmReg3="0" EpsmReg4="18" EpsmReg5="10" EpsmReg6="3" EpsmReg7="21" EpsmReg8="0" EpsmReg9="3" EpsmReg10="49" EpsmReg11="84" EpsmReg12="12" EpsmReg13="2" EpsmReg14="104" EpsmReg15="0" EpsmReg16="50" EpsmReg17="41" EpsmReg18="144" EpsmReg19="13" EpsmReg20="0" EpsmReg21="69" EpsmReg22="0" EpsmReg23="1" EpsmReg24="0" EpsmReg25="76" EpsmReg26="132" EpsmReg27="0" EpsmReg28="22" EpsmReg29="0" EpsmReg30="0" EPSMSquareEnvelopeShape="0" EPSMSquareEnvelopeAutoPitch="True" EPSMSquareEnvelopeAutoPitchOctave="3"
	Instrument Name="81. Lead 1 (square)" Color="3eb3f9" Folder="11. Synth Lead" Expansion="EPSM" EpsmPatch="0" EpsmReg0="61" EpsmReg1="192" EpsmReg2="2" EpsmReg3="27" EpsmReg4="31" EpsmReg5="0" EpsmReg6="0" EpsmReg7="3" EpsmReg8="0" EpsmReg9="3" EpsmReg10="31" EpsmReg11="31" EpsmReg12="0" EpsmReg13="0" EpsmReg14="3" EpsmReg15="0" EpsmReg16="1" EpsmReg17="31" EpsmReg18="31" EpsmReg19="0" EpsmReg20="0" EpsmReg21="3" EpsmReg22="0" EpsmReg23="3" EpsmReg24="16" EpsmReg25="31" EpsmReg26="0" EpsmReg27="0" EpsmReg28="3" EpsmReg29="0" EpsmReg30="0" EPSMSquareEnvelopeShape="0" EPSMSquareEnvelopeAutoPitch="True" EPSMSquareEnvelopeAutoPitchOctave="3"
		Envelope Type="Volume" Length="58" Loop="0" Release="1" Values="15,14,14,14,14,13,13,13,13,12,12,12,12,11,11,11,11,10,10,10,10,9,9,9,9,8,8,8,8,7,7,7,7,6,6,6,6,5,5,5,5,4,4,4,4,3,3,3,3,2,2,2,2,1,1,1,1,0"
	Instrument Name="82. Lead 2 (sawtooth)" Color="3eb3f9" Folder="11. Synth Lead" Expansion="EPSM" EpsmPatch="0" EpsmReg0="61" EpsmReg1="192" EpsmReg2="1" EpsmReg3="23" EpsmReg4="31" EpsmReg5="0" EpsmReg6="0" EpsmReg7="15" EpsmReg8="0" EpsmReg9="2" EpsmReg10="31" EpsmReg11="31" EpsmReg12="0" EpsmReg13="0" EpsmReg14="15" EpsmReg15="0" EpsmReg16="1" EpsmReg17="63" EpsmReg18="31" EpsmReg19="0" EpsmReg20="0" EpsmReg21="15" EpsmReg22="0" EpsmReg23="1" EpsmReg24="7" EpsmReg25="31" EpsmReg26="0" EpsmReg27="0" EpsmReg28="15" EpsmReg29="0" EpsmReg30="0" EPSMSquareEnvelopeShape="0" EPSMSquareEnvelopeAutoPitch="True" EPSMSquareEnvelopeAutoPitchOctave="3"
		Envelope Type="Volume" Length="58" Loop="0" Release="1" Values="15,14,14,14,14,13,13,13,13,12,12,12,12,11,11,11,11,10,10,10,10,9,9,9,9,8,8,8,8,7,7,7,7,6,6,6,6,5,5,5,5,4,4,4,4,3,3,3,3,2,2,2,2,1,1,1,1,0"
	Instrument Name="83. Lead 3 (calliope)" Color="3eb3f9" Folder="11. Synth Lead" Expansion="EPSM" EpsmPatch="0" EpsmReg0="56" EpsmReg1="243" EpsmReg2="0" EpsmReg3="63" EpsmReg4="15" EpsmReg5="0" EpsmReg6="0" EpsmReg7="15" EpsmReg8="0" EpsmReg9="0" EpsmReg10="31" EpsmReg11="15" EpsmReg12="0" EpsmReg13="0" EpsmReg14="15" EpsmReg15="0" EpsmReg16="0" EpsmReg17="47" EpsmReg18="15" EpsmReg19="0" EpsmReg20="0" EpsmReg21="15" EpsmReg22="0" EpsmReg23="0" EpsmReg24="15" EpsmReg25="16" EpsmReg26="0" EpsmReg27="0" EpsmReg28="15" EpsmReg29="0" EpsmReg30="8" EPSMSquareEnvelopeShape="0" EPSMSquareEnvelopeAutoPitch="True" EPSMSquareEnvelopeAutoPitchOctave="3"
	Instrument Name="84. Lead 4 (chiff)" Color="3eb3f9" Folder="11. Synth Lead" Expansion="EPSM" EpsmPatch="0" EpsmReg0="58" EpsmReg1="243" EpsmReg2="5" EpsmReg3="63" EpsmReg4="15" EpsmReg5="0" EpsmReg6="0" EpsmReg7="7" EpsmReg8="0" EpsmReg9="2" EpsmReg10="31" EpsmReg11="15" EpsmReg12="0" EpsmReg13="0" EpsmReg14="7" EpsmReg15="0" EpsmReg16="1" EpsmReg17="47" EpsmReg18="15" EpsmReg19="0" EpsmReg20="0" EpsmReg21="7" EpsmReg22="0" EpsmReg23="1" EpsmReg24="15" EpsmReg25="15" EpsmReg26="0" EpsmReg27="0" EpsmReg28="7" EpsmReg29="0" EpsmReg30="8" EPSMSquareEnvelopeShape="0" EPSMSquareEnvelopeAutoPitch="True" EPSMSquareEnvelopeAutoPitchOctave="3"
	Instrument Name="85. Lead 5 (charang)" Color="3eb3f9" Folder="11. Synth Lead" Expansion="EPSM" EpsmPatch="0" EpsmReg0="59" EpsmReg1="192" EpsmReg2="3" EpsmReg3="15" EpsmReg4="31" EpsmReg5="0" EpsmReg6="0" EpsmReg7="15" EpsmReg8="0" EpsmReg9="1" EpsmReg10="31" EpsmReg11="31" EpsmReg12="0" EpsmReg13="0" EpsmReg14="15" EpsmReg15="0" EpsmReg16="0" EpsmReg17="63" EpsmReg18="31" EpsmReg19="0" EpsmReg20="0" EpsmReg21="15" EpsmReg22="0" EpsmReg23="2" EpsmReg24="15" EpsmReg25="31" EpsmReg26="0" EpsmReg27="0" EpsmReg28="15" EpsmReg29="0" EpsmReg30="0" EPSMSquareEnvelopeShape="0" EPSMSquareEnvelopeAutoPitch="True" EPSMSquareEnvelopeAutoPitchOctave="3"
	Instrument Name="86. Lead 6 (voice)" Color="3eb3f9" Folder="11. Synth Lead" Expansion="EPSM" EpsmPatch="0" EpsmReg0="62" EpsmReg1="192" EpsmReg2="2" EpsmReg3="23" EpsmReg4="15" EpsmReg5="0" EpsmReg6="0" EpsmReg7="15" EpsmReg8="0" EpsmReg9="1" EpsmReg10="31" EpsmReg11="15" EpsmReg12="0" EpsmReg13="0" EpsmReg14="15" EpsmReg15="0" EpsmReg16="1" EpsmReg17="63" EpsmReg18="15" EpsmReg19="0" EpsmReg20="0" EpsmReg21="15" EpsmReg22="0" EpsmReg23="1" EpsmReg24="15" EpsmReg25="15" EpsmReg26="0" EpsmReg27="0" EpsmReg28="15" EpsmReg29="0" EpsmReg30="0" EPSMSquareEnvelopeShape="0" EPSMSquareEnvelopeAutoPitch="True" EPSMSquareEnvelopeAutoPitchOctave="3"
	Instrument Name="87. Lead 7 (fifths)" Color="3eb3f9" Folder="11. Synth Lead" Expansion="EPSM" EpsmPatch="0" EpsmReg0="59" EpsmReg1="192" EpsmReg2="2" EpsmReg3="23" EpsmReg4="31" EpsmReg5="0" EpsmReg6="0" EpsmReg7="15" EpsmReg8="0" EpsmReg9="1" EpsmReg10="31" EpsmReg11="31" EpsmReg12="0" EpsmReg13="0" EpsmReg14="15" EpsmReg15="0" EpsmReg16="1" EpsmReg17="62" EpsmReg18="31" EpsmReg19="0" EpsmReg20="0" EpsmReg21="15" EpsmReg22="0" EpsmReg23="1" EpsmReg24="15" EpsmReg25="31" EpsmReg26="0" EpsmReg27="0" EpsmReg28="15" EpsmReg29="0" EpsmReg30="0" EPSMSquareEnvelopeShape="0" EPSMSquareEnvelopeAutoPitch="True" EPSMSquareEnvelopeAutoPitchOctave="3"
	Instrument Name="88. Lead 8 (bass + lead)" Color="3eb3f9" Folder="11. Synth Lead" Expansion="EPSM" EpsmPatch="0" EpsmReg0="61" EpsmReg1="192" EpsmReg2="1" EpsmReg3="23" EpsmReg4="15" EpsmReg5="7" EpsmReg6="0" EpsmReg7="127" EpsmReg8="0" EpsmReg9="2" EpsmReg10="31" EpsmReg11="31" EpsmReg12="3" EpsmReg13="0" EpsmReg14="63" EpsmReg15="0" EpsmReg16="1" EpsmReg17="63" EpsmReg18="15" EpsmReg19="7" EpsmReg20="0" EpsmReg21="127" EpsmReg22="0" EpsmReg23="1" EpsmReg24="15" EpsmReg25="31" EpsmReg26="3" EpsmReg27="0" EpsmReg28="63" EpsmReg29="0" EpsmReg30="0" EPSMSquareEnvelopeShape="0" EPSMSquareEnvelopeAutoPitch="True" EPSMSquareEnvelopeAutoPitchOctave="3"
	Instrument Name="89. Pad 1 (new age)" Color="51a1fc" Folder="12. Synth Pad" Expansion="EPSM" EpsmPatch="0" EpsmReg0="12" EpsmReg1="192" EpsmReg2="7" EpsmReg3="25" EpsmReg4="12" EpsmReg5="11" EpsmReg6="6" EpsmReg7="117" EpsmReg8="0" EpsmReg9="8" EpsmReg10="14" EpsmReg11="31" EpsmReg12="7" EpsmReg13="0" EpsmReg14="244" EpsmReg15="0" EpsmReg16="49" EpsmReg17="33" EpsmReg18="132" EpsmReg19="2" EpsmReg20="0" EpsmReg21="34" EpsmReg22="0" EpsmReg23="1" EpsmReg24="0" EpsmReg25="12" EpsmReg26="5" EpsmReg27="0" EpsmReg28="21" EpsmReg29="0" EpsmReg30="0" EPSMSquareEnvelopeShape="0" EPSMSquareEnvelopeAutoPitch="True" EPSMSquareEnvelopeAutoPitchOctave="3"
		Envelope Type="Volume" Length="1" Values="0"
	Instrument Name="90. Pad 2 (warm)" Color="51a1fc" Folder="12. Synth Pad" Expansion="EPSM" EpsmPatch="0" EpsmReg0="7" EpsmReg1="192" EpsmReg2="0" EpsmReg3="15" EpsmReg4="197" EpsmReg5="0" EpsmReg6="0" EpsmReg7="3" EpsmReg8="0" EpsmReg9="0" EpsmReg10="15" EpsmReg11="5" EpsmReg12="0" EpsmReg13="0" EpsmReg14="5" EpsmReg15="0" EpsmReg16="48" EpsmReg17="15" EpsmReg18="69" EpsmReg19="0" EpsmReg20="0" EpsmReg21="5" EpsmReg22="0" EpsmReg23="48" EpsmReg24="15" EpsmReg25="5" EpsmReg26="0" EpsmReg27="0" EpsmReg28="5" EpsmReg29="0" EpsmReg30="0" EPSMSquareEnvelopeShape="0" EPSMSquareEnvelopeAutoPitch="True" EPSMSquareEnvelopeAutoPitchOctave="3"
		Envelope Type="Volume" Length="1" Values="0"
	Instrument Name="91. Pad 3 (polysynth)" Color="51a1fc" Folder="12. Synth Pad" Expansion="EPSM" EpsmPatch="0" EpsmReg0="60" EpsmReg1="192" EpsmReg2="49" EpsmReg3="26" EpsmReg4="82" EpsmReg5="8" EpsmReg6="4" EpsmReg7="22" EpsmReg8="0" EpsmReg9="82" EpsmReg10="3" EpsmReg11="80" EpsmReg12="0" EpsmReg13="0" EpsmReg14="5" EpsmReg15="0" EpsmReg16="80" EpsmReg17="22" EpsmReg18="84" EpsmReg19="8" EpsmReg20="4" EpsmReg21="21" EpsmReg22="0" EpsmReg23="48" EpsmReg24="5" EpsmReg25="82" EpsmReg26="0" EpsmReg27="0" EpsmReg28="4" EpsmReg29="0" EpsmReg30="0" EPSMSquareEnvelopeShape="0" EPSMSquareEnvelopeAutoPitch="True" EPSMSquareEnvelopeAutoPitchOctave="3"
		Envelope Type="Volume" Length="1" Values="0"
	Instrument Name="92. Pad 4 (choir)" Color="51a1fc" Folder="12. Synth Pad" Expansion="EPSM" EpsmPatch="0" EpsmReg0="5" EpsmReg1="192" EpsmReg2="0" EpsmReg3="34" EpsmReg4="78" EpsmReg5="128" EpsmReg6="0" EpsmReg7="82" EpsmReg8="0" EpsmReg9="0" EpsmReg10="5" EpsmReg11="76" EpsmReg12="128" EpsmReg13="0" EpsmReg14="4" EpsmReg15="0" EpsmReg16="0" EpsmReg17="17" EpsmReg18="138" EpsmReg19="0" EpsmReg20="0" EpsmReg21="83" EpsmReg22="0" EpsmReg23="0" EpsmReg24="5" EpsmReg25="137" EpsmReg26="128" EpsmReg27="0" EpsmReg28="3" EpsmReg29="0" EpsmReg30="0" EPSMSquareEnvelopeShape="0" EPSMSquareEnvelopeAutoPitch="True" EPSMSquareEnvelopeAutoPitchOctave="3"
		Envelope Type="Volume" Length="1" Values="0"
	Instrument Name="93. Pad 5 (bowed)" Color="51a1fc" Folder="12. Synth Pad" Expansion="EPSM" EpsmPatch="0" EpsmReg0="28" EpsmReg1="192" EpsmReg2="6" EpsmReg3="26" EpsmReg4="201" EpsmReg5="3" EpsmReg6="1" EpsmReg7="97" EpsmReg8="0" EpsmReg9="1" EpsmReg10="6" EpsmReg11="135" EpsmReg12="6" EpsmReg13="2" EpsmReg14="114" EpsmReg15="0" EpsmReg16="5" EpsmReg17="35" EpsmReg18="8" EpsmReg19="9" EpsmReg20="0" EpsmReg21="243" EpsmReg22="0" EpsmReg23="2" EpsmReg24="29" EpsmReg25="8" EpsmReg26="6" EpsmReg27="0" EpsmReg28="243" EpsmReg29="0" EpsmReg30="0" EPSMSquareEnvelopeShape="0" EPSMSquareEnvelopeAutoPitch="True" EPSMSquareEnvelopeAutoPitchOctave="3"
		Envelope Type="Volume" Length="1" Values="0"
	Instrument Name="94. Pad 6 (metallic)" Color="51a1fc" Folder="12. Synth Pad" Expansion="EPSM" EpsmPatch="0" EpsmReg0="60" EpsmReg1="192" EpsmReg2="49" EpsmReg3="28" EpsmReg4="203" EpsmReg5="11" EpsmReg6="0" EpsmReg7="1" EpsmReg8="0" EpsmReg9="9" EpsmReg10="14" EpsmReg11="3" EpsmReg12="3" EpsmReg13="0" EpsmReg14="165" EpsmReg15="0" EpsmReg16="1" EpsmReg17="22" EpsmReg18="139" EpsmReg19="131" EpsmReg20="0" EpsmReg21="17" EpsmReg22="0" EpsmReg23="2" EpsmReg24="11" EpsmReg25="3" EpsmReg26="1" EpsmReg27="0" EpsmReg28="229" EpsmReg29="0" EpsmReg30="0" EPSMSquareEnvelopeShape="0" EPSMSquareEnvelopeAutoPitch="True" EPSMSquareEnvelopeAutoPitchOctave="3"
		Envelope Type="Volume" Length="1" Values="0"
	Instrument Name="95. Pad 7 (halo)" Color="51a1fc" Folder="12. Synth Pad" Expansion="EPSM" EpsmPatch="0" EpsmReg0="44" EpsmReg1="192" EpsmReg2="33" EpsmReg3="12" EpsmReg4="65" EpsmReg5="6" EpsmReg6="0" EpsmReg7="84" EpsmReg8="0" EpsmReg9="1" EpsmReg10="3" EpsmReg11="8" EpsmReg12="135" EpsmReg13="0" EpsmReg14="53" EpsmReg15="0" EpsmReg16="113" EpsmReg17="0" EpsmReg18="66" EpsmReg19="6" EpsmReg20="1" EpsmReg21="84" EpsmReg22="0" EpsmReg23="1" EpsmReg24="22" EpsmReg25="8" EpsmReg26="135" EpsmReg27="0" EpsmReg28="53" EpsmReg29="0" EpsmReg30="0" EPSMSquareEnvelopeShape="0" EPSMSquareEnvelopeAutoPitch="True" EPSMSquareEnvelopeAutoPitchOctave="3"
		Envelope Type="Volume" Length="1" Values="0"
	Instrument Name="96. Pad 8 (sweep)" Color="51a1fc" Folder="12. Synth Pad" Expansion="EPSM" EpsmPatch="0" EpsmReg0="44" EpsmReg1="192" EpsmReg2="34" EpsmReg3="22" EpsmReg4="2" EpsmReg5="6" EpsmReg6="0" EpsmReg7="84" EpsmReg8="0" EpsmReg9="1" EpsmReg10="3" EpsmReg11="22" EpsmReg12="135" EpsmReg13="0" EpsmReg14="53" EpsmReg15="0" EpsmReg16="117" EpsmReg17="24" EpsmReg18="2" EpsmReg19="10" EpsmReg20="5" EpsmReg21="84" EpsmReg22="0" EpsmReg23="2" EpsmReg24="19" EpsmReg25="8" EpsmReg26="135" EpsmReg27="0" EpsmReg28="53" EpsmReg29="0" EpsmReg30="0" EPSMSquareEnvelopeShape="0" EPSMSquareEnvelopeAutoPitch="True" EPSMSquareEnvelopeAutoPitchOctave="3"
		Envelope Type="Volume" Length="1" Values="0"
	Instrument Name="97. FX 1 (rain)" Color="6471cf" Folder="13. Synth SFX" Expansion="EPSM" EpsmPatch="0" EpsmReg0="44" EpsmReg1="192" EpsmReg2="17" EpsmReg3="30" EpsmReg4="22" EpsmReg5="128" EpsmReg6="0" EpsmReg7="2" EpsmReg8="0" EpsmReg9="1" EpsmReg10="0" EpsmReg11="31" EpsmReg12="0" EpsmReg13="2" EpsmReg14="4" EpsmReg15="0" EpsmReg16="0" EpsmReg17="127" EpsmReg18="0" EpsmReg19="0" EpsmReg20="0" EpsmReg21="0" EpsmReg22="0" EpsmReg23="0" EpsmReg24="127" EpsmReg25="0" EpsmReg26="0" EpsmReg27="0" EpsmReg28="0" EpsmReg29="0" EpsmReg30="3" EPSMSquareEnvelopeShape="0" EPSMSquareEnvelopeAutoPitch="True" EPSMSquareEnvelopeAutoPitchOctave="3"
		Envelope Type="Volume" Length="1" Values="0"
	Instrument Name="98. FX 2 (soundtrack)" Color="6471cf" Folder="13. Synth SFX" Expansion="EPSM" EpsmPatch="0" EpsmReg0="44" EpsmReg1="192" EpsmReg2="51" EpsmReg3="30" EpsmReg4="4" EpsmReg5="6" EpsmReg6="4" EpsmReg7="243" EpsmReg8="0" EpsmReg9="83" EpsmReg10="0" EpsmReg11="17" EpsmReg12="3" EpsmReg13="0" EpsmReg14="35" EpsmReg15="0" EpsmReg16="82" EpsmReg17="30" EpsmReg18="2" EpsmReg19="6" EpsmReg20="4" EpsmReg21="244" EpsmReg22="0" EpsmReg23="50" EpsmReg24="0" EpsmReg25="10" EpsmReg26="3" EpsmReg27="0" EpsmReg28="36" EpsmReg29="0" EpsmReg30="0" EPSMSquareEnvelopeShape="0" EPSMSquareEnvelopeAutoPitch="True" EPSMSquareEnvelopeAutoPitchOctave="3"
		Envelope Type="Volume" Length="1" Values="0"
	Instrument Name="99. FX 3 (crystal)" Color="6471cf" Folder="13. Synth SFX" Expansion="EPSM" EpsmPatch="0" EpsmReg0="60" EpsmReg1="192" EpsmReg2="69" EpsmReg3="55" EpsmReg4="31" EpsmReg5="13" EpsmReg6="4" EpsmReg7="117" EpsmReg8="0" EpsmReg9="114" EpsmReg10="2" EpsmReg11="31" EpsmReg12="8" EpsmReg13="7" EpsmReg14="102" EpsmReg15="0" EpsmReg16="4" EpsmReg17="43" EpsmReg18="26" EpsmReg19="19" EpsmReg20="7" EpsmReg21="37" EpsmReg22="0" EpsmReg23="50" EpsmReg24="0" EpsmReg25="24" EpsmReg26="8" EpsmReg27="7" EpsmReg28="35" EpsmReg29="0" EpsmReg30="0" EPSMSquareEnvelopeShape="0" EPSMSquareEnvelopeAutoPitch="True" EPSMSquareEnvelopeAutoPitchOctave="3"
		Envelope Type="Volume" Length="1" Values="0"
	Instrument Name="100. FX 4 (atmosphere)" Color="6471cf" Folder="13. Synth SFX" Expansion="EPSM" EpsmPatch="0" EpsmReg0="52" EpsmReg1="192" EpsmReg2="114" EpsmReg3="23" EpsmReg4="150" EpsmReg5="1" EpsmReg6="0" EpsmReg7="84" EpsmReg8="0" EpsmReg9="49" EpsmReg10="5" EpsmReg11="159" EpsmReg12="132" EpsmReg13="0" EpsmReg14="68" EpsmReg15="0" EpsmReg16="17" EpsmReg17="49" EpsmReg18="22" EpsmReg19="4" EpsmReg20="5" EpsmReg21="5" EpsmReg22="0" EpsmReg23="81" EpsmReg24="16" EpsmReg25="13" EpsmReg26="9" EpsmReg27="6" EpsmReg28="86" EpsmReg29="0" EpsmReg30="0" EPSMSquareEnvelopeShape="0" EPSMSquareEnvelopeAutoPitch="True" EPSMSquareEnvelopeAutoPitchOctave="3"
		Envelope Type="Volume" Length="1" Values="0"
	Instrument Name="101. FX 5 (brightness)" Color="6471cf" Folder="13. Synth SFX" Expansion="EPSM" EpsmPatch="0" EpsmReg0="3" EpsmReg1="192" EpsmReg2="50" EpsmReg3="40" EpsmReg4="146" EpsmReg5="129" EpsmReg6="4" EpsmReg7="81" EpsmReg8="0" EpsmReg9="83" EpsmReg10="43" EpsmReg11="95" EpsmReg12="0" EpsmReg13="0" EpsmReg14="5" EpsmReg15="0" EpsmReg16="85" EpsmReg17="39" EpsmReg18="84" EpsmReg19="8" EpsmReg20="4" EpsmReg21="20" EpsmReg22="0" EpsmReg23="50" EpsmReg24="6" EpsmReg25="95" EpsmReg26="0" EpsmReg27="0" EpsmReg28="4" EpsmReg29="0" EpsmReg30="0" EPSMSquareEnvelopeShape="0" EPSMSquareEnvelopeAutoPitch="True" EPSMSquareEnvelopeAutoPitchOctave="3"
		Envelope Type="Volume" Length="1" Values="0"
	Instrument Name="102. FX 6 (goblins)" Color="6471cf" Folder="13. Synth SFX" Expansion="EPSM" EpsmPatch="0" EpsmReg0="44" EpsmReg1="192" EpsmReg2="33" EpsmReg3="18" EpsmReg4="2" EpsmReg5="6" EpsmReg6="0" EpsmReg7="82" EpsmReg8="0" EpsmReg9="1" EpsmReg10="19" EpsmReg11="66" EpsmReg12="135" EpsmReg13="0" EpsmReg14="50" EpsmReg15="0" EpsmReg16="113" EpsmReg17="0" EpsmReg18="1" EpsmReg19="129" EpsmReg20="1" EpsmReg21="2" EpsmReg22="0" EpsmReg23="1" EpsmReg24="22" EpsmReg25="2" EpsmReg26="7" EpsmReg27="0" EpsmReg28="50" EpsmReg29="0" EpsmReg30="0" EPSMSquareEnvelopeShape="0" EPSMSquareEnvelopeAutoPitch="True" EPSMSquareEnvelopeAutoPitchOctave="3"
		Envelope Type="Volume" Length="1" Values="0"
	Instrument Name="103. FX 7 (echoes)" Color="6471cf" Folder="13. Synth SFX" Expansion="EPSM" EpsmPatch="0" EpsmReg0="20" EpsmReg1="192" EpsmReg2="50" EpsmReg3="41" EpsmReg4="78" EpsmReg5="128" EpsmReg6="0" EpsmReg7="83" EpsmReg8="0" EpsmReg9="2" EpsmReg10="5" EpsmReg11="78" EpsmReg12="128" EpsmReg13="0" EpsmReg14="4" EpsmReg15="0" EpsmReg16="1" EpsmReg17="45" EpsmReg18="138" EpsmReg19="0" EpsmReg20="0" EpsmReg21="83" EpsmReg22="0" EpsmReg23="113" EpsmReg24="5" EpsmReg25="146" EpsmReg26="128" EpsmReg27="0" EpsmReg28="3" EpsmReg29="0" EpsmReg30="0" EPSMSquareEnvelopeShape="0" EPSMSquareEnvelopeAutoPitch="True" EPSMSquareEnvelopeAutoPitchOctave="3"
		Envelope Type="Volume" Length="1" Values="0"
	Instrument Name="104. FX 8 (sci-fi)" Color="6471cf" Folder="13. Synth SFX" Expansion="EPSM" EpsmPatch="0" EpsmReg0="24" EpsmReg1="192" EpsmReg2="49" EpsmReg3="34" EpsmReg4="148" EpsmReg5="1" EpsmReg6="0" EpsmReg7="36" EpsmReg8="0" EpsmReg9="104" EpsmReg10="36" EpsmReg11="159" EpsmReg12="1" EpsmReg13="0" EpsmReg14="36" EpsmReg15="0" EpsmReg16="35" EpsmReg17="34" EpsmReg18="159" EpsmReg19="2" EpsmReg20="0" EpsmReg21="68" EpsmReg22="0" EpsmReg23="1" EpsmReg24="4" EpsmReg25="15" EpsmReg26="128" EpsmReg27="0" EpsmReg28="36" EpsmReg29="0" EpsmReg30="0" EPSMSquareEnvelopeShape="0" EPSMSquareEnvelopeAutoPitch="True" EPSMSquareEnvelopeAutoPitchOctave="3"
		Envelope Type="Volume" Length="1" Values="0"
	Instrument Name="105. Sitar" Color="8163dc" Folder="14. Ethnic Misc." Expansion="EPSM" EpsmPatch="0" EpsmReg0="59" EpsmReg1="243" EpsmReg2="0" EpsmReg3="31" EpsmReg4="11" EpsmReg5="0" EpsmReg6="3" EpsmReg7="7" EpsmReg8="0" EpsmReg9="1" EpsmReg10="15" EpsmReg11="11" EpsmReg12="0" EpsmReg13="3" EpsmReg14="7" EpsmReg15="0" EpsmReg16="1" EpsmReg17="31" EpsmReg18="11" EpsmReg19="0" EpsmReg20="3" EpsmReg21="7" EpsmReg22="0" EpsmReg23="0" EpsmReg24="11" EpsmReg25="11" EpsmReg26="0" EpsmReg27="3" EpsmReg28="7" EpsmReg29="0" EpsmReg30="8" EPSMSquareEnvelopeShape="0" EPSMSquareEnvelopeAutoPitch="True" EPSMSquareEnvelopeAutoPitchOctave="3"
	Instrument Name="106. Banjo" Color="8163dc" Folder="14. Ethnic Misc." Expansion="EPSM" EpsmPatch="0" EpsmReg0="50" EpsmReg1="192" EpsmReg2="54" EpsmReg3="25" EpsmReg4="79" EpsmReg5="20" EpsmReg6="8" EpsmReg7="25" EpsmReg8="0" EpsmReg9="33" EpsmReg10="69" EpsmReg11="95" EpsmReg12="15" EpsmReg13="23" EpsmReg14="24" EpsmReg15="0" EpsmReg16="82" EpsmReg17="23" EpsmReg18="92" EpsmReg19="9" EpsmReg20="1" EpsmReg21="16" EpsmReg22="0" EpsmReg23="50" EpsmReg24="0" EpsmReg25="19" EpsmReg26="25" EpsmReg27="9" EpsmReg28="23" EpsmReg29="0" EpsmReg30="0" EPSMSquareEnvelopeShape="0" EPSMSquareEnvelopeAutoPitch="True" EPSMSquareEnvelopeAutoPitchOctave="3"
		Envelope Type="Volume" Length="1" Values="0"
	Instrument Name="107. Shamisen" Color="8163dc" Folder="14. Ethnic Misc." Expansion="EPSM" EpsmPatch="0" EpsmReg0="56" EpsmReg1="192" EpsmReg2="5" EpsmReg3="27" EpsmReg4="159" EpsmReg5="14" EpsmReg6="0" EpsmReg7="248" EpsmReg8="0" EpsmReg9="2" EpsmReg10="34" EpsmReg11="159" EpsmReg12="14" EpsmReg13="0" EpsmReg14="226" EpsmReg15="0" EpsmReg16="1" EpsmReg17="24" EpsmReg18="95" EpsmReg19="5" EpsmReg20="0" EpsmReg21="228" EpsmReg22="0" EpsmReg23="6" EpsmReg24="0" EpsmReg25="95" EpsmReg26="7" EpsmReg27="0" EpsmReg28="245" EpsmReg29="0" EpsmReg30="0" EPSMSquareEnvelopeShape="0" EPSMSquareEnvelopeAutoPitch="True" EPSMSquareEnvelopeAutoPitchOctave="3"
		Envelope Type="Volume" Length="1" Values="0"
	Instrument Name="108. Koto" Color="8163dc" Folder="14. Ethnic Misc." Expansion="EPSM" EpsmPatch="0" EpsmReg0="36" EpsmReg1="192" EpsmReg2="83" EpsmReg3="23" EpsmReg4="155" EpsmReg5="8" EpsmReg6="4" EpsmReg7="51" EpsmReg8="0" EpsmReg9="1" EpsmReg10="0" EpsmReg11="88" EpsmReg12="22" EpsmReg13="4" EpsmReg14="34" EpsmReg15="0" EpsmReg16="19" EpsmReg17="28" EpsmReg18="155" EpsmReg19="136" EpsmReg20="8" EpsmReg21="50" EpsmReg22="0" EpsmReg23="3" EpsmReg24="12" EpsmReg25="24" EpsmReg26="22" EpsmReg27="8" EpsmReg28="20" EpsmReg29="0" EpsmReg30="0" EPSMSquareEnvelopeShape="0" EPSMSquareEnvelopeAutoPitch="True" EPSMSquareEnvelopeAutoPitchOctave="3"
		Envelope Type="Volume" Length="1" Values="0"
	Instrument Name="109. Kalimba" Color="8163dc" Folder="14. Ethnic Misc." Expansion="EPSM" EpsmPatch="0" EpsmReg0="54" EpsmReg1="192" EpsmReg2="116" EpsmReg3="23" EpsmReg4="84" EpsmReg5="149" EpsmReg6="21" EpsmReg7="119" EpsmReg8="0" EpsmReg9="113" EpsmReg10="0" EpsmReg11="20" EpsmReg12="128" EpsmReg13="10" EpsmReg14="5" EpsmReg15="0" EpsmReg16="100" EpsmReg17="21" EpsmReg18="93" EpsmReg19="13" EpsmReg20="7" EpsmReg21="85" EpsmReg22="0" EpsmReg23="116" EpsmReg24="19" EpsmReg25="20" EpsmReg26="12" EpsmReg27="9" EpsmReg28="69" EpsmReg29="0" EpsmReg30="0" EPSMSquareEnvelopeShape="0" EPSMSquareEnvelopeAutoPitch="True" EPSMSquareEnvelopeAutoPitchOctave="3"
		Envelope Type="Volume" Length="1" Values="0"
	Instrument Name="110. BagPipe" Color="8163dc" Folder="14. Ethnic Misc." Expansion="EPSM" EpsmPatch="0" EpsmReg0="24" EpsmReg1="192" EpsmReg2="1" EpsmReg3="11" EpsmReg4="142" EpsmReg5="16" EpsmReg6="0" EpsmReg7="54" EpsmReg8="0" EpsmReg9="4" EpsmReg10="39" EpsmReg11="9" EpsmReg12="0" EpsmReg13="0" EpsmReg14="13" EpsmReg15="0" EpsmReg16="0" EpsmReg17="28" EpsmReg18="14" EpsmReg19="0" EpsmReg20="0" EpsmReg21="53" EpsmReg22="0" EpsmReg23="2" EpsmReg24="8" EpsmReg25="140" EpsmReg26="0" EpsmReg27="0" EpsmReg28="13" EpsmReg29="0" EpsmReg30="0" EPSMSquareEnvelopeShape="0" EPSMSquareEnvelopeAutoPitch="True" EPSMSquareEnvelopeAutoPitchOctave="3"
		Envelope Type="Volume" Length="1" Values="0"
	Instrument Name="111. Fiddle" Color="8163dc" Folder="14. Ethnic Misc." Expansion="EPSM" EpsmPatch="0" EpsmReg0="58" EpsmReg1="192" EpsmReg2="49" EpsmReg3="29" EpsmReg4="14" EpsmReg5="4" EpsmReg6="0" EpsmReg7="21" EpsmReg8="0" EpsmReg9="55" EpsmReg10="31" EpsmReg11="12" EpsmReg12="16" EpsmReg13="0" EpsmReg14="4" EpsmReg15="0" EpsmReg16="112" EpsmReg17="55" EpsmReg18="8" EpsmReg19="9" EpsmReg20="3" EpsmReg21="7" EpsmReg22="0" EpsmReg23="2" EpsmReg24="3" EpsmReg25="138" EpsmReg26="10" EpsmReg27="0" EpsmReg28="21" EpsmReg29="0" EpsmReg30="0" EPSMSquareEnvelopeShape="0" EPSMSquareEnvelopeAutoPitch="True" EPSMSquareEnvelopeAutoPitchOctave="3"
		Envelope Type="Volume" Length="1" Values="0"
	Instrument Name="112. Shanai" Color="8163dc" Folder="14. Ethnic Misc." Expansion="EPSM" EpsmPatch="0" EpsmReg0="56" EpsmReg1="192" EpsmReg2="1" EpsmReg3="39" EpsmReg4="24" EpsmReg5="151" EpsmReg6="0" EpsmReg7="10" EpsmReg8="0" EpsmReg9="1" EpsmReg10="30" EpsmReg11="16" EpsmReg12="159" EpsmReg13="0" EpsmReg14="10" EpsmReg15="0" EpsmReg16="1" EpsmReg17="40" EpsmReg18="22" EpsmReg19="31" EpsmReg20="0" EpsmReg21="10" EpsmReg22="0" EpsmReg23="4" EpsmReg24="0" EpsmReg25="24" EpsmReg26="31" EpsmReg27="0" EpsmReg28="10" EpsmReg29="0" EpsmReg30="0" EPSMSquareEnvelopeShape="0" EPSMSquareEnvelopeAutoPitch="True" EPSMSquareEnvelopeAutoPitchOctave="3"
		Envelope Type="Volume" Length="1" Values="0"
	Instrument Name="113. Tinkle Bell" Color="a657d6" Folder="15. Percuissive" Expansion="EPSM" EpsmPatch="0" EpsmReg0="7" EpsmReg1="192" EpsmReg2="51" EpsmReg3="25" EpsmReg4="212" EpsmReg5="4" EpsmReg6="4" EpsmReg7="3" EpsmReg8="0" EpsmReg9="114" EpsmReg10="16" EpsmReg11="214" EpsmReg12="3" EpsmReg13="8" EpsmReg14="83" EpsmReg15="0" EpsmReg16="50" EpsmReg17="17" EpsmReg18="20" EpsmReg19="5" EpsmReg20="6" EpsmReg21="3" EpsmReg22="0" EpsmReg23="115" EpsmReg24="0" EpsmReg25="150" EpsmReg26="7" EpsmReg27="7" EpsmReg28="179" EpsmReg29="0" EpsmReg30="0" EPSMSquareEnvelopeShape="0" EPSMSquareEnvelopeAutoPitch="True" EPSMSquareEnvelopeAutoPitchOctave="3"
		Envelope Type="Volume" Length="1" Values="0"
	Instrument Name="114. Agogo" Color="a657d6" Folder="15. Percuissive" Expansion="EPSM" EpsmPatch="0" EpsmReg0="60" EpsmReg1="192" EpsmReg2="3" EpsmReg3="13" EpsmReg4="159" EpsmReg5="16" EpsmReg6="16" EpsmReg7="134" EpsmReg8="0" EpsmReg9="12" EpsmReg10="0" EpsmReg11="31" EpsmReg12="12" EpsmReg13="12" EpsmReg14="166" EpsmReg15="0" EpsmReg16="0" EpsmReg17="127" EpsmReg18="0" EpsmReg19="0" EpsmReg20="0" EpsmReg21="0" EpsmReg22="0" EpsmReg23="0" EpsmReg24="127" EpsmReg25="0" EpsmReg26="0" EpsmReg27="0" EpsmReg28="0" EpsmReg29="0" EpsmReg30="0" EPSMSquareEnvelopeShape="0" EPSMSquareEnvelopeAutoPitch="True" EPSMSquareEnvelopeAutoPitchOctave="3"
		Envelope Type="Volume" Length="1" Values="0"
	Instrument Name="115. Steel Drums" Color="a657d6" Folder="15. Percuissive" Expansion="EPSM" EpsmPatch="0" EpsmReg0="12" EpsmReg1="192" EpsmReg2="28" EpsmReg3="65" EpsmReg4="12" EpsmReg5="18" EpsmReg6="0" EpsmReg7="86" EpsmReg8="0" EpsmReg9="113" EpsmReg10="0" EpsmReg11="26" EpsmReg12="9" EpsmReg13="0" EpsmReg14="245" EpsmReg15="0" EpsmReg16="53" EpsmReg17="34" EpsmReg18="12" EpsmReg19="14" EpsmReg20="7" EpsmReg21="134" EpsmReg22="0" EpsmReg23="113" EpsmReg24="0" EpsmReg25="26" EpsmReg26="11" EpsmReg27="0" EpsmReg28="245" EpsmReg29="0" EpsmReg30="0" EPSMSquareEnvelopeShape="0" EPSMSquareEnvelopeAutoPitch="True" EPSMSquareEnvelopeAutoPitchOctave="3"
		Envelope Type="Volume" Length="1" Values="0"
	Instrument Name="116. Woodblock" Color="a657d6" Folder="15. Percuissive" Expansion="EPSM" EpsmPatch="0" EpsmReg0="60" EpsmReg1="192" EpsmReg2="23" EpsmReg3="20" EpsmReg4="31" EpsmReg5="22" EpsmReg6="22" EpsmReg7="200" EpsmReg8="0" EpsmReg9="21" EpsmReg10="0" EpsmReg11="31" EpsmReg12="18" EpsmReg13="28" EpsmReg14="184" EpsmReg15="0" EpsmReg16="30" EpsmReg17="10" EpsmReg18="223" EpsmReg19="25" EpsmReg20="12" EpsmReg21="232" EpsmReg22="0" EpsmReg23="25" EpsmReg24="5" EpsmReg25="223" EpsmReg26="20" EpsmReg27="13" EpsmReg28="24" EpsmReg29="0" EpsmReg30="0" EPSMSquareEnvelopeShape="0" EPSMSquareEnvelopeAutoPitch="True" EPSMSquareEnvelopeAutoPitchOctave="3"
		Envelope Type="Volume" Length="1" Values="0"
	Instrument Name="117. Taiko Drum" Color="a657d6" Folder="15. Percuissive" Expansion="EPSM" EpsmPatch="0" EpsmReg0="30" EpsmReg1="192" EpsmReg2="0" EpsmReg3="6" EpsmReg4="159" EpsmReg5="18" EpsmReg6="18" EpsmReg7="7" EpsmReg8="0" EpsmReg9="1" EpsmReg10="4" EpsmReg11="159" EpsmReg12="16" EpsmReg13="16" EpsmReg14="11" EpsmReg15="0" EpsmReg16="0" EpsmReg17="12" EpsmReg18="31" EpsmReg19="16" EpsmReg20="16" EpsmReg21="3" EpsmReg22="0" EpsmReg23="0" EpsmReg24="3" EpsmReg25="31" EpsmReg26="8" EpsmReg27="12" EpsmReg28="147" EpsmReg29="0" EpsmReg30="0" EPSMSquareEnvelopeShape="0" EPSMSquareEnvelopeAutoPitch="True" EPSMSquareEnvelopeAutoPitchOctave="3"
		Envelope Type="Volume" Length="58" Values="15,14,14,14,14,13,13,13,13,12,12,12,12,11,11,11,11,10,10,10,10,9,9,9,9,8,8,8,8,7,7,7,7,6,6,6,6,5,5,5,5,4,4,4,4,3,3,3,3,2,2,2,2,1,1,1,1,0"
		Envelope Type="MixerSettings" Length="1" Values="1"
	Instrument Name="118. Melodic Tom" Color="a657d6" Folder="15. Percuissive" Expansion="EPSM" EpsmPatch="0" EpsmReg0="49" EpsmReg1="192" EpsmReg2="2" EpsmReg3="16" EpsmReg4="31" EpsmReg5="0" EpsmReg6="13" EpsmReg7="0" EpsmReg8="0" EpsmReg9="0" EpsmReg10="2" EpsmReg11="31" EpsmReg12="2" EpsmReg13="18" EpsmReg14="0" EpsmReg15="0" EpsmReg16="0" EpsmReg17="35" EpsmReg18="30" EpsmReg19="0" EpsmReg20="20" EpsmReg21="0" EpsmReg22="0" EpsmReg23="0" EpsmReg24="0" EpsmReg25="30" EpsmReg26="0" EpsmReg27="14" EpsmReg28="5" EpsmReg29="0" EpsmReg30="0" EPSMSquareEnvelopeShape="0" EPSMSquareEnvelopeAutoPitch="True" EPSMSquareEnvelopeAutoPitchOctave="3"
		Envelope Type="Volume" Length="1" Values="0"
	Instrument Name="119. Synth Drum" Color="a657d6" Folder="15. Percuissive" Expansion="EPSM" EpsmPatch="0" EpsmReg0="59" EpsmReg1="192" EpsmReg2="1" EpsmReg3="6" EpsmReg4="29" EpsmReg5="18" EpsmReg6="0" EpsmReg7="86" EpsmReg8="0" EpsmReg9="1" EpsmReg10="8" EpsmReg11="31" EpsmReg12="26" EpsmReg13="22" EpsmReg14="38" EpsmReg15="0" EpsmReg16="2" EpsmReg17="13" EpsmReg18="95" EpsmReg19="27" EpsmReg20="8" EpsmReg21="86" EpsmReg22="0" EpsmReg23="1" EpsmReg24="0" EpsmReg25="31" EpsmReg26="14" EpsmReg27="17" EpsmReg28="198" EpsmReg29="0" EpsmReg30="0" EPSMSquareEnvelopeShape="0" EPSMSquareEnvelopeAutoPitch="True" EPSMSquareEnvelopeAutoPitchOctave="3"
		Envelope Type="Volume" Length="1" Values="0"
	Instrument Name="120. Reverse Cymbal" Color="a657d6" Folder="15. Percuissive" Expansion="EPSM" EpsmPatch="0" EpsmReg0="59" EpsmReg1="192" EpsmReg2="15" EpsmReg3="0" EpsmReg4="5" EpsmReg5="0" EpsmReg6="0" EpsmReg7="15" EpsmReg8="0" EpsmReg9="0" EpsmReg10="0" EpsmReg11="5" EpsmReg12="0" EpsmReg13="0" EpsmReg14="15" EpsmReg15="0" EpsmReg16="7" EpsmReg17="0" EpsmReg18="5" EpsmReg19="0" EpsmReg20="0" EpsmReg21="15" EpsmReg22="0" EpsmReg23="0" EpsmReg24="7" EpsmReg25="69" EpsmReg26="0" EpsmReg27="0" EpsmReg28="15" EpsmReg29="0" EpsmReg30="0" EPSMSquareEnvelopeShape="0" EPSMSquareEnvelopeAutoPitch="True" EPSMSquareEnvelopeAutoPitchOctave="3"
	Instrument Name="121. Guitar Fret Noise" Color="e95093" Folder="16. SFX" Expansion="EPSM" EpsmPatch="0" EpsmReg0="60" EpsmReg1="192" EpsmReg2="118" EpsmReg3="14" EpsmReg4="26" EpsmReg5="1" EpsmReg6="0" EpsmReg7="128" EpsmReg8="0" EpsmReg9="19" EpsmReg10="17" EpsmReg11="76" EpsmReg12="135" EpsmReg13="14" EpsmReg14="9" EpsmReg15="0" EpsmReg16="115" EpsmReg17="33" EpsmReg18="31" EpsmReg19="0" EpsmReg20="0" EpsmReg21="20" EpsmReg22="0" EpsmReg23="4" EpsmReg24="32" EpsmReg25="138" EpsmReg26="14" EpsmReg27="9" EpsmReg28="166" EpsmReg29="0" EpsmReg30="0" EPSMSquareEnvelopeShape="0" EPSMSquareEnvelopeAutoPitch="True" EPSMSquareEnvelopeAutoPitchOctave="3"
		Envelope Type="Volume" Length="1" Values="0"
	Instrument Name="122. Breath Noise" Color="e95093" Folder="16. SFX" Expansion="EPSM" EpsmPatch="0" EpsmReg0="44" EpsmReg1="192" EpsmReg2="52" EpsmReg3="32" EpsmReg4="12" EpsmReg5="6" EpsmReg6="2" EpsmReg7="34" EpsmReg8="0" EpsmReg9="114" EpsmReg10="0" EpsmReg11="10" EpsmReg12="12" EpsmReg13="7" EpsmReg14="183" EpsmReg15="0" EpsmReg16="84" EpsmReg17="35" EpsmReg18="12" EpsmReg19="6" EpsmReg20="2" EpsmReg21="34" EpsmReg22="0" EpsmReg23="50" EpsmReg24="0" EpsmReg25="10" EpsmReg26="137" EpsmReg27="9" EpsmReg28="118" EpsmReg29="0" EpsmReg30="0" EPSMSquareEnvelopeShape="0" EPSMSquareEnvelopeAutoPitch="True" EPSMSquareEnvelopeAutoPitchOctave="3"
		Envelope Type="Volume" Length="1" Values="0"
	Instrument Name="123. Seashore" Color="e95093" Folder="16. SFX" Expansion="EPSM" EpsmPatch="0" EpsmReg0="61" EpsmReg1="192" EpsmReg2="51" EpsmReg3="4" EpsmReg4="31" EpsmReg5="0" EpsmReg6="0" EpsmReg7="240" EpsmReg8="0" EpsmReg9="1" EpsmReg10="23" EpsmReg11="2" EpsmReg12="4" EpsmReg13="0" EpsmReg14="244" EpsmReg15="0" EpsmReg16="1" EpsmReg17="22" EpsmReg18="2" EpsmReg19="4" EpsmReg20="0" EpsmReg21="244" EpsmReg22="0" EpsmReg23="1" EpsmReg24="21" EpsmReg25="2" EpsmReg26="4" EpsmReg27="0" EpsmReg28="244" EpsmReg29="0" EpsmReg30="0" EPSMSquareEnvelopeShape="0" EPSMSquareEnvelopeAutoPitch="True" EPSMSquareEnvelopeAutoPitchOctave="3"
		Envelope Type="Volume" Length="1" Values="0"
	Instrument Name="124. Bird Tweet" Color="e95093" Folder="16. SFX" Expansion="EPSM" EpsmPatch="0" EpsmReg0="31" EpsmReg1="192" EpsmReg2="7" EpsmReg3="25" EpsmReg4="198" EpsmReg5="16" EpsmReg6="14" EpsmReg7="7" EpsmReg8="0" EpsmReg9="8" EpsmReg10="16" EpsmReg11="200" EpsmReg12="14" EpsmReg13="16" EpsmReg14="86" EpsmReg15="0" EpsmReg16="21" EpsmReg17="17" EpsmReg18="15" EpsmReg19="13" EpsmReg20="14" EpsmReg21="10" EpsmReg22="0" EpsmReg23="6" EpsmReg24="0" EpsmReg25="139" EpsmReg26="14" EpsmReg27="16" EpsmReg28="182" EpsmReg29="0" EpsmReg30="0" EPSMSquareEnvelopeShape="0" EPSMSquareEnvelopeAutoPitch="True" EPSMSquareEnvelopeAutoPitchOctave="3"
		Envelope Type="Volume" Length="1" Values="0"
	Instrument Name="125. Telephone Ring" Color="e95093" Folder="16. SFX" Expansion="EPSM" EpsmPatch="0" EpsmReg0="1" EpsmReg1="192" EpsmReg2="2" EpsmReg3="32" EpsmReg4="31" EpsmReg5="0" EpsmReg6="0" EpsmReg7="15" EpsmReg8="0" EpsmReg9="0" EpsmReg10="41" EpsmReg11="31" EpsmReg12="0" EpsmReg13="0" EpsmReg14="15" EpsmReg15="0" EpsmReg16="0" EpsmReg17="32" EpsmReg18="31" EpsmReg19="0" EpsmReg20="0" EpsmReg21="15" EpsmReg22="0" EpsmReg23="15" EpsmReg24="15" EpsmReg25="31" EpsmReg26="0" EpsmReg27="0" EpsmReg28="15" EpsmReg29="0" EpsmReg30="0" EPSMSquareEnvelopeShape="0" EPSMSquareEnvelopeAutoPitch="True" EPSMSquareEnvelopeAutoPitchOctave="3"
	Instrument Name="126. Helicopter" Color="e95093" Folder="16. SFX" Expansion="EPSM" EpsmPatch="0" EpsmReg0="52" EpsmReg1="192" EpsmReg2="48" EpsmReg3="0" EpsmReg4="66" EpsmReg5="1" EpsmReg6="0" EpsmReg7="0" EpsmReg8="0" EpsmReg9="2" EpsmReg10="20" EpsmReg11="2" EpsmReg12="130" EpsmReg13="0" EpsmReg14="21" EpsmReg15="0" EpsmReg16="0" EpsmReg17="127" EpsmReg18="4" EpsmReg19="141" EpsmReg20="0" EpsmReg21="9" EpsmReg22="0" EpsmReg23="0" EpsmReg24="127" EpsmReg25="3" EpsmReg26="143" EpsmReg27="0" EpsmReg28="4" EpsmReg29="0" EpsmReg30="0" EPSMSquareEnvelopeShape="0" EPSMSquareEnvelopeAutoPitch="True" EPSMSquareEnvelopeAutoPitchOctave="3"
		Envelope Type="Volume" Length="1" Values="0"
	Instrument Name="127. Applause" Color="e95093" Folder="16. SFX" Expansion="EPSM" EpsmPatch="0" EpsmReg0="61" EpsmReg1="192" EpsmReg2="51" EpsmReg3="4" EpsmReg4="31" EpsmReg5="0" EpsmReg6="0" EpsmReg7="240" EpsmReg8="0" EpsmReg9="1" EpsmReg10="23" EpsmReg11="6" EpsmReg12="7" EpsmReg13="0" EpsmReg14="8" EpsmReg15="0" EpsmReg16="1" EpsmReg17="22" EpsmReg18="6" EpsmReg19="13" EpsmReg20="0" EpsmReg21="9" EpsmReg22="0" EpsmReg23="1" EpsmReg24="21" EpsmReg25="6" EpsmReg26="15" EpsmReg27="0" EpsmReg28="4" EpsmReg29="0" EpsmReg30="0" EPSMSquareEnvelopeShape="0" EPSMSquareEnvelopeAutoPitch="True" EPSMSquareEnvelopeAutoPitchOctave="3"
		Envelope Type="Volume" Length="1" Values="0"
	Instrument Name="128. Gunshot" Color="e95093" Folder="16. SFX" Expansion="EPSM" EpsmPatch="0" EpsmReg0="61" EpsmReg1="192" EpsmReg2="51" EpsmReg3="4" EpsmReg4="31" EpsmReg5="3" EpsmReg6="17" EpsmReg7="245" EpsmReg8="0" EpsmReg9="1" EpsmReg10="0" EpsmReg11="31" EpsmReg12="15" EpsmReg13="31" EpsmReg14="248" EpsmReg15="0" EpsmReg16="1" EpsmReg17="0" EpsmReg18="31" EpsmReg19="20" EpsmReg20="20" EpsmReg21="248" EpsmReg22="0" EpsmReg23="1" EpsmReg24="0" EpsmReg25="31" EpsmReg26="15" EpsmReg27="16" EpsmReg28="251" EpsmReg29="0" EpsmReg30="0" EPSMSquareEnvelopeShape="0" EPSMSquareEnvelopeAutoPitch="True" EPSMSquareEnvelopeAutoPitchOctave="3"
		Envelope Type="Volume" Length="1" Values="0"
	Instrument Name="Crash" Color="ff7cb6" Folder="Concert (WIP)" Expansion="EPSM" EpsmPatch="0" EpsmReg0="56" EpsmReg1="192" EpsmReg2="11" EpsmReg3="0" EpsmReg4="31" EpsmReg5="0" EpsmReg6="11" EpsmReg7="15" EpsmReg8="0" EpsmReg9="0" EpsmReg10="0" EpsmReg11="31" EpsmReg12="0" EpsmReg13="11" EpsmReg14="15" EpsmReg15="0" EpsmReg16="0" EpsmReg17="15" EpsmReg18="31" EpsmReg19="0" EpsmReg20="11" EpsmReg21="15" EpsmReg22="0" EpsmReg23="0" EpsmReg24="7" EpsmReg25="31" EpsmReg26="0" EpsmReg27="11" EpsmReg28="15" EpsmReg29="0" EpsmReg30="0" EPSMSquareEnvelopeShape="0" EPSMSquareEnvelopeAutoPitch="True" EPSMSquareEnvelopeAutoPitchOctave="3"
	Song Name="3. At Doom's Gate" Color="ffa83c" Folder="Doom" Length="44" LoopPoint="0" PatternLength="16" BeatLength="4" NoteLength="11" Groove="11" GroovePaddingMode="Middle"
		Channel Type="Square1"
		Channel Type="Square2"
		Channel Type="Triangle"
		Channel Type="Noise"
		Channel Type="DPCM"
		Channel Type="EPSMSquare1"
			Pattern Name="00" Color="ff6464"
				Note Time="0" Value="D3" Duration="308" Release="154" Instrument="81. Lead 1 (square)"
			Pattern Name="01" Color="ff7f51"
				Note Time="132" Value="E3" Duration="44" Release="22" Instrument="81. Lead 1 (square)"
			Pattern Name="02" Color="ffa83c"
				Note Time="0" Value="C3" Duration="352" Release="176" Instrument="81. Lead 1 (square)"
			Pattern Name="03" Color="ffcb3c"
				Note Time="0" Value="G3" Duration="132" Release="66" Instrument="81. Lead 1 (square)"
				Note Time="132" Value="G#3" Duration="16" Release="8" Instrument="81. Lead 1 (square)"
				Note Time="148" Value="F3" Duration="17" Release="8" Instrument="81. Lead 1 (square)"
				Note Time="165" Value="G#3" Duration="11" Release="5" Instrument="81. Lead 1 (square)"
			Pattern Name="04" Color="ffe461"
				Note Time="0" Value="A3" Duration="143" Release="71" Instrument="81. Lead 1 (square)"
				Note Time="143" Value="F3" Duration="11" Release="5" Instrument="81. Lead 1 (square)"
				Note Time="154" Value="A3" Duration="11" Release="5" Instrument="81. Lead 1 (square)"
				Note Time="165" Value="F3" Duration="363" Release="181" Instrument="81. Lead 1 (square)"
			Pattern Name="05" Color="dad960"
				Note Time="0" Value="D4" Duration="143" Release="71" Instrument="81. Lead 1 (square)"
				Note Time="143" Value="E4" Duration="16" Release="8" Instrument="81. Lead 1 (square)"
				Note Time="159" Value="D4" Duration="17" Release="8" Instrument="81. Lead 1 (square)"
			Pattern Name="06" Color="91c76b"
				Note Time="0" Value="E4" Duration="132" Release="66" Instrument="81. Lead 1 (square)"
				Note Time="132" Value="F4" Duration="16" Release="8" Instrument="81. Lead 1 (square)"
				Note Time="148" Value="F4" Duration="17" Release="8" Instrument="81. Lead 1 (square)"
				Note Time="165" Value="C4" Duration="363" Release="181" Instrument="81. Lead 1 (square)"
			Pattern Name="07" Color="6ab96e"
				Note Time="0" Value="B3" Duration="176" Release="88" Instrument="81. Lead 1 (square)"
			Pattern Name="08" Color="3ca598"
				Note Time="0" Value="A3" Duration="176" Release="88" Instrument="81. Lead 1 (square)"
			Pattern Name="09" Color="3cbfcb"
				Note Time="0" Value="D3" Duration="1056" Release="528" Instrument="81. Lead 1 (square)"
			Pattern Name="0A" Color="3eb3f9"
				Note Time="0" Value="D4" Duration="132" Release="66" Instrument="81. Lead 1 (square)"
				Note Time="132" Value="E4" Duration="44" Release="22" Instrument="81. Lead 1 (square)"
			Pattern Name="0B" Color="51a1fc"
				Note Time="0" Value="C4" Duration="132" Release="66" Instrument="81. Lead 1 (square)"
				Note Time="132" Value="D4" Duration="44" Release="22" Instrument="81. Lead 1 (square)"
			Pattern Name="0C" Color="6471cf"
				Note Time="0" Value="A3" Duration="352" Release="176" Instrument="81. Lead 1 (square)"
			Pattern Name="0D" Color="8163dc"
				Note Time="0" Value="G3" Duration="143" Release="71" Instrument="81. Lead 1 (square)"
				Note Time="143" Value="G3" Duration="16" Release="8" Instrument="81. Lead 1 (square)"
				Note Time="159" Value="A3" Duration="17" Release="8" Instrument="81. Lead 1 (square)"
			Pattern Name="0E" Color="a657d6"
				Note Time="0" Value="A#3" Duration="132" Release="66" Instrument="81. Lead 1 (square)"
				Note Time="132" Value="C4" Duration="198" Release="99" Instrument="81. Lead 1 (square)"
			Pattern Name="0F" Color="e95093"
				Note Time="154" Value="B3" Duration="11" Release="5" Instrument="81. Lead 1 (square)"
				Note Time="165" Value="C4" Duration="187" Release="93" Instrument="81. Lead 1 (square)"
			Pattern Name="10" Color="ff6b6b"
				Note Time="0" Value="D5" Duration="132" Release="66" Instrument="81. Lead 1 (square)"
				Note Time="132" Value="E5" Duration="44" Release="22" Instrument="81. Lead 1 (square)"
			Pattern Name="11" Color="ff8655"
				Note Time="0" Value="C5" Duration="132" Release="66" Instrument="81. Lead 1 (square)"
				Note Time="132" Value="D5" Duration="44" Release="22" Instrument="81. Lead 1 (square)"
			Pattern Name="12" Color="ffb83c"
				Note Time="0" Value="A4" Duration="352" Release="176" Instrument="81. Lead 1 (square)"
			Pattern Name="13" Color="ffdc3c"
				Note Time="0" Value="B3" Duration="44" Release="22" Instrument="81. Lead 1 (square)"
				Note Time="44" Value="D4" Duration="44" Release="22" Instrument="81. Lead 1 (square)"
				Note Time="88" Value="F4" Duration="44" Release="22" Instrument="81. Lead 1 (square)"
				Note Time="132" Value="G4" Duration="44" Release="22" Instrument="81. Lead 1 (square)"
			Pattern Name="14" Color="fffc69"
				Note Time="0" Value="E4" Duration="44" Release="22" Instrument="81. Lead 1 (square)"
				Note Time="44" Value="G4" Duration="44" Release="22" Instrument="81. Lead 1 (square)"
				Note Time="88" Value="A#4" Duration="44" Release="22" Instrument="81. Lead 1 (square)"
				Note Time="132" Value="C#5" Duration="44" Release="22" Instrument="81. Lead 1 (square)"
			Pattern Name="15" Color="ebf067"
				Note Time="0" Value="D5" Duration="352" Release="176" Instrument="81. Lead 1 (square)"
			PatternInstance Time="8" Pattern="00"
			PatternInstance Time="9" Pattern="01"
			PatternInstance Time="10" Pattern="02"
			PatternInstance Time="12" Pattern="03"
			PatternInstance Time="13" Pattern="04"
			PatternInstance Time="16" Pattern="05"
			PatternInstance Time="17" Pattern="06"
			PatternInstance Time="20" Pattern="07"
			PatternInstance Time="21" Pattern="08"
			PatternInstance Time="22" Pattern="09"
			PatternInstance Time="28" Pattern="0A"
			PatternInstance Time="29" Pattern="0B"
			PatternInstance Time="30" Pattern="0C"
			PatternInstance Time="32" Pattern="0D"
			PatternInstance Time="33" Pattern="0E"
			PatternInstance Time="34" Pattern="0F"
			PatternInstance Time="36" Pattern="10"
			PatternInstance Time="37" Pattern="11"
			PatternInstance Time="38" Pattern="12"
			PatternInstance Time="40" Pattern="13"
			PatternInstance Time="41" Pattern="14"
			PatternInstance Time="42" Pattern="15"
		Channel Type="EPSMSquare2"
			Pattern Name="00" Color="ff6464"
				Note Time="0" Value="D2" Duration="429" Release="11" Instrument="81. Lead 1 (square)"
			Pattern Name="Pattern 2" Color="ff7f51"
				Note Time="0" Value="G2" Duration="429" Release="11" Instrument="81. Lead 1 (square)"
			Pattern Name="01" Color="ffa83c"
				Note Time="0" Value="B2" Duration="429" Release="11" Instrument="81. Lead 1 (square)"
			Pattern Name="02" Color="ffcb3c"
				Note Time="0" Value="A2" Duration="408" Instrument="81. Lead 1 (square)"
				Note Time="121" Value="G2" Duration="408" Instrument="81. Lead 1 (square)"
			PatternInstance Time="0" Pattern="00"
			PatternInstance Time="1" Pattern="00"
			PatternInstance Time="2" Pattern="00"
			PatternInstance Time="3" Pattern="00"
			PatternInstance Time="4" Pattern="00"
			PatternInstance Time="5" Pattern="00"
			PatternInstance Time="6" Pattern="00"
			PatternInstance Time="7" Pattern="00"
			PatternInstance Time="8" Pattern="00"
			PatternInstance Time="9" Pattern="00"
			PatternInstance Time="10" Pattern="00"
			PatternInstance Time="11" Pattern="00"
			PatternInstance Time="12" Pattern="Pattern 2"
			PatternInstance Time="13" Pattern="Pattern 2"
			PatternInstance Time="14" Pattern="Pattern 2"
			PatternInstance Time="15" Pattern="Pattern 2"
			PatternInstance Time="16" Pattern="00"
			PatternInstance Time="17" Pattern="00"
			PatternInstance Time="18" Pattern="00"
			PatternInstance Time="19" Pattern="00"
			PatternInstance Time="20" Pattern="01"
			PatternInstance Time="21" Pattern="02"
			PatternInstance Time="22" Pattern="00"
			PatternInstance Time="23" Pattern="00"
			PatternInstance Time="24" Pattern="00"
			PatternInstance Time="25" Pattern="00"
			PatternInstance Time="26" Pattern="00"
			PatternInstance Time="27" Pattern="00"
			PatternInstance Time="28" Pattern="00"
			PatternInstance Time="29" Pattern="00"
			PatternInstance Time="30" Pattern="00"
			PatternInstance Time="31" Pattern="00"
			PatternInstance Time="32" Pattern="Pattern 2"
			PatternInstance Time="33" Pattern="Pattern 2"
			PatternInstance Time="34" Pattern="Pattern 2"
			PatternInstance Time="35" Pattern="Pattern 2"
			PatternInstance Time="36" Pattern="00"
			PatternInstance Time="37" Pattern="00"
			PatternInstance Time="38" Pattern="00"
			PatternInstance Time="39" Pattern="00"
			PatternInstance Time="40" Pattern="01"
			PatternInstance Time="41" Pattern="02"
			PatternInstance Time="42" Pattern="00"
			PatternInstance Time="43" Pattern="00"
		Channel Type="EPSMSquare3"
			Pattern Name="00" Color="ff6464"
				Note Time="0" Value="A#4" Duration="22" Instrument="117. Taiko Drum"
			Pattern Name="01" Color="ff7f51"
				Note Time="0" Value="A#4" Duration="22" Instrument="117. Taiko Drum"
				Note Time="22" Value="A#4" Duration="22" Instrument="117. Taiko Drum"
				Note Time="66" Value="A#4" Duration="22" Instrument="117. Taiko Drum"
				Note Time="110" Value="A#4" Duration="22" Instrument="117. Taiko Drum"
			Pattern Name="02" Color="ffa83c"
				Note Time="22" Value="A#4" Duration="22" Instrument="117. Taiko Drum"
				Note Time="66" Value="A#4" Duration="22" Instrument="117. Taiko Drum"
				Note Time="110" Value="A#4" Duration="22" Instrument="117. Taiko Drum"
				Note Time="154" Value="A#4" Duration="22" Instrument="117. Taiko Drum"
			Pattern Name="03" Color="ffcb3c"
				Note Time="88" Value="A#4" Duration="22" Instrument="117. Taiko Drum"
			Pattern Name="04" Color="ffe461"
				Note Time="0" Value="A#4" Duration="22" Instrument="117. Taiko Drum"
				Note Time="22" Value="A#4" Duration="22" Instrument="117. Taiko Drum"
				Note Time="66" Value="A#4" Duration="22" Instrument="117. Taiko Drum"
				Note Time="110" Value="A#4" Duration="22" Instrument="117. Taiko Drum"
				Note Time="154" Value="A#4" Duration="11" Instrument="117. Taiko Drum"
				Note Time="165" Value="A#4" Duration="11" Instrument="117. Taiko Drum"
			Pattern Name="05" Color="dad960"
				Note Time="0" Value="A#4" Duration="22" Instrument="117. Taiko Drum"
				Note Time="22" Value="A#4" Duration="22" Instrument="117. Taiko Drum"
				Note Time="66" Value="A#4" Duration="22" Instrument="117. Taiko Drum"
				Note Time="110" Value="A#4" Duration="22" Instrument="117. Taiko Drum"
				Note Time="154" Value="A#4" Duration="22" Instrument="117. Taiko Drum"
			PatternInstance Time="0" Pattern="00"
			PatternInstance Time="2" Pattern="00"
			PatternInstance Time="4" Pattern="01"
			PatternInstance Time="5" Pattern="02"
			PatternInstance Time="6" Pattern="02"
			PatternInstance Time="7" Pattern="02"
			PatternInstance Time="8" Pattern="00"
			PatternInstance Time="11" Pattern="03"
			PatternInstance Time="12" Pattern="00"
			PatternInstance Time="15" Pattern="03"
			PatternInstance Time="16" Pattern="00"
			PatternInstance Time="19" Pattern="03"
			PatternInstance Time="20" Pattern="00"
			PatternInstance Time="24" Pattern="04"
			PatternInstance Time="25" Pattern="04"
			PatternInstance Time="26" Pattern="04"
			PatternInstance Time="27" Pattern="05"
			PatternInstance Time="28" Pattern="00"
			PatternInstance Time="31" Pattern="03"
			PatternInstance Time="32" Pattern="00"
			PatternInstance Time="35" Pattern="03"
			PatternInstance Time="36" Pattern="00"
			PatternInstance Time="39" Pattern="03"
			PatternInstance Time="40" Pattern="00"
		Channel Type="EPSMFM1"
			Pattern Name="00" Color="ff6464"
				Note Time="88" Value="C#4" Duration="5" Instrument="31. Distortion Guitar"
				Note Time="93" Value="A#3" Duration="6" Instrument="31. Distortion Guitar"
				Note Time="99" Value="A3" Duration="4" Instrument="31. Distortion Guitar"
				Note Time="103" Value="C#4" Duration="7" Instrument="31. Distortion Guitar"
				Note Time="110" Value="E4" Duration="5" Instrument="31. Distortion Guitar"
				Note Time="115" Value="D4" Duration="6" Instrument="31. Distortion Guitar"
				Note Time="121" Value="C#4" Duration="4" Instrument="31. Distortion Guitar"
				Note Time="125" Value="A3" Duration="7" Instrument="31. Distortion Guitar"
				Note Time="132" Value="C#4" Duration="5" Instrument="31. Distortion Guitar"
				Note Time="137" Value="D4" Duration="6" Instrument="31. Distortion Guitar"
				Note Time="143" Value="E4" Duration="4" Instrument="31. Distortion Guitar"
				Note Time="147" Value="F4" Duration="7" Instrument="31. Distortion Guitar"
				Note Time="154" Value="E4" Duration="5" Instrument="31. Distortion Guitar"
				Note Time="159" Value="D4" Duration="6" Instrument="31. Distortion Guitar"
				Note Time="165" Value="C#4" Duration="4" Instrument="31. Distortion Guitar"
				Note Time="169" Value="A#3" Duration="7" Instrument="31. Distortion Guitar"
			Pattern Name="01" Color="ff7f51"
				Note Time="88" Value="F4" Duration="5" Instrument="31. Distortion Guitar"
				Note Time="93" Value="D4" Duration="6" Instrument="31. Distortion Guitar"
				Note Time="99" Value="A3" Duration="4" Instrument="31. Distortion Guitar"
				Note Time="103" Value="D4" Duration="7" Instrument="31. Distortion Guitar"
				Note Time="110" Value="F4" Duration="5" Instrument="31. Distortion Guitar"
				Note Time="115" Value="D4" Duration="6" Instrument="31. Distortion Guitar"
				Note Time="121" Value="F4" Duration="4" Instrument="31. Distortion Guitar"
				Note Time="125" Value="A4" Duration="7" Instrument="31. Distortion Guitar"
				Note Time="132" Value="F4" Duration="5" Instrument="31. Distortion Guitar"
				Note Time="137" Value="D4" Duration="6" Instrument="31. Distortion Guitar"
				Note Time="143" Value="F4" Duration="4" Instrument="31. Distortion Guitar"
				Note Time="147" Value="D4" Duration="7" Instrument="31. Distortion Guitar"
				Note Time="154" Value="F4" Duration="5" Instrument="31. Distortion Guitar"
				Note Time="159" Value="A4" Duration="6" Instrument="31. Distortion Guitar"
				Note Time="165" Value="F4" Duration="4" Instrument="31. Distortion Guitar"
				Note Time="169" Value="A4" Duration="7" Instrument="31. Distortion Guitar"
			Pattern Name="02" Color="ffa83c"
				Note Time="88" Value="G4" Duration="5" Instrument="31. Distortion Guitar"
				Note Time="93" Value="D#4" Duration="6" Instrument="31. Distortion Guitar"
				Note Time="99" Value="D4" Duration="4" Instrument="31. Distortion Guitar"
				Note Time="103" Value="G4" Duration="7" Instrument="31. Distortion Guitar"
				Note Time="110" Value="D4" Duration="5" Instrument="31. Distortion Guitar"
				Note Time="115" Value="A#3" Duration="6" Instrument="31. Distortion Guitar"
				Note Time="121" Value="D4" Duration="4" Instrument="31. Distortion Guitar"
				Note Time="125" Value="G4" Duration="7" Instrument="31. Distortion Guitar"
				Note Time="132" Value="A#4" Duration="5" Instrument="31. Distortion Guitar"
				Note Time="137" Value="G4" Duration="6" Instrument="31. Distortion Guitar"
				Note Time="143" Value="D4" Duration="4" Instrument="31. Distortion Guitar"
				Note Time="147" Value="G4" Duration="7" Instrument="31. Distortion Guitar"
				Note Time="154" Value="D4" Duration="5" Instrument="31. Distortion Guitar"
				Note Time="159" Value="G4" Duration="6" Instrument="31. Distortion Guitar"
				Note Time="165" Value="D4" Duration="4" Instrument="31. Distortion Guitar"
				Note Time="169" Value="A#3" Duration="7" Instrument="31. Distortion Guitar"
			Pattern Name="03" Color="ffcb3c"
				Note Time="88" Value="F4" Duration="5" Instrument="31. Distortion Guitar"
				Note Time="93" Value="A4" Duration="6" Instrument="31. Distortion Guitar"
				Note Time="99" Value="D4" Duration="4" Instrument="31. Distortion Guitar"
				Note Time="103" Value="A3" Duration="7" Instrument="31. Distortion Guitar"
				Note Time="110" Value="F4" Duration="5" Instrument="31. Distortion Guitar"
				Note Time="115" Value="D4" Duration="6" Instrument="31. Distortion Guitar"
				Note Time="121" Value="A4" Duration="4" Instrument="31. Distortion Guitar"
				Note Time="125" Value="F4" Duration="7" Instrument="31. Distortion Guitar"
				Note Time="132" Value="A4" Duration="5" Instrument="31. Distortion Guitar"
				Note Time="137" Value="F4" Duration="6" Instrument="31. Distortion Guitar"
				Note Time="143" Value="D4" Duration="4" Instrument="31. Distortion Guitar"
				Note Time="147" Value="A3" Duration="7" Instrument="31. Distortion Guitar"
				Note Time="154" Value="F4" Duration="5" Instrument="31. Distortion Guitar"
				Note Time="159" Value="A4" Duration="6" Instrument="31. Distortion Guitar"
				Note Time="165" Value="D5" Duration="4" Instrument="31. Distortion Guitar"
				Note Time="169" Value="F5" Duration="7" Instrument="31. Distortion Guitar"
			Pattern Name="04" Color="ffe461"
				Note Time="88" Value="E4" Duration="5" Instrument="31. Distortion Guitar"
				Note Time="93" Value="D4" Duration="6" Instrument="31. Distortion Guitar"
				Note Time="99" Value="C4" Duration="4" Instrument="31. Distortion Guitar"
				Note Time="103" Value="A3" Duration="7" Instrument="31. Distortion Guitar"
				Note Time="110" Value="G4" Duration="5" Instrument="31. Distortion Guitar"
				Note Time="115" Value="E4" Duration="6" Instrument="31. Distortion Guitar"
				Note Time="121" Value="C#4" Duration="4" Instrument="31. Distortion Guitar"
				Note Time="125" Value="A3" Duration="7" Instrument="31. Distortion Guitar"
				Note Time="132" Value="A4" Duration="5" Instrument="31. Distortion Guitar"
				Note Time="137" Value="G4" Duration="6" Instrument="31. Distortion Guitar"
				Note Time="143" Value="E4" Duration="4" Instrument="31. Distortion Guitar"
				Note Time="147" Value="C#4" Duration="7" Instrument="31. Distortion Guitar"
				Note Time="154" Value="C#5" Duration="5" Instrument="31. Distortion Guitar"
				Note Time="159" Value="B4" Duration="6" Instrument="31. Distortion Guitar"
				Note Time="165" Value="A4" Duration="4" Instrument="31. Distortion Guitar"
				Note Time="169" Value="G4" Duration="7" Instrument="31. Distortion Guitar"
			Pattern Name="05" Color="dad960"
				Note Time="0" Value="D6" Duration="11" Instrument="81. Lead 1 (square)" Volume="15" VolumeSlideTarget="0"
				Note Time="11" Value="D5" Duration="11" Instrument="81. Lead 1 (square)"
				Note Time="22" Value="D6" Duration="11" Instrument="81. Lead 1 (square)"
				Note Time="33" Value="D5" Duration="11" Instrument="81. Lead 1 (square)"
				Note Time="44" Value="D6" Duration="11" Instrument="81. Lead 1 (square)"
				Note Time="55" Value="D5" Duration="11" Instrument="81. Lead 1 (square)"
				Note Time="66" Value="D6" Duration="11" Instrument="81. Lead 1 (square)"
				Note Time="77" Value="D5" Duration="11" Instrument="81. Lead 1 (square)"
				Note Time="88" Value="D6" Duration="11" Instrument="81. Lead 1 (square)"
				Note Time="99" Value="D5" Duration="11" Instrument="81. Lead 1 (square)"
				Note Time="110" Value="D6" Duration="11" Instrument="81. Lead 1 (square)"
				Note Time="121" Value="D5" Duration="11" Instrument="81. Lead 1 (square)"
				Note Time="132" Value="D6" Duration="11" Instrument="81. Lead 1 (square)"
				Note Time="143" Value="D5" Duration="11" Instrument="81. Lead 1 (square)"
				Note Time="154" Value="D6" Duration="11" Instrument="81. Lead 1 (square)"
				Note Time="165" Value="D5" Duration="11" Instrument="81. Lead 1 (square)"
			Pattern Name="06" Color="91c76b"
				Note Time="0" Volume="15"
			Pattern Name="07" Color="6ab96e"
				Note Time="88" Value="F4" Duration="5" Instrument="31. Distortion Guitar"
				Note Time="93" Value="D4" Duration="6" Instrument="31. Distortion Guitar"
				Note Time="99" Value="A3" Duration="4" Instrument="31. Distortion Guitar"
				Note Time="103" Value="F3" Duration="7" Instrument="31. Distortion Guitar"
				Note Time="110" Value="D4" Duration="5" Instrument="31. Distortion Guitar"
				Note Time="115" Value="F4" Duration="6" Instrument="31. Distortion Guitar"
				Note Time="121" Value="D4" Duration="4" Instrument="31. Distortion Guitar"
				Note Time="125" Value="A3" Duration="7" Instrument="31. Distortion Guitar"
				Note Time="132" Value="F3" Duration="5" Instrument="31. Distortion Guitar"
				Note Time="137" Value="A3" Duration="6" Instrument="31. Distortion Guitar"
				Note Time="143" Value="D4" Duration="4" Instrument="31. Distortion Guitar"
				Note Time="147" Value="A3" Duration="7" Instrument="31. Distortion Guitar"
				Note Time="154" Value="F4" Duration="5" Instrument="31. Distortion Guitar"
				Note Time="159" Value="D4" Duration="6" Instrument="31. Distortion Guitar"
				Note Time="165" Value="A3" Duration="4" Instrument="31. Distortion Guitar"
				Note Time="169" Value="F3" Duration="7" Instrument="31. Distortion Guitar"
			Pattern Name="08" Color="3ca598"
				Note Time="93" Value="A4" Duration="6" Instrument="31. Distortion Guitar"
				Note Time="99" Value="G4" Duration="4" Instrument="31. Distortion Guitar"
				Note Time="103" Value="E4" Duration="5" Instrument="31. Distortion Guitar"
				Note Time="108" Value="C#4" Duration="6" Instrument="31. Distortion Guitar"
				Note Time="114" Value="A3" Duration="7" Instrument="31. Distortion Guitar"
				Note Time="121" Value="G3" Duration="4" Instrument="31. Distortion Guitar"
				Note Time="125" Value="E3" Duration="5" Instrument="31. Distortion Guitar"
				Note Time="130" Value="C#3" Duration="6" Instrument="31. Distortion Guitar"
				Note Time="136" Value="C#5" Duration="7" Instrument="31. Distortion Guitar"
				Note Time="143" Value="B4" Duration="4" Instrument="31. Distortion Guitar"
				Note Time="147" Value="A4" Duration="5" Instrument="31. Distortion Guitar"
				Note Time="152" Value="G4" Duration="6" Instrument="31. Distortion Guitar"
				Note Time="158" Value="E4" Duration="7" Instrument="31. Distortion Guitar"
				Note Time="165" Value="C#4" Duration="4" Instrument="31. Distortion Guitar"
				Note Time="169" Value="A3" Duration="5" Instrument="31. Distortion Guitar"
				Note Time="174" Value="G3" Duration="2" Instrument="31. Distortion Guitar"
			PatternInstance Time="7" Pattern="00"
			PatternInstance Time="11" Pattern="01"
			PatternInstance Time="15" Pattern="02"
			PatternInstance Time="23" Pattern="03"
			PatternInstance Time="27" Pattern="04"
			PatternInstance Time="28" Pattern="05"
			PatternInstance Time="29" Pattern="06"
			PatternInstance Time="31" Pattern="07"
			PatternInstance Time="35" Pattern="02"
			PatternInstance Time="43" Pattern="08"
		Channel Type="EPSMFM2"
			Pattern Name="00" Color="ff6464"
				Note Time="0" Value="D2" Duration="11" Instrument="31. Distortion Guitar"
				Note Time="11" Value="D2" Duration="11" Instrument="31. Distortion Guitar"
				Note Time="22" Value="D3" Duration="11" Instrument="31. Distortion Guitar"
				Note Time="33" Value="D2" Duration="11" Instrument="31. Distortion Guitar"
				Note Time="44" Value="D2" Duration="11" Instrument="31. Distortion Guitar"
				Note Time="55" Value="C3" Duration="11" Instrument="31. Distortion Guitar"
				Note Time="66" Value="D2" Duration="11" Instrument="31. Distortion Guitar"
				Note Time="77" Value="D2" Duration="11" Instrument="31. Distortion Guitar"
				Note Time="88" Value="A#2" Duration="11" Instrument="31. Distortion Guitar"
				Note Time="99" Value="D2" Duration="11" Instrument="31. Distortion Guitar"
				Note Time="110" Value="D2" Duration="11" Instrument="31. Distortion Guitar"
				Note Time="121" Value="G#2" Duration="11" Instrument="31. Distortion Guitar"
				Note Time="132" Value="D2" Duration="11" Instrument="31. Distortion Guitar"
				Note Time="143" Value="D2" Duration="11" Instrument="31. Distortion Guitar"
				Note Time="154" Value="A2" Duration="11" Instrument="31. Distortion Guitar"
				Note Time="165" Value="A#2" Duration="11" Instrument="31. Distortion Guitar"
			Pattern Name="01" Color="ff7f51"
				Note Time="0" Value="D2" Duration="11" Instrument="31. Distortion Guitar"
				Note Time="11" Value="D2" Duration="11" Instrument="31. Distortion Guitar"
				Note Time="22" Value="D3" Duration="11" Instrument="31. Distortion Guitar"
				Note Time="33" Value="D2" Duration="11" Instrument="31. Distortion Guitar"
				Note Time="44" Value="D2" Duration="11" Instrument="31. Distortion Guitar"
				Note Time="55" Value="C3" Duration="11" Instrument="31. Distortion Guitar"
				Note Time="66" Value="D2" Duration="11" Instrument="31. Distortion Guitar"
				Note Time="77" Value="D2" Duration="11" Instrument="31. Distortion Guitar"
				Note Time="88" Value="A#2" Duration="11" Instrument="31. Distortion Guitar"
				Note Time="99" Value="D2" Duration="11" Instrument="31. Distortion Guitar"
				Note Time="110" Value="D2" Duration="11" Instrument="31. Distortion Guitar"
				Note Time="121" Value="G#2" Duration="55" Instrument="31. Distortion Guitar"
			Pattern Name="02" Color="ffa83c"
				Note Time="0" Value="D2" Duration="11" Instrument="31. Distortion Guitar"
				Note Time="11" Value="D2" Duration="11" Instrument="31. Distortion Guitar"
				Note Time="22" Value="D3" Duration="11" Instrument="31. Distortion Guitar"
				Note Time="33" Value="D2" Duration="11" Instrument="31. Distortion Guitar"
				Note Time="44" Value="D2" Duration="11" Instrument="31. Distortion Guitar"
				Note Time="55" Value="C3" Duration="11" Instrument="31. Distortion Guitar"
				Note Time="66" Value="D2" Duration="11" Instrument="31. Distortion Guitar"
				Note Time="77" Value="D2" Duration="11" Instrument="31. Distortion Guitar"
				Note Time="88" Value="E3" Duration="5" Instrument="31. Distortion Guitar"
				Note Time="93" Value="D3" Duration="6" Instrument="31. Distortion Guitar"
				Note Time="99" Value="C#3" Duration="4" Instrument="31. Distortion Guitar"
				Note Time="103" Value="E3" Duration="7" Instrument="31. Distortion Guitar"
				Note Time="110" Value="G3" Duration="5" Instrument="31. Distortion Guitar"
				Note Time="115" Value="F3" Duration="6" Instrument="31. Distortion Guitar"
				Note Time="121" Value="E3" Duration="4" Instrument="31. Distortion Guitar"
				Note Time="125" Value="C#3" Duration="7" Instrument="31. Distortion Guitar"
				Note Time="132" Value="E3" Duration="5" Instrument="31. Distortion Guitar"
				Note Time="137" Value="F3" Duration="6" Instrument="31. Distortion Guitar"
				Note Time="143" Value="G3" Duration="4" Instrument="31. Distortion Guitar"
				Note Time="147" Value="A3" Duration="7" Instrument="31. Distortion Guitar"
				Note Time="154" Value="G3" Duration="5" Instrument="31. Distortion Guitar"
				Note Time="159" Value="F3" Duration="6" Instrument="31. Distortion Guitar"
				Note Time="165" Value="E3" Duration="4" Instrument="31. Distortion Guitar"
				Note Time="169" Value="C#3" Duration="7" Instrument="31. Distortion Guitar"
			Pattern Name="03" Color="ffcb3c"
				Note Time="0" Value="D2" Duration="11" Instrument="31. Distortion Guitar"
				Note Time="11" Value="D2" Duration="11" Instrument="31. Distortion Guitar"
				Note Time="22" Value="D3" Duration="11" Instrument="31. Distortion Guitar"
				Note Time="33" Value="D2" Duration="11" Instrument="31. Distortion Guitar"
				Note Time="44" Value="D2" Duration="11" Instrument="31. Distortion Guitar"
				Note Time="55" Value="C3" Duration="11" Instrument="31. Distortion Guitar"
				Note Time="66" Value="D2" Duration="11" Instrument="31. Distortion Guitar"
				Note Time="77" Value="D2" Duration="11" Instrument="31. Distortion Guitar"
				Note Time="88" Value="A3" Duration="5" Instrument="31. Distortion Guitar"
				Note Time="93" Value="F3" Duration="6" Instrument="31. Distortion Guitar"
				Note Time="99" Value="D3" Duration="4" Instrument="31. Distortion Guitar"
				Note Time="103" Value="F3" Duration="7" Instrument="31. Distortion Guitar"
				Note Time="110" Value="A3" Duration="5" Instrument="31. Distortion Guitar"
				Note Time="115" Value="F3" Duration="6" Instrument="31. Distortion Guitar"
				Note Time="121" Value="A3" Duration="4" Instrument="31. Distortion Guitar"
				Note Time="125" Value="A3" Duration="7" Instrument="31. Distortion Guitar"
				Note Time="132" Value="F3" Duration="5" Instrument="31. Distortion Guitar"
				Note Time="137" Value="A3" Duration="6" Instrument="31. Distortion Guitar"
				Note Time="143" Value="F3" Duration="4" Instrument="31. Distortion Guitar"
				Note Time="147" Value="A3" Duration="7" Instrument="31. Distortion Guitar"
				Note Time="154" Value="D4" Duration="5" Instrument="31. Distortion Guitar"
				Note Time="159" Value="D3" Duration="6" Instrument="31. Distortion Guitar"
				Note Time="165" Value="D4" Duration="4" Instrument="31. Distortion Guitar"
				Note Time="169" Value="D3" Duration="7" Instrument="31. Distortion Guitar"
			Pattern Name="04" Color="ffe461"
				Note Time="0" Value="G2" Duration="11" Instrument="31. Distortion Guitar"
				Note Time="11" Value="G2" Duration="11" Instrument="31. Distortion Guitar"
				Note Time="22" Value="G3" Duration="11" Instrument="31. Distortion Guitar"
				Note Time="33" Value="G2" Duration="11" Instrument="31. Distortion Guitar"
				Note Time="44" Value="G2" Duration="11" Instrument="31. Distortion Guitar"
				Note Time="55" Value="F3" Duration="11" Instrument="31. Distortion Guitar"
				Note Time="66" Value="G2" Duration="11" Instrument="31. Distortion Guitar"
				Note Time="77" Value="G2" Duration="11" Instrument="31. Distortion Guitar"
				Note Time="88" Value="D#3" Duration="11" Instrument="31. Distortion Guitar"
				Note Time="99" Value="G2" Duration="11" Instrument="31. Distortion Guitar"
				Note Time="110" Value="G2" Duration="11" Instrument="31. Distortion Guitar"
				Note Time="121" Value="C#3" Duration="11" Instrument="31. Distortion Guitar"
				Note Time="132" Value="G2" Duration="11" Instrument="31. Distortion Guitar"
				Note Time="143" Value="G2" Duration="11" Instrument="31. Distortion Guitar"
				Note Time="154" Value="D3" Duration="11" Instrument="31. Distortion Guitar"
				Note Time="165" Value="D#3" Duration="11" Instrument="31. Distortion Guitar"
			Pattern Name="05" Color="dad960"
				Note Time="0" Value="G2" Duration="11" Instrument="31. Distortion Guitar"
				Note Time="11" Value="G2" Duration="11" Instrument="31. Distortion Guitar"
				Note Time="22" Value="G3" Duration="11" Instrument="31. Distortion Guitar"
				Note Time="33" Value="G2" Duration="11" Instrument="31. Distortion Guitar"
				Note Time="44" Value="G2" Duration="11" Instrument="31. Distortion Guitar"
				Note Time="55" Value="F3" Duration="11" Instrument="31. Distortion Guitar"
				Note Time="66" Value="G2" Duration="11" Instrument="31. Distortion Guitar"
				Note Time="77" Value="G2" Duration="11" Instrument="31. Distortion Guitar"
				Note Time="88" Value="D#3" Duration="11" Instrument="31. Distortion Guitar"
				Note Time="99" Value="G2" Duration="11" Instrument="31. Distortion Guitar"
				Note Time="110" Value="G2" Duration="11" Instrument="31. Distortion Guitar"
				Note Time="121" Value="C#3" Duration="55" Instrument="31. Distortion Guitar"
			Pattern Name="06" Color="91c76b"
				Note Time="0" Value="G2" Duration="11" Instrument="31. Distortion Guitar"
				Note Time="11" Value="G2" Duration="11" Instrument="31. Distortion Guitar"
				Note Time="22" Value="G3" Duration="11" Instrument="31. Distortion Guitar"
				Note Time="33" Value="G2" Duration="11" Instrument="31. Distortion Guitar"
				Note Time="44" Value="G2" Duration="11" Instrument="31. Distortion Guitar"
				Note Time="55" Value="F3" Duration="11" Instrument="31. Distortion Guitar"
				Note Time="66" Value="G2" Duration="11" Instrument="31. Distortion Guitar"
				Note Time="77" Value="G2" Duration="11" Instrument="31. Distortion Guitar"
				Note Time="88" Value="D4" Duration="5" Instrument="31. Distortion Guitar"
				Note Time="93" Value="C4" Duration="6" Instrument="31. Distortion Guitar"
				Note Time="99" Value="A#3" Duration="4" Instrument="31. Distortion Guitar"
				Note Time="103" Value="D4" Duration="7" Instrument="31. Distortion Guitar"
				Note Time="110" Value="A#3" Duration="5" Instrument="31. Distortion Guitar"
				Note Time="115" Value="G3" Duration="6" Instrument="31. Distortion Guitar"
				Note Time="121" Value="A#3" Duration="4" Instrument="31. Distortion Guitar"
				Note Time="125" Value="D4" Duration="7" Instrument="31. Distortion Guitar"
				Note Time="132" Value="G4" Duration="5" Instrument="31. Distortion Guitar"
				Note Time="137" Value="D4" Duration="6" Instrument="31. Distortion Guitar"
				Note Time="143" Value="A#3" Duration="4" Instrument="31. Distortion Guitar"
				Note Time="147" Value="D4" Duration="7" Instrument="31. Distortion Guitar"
				Note Time="154" Value="A#3" Duration="5" Instrument="31. Distortion Guitar"
				Note Time="159" Value="D4" Duration="6" Instrument="31. Distortion Guitar"
				Note Time="165" Value="A#3" Duration="4" Instrument="31. Distortion Guitar"
				Note Time="169" Value="G3" Duration="7" Instrument="31. Distortion Guitar"
			Pattern Name="07" Color="6ab96e"
				Note Time="0" Value="B2" Duration="11" Instrument="31. Distortion Guitar"
				Note Time="11" Value="B2" Duration="11" Instrument="31. Distortion Guitar"
				Note Time="22" Value="B3" Duration="11" Instrument="31. Distortion Guitar"
				Note Time="33" Value="B2" Duration="11" Instrument="31. Distortion Guitar"
				Note Time="44" Value="B2" Duration="11" Instrument="31. Distortion Guitar"
				Note Time="55" Value="A3" Duration="11" Instrument="31. Distortion Guitar"
				Note Time="66" Value="B2" Duration="11" Instrument="31. Distortion Guitar"
				Note Time="77" Value="B2" Duration="11" Instrument="31. Distortion Guitar"
				Note Time="88" Value="G3" Duration="11" Instrument="31. Distortion Guitar"
				Note Time="99" Value="B2" Duration="11" Instrument="31. Distortion Guitar"
				Note Time="110" Value="B2" Duration="11" Instrument="31. Distortion Guitar"
				Note Time="121" Value="F3" Duration="11" Instrument="31. Distortion Guitar"
				Note Time="132" Value="B2" Duration="11" Instrument="31. Distortion Guitar"
				Note Time="143" Value="B2" Duration="11" Instrument="31. Distortion Guitar"
				Note Time="154" Value="F#3" Duration="11" Instrument="31. Distortion Guitar"
				Note Time="165" Value="G3" Duration="11" Instrument="31. Distortion Guitar"
			Pattern Name="08" Color="3ca598"
				Note Time="0" Value="A2" Duration="11" Instrument="31. Distortion Guitar"
				Note Time="11" Value="A2" Duration="11" Instrument="31. Distortion Guitar"
				Note Time="22" Value="A3" Duration="11" Instrument="31. Distortion Guitar"
				Note Time="33" Value="A2" Duration="11" Instrument="31. Distortion Guitar"
				Note Time="44" Value="A2" Duration="11" Instrument="31. Distortion Guitar"
				Note Time="55" Value="G3" Duration="11" Instrument="31. Distortion Guitar"
				Note Time="66" Value="A2" Duration="11" Instrument="31. Distortion Guitar"
				Note Time="77" Value="A2" Duration="11" Instrument="31. Distortion Guitar"
				Note Time="88" Value="F3" Duration="11" Instrument="31. Distortion Guitar"
				Note Time="99" Value="A2" Duration="11" Instrument="31. Distortion Guitar"
				Note Time="110" Value="A2" Duration="11" Instrument="31. Distortion Guitar"
				Note Time="121" Value="D#3" Duration="55" Instrument="31. Distortion Guitar"
			Pattern Name="09" Color="3cbfcb"
				Note Time="0" Value="D2" Duration="11" Instrument="31. Distortion Guitar"
				Note Time="11" Value="D2" Duration="11" Instrument="31. Distortion Guitar"
				Note Time="22" Value="D3" Duration="11" Instrument="31. Distortion Guitar"
				Note Time="33" Value="D2" Duration="11" Instrument="31. Distortion Guitar"
				Note Time="44" Value="D2" Duration="11" Instrument="31. Distortion Guitar"
				Note Time="55" Value="C3" Duration="11" Instrument="31. Distortion Guitar"
				Note Time="66" Value="D2" Duration="11" Instrument="31. Distortion Guitar"
				Note Time="77" Value="D2" Duration="11" Instrument="31. Distortion Guitar"
				Note Time="88" Value="D4" Duration="5" Instrument="31. Distortion Guitar"
				Note Time="93" Value="F4" Duration="6" Instrument="31. Distortion Guitar"
				Note Time="99" Value="A3" Duration="4" Instrument="31. Distortion Guitar"
				Note Time="103" Value="F3" Duration="7" Instrument="31. Distortion Guitar"
				Note Time="110" Value="D4" Duration="5" Instrument="31. Distortion Guitar"
				Note Time="115" Value="A3" Duration="6" Instrument="31. Distortion Guitar"
				Note Time="121" Value="F4" Duration="4" Instrument="31. Distortion Guitar"
				Note Time="125" Value="D4" Duration="7" Instrument="31. Distortion Guitar"
				Note Time="132" Value="F4" Duration="5" Instrument="31. Distortion Guitar"
				Note Time="137" Value="D4" Duration="6" Instrument="31. Distortion Guitar"
				Note Time="143" Value="A3" Duration="4" Instrument="31. Distortion Guitar"
				Note Time="147" Value="F3" Duration="7" Instrument="31. Distortion Guitar"
				Note Time="154" Value="D4" Duration="5" Instrument="31. Distortion Guitar"
				Note Time="159" Value="F4" Duration="6" Instrument="31. Distortion Guitar"
				Note Time="165" Value="A4" Duration="4" Instrument="31. Distortion Guitar"
				Note Time="169" Value="D5" Duration="7" Instrument="31. Distortion Guitar"
			Pattern Name="0A" Color="3eb3f9"
				Note Time="0" Value="D2" Duration="11" Instrument="31. Distortion Guitar"
				Note Time="11" Value="D2" Duration="11" Instrument="31. Distortion Guitar"
				Note Time="22" Value="D3" Duration="11" Instrument="31. Distortion Guitar"
				Note Time="33" Value="D2" Duration="11" Instrument="31. Distortion Guitar"
				Note Time="44" Value="D2" Duration="11" Instrument="31. Distortion Guitar"
				Note Time="55" Value="C3" Duration="11" Instrument="31. Distortion Guitar"
				Note Time="66" Value="D2" Duration="11" Instrument="31. Distortion Guitar"
				Note Time="77" Value="D2" Duration="11" Instrument="31. Distortion Guitar"
				Note Time="88" Value="C#4" Duration="5" Instrument="31. Distortion Guitar"
				Note Time="93" Value="A#3" Duration="6" Instrument="31. Distortion Guitar"
				Note Time="99" Value="A3" Duration="4" Instrument="31. Distortion Guitar"
				Note Time="103" Value="E3" Duration="7" Instrument="31. Distortion Guitar"
				Note Time="110" Value="E4" Duration="5" Instrument="31. Distortion Guitar"
				Note Time="115" Value="C#4" Duration="6" Instrument="31. Distortion Guitar"
				Note Time="121" Value="A3" Duration="4" Instrument="31. Distortion Guitar"
				Note Time="125" Value="G3" Duration="7" Instrument="31. Distortion Guitar"
				Note Time="132" Value="G4" Duration="5" Instrument="31. Distortion Guitar"
				Note Time="137" Value="E4" Duration="6" Instrument="31. Distortion Guitar"
				Note Time="143" Value="C#4" Duration="4" Instrument="31. Distortion Guitar"
				Note Time="147" Value="A3" Duration="7" Instrument="31. Distortion Guitar"
				Note Time="154" Value="A4" Duration="5" Instrument="31. Distortion Guitar"
				Note Time="159" Value="G4" Duration="6" Instrument="31. Distortion Guitar"
				Note Time="165" Value="E4" Duration="4" Instrument="31. Distortion Guitar"
				Note Time="169" Value="C4" Duration="7" Instrument="31. Distortion Guitar"
			Pattern Name="0B" Color="51a1fc"
				Note Time="0" Value="D2" Duration="11" Instrument="31. Distortion Guitar"
				Note Time="11" Value="D2" Duration="11" Instrument="31. Distortion Guitar"
				Note Time="22" Value="F3" Duration="11" Instrument="31. Distortion Guitar"
				Note Time="33" Value="D2" Duration="11" Instrument="31. Distortion Guitar"
				Note Time="44" Value="D2" Duration="11" Instrument="31. Distortion Guitar"
				Note Time="55" Value="E3" Duration="11" Instrument="31. Distortion Guitar"
				Note Time="66" Value="D2" Duration="11" Instrument="31. Distortion Guitar"
				Note Time="77" Value="D2" Duration="11" Instrument="31. Distortion Guitar"
				Note Time="88" Value="C#3" Duration="11" Instrument="31. Distortion Guitar"
				Note Time="99" Value="D2" Duration="11" Instrument="31. Distortion Guitar"
				Note Time="110" Value="D2" Duration="11" Instrument="31. Distortion Guitar"
				Note Time="121" Value="C3" Duration="11" Instrument="31. Distortion Guitar"
				Note Time="132" Value="D2" Duration="11" Instrument="31. Distortion Guitar"
				Note Time="143" Value="D2" Duration="11" Instrument="31. Distortion Guitar"
				Note Time="154" Value="C3" Duration="11" Instrument="31. Distortion Guitar"
				Note Time="165" Value="D3" Duration="11" Instrument="31. Distortion Guitar"
			Pattern Name="0C" Color="6471cf"
				Note Time="0" Value="D2" Duration="11" Instrument="31. Distortion Guitar"
				Note Time="11" Value="D2" Duration="11" Instrument="31. Distortion Guitar"
				Note Time="22" Value="F3" Duration="11" Instrument="31. Distortion Guitar"
				Note Time="33" Value="D2" Duration="11" Instrument="31. Distortion Guitar"
				Note Time="44" Value="D2" Duration="11" Instrument="31. Distortion Guitar"
				Note Time="55" Value="E3" Duration="11" Instrument="31. Distortion Guitar"
				Note Time="66" Value="D2" Duration="11" Instrument="31. Distortion Guitar"
				Note Time="77" Value="D2" Duration="11" Instrument="31. Distortion Guitar"
				Note Time="88" Value="D3" Duration="11" Instrument="31. Distortion Guitar"
				Note Time="99" Value="D2" Duration="11" Instrument="31. Distortion Guitar"
				Note Time="110" Value="D2" Duration="11" Instrument="31. Distortion Guitar"
				Note Time="121" Value="B2" Duration="55" Instrument="31. Distortion Guitar"
			Pattern Name="0D" Color="8163dc"
				Note Time="0" Value="D2" Duration="11" Instrument="31. Distortion Guitar"
				Note Time="11" Value="D2" Duration="11" Instrument="31. Distortion Guitar"
				Note Time="22" Value="F3" Duration="11" Instrument="31. Distortion Guitar"
				Note Time="33" Value="D2" Duration="11" Instrument="31. Distortion Guitar"
				Note Time="44" Value="D2" Duration="11" Instrument="31. Distortion Guitar"
				Note Time="55" Value="E3" Duration="11" Instrument="31. Distortion Guitar"
				Note Time="66" Value="D2" Duration="11" Instrument="31. Distortion Guitar"
				Note Time="77" Value="D2" Duration="11" Instrument="31. Distortion Guitar"
				Note Time="88" Value="D4" Duration="5" Instrument="31. Distortion Guitar"
				Note Time="93" Value="A3" Duration="6" Instrument="31. Distortion Guitar"
				Note Time="99" Value="F3" Duration="4" Instrument="31. Distortion Guitar"
				Note Time="103" Value="D3" Duration="7" Instrument="31. Distortion Guitar"
				Note Time="110" Value="A3" Duration="5" Instrument="31. Distortion Guitar"
				Note Time="115" Value="D4" Duration="6" Instrument="31. Distortion Guitar"
				Note Time="121" Value="A3" Duration="4" Instrument="31. Distortion Guitar"
				Note Time="125" Value="F3" Duration="7" Instrument="31. Distortion Guitar"
				Note Time="132" Value="D3" Duration="5" Instrument="31. Distortion Guitar"
				Note Time="137" Value="F3" Duration="6" Instrument="31. Distortion Guitar"
				Note Time="143" Value="A3" Duration="4" Instrument="31. Distortion Guitar"
				Note Time="147" Value="F3" Duration="7" Instrument="31. Distortion Guitar"
				Note Time="154" Value="D4" Duration="5" Instrument="31. Distortion Guitar"
				Note Time="159" Value="A3" Duration="6" Instrument="31. Distortion Guitar"
				Note Time="165" Value="F3" Duration="4" Instrument="31. Distortion Guitar"
				Note Time="169" Value="D3" Duration="7" Instrument="31. Distortion Guitar"
			Pattern Name="0E" Color="a657d6"
				Note Time="0" Value="G2" Duration="11" Instrument="31. Distortion Guitar"
				Note Time="11" Value="G2" Duration="11" Instrument="31. Distortion Guitar"
				Note Time="22" Value="A#3" Duration="11" Instrument="31. Distortion Guitar"
				Note Time="33" Value="G2" Duration="11" Instrument="31. Distortion Guitar"
				Note Time="44" Value="G2" Duration="11" Instrument="31. Distortion Guitar"
				Note Time="55" Value="A3" Duration="11" Instrument="31. Distortion Guitar"
				Note Time="66" Value="G2" Duration="11" Instrument="31. Distortion Guitar"
				Note Time="77" Value="G2" Duration="11" Instrument="31. Distortion Guitar"
				Note Time="88" Value="F#3" Duration="11" Instrument="31. Distortion Guitar"
				Note Time="99" Value="G2" Duration="11" Instrument="31. Distortion Guitar"
				Note Time="110" Value="G2" Duration="11" Instrument="31. Distortion Guitar"
				Note Time="121" Value="F3" Duration="11" Instrument="31. Distortion Guitar"
				Note Time="132" Value="G2" Duration="11" Instrument="31. Distortion Guitar"
				Note Time="143" Value="G2" Duration="11" Instrument="31. Distortion Guitar"
				Note Time="154" Value="F3" Duration="11" Instrument="31. Distortion Guitar"
				Note Time="165" Value="F#3" Duration="11" Instrument="31. Distortion Guitar"
			Pattern Name="0F" Color="e95093"
				Note Time="0" Value="G2" Duration="11" Instrument="31. Distortion Guitar"
				Note Time="11" Value="G2" Duration="11" Instrument="31. Distortion Guitar"
				Note Time="22" Value="A#3" Duration="11" Instrument="31. Distortion Guitar"
				Note Time="33" Value="G2" Duration="11" Instrument="31. Distortion Guitar"
				Note Time="44" Value="G2" Duration="11" Instrument="31. Distortion Guitar"
				Note Time="55" Value="A3" Duration="11" Instrument="31. Distortion Guitar"
				Note Time="66" Value="G2" Duration="11" Instrument="31. Distortion Guitar"
				Note Time="77" Value="G2" Duration="11" Instrument="31. Distortion Guitar"
				Note Time="88" Value="G3" Duration="11" Instrument="31. Distortion Guitar"
				Note Time="99" Value="G2" Duration="11" Instrument="31. Distortion Guitar"
				Note Time="110" Value="G2" Duration="11" Instrument="31. Distortion Guitar"
				Note Time="121" Value="F3" Duration="55" Instrument="31. Distortion Guitar"
			Pattern Name="10" Color="ff6b6b"
				Note Time="0" Value="G2" Duration="11" Instrument="31. Distortion Guitar"
				Note Time="11" Value="G2" Duration="11" Instrument="31. Distortion Guitar"
				Note Time="22" Value="A#3" Duration="11" Instrument="31. Distortion Guitar"
				Note Time="33" Value="G2" Duration="11" Instrument="31. Distortion Guitar"
				Note Time="44" Value="G2" Duration="11" Instrument="31. Distortion Guitar"
				Note Time="55" Value="A3" Duration="11" Instrument="31. Distortion Guitar"
				Note Time="66" Value="G2" Duration="11" Instrument="31. Distortion Guitar"
				Note Time="77" Value="G2" Duration="11" Instrument="31. Distortion Guitar"
				Note Time="88" Value="D4" Duration="5" Instrument="31. Distortion Guitar"
				Note Time="93" Value="C4" Duration="6" Instrument="31. Distortion Guitar"
				Note Time="99" Value="A#3" Duration="4" Instrument="31. Distortion Guitar"
				Note Time="103" Value="D4" Duration="7" Instrument="31. Distortion Guitar"
				Note Time="110" Value="A#3" Duration="5" Instrument="31. Distortion Guitar"
				Note Time="115" Value="G3" Duration="6" Instrument="31. Distortion Guitar"
				Note Time="121" Value="A#3" Duration="4" Instrument="31. Distortion Guitar"
				Note Time="125" Value="D4" Duration="7" Instrument="31. Distortion Guitar"
				Note Time="132" Value="G4" Duration="5" Instrument="31. Distortion Guitar"
				Note Time="137" Value="D4" Duration="6" Instrument="31. Distortion Guitar"
				Note Time="143" Value="A#3" Duration="4" Instrument="31. Distortion Guitar"
				Note Time="147" Value="D4" Duration="7" Instrument="31. Distortion Guitar"
				Note Time="154" Value="A#3" Duration="5" Instrument="31. Distortion Guitar"
				Note Time="159" Value="D4" Duration="6" Instrument="31. Distortion Guitar"
				Note Time="165" Value="A#3" Duration="4" Instrument="31. Distortion Guitar"
				Note Time="169" Value="G3" Duration="7" Instrument="31. Distortion Guitar"
			Pattern Name="11" Color="ff8655"
				Note Time="0" Value="D2" Duration="11" Instrument="31. Distortion Guitar"
				Note Time="11" Value="D2" Duration="11" Instrument="31. Distortion Guitar"
				Note Time="22" Value="F3" Duration="11" Instrument="31. Distortion Guitar"
				Note Time="33" Value="D2" Duration="11" Instrument="31. Distortion Guitar"
				Note Time="44" Value="D2" Duration="11" Instrument="31. Distortion Guitar"
				Note Time="55" Value="E3" Duration="11" Instrument="31. Distortion Guitar"
				Note Time="66" Value="D2" Duration="11" Instrument="31. Distortion Guitar"
				Note Time="77" Value="D2" Duration="11" Instrument="31. Distortion Guitar"
				Note Time="88" Value="C#3" Duration="11" Instrument="31. Distortion Guitar"
				Note Time="99" Value="D2" Duration="11" Instrument="31. Distortion Guitar"
				Note Time="110" Value="D2" Duration="11" Instrument="31. Distortion Guitar"
				Note Time="121" Value="B2" Duration="55" Instrument="31. Distortion Guitar"
			Pattern Name="12" Color="ffb83c"
				Note Time="0" Value="B2" Duration="11" Instrument="31. Distortion Guitar"
				Note Time="11" Value="B2" Duration="11" Instrument="31. Distortion Guitar"
				Note Time="22" Value="F4" Duration="11" Instrument="31. Distortion Guitar"
				Note Time="33" Value="B2" Duration="11" Instrument="31. Distortion Guitar"
				Note Time="44" Value="B2" Duration="11" Instrument="31. Distortion Guitar"
				Note Time="55" Value="E4" Duration="11" Instrument="31. Distortion Guitar"
				Note Time="66" Value="B2" Duration="11" Instrument="31. Distortion Guitar"
				Note Time="77" Value="B2" Duration="11" Instrument="31. Distortion Guitar"
				Note Time="88" Value="D4" Duration="11" Instrument="31. Distortion Guitar"
				Note Time="99" Value="B2" Duration="11" Instrument="31. Distortion Guitar"
				Note Time="110" Value="B2" Duration="11" Instrument="31. Distortion Guitar"
				Note Time="121" Value="B3" Duration="11" Instrument="31. Distortion Guitar"
				Note Time="132" Value="B2" Duration="11" Instrument="31. Distortion Guitar"
				Note Time="143" Value="B2" Duration="11" Instrument="31. Distortion Guitar"
				Note Time="154" Value="B3" Duration="11" Instrument="31. Distortion Guitar"
				Note Time="165" Value="D4" Duration="11" Instrument="31. Distortion Guitar"
			Pattern Name="13" Color="ffdc3c"
				Note Time="0" Value="A2" Duration="11" Instrument="31. Distortion Guitar"
				Note Time="11" Value="A2" Duration="11" Instrument="31. Distortion Guitar"
				Note Time="22" Value="E4" Duration="11" Instrument="31. Distortion Guitar"
				Note Time="33" Value="A2" Duration="11" Instrument="31. Distortion Guitar"
				Note Time="44" Value="A2" Duration="11" Instrument="31. Distortion Guitar"
				Note Time="55" Value="D4" Duration="11" Instrument="31. Distortion Guitar"
				Note Time="66" Value="A2" Duration="11" Instrument="31. Distortion Guitar"
				Note Time="77" Value="A2" Duration="11" Instrument="31. Distortion Guitar"
				Note Time="88" Value="C#4" Duration="11" Instrument="31. Distortion Guitar"
				Note Time="99" Value="A2" Duration="11" Instrument="31. Distortion Guitar"
				Note Time="110" Value="A2" Duration="11" Instrument="31. Distortion Guitar"
				Note Time="121" Value="A3" Duration="55" Instrument="31. Distortion Guitar"
			Pattern Name="14" Color="fffc69"
				Note Time="0" Value="D2" Duration="11" Instrument="31. Distortion Guitar"
				Note Time="11" Value="D2" Duration="11" Instrument="31. Distortion Guitar"
				Note Time="22" Value="F3" Duration="11" Instrument="31. Distortion Guitar"
				Note Time="33" Value="D2" Duration="11" Instrument="31. Distortion Guitar"
				Note Time="44" Value="D2" Duration="11" Instrument="31. Distortion Guitar"
				Note Time="55" Value="E3" Duration="11" Instrument="31. Distortion Guitar"
				Note Time="66" Value="D2" Duration="11" Instrument="31. Distortion Guitar"
				Note Time="77" Value="D2" Duration="11" Instrument="31. Distortion Guitar"
				Note Time="88" Value="G4" Duration="5" Instrument="31. Distortion Guitar"
				Note Time="93" Value="E4" Duration="6" Instrument="31. Distortion Guitar"
				Note Time="99" Value="C#4" Duration="4" Instrument="31. Distortion Guitar"
				Note Time="103" Value="A3" Duration="7" Instrument="31. Distortion Guitar"
				Note Time="110" Value="G3" Duration="5" Instrument="31. Distortion Guitar"
				Note Time="115" Value="E3" Duration="6" Instrument="31. Distortion Guitar"
				Note Time="121" Value="C#3" Duration="4" Instrument="31. Distortion Guitar"
				Note Time="125" Value="A2" Duration="7" Instrument="31. Distortion Guitar"
				Note Time="132" Value="A4" Duration="5" Instrument="31. Distortion Guitar"
				Note Time="137" Value="G4" Duration="6" Instrument="31. Distortion Guitar"
				Note Time="143" Value="E4" Duration="4" Instrument="31. Distortion Guitar"
				Note Time="147" Value="C#4" Duration="7" Instrument="31. Distortion Guitar"
				Note Time="154" Value="A3" Duration="5" Instrument="31. Distortion Guitar"
				Note Time="159" Value="G3" Duration="6" Instrument="31. Distortion Guitar"
				Note Time="165" Value="E3" Duration="4" Instrument="31. Distortion Guitar"
				Note Time="169" Value="C#3" Duration="7" Instrument="31. Distortion Guitar"
			PatternInstance Time="0" Pattern="00"
			PatternInstance Time="1" Pattern="01"
			PatternInstance Time="2" Pattern="00"
			PatternInstance Time="3" Pattern="01"
			PatternInstance Time="4" Pattern="00"
			PatternInstance Time="5" Pattern="01"
			PatternInstance Time="6" Pattern="00"
			PatternInstance Time="7" Pattern="02"
			PatternInstance Time="8" Pattern="00"
			PatternInstance Time="9" Pattern="01"
			PatternInstance Time="10" Pattern="00"
			PatternInstance Time="11" Pattern="03"
			PatternInstance Time="12" Pattern="04"
			PatternInstance Time="13" Pattern="05"
			PatternInstance Time="14" Pattern="04"
			PatternInstance Time="15" Pattern="06"
			PatternInstance Time="16" Pattern="00"
			PatternInstance Time="17" Pattern="01"
			PatternInstance Time="18" Pattern="00"
			PatternInstance Time="19" Pattern="01"
			PatternInstance Time="20" Pattern="07"
			PatternInstance Time="21" Pattern="08"
			PatternInstance Time="22" Pattern="00"
			PatternInstance Time="23" Pattern="09"
			PatternInstance Time="24" Pattern="00"
			PatternInstance Time="25" Pattern="01"
			PatternInstance Time="26" Pattern="00"
			PatternInstance Time="27" Pattern="0A"
			PatternInstance Time="28" Pattern="0B"
			PatternInstance Time="29" Pattern="0C"
			PatternInstance Time="30" Pattern="0B"
			PatternInstance Time="31" Pattern="0D"
			PatternInstance Time="32" Pattern="0E"
			PatternInstance Time="33" Pattern="0F"
			PatternInstance Time="34" Pattern="0E"
			PatternInstance Time="35" Pattern="10"
			PatternInstance Time="36" Pattern="0B"
			PatternInstance Time="37" Pattern="0C"
			PatternInstance Time="38" Pattern="0B"
			PatternInstance Time="39" Pattern="11"
			PatternInstance Time="40" Pattern="12"
			PatternInstance Time="41" Pattern="13"
			PatternInstance Time="42" Pattern="0B"
			PatternInstance Time="43" Pattern="14"
		Channel Type="EPSMFM3"
			Pattern Name="00" Color="ff6464"
				Note Time="0" Value="D3" Duration="2640" Instrument="30. Overdriven Guitar"
			Pattern Name="01" Color="ff7f51"
				Note Time="0" Value="D4" Duration="2288" Instrument="30. Overdriven Guitar"
			Pattern Name="02" Color="ffa83c"
				Note Time="0" Value="B3" Duration="176" Instrument="30. Overdriven Guitar"
			Pattern Name="03" Color="ffcb3c"
				Note Time="0" Value="A3" Duration="176" Instrument="30. Overdriven Guitar"
			PatternInstance Time="4" Pattern="00"
			PatternInstance Time="7" Pattern="01"
			PatternInstance Time="20" Pattern="02"
			PatternInstance Time="21" Pattern="03"
			PatternInstance Time="22" Pattern="01"
			PatternInstance Time="24" Pattern="00"
			PatternInstance Time="39" Pattern="02"
			PatternInstance Time="40" Pattern="03"
			PatternInstance Time="41" Pattern="01"
		Channel Type="EPSMFM4"
			Pattern Name="00" Color="ff6464"
				Note Time="0" Value="A2" Duration="2640" Instrument="30. Overdriven Guitar"
			Pattern Name="01" Color="ff7f51"
				Note Time="0" Value="A3" Duration="2288" Instrument="30. Overdriven Guitar"
			Pattern Name="02" Color="ffa83c"
				Note Time="0" Value="F#3" Duration="176" Instrument="30. Overdriven Guitar"
			Pattern Name="03" Color="ffcb3c"
				Note Time="0" Value="E3" Duration="176" Instrument="30. Overdriven Guitar"
			PatternInstance Time="4" Pattern="00"
			PatternInstance Time="7" Pattern="01"
			PatternInstance Time="20" Pattern="02"
			PatternInstance Time="21" Pattern="03"
			PatternInstance Time="22" Pattern="01"
			PatternInstance Time="24" Pattern="00"
			PatternInstance Time="39" Pattern="02"
			PatternInstance Time="40" Pattern="03"
			PatternInstance Time="41" Pattern="01"
		Channel Type="EPSMFM5"
			Pattern Name="00" Color="ff6464"
				Note Time="0" Value="D2" Duration="11" Instrument="37. Slap Bass 1"
				Note Time="11" Value="D2" Duration="11" Instrument="37. Slap Bass 1"
				Note Time="22" Value="D3" Duration="11" Instrument="37. Slap Bass 1"
				Note Time="33" Value="D2" Duration="11" Instrument="37. Slap Bass 1"
				Note Time="44" Value="D2" Duration="11" Instrument="37. Slap Bass 1"
				Note Time="55" Value="C3" Duration="11" Instrument="37. Slap Bass 1"
				Note Time="66" Value="D2" Duration="11" Instrument="37. Slap Bass 1"
				Note Time="77" Value="D2" Duration="11" Instrument="37. Slap Bass 1"
				Note Time="88" Value="A#2" Duration="11" Instrument="37. Slap Bass 1"
				Note Time="99" Value="D2" Duration="11" Instrument="37. Slap Bass 1"
				Note Time="110" Value="D2" Duration="11" Instrument="37. Slap Bass 1"
				Note Time="121" Value="G#2" Duration="11" Instrument="37. Slap Bass 1"
				Note Time="132" Value="D2" Duration="11" Instrument="37. Slap Bass 1"
				Note Time="143" Value="D2" Duration="11" Instrument="37. Slap Bass 1"
				Note Time="154" Value="A2" Duration="11" Instrument="37. Slap Bass 1"
				Note Time="165" Value="A#2" Duration="11" Instrument="37. Slap Bass 1"
			Pattern Name="01" Color="ff7f51"
				Note Time="0" Value="D2" Duration="11" Instrument="37. Slap Bass 1"
				Note Time="11" Value="D2" Duration="11" Instrument="37. Slap Bass 1"
				Note Time="22" Value="D3" Duration="11" Instrument="37. Slap Bass 1"
				Note Time="33" Value="D2" Duration="11" Instrument="37. Slap Bass 1"
				Note Time="44" Value="D2" Duration="11" Instrument="37. Slap Bass 1"
				Note Time="55" Value="C3" Duration="11" Instrument="37. Slap Bass 1"
				Note Time="66" Value="D2" Duration="11" Instrument="37. Slap Bass 1"
				Note Time="77" Value="D2" Duration="11" Instrument="37. Slap Bass 1"
				Note Time="88" Value="A#2" Duration="11" Instrument="37. Slap Bass 1"
				Note Time="99" Value="D2" Duration="11" Instrument="37. Slap Bass 1"
				Note Time="110" Value="D2" Duration="11" Instrument="37. Slap Bass 1"
				Note Time="121" Value="G#2" Duration="55" Instrument="37. Slap Bass 1"
			Pattern Name="02" Color="ffa83c"
				Note Time="0" Value="D2" Duration="11" Instrument="37. Slap Bass 1"
				Note Time="11" Value="D2" Duration="11" Instrument="37. Slap Bass 1"
				Note Time="22" Value="D3" Duration="11" Instrument="37. Slap Bass 1"
				Note Time="33" Value="D2" Duration="11" Instrument="37. Slap Bass 1"
				Note Time="44" Value="D2" Duration="11" Instrument="37. Slap Bass 1"
				Note Time="55" Value="C3" Duration="11" Instrument="37. Slap Bass 1"
				Note Time="66" Value="D2" Duration="11" Instrument="37. Slap Bass 1"
				Note Time="77" Value="D2" Duration="11" Instrument="37. Slap Bass 1"
				Note Time="88" Value="E2" Duration="5" Instrument="37. Slap Bass 1"
				Note Time="93" Value="D2" Duration="6" Instrument="37. Slap Bass 1"
				Note Time="99" Value="C#2" Duration="4" Instrument="37. Slap Bass 1"
				Note Time="103" Value="E2" Duration="7" Instrument="37. Slap Bass 1"
				Note Time="110" Value="G2" Duration="5" Instrument="37. Slap Bass 1"
				Note Time="115" Value="F2" Duration="6" Instrument="37. Slap Bass 1"
				Note Time="121" Value="E2" Duration="4" Instrument="37. Slap Bass 1"
				Note Time="125" Value="C#2" Duration="7" Instrument="37. Slap Bass 1"
				Note Time="132" Value="E2" Duration="5" Instrument="37. Slap Bass 1"
				Note Time="137" Value="F2" Duration="6" Instrument="37. Slap Bass 1"
				Note Time="143" Value="G2" Duration="4" Instrument="37. Slap Bass 1"
				Note Time="147" Value="A2" Duration="7" Instrument="37. Slap Bass 1"
				Note Time="154" Value="G2" Duration="5" Instrument="37. Slap Bass 1"
				Note Time="159" Value="F2" Duration="6" Instrument="37. Slap Bass 1"
				Note Time="165" Value="E2" Duration="4" Instrument="37. Slap Bass 1"
				Note Time="169" Value="C#2" Duration="7" Instrument="37. Slap Bass 1"
			Pattern Name="03" Color="ffcb3c"
				Note Time="0" Value="D2" Duration="11" Instrument="37. Slap Bass 1"
				Note Time="11" Value="D2" Duration="11" Instrument="37. Slap Bass 1"
				Note Time="22" Value="D3" Duration="11" Instrument="37. Slap Bass 1"
				Note Time="33" Value="D2" Duration="11" Instrument="37. Slap Bass 1"
				Note Time="44" Value="D2" Duration="11" Instrument="37. Slap Bass 1"
				Note Time="55" Value="C3" Duration="11" Instrument="37. Slap Bass 1"
				Note Time="66" Value="D2" Duration="11" Instrument="37. Slap Bass 1"
				Note Time="77" Value="D2" Duration="11" Instrument="37. Slap Bass 1"
				Note Time="88" Value="A2" Duration="5" Instrument="37. Slap Bass 1"
				Note Time="93" Value="F2" Duration="6" Instrument="37. Slap Bass 1"
				Note Time="99" Value="D2" Duration="4" Instrument="37. Slap Bass 1"
				Note Time="103" Value="F2" Duration="7" Instrument="37. Slap Bass 1"
				Note Time="110" Value="A2" Duration="5" Instrument="37. Slap Bass 1"
				Note Time="115" Value="F2" Duration="6" Instrument="37. Slap Bass 1"
				Note Time="121" Value="A2" Duration="4" Instrument="37. Slap Bass 1"
				Note Time="125" Value="A2" Duration="7" Instrument="37. Slap Bass 1"
				Note Time="132" Value="F2" Duration="5" Instrument="37. Slap Bass 1"
				Note Time="137" Value="A2" Duration="6" Instrument="37. Slap Bass 1"
				Note Time="143" Value="F2" Duration="4" Instrument="37. Slap Bass 1"
				Note Time="147" Value="A2" Duration="7" Instrument="37. Slap Bass 1"
				Note Time="154" Value="D3" Duration="5" Instrument="37. Slap Bass 1"
				Note Time="159" Value="D2" Duration="6" Instrument="37. Slap Bass 1"
				Note Time="165" Value="D3" Duration="4" Instrument="37. Slap Bass 1"
				Note Time="169" Value="D2" Duration="7" Instrument="37. Slap Bass 1"
			Pattern Name="04" Color="ffe461"
				Note Time="0" Value="G2" Duration="11" Instrument="37. Slap Bass 1"
				Note Time="11" Value="G2" Duration="11" Instrument="37. Slap Bass 1"
				Note Time="22" Value="G3" Duration="11" Instrument="37. Slap Bass 1"
				Note Time="33" Value="G2" Duration="11" Instrument="37. Slap Bass 1"
				Note Time="44" Value="G2" Duration="11" Instrument="37. Slap Bass 1"
				Note Time="55" Value="F3" Duration="11" Instrument="37. Slap Bass 1"
				Note Time="66" Value="G2" Duration="11" Instrument="37. Slap Bass 1"
				Note Time="77" Value="G2" Duration="11" Instrument="37. Slap Bass 1"
				Note Time="88" Value="D#3" Duration="11" Instrument="37. Slap Bass 1"
				Note Time="99" Value="G2" Duration="11" Instrument="37. Slap Bass 1"
				Note Time="110" Value="G2" Duration="11" Instrument="37. Slap Bass 1"
				Note Time="121" Value="C#3" Duration="11" Instrument="37. Slap Bass 1"
				Note Time="132" Value="G2" Duration="11" Instrument="37. Slap Bass 1"
				Note Time="143" Value="G2" Duration="11" Instrument="37. Slap Bass 1"
				Note Time="154" Value="D3" Duration="11" Instrument="37. Slap Bass 1"
				Note Time="165" Value="D#3" Duration="11" Instrument="37. Slap Bass 1"
			Pattern Name="05" Color="dad960"
				Note Time="0" Value="G2" Duration="11" Instrument="37. Slap Bass 1"
				Note Time="11" Value="G2" Duration="11" Instrument="37. Slap Bass 1"
				Note Time="22" Value="G3" Duration="11" Instrument="37. Slap Bass 1"
				Note Time="33" Value="G2" Duration="11" Instrument="37. Slap Bass 1"
				Note Time="44" Value="G2" Duration="11" Instrument="37. Slap Bass 1"
				Note Time="55" Value="F3" Duration="11" Instrument="37. Slap Bass 1"
				Note Time="66" Value="G2" Duration="11" Instrument="37. Slap Bass 1"
				Note Time="77" Value="G2" Duration="11" Instrument="37. Slap Bass 1"
				Note Time="88" Value="D#3" Duration="11" Instrument="37. Slap Bass 1"
				Note Time="99" Value="G2" Duration="11" Instrument="37. Slap Bass 1"
				Note Time="110" Value="G2" Duration="11" Instrument="37. Slap Bass 1"
				Note Time="121" Value="C#3" Duration="55" Instrument="37. Slap Bass 1"
			Pattern Name="06" Color="91c76b"
				Note Time="0" Value="G2" Duration="11" Instrument="37. Slap Bass 1"
				Note Time="11" Value="G2" Duration="11" Instrument="37. Slap Bass 1"
				Note Time="22" Value="G3" Duration="11" Instrument="37. Slap Bass 1"
				Note Time="33" Value="G2" Duration="11" Instrument="37. Slap Bass 1"
				Note Time="44" Value="G2" Duration="11" Instrument="37. Slap Bass 1"
				Note Time="55" Value="F3" Duration="11" Instrument="37. Slap Bass 1"
				Note Time="66" Value="G2" Duration="11" Instrument="37. Slap Bass 1"
				Note Time="77" Value="G2" Duration="11" Instrument="37. Slap Bass 1"
				Note Time="88" Value="D3" Duration="5" Instrument="37. Slap Bass 1"
				Note Time="93" Value="C3" Duration="6" Instrument="37. Slap Bass 1"
				Note Time="99" Value="A#2" Duration="4" Instrument="37. Slap Bass 1"
				Note Time="103" Value="D3" Duration="7" Instrument="37. Slap Bass 1"
				Note Time="110" Value="A#2" Duration="5" Instrument="37. Slap Bass 1"
				Note Time="115" Value="G2" Duration="6" Instrument="37. Slap Bass 1"
				Note Time="121" Value="A#2" Duration="4" Instrument="37. Slap Bass 1"
				Note Time="125" Value="D3" Duration="7" Instrument="37. Slap Bass 1"
				Note Time="132" Value="G3" Duration="5" Instrument="37. Slap Bass 1"
				Note Time="137" Value="D3" Duration="6" Instrument="37. Slap Bass 1"
				Note Time="143" Value="A#2" Duration="4" Instrument="37. Slap Bass 1"
				Note Time="147" Value="D3" Duration="7" Instrument="37. Slap Bass 1"
				Note Time="154" Value="A#2" Duration="5" Instrument="37. Slap Bass 1"
				Note Time="159" Value="D3" Duration="6" Instrument="37. Slap Bass 1"
				Note Time="165" Value="A#2" Duration="4" Instrument="37. Slap Bass 1"
				Note Time="169" Value="G2" Duration="7" Instrument="37. Slap Bass 1"
			Pattern Name="07" Color="6ab96e"
				Note Time="0" Value="D2" Duration="11" Instrument="37. Slap Bass 1"
				Note Time="11" Value="D2" Duration="11" Instrument="37. Slap Bass 1"
				Note Time="22" Value="D3" Duration="11" Instrument="37. Slap Bass 1"
				Note Time="33" Value="D2" Duration="11" Instrument="37. Slap Bass 1"
				Note Time="44" Value="D2" Duration="11" Instrument="37. Slap Bass 1"
				Note Time="55" Value="C3" Duration="11" Instrument="37. Slap Bass 1"
				Note Time="66" Value="D2" Duration="11" Instrument="37. Slap Bass 1"
				Note Time="77" Value="D2" Duration="11" Instrument="37. Slap Bass 1"
				Note Time="88" Value="A#2" Duration="11" Instrument="37. Slap Bass 1"
				Note Time="99" Value="D2" Duration="11" Instrument="37. Slap Bass 1"
				Note Time="110" Value="D2" Duration="11" Instrument="37. Slap Bass 1"
				Note Time="121" Value="G#2" Duration="11" Instrument="37. Slap Bass 1"
				Note Time="132" Value="D2" Duration="11" Instrument="37. Slap Bass 1"
				Note Time="143" Value="D2" Duration="11" Instrument="37. Slap Bass 1"
				Note Time="154" Value="G#2" Duration="11" Instrument="37. Slap Bass 1"
				Note Time="165" Value="A2" Duration="11" Instrument="37. Slap Bass 1"
			Pattern Name="08" Color="3ca598"
				Note Time="0" Value="B2" Duration="11" Instrument="37. Slap Bass 1"
				Note Time="11" Value="B2" Duration="11" Instrument="37. Slap Bass 1"
				Note Time="22" Value="B3" Duration="11" Instrument="37. Slap Bass 1"
				Note Time="33" Value="B2" Duration="11" Instrument="37. Slap Bass 1"
				Note Time="44" Value="B2" Duration="11" Instrument="37. Slap Bass 1"
				Note Time="55" Value="A3" Duration="11" Instrument="37. Slap Bass 1"
				Note Time="66" Value="B2" Duration="11" Instrument="37. Slap Bass 1"
				Note Time="77" Value="B2" Duration="11" Instrument="37. Slap Bass 1"
				Note Time="88" Value="G3" Duration="11" Instrument="37. Slap Bass 1"
				Note Time="99" Value="B2" Duration="11" Instrument="37. Slap Bass 1"
				Note Time="110" Value="B2" Duration="11" Instrument="37. Slap Bass 1"
				Note Time="121" Value="F3" Duration="11" Instrument="37. Slap Bass 1"
				Note Time="132" Value="B2" Duration="11" Instrument="37. Slap Bass 1"
				Note Time="143" Value="B2" Duration="11" Instrument="37. Slap Bass 1"
				Note Time="154" Value="F#3" Duration="11" Instrument="37. Slap Bass 1"
				Note Time="165" Value="G3" Duration="11" Instrument="37. Slap Bass 1"
			Pattern Name="09" Color="3cbfcb"
				Note Time="0" Value="A2" Duration="11" Instrument="37. Slap Bass 1"
				Note Time="11" Value="A2" Duration="11" Instrument="37. Slap Bass 1"
				Note Time="22" Value="A3" Duration="11" Instrument="37. Slap Bass 1"
				Note Time="33" Value="A2" Duration="11" Instrument="37. Slap Bass 1"
				Note Time="44" Value="A2" Duration="11" Instrument="37. Slap Bass 1"
				Note Time="55" Value="G3" Duration="11" Instrument="37. Slap Bass 1"
				Note Time="66" Value="A2" Duration="11" Instrument="37. Slap Bass 1"
				Note Time="77" Value="A2" Duration="11" Instrument="37. Slap Bass 1"
				Note Time="88" Value="F3" Duration="11" Instrument="37. Slap Bass 1"
				Note Time="99" Value="A2" Duration="11" Instrument="37. Slap Bass 1"
				Note Time="110" Value="A2" Duration="11" Instrument="37. Slap Bass 1"
				Note Time="121" Value="D#3" Duration="55" Instrument="37. Slap Bass 1"
			Pattern Name="0A" Color="3eb3f9"
				Note Time="0" Value="D2" Duration="11" Instrument="37. Slap Bass 1"
				Note Time="11" Value="D2" Duration="11" Instrument="37. Slap Bass 1"
				Note Time="22" Value="D3" Duration="11" Instrument="37. Slap Bass 1"
				Note Time="33" Value="D2" Duration="11" Instrument="37. Slap Bass 1"
				Note Time="44" Value="D2" Duration="11" Instrument="37. Slap Bass 1"
				Note Time="55" Value="C3" Duration="11" Instrument="37. Slap Bass 1"
				Note Time="66" Value="D2" Duration="11" Instrument="37. Slap Bass 1"
				Note Time="77" Value="D2" Duration="11" Instrument="37. Slap Bass 1"
				Note Time="88" Value="D3" Duration="5" Instrument="37. Slap Bass 1"
				Note Time="93" Value="F3" Duration="6" Instrument="37. Slap Bass 1"
				Note Time="99" Value="A2" Duration="4" Instrument="37. Slap Bass 1"
				Note Time="103" Value="F2" Duration="7" Instrument="37. Slap Bass 1"
				Note Time="110" Value="D3" Duration="5" Instrument="37. Slap Bass 1"
				Note Time="115" Value="A2" Duration="6" Instrument="37. Slap Bass 1"
				Note Time="121" Value="F3" Duration="4" Instrument="37. Slap Bass 1"
				Note Time="125" Value="D3" Duration="7" Instrument="37. Slap Bass 1"
				Note Time="132" Value="F3" Duration="5" Instrument="37. Slap Bass 1"
				Note Time="137" Value="D3" Duration="6" Instrument="37. Slap Bass 1"
				Note Time="143" Value="A2" Duration="4" Instrument="37. Slap Bass 1"
				Note Time="147" Value="F2" Duration="7" Instrument="37. Slap Bass 1"
				Note Time="154" Value="D3" Duration="5" Instrument="37. Slap Bass 1"
				Note Time="159" Value="F3" Duration="6" Instrument="37. Slap Bass 1"
				Note Time="165" Value="A3" Duration="4" Instrument="37. Slap Bass 1"
				Note Time="169" Value="D4" Duration="7" Instrument="37. Slap Bass 1"
			Pattern Name="0B" Color="51a1fc"
				Note Time="0" Value="D2" Duration="11" Instrument="37. Slap Bass 1"
				Note Time="11" Value="D2" Duration="11" Instrument="37. Slap Bass 1"
				Note Time="22" Value="D3" Duration="11" Instrument="37. Slap Bass 1"
				Note Time="33" Value="D2" Duration="11" Instrument="37. Slap Bass 1"
				Note Time="44" Value="D2" Duration="11" Instrument="37. Slap Bass 1"
				Note Time="55" Value="C3" Duration="11" Instrument="37. Slap Bass 1"
				Note Time="66" Value="D2" Duration="11" Instrument="37. Slap Bass 1"
				Note Time="77" Value="D2" Duration="11" Instrument="37. Slap Bass 1"
				Note Time="88" Value="A#2" Duration="22" Instrument="37. Slap Bass 1"
				Note Time="110" Value="G#2" Duration="66" Instrument="37. Slap Bass 1"
			Pattern Name="0C" Color="6471cf"
				Note Time="0" Value="D2" Duration="11" Instrument="37. Slap Bass 1"
				Note Time="11" Value="D2" Duration="11" Instrument="37. Slap Bass 1"
				Note Time="22" Value="D3" Duration="11" Instrument="37. Slap Bass 1"
				Note Time="33" Value="D2" Duration="11" Instrument="37. Slap Bass 1"
				Note Time="44" Value="D2" Duration="11" Instrument="37. Slap Bass 1"
				Note Time="55" Value="C3" Duration="11" Instrument="37. Slap Bass 1"
				Note Time="66" Value="D2" Duration="11" Instrument="37. Slap Bass 1"
				Note Time="77" Value="D2" Duration="11" Instrument="37. Slap Bass 1"
				Note Time="88" Value="C#3" Duration="5" Instrument="37. Slap Bass 1"
				Note Time="93" Value="A#2" Duration="6" Instrument="37. Slap Bass 1"
				Note Time="99" Value="A2" Duration="4" Instrument="37. Slap Bass 1"
				Note Time="103" Value="E2" Duration="7" Instrument="37. Slap Bass 1"
				Note Time="110" Value="E3" Duration="5" Instrument="37. Slap Bass 1"
				Note Time="115" Value="C#3" Duration="6" Instrument="37. Slap Bass 1"
				Note Time="121" Value="A2" Duration="4" Instrument="37. Slap Bass 1"
				Note Time="125" Value="G2" Duration="7" Instrument="37. Slap Bass 1"
				Note Time="132" Value="G3" Duration="5" Instrument="37. Slap Bass 1"
				Note Time="137" Value="E3" Duration="6" Instrument="37. Slap Bass 1"
				Note Time="143" Value="C#3" Duration="4" Instrument="37. Slap Bass 1"
				Note Time="147" Value="A2" Duration="7" Instrument="37. Slap Bass 1"
				Note Time="154" Value="A3" Duration="5" Instrument="37. Slap Bass 1"
				Note Time="159" Value="G3" Duration="6" Instrument="37. Slap Bass 1"
				Note Time="165" Value="E3" Duration="4" Instrument="37. Slap Bass 1"
				Note Time="169" Value="C3" Duration="7" Instrument="37. Slap Bass 1"
			Pattern Name="0D" Color="8163dc"
				Note Time="0" Value="D2" Duration="11" Instrument="37. Slap Bass 1"
				Note Time="11" Value="D2" Duration="11" Instrument="37. Slap Bass 1"
				Note Time="22" Value="F3" Duration="11" Instrument="37. Slap Bass 1"
				Note Time="33" Value="D2" Duration="11" Instrument="37. Slap Bass 1"
				Note Time="44" Value="D2" Duration="11" Instrument="37. Slap Bass 1"
				Note Time="55" Value="E3" Duration="11" Instrument="37. Slap Bass 1"
				Note Time="66" Value="D2" Duration="11" Instrument="37. Slap Bass 1"
				Note Time="77" Value="D2" Duration="11" Instrument="37. Slap Bass 1"
				Note Time="88" Value="C#3" Duration="11" Instrument="37. Slap Bass 1"
				Note Time="99" Value="D2" Duration="11" Instrument="37. Slap Bass 1"
				Note Time="110" Value="D2" Duration="11" Instrument="37. Slap Bass 1"
				Note Time="121" Value="C3" Duration="11" Instrument="37. Slap Bass 1"
				Note Time="132" Value="D2" Duration="11" Instrument="37. Slap Bass 1"
				Note Time="143" Value="D2" Duration="11" Instrument="37. Slap Bass 1"
				Note Time="154" Value="C3" Duration="11" Instrument="37. Slap Bass 1"
				Note Time="165" Value="D3" Duration="11" Instrument="37. Slap Bass 1"
			Pattern Name="0E" Color="a657d6"
				Note Time="0" Value="D2" Duration="11" Instrument="37. Slap Bass 1"
				Note Time="11" Value="D2" Duration="11" Instrument="37. Slap Bass 1"
				Note Time="22" Value="F3" Duration="11" Instrument="37. Slap Bass 1"
				Note Time="33" Value="D2" Duration="11" Instrument="37. Slap Bass 1"
				Note Time="44" Value="D2" Duration="11" Instrument="37. Slap Bass 1"
				Note Time="55" Value="E3" Duration="11" Instrument="37. Slap Bass 1"
				Note Time="66" Value="D2" Duration="11" Instrument="37. Slap Bass 1"
				Note Time="77" Value="D2" Duration="11" Instrument="37. Slap Bass 1"
				Note Time="88" Value="D3" Duration="11" Instrument="37. Slap Bass 1"
				Note Time="99" Value="D2" Duration="11" Instrument="37. Slap Bass 1"
				Note Time="110" Value="D2" Duration="11" Instrument="37. Slap Bass 1"
				Note Time="121" Value="B2" Duration="55" Instrument="37. Slap Bass 1"
			Pattern Name="0F" Color="e95093"
				Note Time="0" Value="D2" Duration="11" Instrument="37. Slap Bass 1"
				Note Time="11" Value="D2" Duration="11" Instrument="37. Slap Bass 1"
				Note Time="22" Value="F3" Duration="11" Instrument="37. Slap Bass 1"
				Note Time="33" Value="D2" Duration="11" Instrument="37. Slap Bass 1"
				Note Time="44" Value="D2" Duration="11" Instrument="37. Slap Bass 1"
				Note Time="55" Value="E3" Duration="11" Instrument="37. Slap Bass 1"
				Note Time="66" Value="D2" Duration="11" Instrument="37. Slap Bass 1"
				Note Time="77" Value="D2" Duration="11" Instrument="37. Slap Bass 1"
				Note Time="88" Value="E3" Duration="5" Instrument="37. Slap Bass 1"
				Note Time="93" Value="B2" Duration="6" Instrument="37. Slap Bass 1"
				Note Time="99" Value="G2" Duration="4" Instrument="37. Slap Bass 1"
				Note Time="103" Value="E2" Duration="7" Instrument="37. Slap Bass 1"
				Note Time="110" Value="B2" Duration="5" Instrument="37. Slap Bass 1"
				Note Time="115" Value="E3" Duration="6" Instrument="37. Slap Bass 1"
				Note Time="121" Value="B2" Duration="4" Instrument="37. Slap Bass 1"
				Note Time="125" Value="G#2" Duration="7" Instrument="37. Slap Bass 1"
				Note Time="132" Value="E2" Duration="5" Instrument="37. Slap Bass 1"
				Note Time="137" Value="G#2" Duration="6" Instrument="37. Slap Bass 1"
				Note Time="143" Value="C#3" Duration="4" Instrument="37. Slap Bass 1"
				Note Time="147" Value="G#2" Duration="7" Instrument="37. Slap Bass 1"
				Note Time="154" Value="E3" Duration="5" Instrument="37. Slap Bass 1"
				Note Time="159" Value="C#3" Duration="6" Instrument="37. Slap Bass 1"
				Note Time="165" Value="G#2" Duration="4" Instrument="37. Slap Bass 1"
				Note Time="169" Value="E2" Duration="7" Instrument="37. Slap Bass 1"
			Pattern Name="10" Color="ff6b6b"
				Note Time="0" Value="G2" Duration="11" Instrument="37. Slap Bass 1"
				Note Time="11" Value="G2" Duration="11" Instrument="37. Slap Bass 1"
				Note Time="22" Value="A#3" Duration="11" Instrument="37. Slap Bass 1"
				Note Time="33" Value="G2" Duration="11" Instrument="37. Slap Bass 1"
				Note Time="44" Value="G2" Duration="11" Instrument="37. Slap Bass 1"
				Note Time="55" Value="A3" Duration="11" Instrument="37. Slap Bass 1"
				Note Time="66" Value="G2" Duration="11" Instrument="37. Slap Bass 1"
				Note Time="77" Value="G2" Duration="11" Instrument="37. Slap Bass 1"
				Note Time="88" Value="F#3" Duration="11" Instrument="37. Slap Bass 1"
				Note Time="99" Value="G2" Duration="11" Instrument="37. Slap Bass 1"
				Note Time="110" Value="G2" Duration="11" Instrument="37. Slap Bass 1"
				Note Time="121" Value="F3" Duration="11" Instrument="37. Slap Bass 1"
				Note Time="132" Value="G2" Duration="11" Instrument="37. Slap Bass 1"
				Note Time="143" Value="G2" Duration="11" Instrument="37. Slap Bass 1"
				Note Time="154" Value="F3" Duration="11" Instrument="37. Slap Bass 1"
				Note Time="165" Value="F#3" Duration="11" Instrument="37. Slap Bass 1"
			Pattern Name="11" Color="ff8655"
				Note Time="0" Value="G2" Duration="11" Instrument="37. Slap Bass 1"
				Note Time="11" Value="G2" Duration="11" Instrument="37. Slap Bass 1"
				Note Time="22" Value="A#3" Duration="11" Instrument="37. Slap Bass 1"
				Note Time="33" Value="G2" Duration="11" Instrument="37. Slap Bass 1"
				Note Time="44" Value="G2" Duration="11" Instrument="37. Slap Bass 1"
				Note Time="55" Value="A3" Duration="11" Instrument="37. Slap Bass 1"
				Note Time="66" Value="G2" Duration="11" Instrument="37. Slap Bass 1"
				Note Time="77" Value="G2" Duration="11" Instrument="37. Slap Bass 1"
				Note Time="88" Value="G3" Duration="11" Instrument="37. Slap Bass 1"
				Note Time="99" Value="G2" Duration="11" Instrument="37. Slap Bass 1"
				Note Time="110" Value="G2" Duration="11" Instrument="37. Slap Bass 1"
				Note Time="121" Value="F3" Duration="55" Instrument="37. Slap Bass 1"
			Pattern Name="12" Color="ffb83c"
				Note Time="0" Value="G2" Duration="11" Instrument="37. Slap Bass 1"
				Note Time="11" Value="G2" Duration="11" Instrument="37. Slap Bass 1"
				Note Time="22" Value="A#3" Duration="11" Instrument="37. Slap Bass 1"
				Note Time="33" Value="G2" Duration="11" Instrument="37. Slap Bass 1"
				Note Time="44" Value="G2" Duration="11" Instrument="37. Slap Bass 1"
				Note Time="55" Value="A3" Duration="11" Instrument="37. Slap Bass 1"
				Note Time="66" Value="G2" Duration="11" Instrument="37. Slap Bass 1"
				Note Time="77" Value="G2" Duration="11" Instrument="37. Slap Bass 1"
				Note Time="88" Value="D3" Duration="5" Instrument="37. Slap Bass 1"
				Note Time="93" Value="C3" Duration="6" Instrument="37. Slap Bass 1"
				Note Time="99" Value="A#2" Duration="4" Instrument="37. Slap Bass 1"
				Note Time="103" Value="D3" Duration="7" Instrument="37. Slap Bass 1"
				Note Time="110" Value="A#2" Duration="5" Instrument="37. Slap Bass 1"
				Note Time="115" Value="G2" Duration="6" Instrument="37. Slap Bass 1"
				Note Time="121" Value="A#2" Duration="4" Instrument="37. Slap Bass 1"
				Note Time="125" Value="D3" Duration="7" Instrument="37. Slap Bass 1"
				Note Time="132" Value="G3" Duration="5" Instrument="37. Slap Bass 1"
				Note Time="137" Value="D3" Duration="6" Instrument="37. Slap Bass 1"
				Note Time="143" Value="A#2" Duration="4" Instrument="37. Slap Bass 1"
				Note Time="147" Value="D3" Duration="7" Instrument="37. Slap Bass 1"
				Note Time="154" Value="A#2" Duration="5" Instrument="37. Slap Bass 1"
				Note Time="159" Value="D3" Duration="6" Instrument="37. Slap Bass 1"
				Note Time="165" Value="A#2" Duration="4" Instrument="37. Slap Bass 1"
				Note Time="169" Value="G2" Duration="7" Instrument="37. Slap Bass 1"
			Pattern Name="13" Color="ffdc3c"
				Note Time="0" Value="B2" Duration="11" Instrument="37. Slap Bass 1"
				Note Time="11" Value="B2" Duration="11" Instrument="37. Slap Bass 1"
				Note Time="22" Value="F4" Duration="11" Instrument="37. Slap Bass 1"
				Note Time="33" Value="B2" Duration="11" Instrument="37. Slap Bass 1"
				Note Time="44" Value="B2" Duration="11" Instrument="37. Slap Bass 1"
				Note Time="55" Value="E4" Duration="11" Instrument="37. Slap Bass 1"
				Note Time="66" Value="B2" Duration="11" Instrument="37. Slap Bass 1"
				Note Time="77" Value="B2" Duration="11" Instrument="37. Slap Bass 1"
				Note Time="88" Value="D4" Duration="11" Instrument="37. Slap Bass 1"
				Note Time="99" Value="B2" Duration="11" Instrument="37. Slap Bass 1"
				Note Time="110" Value="B2" Duration="11" Instrument="37. Slap Bass 1"
				Note Time="121" Value="B3" Duration="11" Instrument="37. Slap Bass 1"
				Note Time="132" Value="B2" Duration="11" Instrument="37. Slap Bass 1"
				Note Time="143" Value="B2" Duration="11" Instrument="37. Slap Bass 1"
				Note Time="154" Value="B3" Duration="11" Instrument="37. Slap Bass 1"
				Note Time="165" Value="D4" Duration="11" Instrument="37. Slap Bass 1"
			Pattern Name="14" Color="fffc69"
				Note Time="0" Value="A2" Duration="11" Instrument="37. Slap Bass 1"
				Note Time="11" Value="A2" Duration="11" Instrument="37. Slap Bass 1"
				Note Time="22" Value="E4" Duration="11" Instrument="37. Slap Bass 1"
				Note Time="33" Value="A2" Duration="11" Instrument="37. Slap Bass 1"
				Note Time="44" Value="A2" Duration="11" Instrument="37. Slap Bass 1"
				Note Time="55" Value="D4" Duration="11" Instrument="37. Slap Bass 1"
				Note Time="66" Value="A2" Duration="11" Instrument="37. Slap Bass 1"
				Note Time="77" Value="A2" Duration="11" Instrument="37. Slap Bass 1"
				Note Time="88" Value="C#4" Duration="11" Instrument="37. Slap Bass 1"
				Note Time="99" Value="A2" Duration="11" Instrument="37. Slap Bass 1"
				Note Time="110" Value="A2" Duration="11" Instrument="37. Slap Bass 1"
				Note Time="121" Value="A3" Duration="55" Instrument="37. Slap Bass 1"
			Pattern Name="15" Color="ebf067"
				Note Time="0" Value="D2" Duration="11" Instrument="37. Slap Bass 1"
				Note Time="11" Value="D2" Duration="11" Instrument="37. Slap Bass 1"
				Note Time="22" Value="F3" Duration="11" Instrument="37. Slap Bass 1"
				Note Time="33" Value="D2" Duration="11" Instrument="37. Slap Bass 1"
				Note Time="44" Value="D2" Duration="11" Instrument="37. Slap Bass 1"
				Note Time="55" Value="E3" Duration="11" Instrument="37. Slap Bass 1"
				Note Time="66" Value="D2" Duration="11" Instrument="37. Slap Bass 1"
				Note Time="77" Value="D2" Duration="11" Instrument="37. Slap Bass 1"
				Note Time="88" Value="A3" Duration="5" Instrument="37. Slap Bass 1"
				Note Time="93" Value="F#3" Duration="6" Instrument="37. Slap Bass 1"
				Note Time="99" Value="D#3" Duration="4" Instrument="37. Slap Bass 1"
				Note Time="103" Value="B2" Duration="7" Instrument="37. Slap Bass 1"
				Note Time="110" Value="A2" Duration="5" Instrument="37. Slap Bass 1"
				Note Time="115" Value="F#2" Duration="6" Instrument="37. Slap Bass 1"
				Note Time="121" Value="D#2" Duration="4" Instrument="37. Slap Bass 1"
				Note Time="125" Value="B1" Duration="7" Instrument="37. Slap Bass 1"
				Note Time="132" Value="B3" Duration="5" Instrument="37. Slap Bass 1"
				Note Time="137" Value="A3" Duration="6" Instrument="37. Slap Bass 1"
				Note Time="143" Value="F#3" Duration="4" Instrument="37. Slap Bass 1"
				Note Time="147" Value="D#3" Duration="7" Instrument="37. Slap Bass 1"
				Note Time="154" Value="B2" Duration="5" Instrument="37. Slap Bass 1"
				Note Time="159" Value="A2" Duration="6" Instrument="37. Slap Bass 1"
				Note Time="165" Value="F#2" Duration="4" Instrument="37. Slap Bass 1"
				Note Time="169" Value="D#2" Duration="7" Instrument="37. Slap Bass 1"
			PatternInstance Time="0" Pattern="00"
			PatternInstance Time="1" Pattern="01"
			PatternInstance Time="2" Pattern="00"
			PatternInstance Time="3" Pattern="01"
			PatternInstance Time="4" Pattern="00"
			PatternInstance Time="5" Pattern="01"
			PatternInstance Time="6" Pattern="00"
			PatternInstance Time="7" Pattern="02"
			PatternInstance Time="8" Pattern="00"
			PatternInstance Time="9" Pattern="01"
			PatternInstance Time="10" Pattern="00"
			PatternInstance Time="11" Pattern="03"
			PatternInstance Time="12" Pattern="04"
			PatternInstance Time="13" Pattern="05"
			PatternInstance Time="14" Pattern="04"
			PatternInstance Time="15" Pattern="06"
			PatternInstance Time="16" Pattern="00"
			PatternInstance Time="17" Pattern="01"
			PatternInstance Time="18" Pattern="00"
			PatternInstance Time="19" Pattern="07"
			PatternInstance Time="20" Pattern="08"
			PatternInstance Time="21" Pattern="09"
			PatternInstance Time="22" Pattern="00"
			PatternInstance Time="23" Pattern="0A"
			PatternInstance Time="24" Pattern="00"
			PatternInstance Time="25" Pattern="0B"
			PatternInstance Time="26" Pattern="00"
			PatternInstance Time="27" Pattern="0C"
			PatternInstance Time="28" Pattern="0D"
			PatternInstance Time="29" Pattern="0E"
			PatternInstance Time="30" Pattern="0D"
			PatternInstance Time="31" Pattern="0F"
			PatternInstance Time="32" Pattern="10"
			PatternInstance Time="33" Pattern="11"
			PatternInstance Time="34" Pattern="10"
			PatternInstance Time="35" Pattern="12"
			PatternInstance Time="36" Pattern="0D"
			PatternInstance Time="37" Pattern="0E"
			PatternInstance Time="38" Pattern="0D"
			PatternInstance Time="39" Pattern="0E"
			PatternInstance Time="40" Pattern="13"
			PatternInstance Time="41" Pattern="14"
			PatternInstance Time="42" Pattern="0D"
			PatternInstance Time="43" Pattern="15"
		Channel Type="EPSMFM6"
			Pattern Name="00" Color="ff6464"
				Note Time="0" Value="D6" Duration="1397" Instrument="32. Guitar harmonics" Volume="0" VolumeSlideTarget="15"
			Pattern Name="01" Color="ff7f51"
				Note Time="0" Value="D7" Duration="2112" Instrument="32. Guitar harmonics" Volume="15"
			Pattern Name="02" Color="ffa83c"
				Note Time="0" Value="B6" Duration="176" Instrument="32. Guitar harmonics" Volume="0" VolumeSlideTarget="15"
			Pattern Name="03" Color="ffcb3c"
				Note Time="0" Value="A6" Duration="352" Instrument="32. Guitar harmonics" Volume="0" VolumeSlideTarget="15"
			Pattern Name="04" Color="ffe461"
				Note Time="0" Volume="15"
			Pattern Name="05" Color="dad960"
				Note Time="165" Value="D7" Duration="891" Instrument="32. Guitar harmonics"
			PatternInstance Time="7" Pattern="00"
			PatternInstance Time="8" Pattern="01"
			PatternInstance Time="20" Pattern="02"
			PatternInstance Time="21" Pattern="03"
			PatternInstance Time="22" Pattern="04"
			PatternInstance Time="23" Pattern="00"
			PatternInstance Time="24" Pattern="01"
			PatternInstance Time="27" Pattern="00"
			PatternInstance Time="28" Pattern="04"
			PatternInstance Time="34" Pattern="05"
			PatternInstance Time="40" Pattern="02"
			PatternInstance Time="41" Pattern="03"
			PatternInstance Time="42" Pattern="04"
			PatternInstance Time="43" Pattern="00"
		Channel Type="EPSMRythm1"
			Pattern Name="00" Color="ff6464"
				Note Time="0" Value="C2" Duration="11" Instrument="1. Acoustic Grand Piano"
			Pattern Name="01" Color="ff7f51"
				Note Time="0" Value="C2" Duration="11" Instrument="1. Acoustic Grand Piano"
				Note Time="165" Value="C2" Duration="11" Instrument="1. Acoustic Grand Piano"
			Pattern Name="02" Color="ffa83c"
				Note Time="0" Value="C2" Duration="11" Instrument="1. Acoustic Grand Piano"
				Note Time="44" Value="C2" Duration="11" Instrument="1. Acoustic Grand Piano"
				Note Time="55" Value="C2" Duration="11" Instrument="1. Acoustic Grand Piano"
				Note Time="88" Value="C2" Duration="11" Instrument="1. Acoustic Grand Piano"
				Note Time="132" Value="C2" Duration="11" Instrument="1. Acoustic Grand Piano"
				Note Time="143" Value="C2" Duration="11" Instrument="1. Acoustic Grand Piano"
			Pattern Name="03" Color="ffcb3c"
				Note Time="0" Value="C2" Duration="11" Instrument="1. Acoustic Grand Piano"
				Note Time="44" Value="C2" Duration="11" Instrument="1. Acoustic Grand Piano"
				Note Time="55" Value="C2" Duration="11" Instrument="1. Acoustic Grand Piano"
			PatternInstance Time="0" Pattern="00"
			PatternInstance Time="1" Pattern="00"
			PatternInstance Time="2" Pattern="00"
			PatternInstance Time="3" Pattern="00"
			PatternInstance Time="4" Pattern="01"
			PatternInstance Time="5" Pattern="00"
			PatternInstance Time="6" Pattern="01"
			PatternInstance Time="7" Pattern="00"
			PatternInstance Time="8" Pattern="02"
			PatternInstance Time="9" Pattern="02"
			PatternInstance Time="10" Pattern="02"
			PatternInstance Time="11" Pattern="03"
			PatternInstance Time="12" Pattern="02"
			PatternInstance Time="13" Pattern="02"
			PatternInstance Time="14" Pattern="02"
			PatternInstance Time="15" Pattern="03"
			PatternInstance Time="16" Pattern="02"
			PatternInstance Time="17" Pattern="02"
			PatternInstance Time="18" Pattern="02"
			PatternInstance Time="19" Pattern="03"
			PatternInstance Time="20" Pattern="02"
			PatternInstance Time="21" Pattern="02"
			PatternInstance Time="22" Pattern="02"
			PatternInstance Time="23" Pattern="03"
			PatternInstance Time="24" Pattern="01"
			PatternInstance Time="25" Pattern="00"
			PatternInstance Time="26" Pattern="01"
			PatternInstance Time="27" Pattern="00"
			PatternInstance Time="28" Pattern="02"
			PatternInstance Time="29" Pattern="02"
			PatternInstance Time="30" Pattern="02"
			PatternInstance Time="31" Pattern="03"
			PatternInstance Time="32" Pattern="02"
			PatternInstance Time="33" Pattern="02"
			PatternInstance Time="34" Pattern="02"
			PatternInstance Time="35" Pattern="03"
			PatternInstance Time="36" Pattern="02"
			PatternInstance Time="37" Pattern="02"
			PatternInstance Time="38" Pattern="02"
			PatternInstance Time="39" Pattern="03"
			PatternInstance Time="40" Pattern="02"
			PatternInstance Time="41" Pattern="02"
			PatternInstance Time="42" Pattern="02"
			PatternInstance Time="43" Pattern="03"
		Channel Type="EPSMRythm2"
			Pattern Name="00" Color="ff6464"
				Note Time="0" Value="E2" Duration="11" Instrument="1. Acoustic Grand Piano"
			Pattern Name="01" Color="ff7f51"
				Note Time="0" Value="E2" Duration="11" Instrument="1. Acoustic Grand Piano"
				Note Time="165" Value="E2" Duration="11" Instrument="1. Acoustic Grand Piano"
			Pattern Name="02" Color="ffa83c"
				Note Time="0" Value="E2" Duration="11" Instrument="1. Acoustic Grand Piano"
				Note Time="88" Value="E2" Duration="11" Instrument="1. Acoustic Grand Piano"
				Note Time="99" Value="E2" Duration="11" Instrument="1. Acoustic Grand Piano"
				Note Time="110" Value="E2" Duration="11" Instrument="1. Acoustic Grand Piano"
				Note Time="121" Value="E2" Duration="11" Instrument="1. Acoustic Grand Piano"
				Note Time="132" Value="E2" Duration="11" Instrument="1. Acoustic Grand Piano"
				Note Time="143" Value="E2" Duration="11" Instrument="1. Acoustic Grand Piano"
				Note Time="154" Value="E2" Duration="11" Instrument="1. Acoustic Grand Piano"
				Note Time="165" Value="E2" Duration="11" Instrument="1. Acoustic Grand Piano"
			Pattern Name="03" Color="ffcb3c"
				Note Time="22" Value="E2" Duration="11" Instrument="1. Acoustic Grand Piano"
				Note Time="66" Value="E2" Duration="11" Instrument="1. Acoustic Grand Piano"
				Note Time="110" Value="E2" Duration="11" Instrument="1. Acoustic Grand Piano"
				Note Time="154" Value="E2" Duration="11" Instrument="1. Acoustic Grand Piano"
			Pattern Name="04" Color="ffe461"
				Note Time="22" Value="E2" Duration="11" Instrument="1. Acoustic Grand Piano"
				Note Time="66" Value="E2" Duration="11" Instrument="1. Acoustic Grand Piano"
				Note Time="88" Value="E2" Duration="6" Instrument="1. Acoustic Grand Piano"
				Note Time="94" Value="E2" Duration="5" Instrument="1. Acoustic Grand Piano"
				Note Time="99" Value="E2" Duration="5" Instrument="1. Acoustic Grand Piano"
				Note Time="104" Value="E2" Duration="6" Instrument="1. Acoustic Grand Piano"
				Note Time="110" Value="E2" Duration="6" Instrument="1. Acoustic Grand Piano"
				Note Time="116" Value="E2" Duration="5" Instrument="1. Acoustic Grand Piano"
				Note Time="121" Value="E2" Duration="5" Instrument="1. Acoustic Grand Piano"
				Note Time="126" Value="E2" Duration="6" Instrument="1. Acoustic Grand Piano"
				Note Time="132" Value="E2" Duration="6" Instrument="1. Acoustic Grand Piano"
				Note Time="138" Value="E2" Duration="5" Instrument="1. Acoustic Grand Piano"
				Note Time="143" Value="E2" Duration="5" Instrument="1. Acoustic Grand Piano"
				Note Time="148" Value="E2" Duration="6" Instrument="1. Acoustic Grand Piano"
				Note Time="154" Value="E2" Duration="6" Instrument="1. Acoustic Grand Piano"
				Note Time="160" Value="E2" Duration="5" Instrument="1. Acoustic Grand Piano"
				Note Time="165" Value="E2" Duration="5" Instrument="1. Acoustic Grand Piano"
				Note Time="170" Value="E2" Duration="11" Instrument="1. Acoustic Grand Piano"
			Pattern Name="05" Color="dad960"
				Note Time="0" Value="E2" Duration="11" Instrument="1. Acoustic Grand Piano"
				Note Time="88" Value="E2" Duration="6" Instrument="1. Acoustic Grand Piano"
				Note Time="94" Value="E2" Duration="5" Instrument="1. Acoustic Grand Piano"
				Note Time="99" Value="E2" Duration="5" Instrument="1. Acoustic Grand Piano"
				Note Time="104" Value="E2" Duration="6" Instrument="1. Acoustic Grand Piano"
				Note Time="110" Value="E2" Duration="6" Instrument="1. Acoustic Grand Piano"
				Note Time="116" Value="E2" Duration="5" Instrument="1. Acoustic Grand Piano"
				Note Time="121" Value="E2" Duration="5" Instrument="1. Acoustic Grand Piano"
				Note Time="126" Value="E2" Duration="6" Instrument="1. Acoustic Grand Piano"
				Note Time="132" Value="E2" Duration="6" Instrument="1. Acoustic Grand Piano"
				Note Time="138" Value="E2" Duration="5" Instrument="1. Acoustic Grand Piano"
				Note Time="143" Value="E2" Duration="5" Instrument="1. Acoustic Grand Piano"
				Note Time="148" Value="E2" Duration="6" Instrument="1. Acoustic Grand Piano"
				Note Time="154" Value="E2" Duration="6" Instrument="1. Acoustic Grand Piano"
				Note Time="160" Value="E2" Duration="5" Instrument="1. Acoustic Grand Piano"
				Note Time="165" Value="E2" Duration="5" Instrument="1. Acoustic Grand Piano"
				Note Time="170" Value="E2" Duration="11" Instrument="1. Acoustic Grand Piano"
			PatternInstance Time="0" Pattern="00"
			PatternInstance Time="1" Pattern="00"
			PatternInstance Time="2" Pattern="00"
			PatternInstance Time="3" Pattern="00"
			PatternInstance Time="4" Pattern="01"
			PatternInstance Time="5" Pattern="00"
			PatternInstance Time="6" Pattern="01"
			PatternInstance Time="7" Pattern="02"
			PatternInstance Time="8" Pattern="03"
			PatternInstance Time="9" Pattern="03"
			PatternInstance Time="10" Pattern="03"
			PatternInstance Time="11" Pattern="04"
			PatternInstance Time="12" Pattern="03"
			PatternInstance Time="13" Pattern="03"
			PatternInstance Time="14" Pattern="03"
			PatternInstance Time="15" Pattern="04"
			PatternInstance Time="16" Pattern="03"
			PatternInstance Time="17" Pattern="03"
			PatternInstance Time="18" Pattern="03"
			PatternInstance Time="19" Pattern="04"
			PatternInstance Time="20" Pattern="03"
			PatternInstance Time="21" Pattern="03"
			PatternInstance Time="22" Pattern="03"
			PatternInstance Time="23" Pattern="04"
			PatternInstance Time="24" Pattern="01"
			PatternInstance Time="25" Pattern="00"
			PatternInstance Time="26" Pattern="01"
			PatternInstance Time="27" Pattern="05"
			PatternInstance Time="28" Pattern="03"
			PatternInstance Time="29" Pattern="03"
			PatternInstance Time="30" Pattern="03"
			PatternInstance Time="31" Pattern="04"
			PatternInstance Time="32" Pattern="03"
			PatternInstance Time="33" Pattern="03"
			PatternInstance Time="34" Pattern="03"
			PatternInstance Time="35" Pattern="04"
			PatternInstance Time="36" Pattern="03"
			PatternInstance Time="37" Pattern="03"
			PatternInstance Time="38" Pattern="03"
			PatternInstance Time="39" Pattern="04"
			PatternInstance Time="40" Pattern="03"
			PatternInstance Time="41" Pattern="03"
			PatternInstance Time="42" Pattern="03"
			PatternInstance Time="43" Pattern="04"
		Channel Type="EPSMRythm3"
			Pattern Name="00" Color="ff6464"
				Note Time="0" Value="B3" Duration="11" Instrument="1. Acoustic Grand Piano"
				Note Time="22" Value="B3" Duration="11" Instrument="1. Acoustic Grand Piano"
				Note Time="44" Value="B3" Duration="11" Instrument="1. Acoustic Grand Piano"
				Note Time="66" Value="B3" Duration="11" Instrument="1. Acoustic Grand Piano"
				Note Time="88" Value="B3" Duration="11" Instrument="1. Acoustic Grand Piano"
				Note Time="110" Value="B3" Duration="11" Instrument="1. Acoustic Grand Piano"
				Note Time="132" Value="B3" Duration="11" Instrument="1. Acoustic Grand Piano"
				Note Time="154" Value="B3" Duration="11" Instrument="1. Acoustic Grand Piano"
			PatternInstance Time="12" Pattern="00"
			PatternInstance Time="13" Pattern="00"
			PatternInstance Time="14" Pattern="00"
			PatternInstance Time="15" Pattern="00"
			PatternInstance Time="20" Pattern="00"
			PatternInstance Time="21" Pattern="00"
			PatternInstance Time="32" Pattern="00"
			PatternInstance Time="33" Pattern="00"
			PatternInstance Time="34" Pattern="00"
			PatternInstance Time="35" Pattern="00"
			PatternInstance Time="40" Pattern="00"
			PatternInstance Time="41" Pattern="00"
		Channel Type="EPSMRythm4"
			Pattern Name="00" Color="ff6464"
				Note Time="0" Value="A#2" Duration="11" Instrument="1. Acoustic Grand Piano"
			Pattern Name="01" Color="ff7f51"
				Note Time="0" Value="A#2" Duration="11" Instrument="1. Acoustic Grand Piano"
				Note Time="22" Value="A#2" Duration="11" Instrument="1. Acoustic Grand Piano"
				Note Time="44" Value="A#2" Duration="11" Instrument="1. Acoustic Grand Piano"
				Note Time="66" Value="A#2" Duration="11" Instrument="1. Acoustic Grand Piano"
			PatternInstance Time="8" Pattern="00"
			PatternInstance Time="9" Pattern="00"
			PatternInstance Time="10" Pattern="00"
			PatternInstance Time="11" Pattern="00"
			PatternInstance Time="16" Pattern="00"
			PatternInstance Time="17" Pattern="00"
			PatternInstance Time="18" Pattern="00"
			PatternInstance Time="19" Pattern="00"
			PatternInstance Time="22" Pattern="00"
			PatternInstance Time="23" Pattern="01"
			PatternInstance Time="28" Pattern="00"
			PatternInstance Time="29" Pattern="00"
			PatternInstance Time="30" Pattern="00"
			PatternInstance Time="31" Pattern="00"
			PatternInstance Time="34" Pattern="00"
			PatternInstance Time="35" Pattern="01"
		Channel Type="EPSMRythm5"
		Channel Type="EPSMRythm6"
			Pattern Name="00" Color="ff6464"
				Note Time="22" Value="C#2" Duration="11" Instrument="1. Acoustic Grand Piano"
				Note Time="66" Value="C#2" Duration="11" Instrument="1. Acoustic Grand Piano"
				Note Time="110" Value="C#2" Duration="11" Instrument="1. Acoustic Grand Piano"
				Note Time="154" Value="C#2" Duration="11" Instrument="1. Acoustic Grand Piano"
			PatternInstance Time="4" Pattern="00"
			PatternInstance Time="5" Pattern="00"
			PatternInstance Time="6" Pattern="00"
			PatternInstance Time="7" Pattern="00"
			PatternInstance Time="24" Pattern="00"
			PatternInstance Time="25" Pattern="00"
			PatternInstance Time="26" Pattern="00"
			PatternInstance Time="27" Pattern="00"
	Song Name="16. Nyeh Heh Heh!" Color="e95093" Folder="Undertale" Length="20" LoopPoint="0" PatternLength="16" BeatLength="4" NoteLength="6" Groove="6" GroovePaddingMode="Middle"
		Channel Type="Square1"
		Channel Type="Square2"
		Channel Type="Triangle"
		Channel Type="Noise"
		Channel Type="DPCM"
		Channel Type="EPSMSquare1"
		Channel Type="EPSMSquare2"
		Channel Type="EPSMSquare3"
		Channel Type="EPSMFM1"
			Pattern Name="Lead  Pattern 1" Color="ff6464"
				Note Time="12" Value="C4" Duration="12" Release="6" Instrument="82. Lead 2 (sawtooth)"
				Note Time="24" Value="G4" Duration="12" Release="6" Instrument="82. Lead 2 (sawtooth)"
				Note Time="36" Value="C5" Duration="12" Release="6" Instrument="82. Lead 2 (sawtooth)"
				Note Time="48" Value="D#5" Duration="24" Release="12" Instrument="82. Lead 2 (sawtooth)"
				Note Time="72" Value="C5" Duration="24" Release="12" Instrument="82. Lead 2 (sawtooth)"
			Pattern Name="Lead  Pattern 2" Color="ff7f51"
				Note Time="0" Value="B4" Duration="12" Release="6" Instrument="82. Lead 2 (sawtooth)"
				Note Time="12" Value="C5" Duration="12" Release="6" Instrument="82. Lead 2 (sawtooth)"
				Note Time="24" Value="D5" Duration="24" Release="12" Instrument="82. Lead 2 (sawtooth)"
				Note Time="48" Value="C5" Duration="12" Release="6" Instrument="82. Lead 2 (sawtooth)"
				Note Time="60" Value="G4" Duration="12" Release="6" Instrument="82. Lead 2 (sawtooth)"
				Note Time="72" Value="D#4" Duration="12" Release="6" Instrument="82. Lead 2 (sawtooth)"
				Note Time="84" Value="C4" Duration="12" Release="6" Instrument="82. Lead 2 (sawtooth)"
			Pattern Name="Lead  Pattern 3" Color="ffa83c"
				Note Time="0" Value="D4" Duration="12" Release="6" Instrument="82. Lead 2 (sawtooth)"
				Note Time="12" Value="D#4" Duration="12" Release="6" Instrument="82. Lead 2 (sawtooth)"
				Note Time="24" Value="F#4" Duration="24" Release="12" Instrument="82. Lead 2 (sawtooth)"
				Note Time="48" Value="G4" Duration="12" Release="6" Instrument="82. Lead 2 (sawtooth)"
				Note Time="60" Value="D#4" Duration="12" Release="6" Instrument="82. Lead 2 (sawtooth)"
				Note Time="72" Value="C4" Duration="12" Release="6" Instrument="82. Lead 2 (sawtooth)"
				Note Time="84" Value="G3" Duration="12" Release="6" Instrument="82. Lead 2 (sawtooth)"
			Pattern Name="Lead  Pattern 4" Color="ffcb3c"
				Note Time="0" Value="B3" Duration="12" Release="6" Instrument="82. Lead 2 (sawtooth)"
				Note Time="12" Value="C4" Duration="12" Release="6" Instrument="82. Lead 2 (sawtooth)"
				Note Time="24" Value="D4" Duration="24" Release="12" Instrument="82. Lead 2 (sawtooth)"
				Note Time="48" Value="C4" Duration="12" Release="6" Instrument="82. Lead 2 (sawtooth)"
			Pattern Name="Lead  Pattern 5" Color="ffe461"
				Note Time="12" Value="C4" Duration="12" Release="6" Instrument="82. Lead 2 (sawtooth)"
				Note Time="24" Value="G4" Duration="12" Release="6" Instrument="82. Lead 2 (sawtooth)"
				Note Time="36" Value="C5" Duration="12" Release="6" Instrument="82. Lead 2 (sawtooth)"
				Note Time="48" Value="D#5" Duration="18" Release="9" Instrument="82. Lead 2 (sawtooth)"
				Note Time="66" Value="G#5" Duration="3" Release="1" Instrument="82. Lead 2 (sawtooth)"
				Note Time="69" Value="A5" Duration="3" Release="1" Instrument="82. Lead 2 (sawtooth)"
				Note Time="72" Value="A#5" Duration="24" Release="12" Instrument="82. Lead 2 (sawtooth)"
			Pattern Name="Lead  Pattern 6" Color="dad960"
				Note Time="0" Value="A5" Duration="12" Release="6" Instrument="82. Lead 2 (sawtooth)"
				Note Time="12" Value="G5" Duration="12" Release="6" Instrument="82. Lead 2 (sawtooth)"
				Note Time="24" Value="A5" Duration="24" Release="12" Instrument="82. Lead 2 (sawtooth)"
				Note Time="48" Value="A#5" Duration="12" Release="6" Instrument="82. Lead 2 (sawtooth)"
				Note Time="60" Value="G5" Duration="12" Release="6" Instrument="82. Lead 2 (sawtooth)"
				Note Time="72" Value="D#5" Duration="12" Release="6" Instrument="82. Lead 2 (sawtooth)"
				Note Time="84" Value="C5" Duration="12" Release="6" Instrument="82. Lead 2 (sawtooth)"
			Pattern Name="Lead  Pattern 7" Color="91c76b"
				Note Time="0" Value="B4" Duration="12" Release="6" Instrument="82. Lead 2 (sawtooth)"
				Note Time="12" Value="C5" Duration="12" Release="6" Instrument="82. Lead 2 (sawtooth)"
				Note Time="24" Value="D5" Duration="24" Release="12" Instrument="82. Lead 2 (sawtooth)"
				Note Time="48" Value="D#5" Duration="12" Release="6" Instrument="82. Lead 2 (sawtooth)"
				Note Time="60" Value="C5" Duration="12" Release="6" Instrument="82. Lead 2 (sawtooth)"
				Note Time="72" Value="G4" Duration="12" Release="6" Instrument="82. Lead 2 (sawtooth)"
				Note Time="84" Value="D#4" Duration="12" Release="6" Instrument="82. Lead 2 (sawtooth)"
			Pattern Name="Lead  Pattern 8" Color="6ab96e"
				Note Time="0" Value="B4" Duration="12" Release="6" Instrument="82. Lead 2 (sawtooth)"
				Note Time="12" Value="A4" Duration="12" Release="6" Instrument="82. Lead 2 (sawtooth)"
				Note Time="24" Value="B4" Duration="3" Release="1" Instrument="82. Lead 2 (sawtooth)"
				Note Time="27" Value="C5" Duration="3" Release="1" Instrument="82. Lead 2 (sawtooth)"
				Note Time="30" Value="B4" Duration="3" Release="1" Instrument="82. Lead 2 (sawtooth)"
				Note Time="33" Value="C5" Duration="3" Release="1" Instrument="82. Lead 2 (sawtooth)"
				Note Time="36" Value="B4" Duration="12" Release="6" Instrument="82. Lead 2 (sawtooth)"
				Note Time="48" Value="C5" Duration="18" Release="9" Instrument="82. Lead 2 (sawtooth)"
			Pattern Name="Lead  Pattern 10" Color="3cbfcb"
				Note Time="12" Value="F4" Duration="12" Release="6" Instrument="82. Lead 2 (sawtooth)"
				Note Time="24" Value="G#4" Duration="12" Release="6" Instrument="82. Lead 2 (sawtooth)"
				Note Time="36" Value="C5" Duration="12" Release="6" Instrument="82. Lead 2 (sawtooth)"
				Note Time="48" Value="E5" Duration="3" Release="1" Instrument="82. Lead 2 (sawtooth)"
				Note Time="51" Value="F5" Duration="21" Release="10" Instrument="82. Lead 2 (sawtooth)"
				Note Time="72" Value="C5" Duration="24" Release="12" Instrument="82. Lead 2 (sawtooth)"
			Pattern Name="Lead  Pattern 11" Color="3eb3f9"
				Note Time="0" Value="B4" Duration="12" Release="6" Instrument="82. Lead 2 (sawtooth)"
				Note Time="12" Value="C5" Duration="12" Release="6" Instrument="82. Lead 2 (sawtooth)"
				Note Time="24" Value="D5" Duration="3" Release="1" Instrument="82. Lead 2 (sawtooth)"
				Note Time="27" Value="D#5" Duration="3" Release="1" Instrument="82. Lead 2 (sawtooth)"
				Note Time="30" Value="D5" Duration="18" Release="9" Instrument="82. Lead 2 (sawtooth)"
				Note Time="48" Value="B4" Duration="12" Release="6" Instrument="82. Lead 2 (sawtooth)"
				Note Time="60" Value="G4" Duration="12" Release="6" Instrument="82. Lead 2 (sawtooth)"
				Note Time="72" Value="B4" Duration="12" Release="6" Instrument="82. Lead 2 (sawtooth)"
				Note Time="84" Value="D5" Duration="12" Release="6" Instrument="82. Lead 2 (sawtooth)"
			Pattern Name="Lead  Pattern 12" Color="51a1fc"
				Note Time="0" Value="D#5" Duration="18" Release="9" Instrument="82. Lead 2 (sawtooth)"
				Note Time="18" Value="F5" Duration="3" Release="1" Instrument="82. Lead 2 (sawtooth)"
				Note Time="21" Value="D#5" Duration="3" Release="1" Instrument="82. Lead 2 (sawtooth)"
				Note Time="24" Value="D5" Duration="12" Release="6" Instrument="82. Lead 2 (sawtooth)"
				Note Time="36" Value="C5" Duration="12" Release="6" Instrument="82. Lead 2 (sawtooth)"
				Note Time="48" Value="C6" Duration="24" Release="12" Instrument="82. Lead 2 (sawtooth)"
				Note Time="72" Value="A#5" Duration="12" Release="6" Instrument="82. Lead 2 (sawtooth)"
				Note Time="84" Value="G#5" Duration="12" Release="6" Instrument="82. Lead 2 (sawtooth)"
			Pattern Name="Lead  Pattern 13" Color="6471cf"
				Note Time="0" Value="G5" Duration="18" Release="9" Instrument="82. Lead 2 (sawtooth)"
				Note Time="18" Value="G#5" Duration="3" Release="1" Instrument="82. Lead 2 (sawtooth)"
				Note Time="21" Value="G5" Duration="3" Release="1" Instrument="82. Lead 2 (sawtooth)"
				Note Time="24" Value="F5" Duration="12" Release="6" Instrument="82. Lead 2 (sawtooth)"
				Note Time="36" Value="G#5" Duration="12" Release="6" Instrument="82. Lead 2 (sawtooth)"
				Note Time="48" Value="G5" Duration="54" Release="27" Instrument="82. Lead 2 (sawtooth)"
			Pattern Name="Lead  Pattern 14" Color="8163dc"
				Note Time="0" Value="D#5" Duration="18" Release="9" Instrument="82. Lead 2 (sawtooth)"
				Note Time="18" Value="F5" Duration="3" Release="1" Instrument="82. Lead 2 (sawtooth)"
				Note Time="21" Value="D#5" Duration="3" Release="1" Instrument="82. Lead 2 (sawtooth)"
				Note Time="24" Value="D5" Duration="12" Release="6" Instrument="82. Lead 2 (sawtooth)"
				Note Time="36" Value="C5" Duration="12" Release="6" Instrument="82. Lead 2 (sawtooth)"
				Note Time="48" Value="C6" Duration="24" Release="12" Instrument="82. Lead 2 (sawtooth)"
				Note Time="72" Value="D6" Duration="12" Release="6" Instrument="82. Lead 2 (sawtooth)"
				Note Time="84" Value="D#6" Duration="12" Release="6" Instrument="82. Lead 2 (sawtooth)"
			Pattern Name="Lead  Pattern 15" Color="a657d6"
				Note Time="0" Value="D6" Duration="12" Release="6" Instrument="82. Lead 2 (sawtooth)"
				Note Time="12" Value="C6" Duration="12" Release="6" Instrument="82. Lead 2 (sawtooth)"
				Note Time="24" Value="B5" Duration="12" Release="6" Instrument="82. Lead 2 (sawtooth)"
				Note Time="36" Value="G#5" Duration="12" Release="6" Instrument="82. Lead 2 (sawtooth)"
				Note Time="48" Value="G5" Duration="3" Release="1" Instrument="82. Lead 2 (sawtooth)"
				Note Time="51" Value="G#5" Duration="3" Release="1" Instrument="82. Lead 2 (sawtooth)"
				Note Time="54" Value="G5" Duration="42" Release="22" Instrument="82. Lead 2 (sawtooth)"
			PatternInstance Time="4" Pattern="Lead  Pattern 1"
			PatternInstance Time="5" Pattern="Lead  Pattern 2"
			PatternInstance Time="6" Pattern="Lead  Pattern 3"
			PatternInstance Time="7" Pattern="Lead  Pattern 4"
			PatternInstance Time="8" Pattern="Lead  Pattern 5"
			PatternInstance Time="9" Pattern="Lead  Pattern 6"
			PatternInstance Time="10" Pattern="Lead  Pattern 7"
			PatternInstance Time="11" Pattern="Lead  Pattern 8"
			PatternInstance Time="12" Pattern="Lead  Pattern 10"
			PatternInstance Time="13" Pattern="Lead  Pattern 11"
			PatternInstance Time="14" Pattern="Lead  Pattern 12"
			PatternInstance Time="15" Pattern="Lead  Pattern 13"
			PatternInstance Time="16" Pattern="Lead  Pattern 10"
			PatternInstance Time="17" Pattern="Lead  Pattern 11"
			PatternInstance Time="18" Pattern="Lead  Pattern 14"
			PatternInstance Time="19" Pattern="Lead  Pattern 15"
		Channel Type="EPSMFM2"
		Channel Type="EPSMFM3"
			Pattern Name="Dyadic Harmony Lead  Pattern 1" Color="ff6464"
				Note Time="12" Value="G3" Duration="12" Release="6" Instrument="82. Lead 2 (sawtooth)"
				Note Time="36" Value="A3" Duration="12" Release="6" Instrument="82. Lead 2 (sawtooth)"
				Note Time="60" Value="G3" Duration="12" Release="6" Instrument="82. Lead 2 (sawtooth)"
				Note Time="84" Value="F#3" Duration="12" Release="6" Instrument="82. Lead 2 (sawtooth)"
			Pattern Name="Dyadic Harmony Lead  Pattern 3" Color="ffa83c"
				Note Time="12" Value="C4" Duration="12" Release="6" Instrument="82. Lead 2 (sawtooth)"
				Note Time="36" Value="C4" Duration="12" Release="6" Instrument="82. Lead 2 (sawtooth)"
				Note Time="60" Value="C4" Duration="12" Release="6" Instrument="82. Lead 2 (sawtooth)"
				Note Time="84" Value="C4" Duration="12" Release="6" Instrument="82. Lead 2 (sawtooth)"
			Pattern Name="Dyadic Harmony Lead  Pattern 4" Color="ffcb3c"
				Note Time="12" Value="D4" Duration="12" Release="6" Instrument="82. Lead 2 (sawtooth)"
				Note Time="36" Value="D4" Duration="12" Release="6" Instrument="82. Lead 2 (sawtooth)"
				Note Time="60" Value="D4" Duration="12" Release="6" Instrument="82. Lead 2 (sawtooth)"
				Note Time="84" Value="D4" Duration="12" Release="6" Instrument="82. Lead 2 (sawtooth)"
			Pattern Name="Dyadic Harmony Lead  Pattern 5" Color="ffe461"
				Note Time="12" Value="D#4" Duration="12" Release="6" Instrument="82. Lead 2 (sawtooth)"
				Note Time="36" Value="D#4" Duration="12" Release="6" Instrument="82. Lead 2 (sawtooth)"
				Note Time="60" Value="D#4" Duration="12" Release="6" Instrument="82. Lead 2 (sawtooth)"
				Note Time="84" Value="D#4" Duration="12" Release="6" Instrument="82. Lead 2 (sawtooth)"
			Pattern Name="Dyadic Harmony Lead  Pattern 6" Color="dad960"
				Note Time="12" Value="A#3" Duration="12" Release="6" Instrument="82. Lead 2 (sawtooth)"
				Note Time="36" Value="A#3" Duration="12" Release="6" Instrument="82. Lead 2 (sawtooth)"
				Note Time="60" Value="G#3" Duration="12" Release="6" Instrument="82. Lead 2 (sawtooth)"
				Note Time="84" Value="C#4" Duration="12" Release="6" Instrument="82. Lead 2 (sawtooth)"
			Pattern Name="Dyadic Harmony Lead  Pattern 7" Color="91c76b"
				Note Time="12" Value="D4" Duration="12" Release="6" Instrument="82. Lead 2 (sawtooth)"
				Note Time="36" Value="D4" Duration="12" Release="6" Instrument="82. Lead 2 (sawtooth)"
				Note Time="60" Value="B3" Duration="12" Release="6" Instrument="82. Lead 2 (sawtooth)"
				Note Time="84" Value="B3" Duration="12" Release="6" Instrument="82. Lead 2 (sawtooth)"
			PatternInstance Time="0" Pattern="Dyadic Harmony Lead  Pattern 1"
			PatternInstance Time="1" Pattern="Dyadic Harmony Lead  Pattern 1"
			PatternInstance Time="2" Pattern="Dyadic Harmony Lead  Pattern 1"
			PatternInstance Time="3" Pattern="Dyadic Harmony Lead  Pattern 1"
			PatternInstance Time="4" Pattern="Dyadic Harmony Lead  Pattern 1"
			PatternInstance Time="5" Pattern="Dyadic Harmony Lead  Pattern 1"
			PatternInstance Time="6" Pattern="Dyadic Harmony Lead  Pattern 1"
			PatternInstance Time="7" Pattern="Dyadic Harmony Lead  Pattern 1"
			PatternInstance Time="8" Pattern="Dyadic Harmony Lead  Pattern 1"
			PatternInstance Time="9" Pattern="Dyadic Harmony Lead  Pattern 1"
			PatternInstance Time="10" Pattern="Dyadic Harmony Lead  Pattern 1"
			PatternInstance Time="11" Pattern="Dyadic Harmony Lead  Pattern 1"
			PatternInstance Time="12" Pattern="Dyadic Harmony Lead  Pattern 3"
			PatternInstance Time="13" Pattern="Dyadic Harmony Lead  Pattern 4"
			PatternInstance Time="14" Pattern="Dyadic Harmony Lead  Pattern 5"
			PatternInstance Time="15" Pattern="Dyadic Harmony Lead  Pattern 6"
			PatternInstance Time="16" Pattern="Dyadic Harmony Lead  Pattern 3"
			PatternInstance Time="17" Pattern="Dyadic Harmony Lead  Pattern 4"
			PatternInstance Time="18" Pattern="Dyadic Harmony Lead  Pattern 5"
			PatternInstance Time="19" Pattern="Dyadic Harmony Lead  Pattern 7"
		Channel Type="EPSMFM4"
			Pattern Name="Dyadic Harmony Base  Pattern 1" Color="ff6464"
				Note Time="12" Value="D#3" Duration="12" Release="6" Instrument="82. Lead 2 (sawtooth)"
				Note Time="36" Value="F#3" Duration="12" Release="6" Instrument="82. Lead 2 (sawtooth)"
				Note Time="60" Value="D#3" Duration="12" Release="6" Instrument="82. Lead 2 (sawtooth)"
				Note Time="84" Value="D3" Duration="12" Release="6" Instrument="82. Lead 2 (sawtooth)"
			Pattern Name="Dyadic Harmony Base  Pattern 3" Color="ffa83c"
				Note Time="12" Value="G3" Duration="12" Release="6" Instrument="82. Lead 2 (sawtooth)"
				Note Time="36" Value="G3" Duration="12" Release="6" Instrument="82. Lead 2 (sawtooth)"
				Note Time="60" Value="G3" Duration="12" Release="6" Instrument="82. Lead 2 (sawtooth)"
				Note Time="84" Value="G3" Duration="12" Release="6" Instrument="82. Lead 2 (sawtooth)"
			Pattern Name="Dyadic Harmony Base  Pattern 4" Color="ffcb3c"
				Note Time="12" Value="B3" Duration="12" Release="6" Instrument="82. Lead 2 (sawtooth)"
				Note Time="36" Value="B3" Duration="12" Release="6" Instrument="82. Lead 2 (sawtooth)"
				Note Time="60" Value="B3" Duration="12" Release="6" Instrument="82. Lead 2 (sawtooth)"
				Note Time="84" Value="B3" Duration="12" Release="6" Instrument="82. Lead 2 (sawtooth)"
			Pattern Name="Dyadic Harmony Base  Pattern 5" Color="ffe461"
				Note Time="12" Value="C4" Duration="12" Release="6" Instrument="82. Lead 2 (sawtooth)"
				Note Time="36" Value="C4" Duration="12" Release="6" Instrument="82. Lead 2 (sawtooth)"
				Note Time="60" Value="C4" Duration="12" Release="6" Instrument="82. Lead 2 (sawtooth)"
				Note Time="84" Value="C4" Duration="12" Release="6" Instrument="82. Lead 2 (sawtooth)"
			Pattern Name="Dyadic Harmony Base  Pattern 6" Color="dad960"
				Note Time="12" Value="G3" Duration="12" Release="6" Instrument="82. Lead 2 (sawtooth)"
				Note Time="36" Value="G3" Duration="12" Release="6" Instrument="82. Lead 2 (sawtooth)"
				Note Time="60" Value="F3" Duration="12" Release="6" Instrument="82. Lead 2 (sawtooth)"
				Note Time="84" Value="G#3" Duration="12" Release="6" Instrument="82. Lead 2 (sawtooth)"
			Pattern Name="Dyadic Harmony Base  Pattern 7" Color="91c76b"
				Note Time="12" Value="G3" Duration="12" Release="6" Instrument="82. Lead 2 (sawtooth)"
				Note Time="36" Value="G3" Duration="12" Release="6" Instrument="82. Lead 2 (sawtooth)"
				Note Time="60" Value="F#3" Duration="12" Release="6" Instrument="82. Lead 2 (sawtooth)"
				Note Time="84" Value="F#3" Duration="12" Release="6" Instrument="82. Lead 2 (sawtooth)"
			PatternInstance Time="0" Pattern="Dyadic Harmony Base  Pattern 1"
			PatternInstance Time="1" Pattern="Dyadic Harmony Base  Pattern 1"
			PatternInstance Time="2" Pattern="Dyadic Harmony Base  Pattern 1"
			PatternInstance Time="3" Pattern="Dyadic Harmony Base  Pattern 1"
			PatternInstance Time="4" Pattern="Dyadic Harmony Base  Pattern 1"
			PatternInstance Time="5" Pattern="Dyadic Harmony Base  Pattern 1"
			PatternInstance Time="6" Pattern="Dyadic Harmony Base  Pattern 1"
			PatternInstance Time="7" Pattern="Dyadic Harmony Base  Pattern 1"
			PatternInstance Time="8" Pattern="Dyadic Harmony Base  Pattern 1"
			PatternInstance Time="9" Pattern="Dyadic Harmony Base  Pattern 1"
			PatternInstance Time="10" Pattern="Dyadic Harmony Base  Pattern 1"
			PatternInstance Time="11" Pattern="Dyadic Harmony Base  Pattern 1"
			PatternInstance Time="12" Pattern="Dyadic Harmony Base  Pattern 3"
			PatternInstance Time="13" Pattern="Dyadic Harmony Base  Pattern 4"
			PatternInstance Time="14" Pattern="Dyadic Harmony Base  Pattern 5"
			PatternInstance Time="15" Pattern="Dyadic Harmony Base  Pattern 6"
			PatternInstance Time="16" Pattern="Dyadic Harmony Base  Pattern 3"
			PatternInstance Time="17" Pattern="Dyadic Harmony Base  Pattern 4"
			PatternInstance Time="18" Pattern="Dyadic Harmony Base  Pattern 5"
			PatternInstance Time="19" Pattern="Dyadic Harmony Base  Pattern 7"
		Channel Type="EPSMFM5"
			Pattern Name="Bass  Pattern 1" Color="ff6464"
				Note Time="0" Value="C2" Duration="24" Release="12" Instrument="82. Lead 2 (sawtooth)"
				Note Time="24" Value="C2" Duration="24" Release="12" Instrument="82. Lead 2 (sawtooth)"
				Note Time="48" Value="C2" Duration="24" Release="12" Instrument="82. Lead 2 (sawtooth)"
				Note Time="72" Value="C2" Duration="24" Release="12" Instrument="82. Lead 2 (sawtooth)"
			Pattern Name="Bass  Pattern 3" Color="ffa83c"
				Note Time="0" Value="F2" Duration="24" Release="12" Instrument="82. Lead 2 (sawtooth)"
				Note Time="24" Value="C2" Duration="24" Release="12" Instrument="82. Lead 2 (sawtooth)"
				Note Time="48" Value="F2" Duration="24" Release="12" Instrument="82. Lead 2 (sawtooth)"
				Note Time="72" Value="C2" Duration="24" Release="12" Instrument="82. Lead 2 (sawtooth)"
			Pattern Name="Bass  Pattern 4" Color="ffcb3c"
				Note Time="0" Value="G2" Duration="24" Release="12" Instrument="82. Lead 2 (sawtooth)"
				Note Time="24" Value="D2" Duration="24" Release="12" Instrument="82. Lead 2 (sawtooth)"
				Note Time="48" Value="G2" Duration="24" Release="12" Instrument="82. Lead 2 (sawtooth)"
				Note Time="72" Value="D2" Duration="24" Release="12" Instrument="82. Lead 2 (sawtooth)"
			Pattern Name="Bass  Pattern 5" Color="ffe461"
				Note Time="0" Value="G#2" Duration="24" Release="12" Instrument="82. Lead 2 (sawtooth)"
				Note Time="24" Value="D#2" Duration="24" Release="12" Instrument="82. Lead 2 (sawtooth)"
				Note Time="48" Value="G#2" Duration="24" Release="12" Instrument="82. Lead 2 (sawtooth)"
				Note Time="72" Value="D#2" Duration="24" Release="12" Instrument="82. Lead 2 (sawtooth)"
			Pattern Name="Bass  Pattern 6" Color="dad960"
				Note Time="0" Value="D#2" Duration="24" Release="12" Instrument="82. Lead 2 (sawtooth)"
				Note Time="24" Value="A#1" Duration="24" Release="12" Instrument="82. Lead 2 (sawtooth)"
				Note Time="48" Value="C#2" Duration="24" Release="12" Instrument="82. Lead 2 (sawtooth)"
				Note Time="72" Value="G2" Duration="24" Release="12" Instrument="82. Lead 2 (sawtooth)"
			Pattern Name="Bass  Pattern 7" Color="91c76b"
				Note Time="0" Value="F2" Duration="24" Release="12" Instrument="82. Lead 2 (sawtooth)"
				Note Time="24" Value="C2" Duration="21" Release="12" Instrument="82. Lead 2 (sawtooth)"
				Note Time="45" Value="F#2" Duration="3" Instrument="82. Lead 2 (sawtooth)"
				Note Time="48" Value="G2" Duration="12" Release="6" Instrument="82. Lead 2 (sawtooth)"
				Note Time="60" Value="F2" Duration="12" Release="6" Instrument="82. Lead 2 (sawtooth)"
				Note Time="72" Value="D#2" Duration="12" Release="6" Instrument="82. Lead 2 (sawtooth)"
				Note Time="84" Value="D2" Duration="12" Release="6" Instrument="82. Lead 2 (sawtooth)"
			PatternInstance Time="0" Pattern="Bass  Pattern 1"
			PatternInstance Time="1" Pattern="Bass  Pattern 1"
			PatternInstance Time="2" Pattern="Bass  Pattern 1"
			PatternInstance Time="3" Pattern="Bass  Pattern 1"
			PatternInstance Time="4" Pattern="Bass  Pattern 1"
			PatternInstance Time="5" Pattern="Bass  Pattern 1"
			PatternInstance Time="6" Pattern="Bass  Pattern 1"
			PatternInstance Time="7" Pattern="Bass  Pattern 1"
			PatternInstance Time="8" Pattern="Bass  Pattern 1"
			PatternInstance Time="9" Pattern="Bass  Pattern 1"
			PatternInstance Time="10" Pattern="Bass  Pattern 1"
			PatternInstance Time="11" Pattern="Bass  Pattern 1"
			PatternInstance Time="12" Pattern="Bass  Pattern 3"
			PatternInstance Time="13" Pattern="Bass  Pattern 4"
			PatternInstance Time="14" Pattern="Bass  Pattern 5"
			PatternInstance Time="15" Pattern="Bass  Pattern 6"
			PatternInstance Time="16" Pattern="Bass  Pattern 3"
			PatternInstance Time="17" Pattern="Bass  Pattern 4"
			PatternInstance Time="18" Pattern="Bass  Pattern 5"
			PatternInstance Time="19" Pattern="Bass  Pattern 7"
		Channel Type="EPSMFM6"
		Channel Type="EPSMRythm1"
			Pattern Name="Kick  Pattern 1" Color="ff6464"
				Note Time="0" Value="C2" Duration="6" Instrument="1. Acoustic Grand Piano"
				Note Time="48" Value="C2" Duration="6" Instrument="1. Acoustic Grand Piano"
				Note Time="84" Value="C2" Duration="6" Instrument="1. Acoustic Grand Piano"
			PatternInstance Time="0" Pattern="Kick  Pattern 1"
			PatternInstance Time="1" Pattern="Kick  Pattern 1"
			PatternInstance Time="2" Pattern="Kick  Pattern 1"
			PatternInstance Time="3" Pattern="Kick  Pattern 1"
			PatternInstance Time="4" Pattern="Kick  Pattern 1"
			PatternInstance Time="5" Pattern="Kick  Pattern 1"
			PatternInstance Time="6" Pattern="Kick  Pattern 1"
			PatternInstance Time="7" Pattern="Kick  Pattern 1"
			PatternInstance Time="8" Pattern="Kick  Pattern 1"
			PatternInstance Time="9" Pattern="Kick  Pattern 1"
			PatternInstance Time="10" Pattern="Kick  Pattern 1"
			PatternInstance Time="11" Pattern="Kick  Pattern 1"
			PatternInstance Time="12" Pattern="Kick  Pattern 1"
			PatternInstance Time="13" Pattern="Kick  Pattern 1"
			PatternInstance Time="14" Pattern="Kick  Pattern 1"
			PatternInstance Time="15" Pattern="Kick  Pattern 1"
			PatternInstance Time="16" Pattern="Kick  Pattern 1"
			PatternInstance Time="17" Pattern="Kick  Pattern 1"
			PatternInstance Time="18" Pattern="Kick  Pattern 1"
			PatternInstance Time="19" Pattern="Kick  Pattern 1"
		Channel Type="EPSMRythm2"
			Pattern Name="Snare  Pattern 1" Color="ff6464"
				Note Time="24" Value="E2" Duration="6" Instrument="1. Acoustic Grand Piano"
				Note Time="72" Value="E2" Duration="6" Instrument="1. Acoustic Grand Piano"
			PatternInstance Time="0" Pattern="Snare  Pattern 1"
			PatternInstance Time="1" Pattern="Snare  Pattern 1"
			PatternInstance Time="2" Pattern="Snare  Pattern 1"
			PatternInstance Time="3" Pattern="Snare  Pattern 1"
			PatternInstance Time="4" Pattern="Snare  Pattern 1"
			PatternInstance Time="5" Pattern="Snare  Pattern 1"
			PatternInstance Time="6" Pattern="Snare  Pattern 1"
			PatternInstance Time="7" Pattern="Snare  Pattern 1"
			PatternInstance Time="8" Pattern="Snare  Pattern 1"
			PatternInstance Time="9" Pattern="Snare  Pattern 1"
			PatternInstance Time="10" Pattern="Snare  Pattern 1"
			PatternInstance Time="11" Pattern="Snare  Pattern 1"
			PatternInstance Time="12" Pattern="Snare  Pattern 1"
			PatternInstance Time="13" Pattern="Snare  Pattern 1"
			PatternInstance Time="14" Pattern="Snare  Pattern 1"
			PatternInstance Time="15" Pattern="Snare  Pattern 1"
			PatternInstance Time="16" Pattern="Snare  Pattern 1"
			PatternInstance Time="17" Pattern="Snare  Pattern 1"
			PatternInstance Time="18" Pattern="Snare  Pattern 1"
			PatternInstance Time="19" Pattern="Snare  Pattern 1"
		Channel Type="EPSMRythm3"
		Channel Type="EPSMRythm4"
			Pattern Name="Hi-Hat  Pattern 1" Color="ff6464"
				Note Time="12" Value="A#2" Duration="6" Instrument="1. Acoustic Grand Piano"
				Note Time="36" Value="A#2" Duration="6" Instrument="1. Acoustic Grand Piano"
				Note Time="48" Value="A#2" Duration="6" Instrument="1. Acoustic Grand Piano"
				Note Time="60" Value="A#2" Duration="6" Instrument="1. Acoustic Grand Piano"
				Note Time="72" Value="A#2" Duration="6" Instrument="1. Acoustic Grand Piano"
				Note Time="78" Value="A#2" Duration="6" Instrument="1. Acoustic Grand Piano"
				Note Time="84" Value="A#2" Duration="6" Instrument="1. Acoustic Grand Piano"
			Pattern Name="Hi-Hat  Pattern 2" Color="ff7f51"
				Note Time="0" Value="A#2" Duration="6" Instrument="1. Acoustic Grand Piano"
				Note Time="12" Value="A#2" Duration="6" Instrument="1. Acoustic Grand Piano"
				Note Time="24" Value="A#2" Duration="6" Instrument="1. Acoustic Grand Piano"
				Note Time="36" Value="A#2" Duration="6" Instrument="1. Acoustic Grand Piano"
				Note Time="48" Value="A#2" Duration="6" Instrument="1. Acoustic Grand Piano"
				Note Time="60" Value="A#2" Duration="6" Instrument="1. Acoustic Grand Piano"
				Note Time="72" Value="A#2" Duration="6" Instrument="1. Acoustic Grand Piano"
				Note Time="84" Value="A#2" Duration="6" Instrument="1. Acoustic Grand Piano"
			PatternInstance Time="0" Pattern="Hi-Hat  Pattern 1"
			PatternInstance Time="1" Pattern="Hi-Hat  Pattern 1"
			PatternInstance Time="2" Pattern="Hi-Hat  Pattern 1"
			PatternInstance Time="3" Pattern="Hi-Hat  Pattern 1"
			PatternInstance Time="4" Pattern="Hi-Hat  Pattern 1"
			PatternInstance Time="5" Pattern="Hi-Hat  Pattern 1"
			PatternInstance Time="6" Pattern="Hi-Hat  Pattern 1"
			PatternInstance Time="7" Pattern="Hi-Hat  Pattern 1"
			PatternInstance Time="8" Pattern="Hi-Hat  Pattern 1"
			PatternInstance Time="9" Pattern="Hi-Hat  Pattern 1"
			PatternInstance Time="10" Pattern="Hi-Hat  Pattern 1"
			PatternInstance Time="11" Pattern="Hi-Hat  Pattern 1"
			PatternInstance Time="12" Pattern="Hi-Hat  Pattern 2"
			PatternInstance Time="13" Pattern="Hi-Hat  Pattern 2"
			PatternInstance Time="14" Pattern="Hi-Hat  Pattern 2"
			PatternInstance Time="15" Pattern="Hi-Hat  Pattern 2"
			PatternInstance Time="16" Pattern="Hi-Hat  Pattern 2"
			PatternInstance Time="17" Pattern="Hi-Hat  Pattern 2"
			PatternInstance Time="18" Pattern="Hi-Hat  Pattern 2"
			PatternInstance Time="19" Pattern="Hi-Hat  Pattern 2"
		Channel Type="EPSMRythm5"
		Channel Type="EPSMRythm6"
	Song Name="24. Bonetrousle" Color="74ca78" Folder="Undertale" Length="36" LoopPoint="0" PatternLength="16" BeatLength="4" NoteLength="6" Groove="6" GroovePaddingMode="Middle"
		Channel Type="Square1"
		Channel Type="Square2"
		Channel Type="Triangle"
		Channel Type="Noise"
		Channel Type="DPCM"
		Channel Type="EPSMSquare1"
		Channel Type="EPSMSquare2"
		Channel Type="EPSMSquare3"
		Channel Type="EPSMFM1"
			Pattern Name="Lead  Pattern 1" Color="ff6464"
				Note Time="12" Value="C4" Duration="12" Release="6" Instrument="82. Lead 2 (sawtooth)"
				Note Time="24" Value="G4" Duration="12" Release="6" Instrument="82. Lead 2 (sawtooth)"
				Note Time="36" Value="C5" Duration="12" Release="6" Instrument="82. Lead 2 (sawtooth)"
				Note Time="48" Value="D#5" Duration="24" Release="12" Instrument="82. Lead 2 (sawtooth)"
				Note Time="72" Value="C5" Duration="24" Release="12" Instrument="82. Lead 2 (sawtooth)"
			Pattern Name="Lead  Pattern 2" Color="ff7f51"
				Note Time="0" Value="B4" Duration="12" Release="6" Instrument="82. Lead 2 (sawtooth)"
				Note Time="12" Value="C5" Duration="12" Release="6" Instrument="82. Lead 2 (sawtooth)"
				Note Time="24" Value="D5" Duration="24" Release="12" Instrument="82. Lead 2 (sawtooth)"
				Note Time="48" Value="C5" Duration="12" Release="6" Instrument="82. Lead 2 (sawtooth)"
				Note Time="60" Value="G4" Duration="12" Release="6" Instrument="82. Lead 2 (sawtooth)"
				Note Time="72" Value="D#4" Duration="12" Release="6" Instrument="82. Lead 2 (sawtooth)"
				Note Time="84" Value="C4" Duration="12" Release="6" Instrument="82. Lead 2 (sawtooth)"
			Pattern Name="Lead  Pattern 3" Color="ffa83c"
				Note Time="0" Value="D4" Duration="12" Release="6" Instrument="82. Lead 2 (sawtooth)"
				Note Time="12" Value="D#4" Duration="12" Release="6" Instrument="82. Lead 2 (sawtooth)"
				Note Time="24" Value="F#4" Duration="24" Release="12" Instrument="82. Lead 2 (sawtooth)"
				Note Time="48" Value="G4" Duration="12" Release="6" Instrument="82. Lead 2 (sawtooth)"
				Note Time="60" Value="D#4" Duration="12" Release="6" Instrument="82. Lead 2 (sawtooth)"
				Note Time="72" Value="C4" Duration="12" Release="6" Instrument="82. Lead 2 (sawtooth)"
				Note Time="84" Value="G3" Duration="12" Release="6" Instrument="82. Lead 2 (sawtooth)"
			Pattern Name="Lead  Pattern 4" Color="ffcb3c"
				Note Time="0" Value="B3" Duration="12" Release="6" Instrument="82. Lead 2 (sawtooth)"
				Note Time="12" Value="C4" Duration="12" Release="6" Instrument="82. Lead 2 (sawtooth)"
				Note Time="24" Value="D4" Duration="24" Release="12" Instrument="82. Lead 2 (sawtooth)"
				Note Time="48" Value="C4" Duration="12" Release="6" Instrument="82. Lead 2 (sawtooth)"
			Pattern Name="Lead  Pattern 5" Color="ffe461"
				Note Time="12" Value="C4" Duration="12" Release="6" Instrument="82. Lead 2 (sawtooth)"
				Note Time="24" Value="G4" Duration="12" Release="6" Instrument="82. Lead 2 (sawtooth)"
				Note Time="36" Value="C5" Duration="12" Release="6" Instrument="82. Lead 2 (sawtooth)"
				Note Time="48" Value="D#5" Duration="18" Release="9" Instrument="82. Lead 2 (sawtooth)"
				Note Time="66" Value="G#5" Duration="3" Release="1" Instrument="82. Lead 2 (sawtooth)"
				Note Time="69" Value="A5" Duration="3" Release="1" Instrument="82. Lead 2 (sawtooth)"
				Note Time="72" Value="A#5" Duration="24" Release="12" Instrument="82. Lead 2 (sawtooth)"
			Pattern Name="Lead  Pattern 6" Color="dad960"
				Note Time="0" Value="A5" Duration="12" Release="6" Instrument="82. Lead 2 (sawtooth)"
				Note Time="12" Value="G5" Duration="12" Release="6" Instrument="82. Lead 2 (sawtooth)"
				Note Time="24" Value="A5" Duration="24" Release="12" Instrument="82. Lead 2 (sawtooth)"
				Note Time="48" Value="A#5" Duration="12" Release="6" Instrument="82. Lead 2 (sawtooth)"
				Note Time="60" Value="G5" Duration="12" Release="6" Instrument="82. Lead 2 (sawtooth)"
				Note Time="72" Value="D#5" Duration="12" Release="6" Instrument="82. Lead 2 (sawtooth)"
				Note Time="84" Value="C5" Duration="12" Release="6" Instrument="82. Lead 2 (sawtooth)"
			Pattern Name="Lead  Pattern 7" Color="91c76b"
				Note Time="0" Value="B4" Duration="12" Release="6" Instrument="82. Lead 2 (sawtooth)"
				Note Time="12" Value="C5" Duration="12" Release="6" Instrument="82. Lead 2 (sawtooth)"
				Note Time="24" Value="D5" Duration="24" Release="12" Instrument="82. Lead 2 (sawtooth)"
				Note Time="48" Value="D#5" Duration="12" Release="6" Instrument="82. Lead 2 (sawtooth)"
				Note Time="60" Value="C5" Duration="12" Release="6" Instrument="82. Lead 2 (sawtooth)"
				Note Time="72" Value="G4" Duration="12" Release="6" Instrument="82. Lead 2 (sawtooth)"
				Note Time="84" Value="D#4" Duration="12" Release="6" Instrument="82. Lead 2 (sawtooth)"
			Pattern Name="Lead  Pattern 8" Color="6ab96e"
				Note Time="0" Value="B4" Duration="12" Release="6" Instrument="82. Lead 2 (sawtooth)"
				Note Time="12" Value="A4" Duration="12" Release="6" Instrument="82. Lead 2 (sawtooth)"
				Note Time="24" Value="B4" Duration="3" Release="1" Instrument="82. Lead 2 (sawtooth)"
				Note Time="27" Value="C5" Duration="3" Release="1" Instrument="82. Lead 2 (sawtooth)"
				Note Time="30" Value="B4" Duration="3" Release="1" Instrument="82. Lead 2 (sawtooth)"
				Note Time="33" Value="C5" Duration="3" Release="1" Instrument="82. Lead 2 (sawtooth)"
				Note Time="36" Value="B4" Duration="12" Release="6" Instrument="82. Lead 2 (sawtooth)"
				Note Time="48" Value="C5" Duration="18" Release="9" Instrument="82. Lead 2 (sawtooth)"
			Pattern Name="Lead  Pattern 9" Color="3ca598"
				Note Time="0" Value="D4" Duration="12" Release="6" Instrument="82. Lead 2 (sawtooth)"
				Note Time="12" Value="C4" Duration="12" Release="6" Instrument="82. Lead 2 (sawtooth)"
				Note Time="24" Value="D4" Duration="24" Release="12" Instrument="82. Lead 2 (sawtooth)"
				Note Time="48" Value="C4" Duration="12" Release="6" Instrument="82. Lead 2 (sawtooth)"
			Pattern Name="Lead  Pattern 10" Color="3cbfcb"
				Note Time="12" Value="F4" Duration="12" Release="6" Instrument="57. Trumpet"
				Note Time="24" Value="G#4" Duration="12" Release="6" Instrument="57. Trumpet"
				Note Time="36" Value="C5" Duration="12" Release="6" Instrument="57. Trumpet"
				Note Time="48" Value="E5" Duration="3" Release="1" Instrument="57. Trumpet"
				Note Time="51" Value="F5" Duration="21" Release="10" Instrument="57. Trumpet"
				Note Time="72" Value="C5" Duration="24" Release="12" Instrument="57. Trumpet"
			Pattern Name="Lead  Pattern 11" Color="3eb3f9"
				Note Time="0" Value="B4" Duration="12" Release="6" Instrument="57. Trumpet"
				Note Time="12" Value="C5" Duration="12" Release="6" Instrument="57. Trumpet"
				Note Time="24" Value="D5" Duration="3" Release="1" Instrument="57. Trumpet"
				Note Time="27" Value="D#5" Duration="3" Release="1" Instrument="57. Trumpet"
				Note Time="30" Value="D5" Duration="18" Release="9" Instrument="57. Trumpet"
				Note Time="48" Value="B4" Duration="12" Release="6" Instrument="57. Trumpet"
				Note Time="60" Value="G4" Duration="12" Release="6" Instrument="57. Trumpet"
				Note Time="72" Value="B4" Duration="12" Release="6" Instrument="57. Trumpet"
				Note Time="84" Value="D5" Duration="12" Release="6" Instrument="57. Trumpet"
			Pattern Name="Lead  Pattern 12" Color="51a1fc"
				Note Time="0" Value="D#5" Duration="18" Release="9" Instrument="57. Trumpet"
				Note Time="18" Value="F5" Duration="3" Release="1" Instrument="57. Trumpet"
				Note Time="21" Value="D#5" Duration="3" Release="1" Instrument="57. Trumpet"
				Note Time="24" Value="D5" Duration="12" Release="6" Instrument="57. Trumpet"
				Note Time="36" Value="C5" Duration="12" Release="6" Instrument="57. Trumpet"
				Note Time="48" Value="C6" Duration="24" Release="12" Instrument="57. Trumpet"
				Note Time="72" Value="A#5" Duration="12" Release="6" Instrument="57. Trumpet"
				Note Time="84" Value="G#5" Duration="12" Release="6" Instrument="57. Trumpet"
			Pattern Name="Lead  Pattern 13" Color="6471cf"
				Note Time="0" Value="G5" Duration="18" Release="9" Instrument="57. Trumpet"
				Note Time="18" Value="G#5" Duration="3" Release="1" Instrument="57. Trumpet"
				Note Time="21" Value="G5" Duration="3" Release="1" Instrument="57. Trumpet"
				Note Time="24" Value="F5" Duration="12" Release="6" Instrument="57. Trumpet"
				Note Time="36" Value="G#5" Duration="12" Release="6" Instrument="57. Trumpet"
				Note Time="48" Value="G5" Duration="54" Release="27" Instrument="57. Trumpet"
			Pattern Name="Lead  Pattern 14" Color="8163dc"
				Note Time="0" Value="D#5" Duration="18" Release="9" Instrument="57. Trumpet"
				Note Time="18" Value="F5" Duration="3" Release="1" Instrument="57. Trumpet"
				Note Time="21" Value="D#5" Duration="3" Release="1" Instrument="57. Trumpet"
				Note Time="24" Value="D5" Duration="12" Release="6" Instrument="57. Trumpet"
				Note Time="36" Value="C5" Duration="12" Release="6" Instrument="57. Trumpet"
				Note Time="48" Value="C6" Duration="24" Release="12" Instrument="57. Trumpet"
				Note Time="72" Value="D6" Duration="12" Release="6" Instrument="57. Trumpet"
				Note Time="84" Value="D#6" Duration="12" Release="6" Instrument="57. Trumpet"
			Pattern Name="Lead  Pattern 15" Color="a657d6"
				Note Time="0" Value="D6" Duration="12" Release="6" Instrument="57. Trumpet"
				Note Time="12" Value="C6" Duration="12" Release="6" Instrument="57. Trumpet"
				Note Time="24" Value="B5" Duration="12" Release="6" Instrument="57. Trumpet"
				Note Time="36" Value="G#5" Duration="12" Release="6" Instrument="57. Trumpet"
				Note Time="48" Value="G5" Duration="3" Release="1" Instrument="57. Trumpet"
				Note Time="51" Value="G#5" Duration="3" Release="1" Instrument="57. Trumpet"
				Note Time="54" Value="G5" Duration="44" Release="22" Instrument="57. Trumpet"
			Pattern Name="Lead  Pattern 16" Color="e95093"
				Note Time="12" Value="F4" Duration="12" Release="6" Instrument="82. Lead 2 (sawtooth)"
				Note Time="24" Value="G#4" Duration="12" Release="6" Instrument="82. Lead 2 (sawtooth)"
				Note Time="36" Value="C5" Duration="12" Release="6" Instrument="82. Lead 2 (sawtooth)"
				Note Time="48" Value="F5" Duration="21" Release="10" Instrument="82. Lead 2 (sawtooth)"
				Note Time="69" Value="G5" Duration="3" Release="1" Instrument="82. Lead 2 (sawtooth)"
				Note Time="72" Value="G#5" Duration="24" Release="12" Instrument="82. Lead 2 (sawtooth)"
			Pattern Name="Lead  Pattern 17" Color="ff6b6b"
				Note Time="0" Value="G5" Duration="12" Release="6" Instrument="82. Lead 2 (sawtooth)"
				Note Time="12" Value="F5" Duration="12" Release="6" Instrument="82. Lead 2 (sawtooth)"
				Note Time="24" Value="D5" Duration="18" Release="9" Instrument="82. Lead 2 (sawtooth)"
				Note Time="48" Value="B4" Duration="18" Release="9" Instrument="82. Lead 2 (sawtooth)"
				Note Time="66" Value="C5" Duration="3" Release="1" Instrument="82. Lead 2 (sawtooth)"
				Note Time="69" Value="D5" Duration="3" Release="1" Instrument="82. Lead 2 (sawtooth)"
				Note Time="72" Value="D#5" Duration="12" Release="6" Instrument="82. Lead 2 (sawtooth)"
				Note Time="84" Value="D5" Duration="12" Release="6" Instrument="82. Lead 2 (sawtooth)"
			Pattern Name="Lead  Pattern 18" Color="ff8655"
				Note Time="0" Value="C5" Duration="12" Release="6" Instrument="82. Lead 2 (sawtooth)"
				Note Time="12" Value="B4" Duration="12" Release="6" Instrument="82. Lead 2 (sawtooth)"
				Note Time="24" Value="C5" Duration="12" Release="6" Instrument="82. Lead 2 (sawtooth)"
				Note Time="36" Value="D5" Duration="12" Release="6" Instrument="82. Lead 2 (sawtooth)"
				Note Time="48" Value="D#5" Duration="18" Release="9" Instrument="82. Lead 2 (sawtooth)"
				Note Time="72" Value="C5" Duration="18" Release="9" Instrument="82. Lead 2 (sawtooth)"
			Pattern Name="Lead  Pattern 19" Color="ffb83c"
				Note Time="0" Value="B4" Duration="12" Release="6" Instrument="82. Lead 2 (sawtooth)"
				Note Time="12" Value="C5" Duration="12" Release="6" Instrument="82. Lead 2 (sawtooth)"
				Note Time="24" Value="D5" Duration="18" Release="9" Instrument="82. Lead 2 (sawtooth)"
				Note Time="48" Value="C5" Duration="18" Release="9" Instrument="82. Lead 2 (sawtooth)"
			PatternInstance Time="4" Pattern="Lead  Pattern 1"
			PatternInstance Time="5" Pattern="Lead  Pattern 2"
			PatternInstance Time="6" Pattern="Lead  Pattern 3"
			PatternInstance Time="7" Pattern="Lead  Pattern 4"
			PatternInstance Time="8" Pattern="Lead  Pattern 5"
			PatternInstance Time="9" Pattern="Lead  Pattern 6"
			PatternInstance Time="10" Pattern="Lead  Pattern 7"
			PatternInstance Time="11" Pattern="Lead  Pattern 8"
			PatternInstance Time="12" Pattern="Lead  Pattern 1"
			PatternInstance Time="13" Pattern="Lead  Pattern 2"
			PatternInstance Time="14" Pattern="Lead  Pattern 3"
			PatternInstance Time="15" Pattern="Lead  Pattern 9"
			PatternInstance Time="16" Pattern="Lead  Pattern 5"
			PatternInstance Time="17" Pattern="Lead  Pattern 6"
			PatternInstance Time="18" Pattern="Lead  Pattern 7"
			PatternInstance Time="19" Pattern="Lead  Pattern 8"
			PatternInstance Time="20" Pattern="Lead  Pattern 10"
			PatternInstance Time="21" Pattern="Lead  Pattern 11"
			PatternInstance Time="22" Pattern="Lead  Pattern 12"
			PatternInstance Time="23" Pattern="Lead  Pattern 13"
			PatternInstance Time="24" Pattern="Lead  Pattern 10"
			PatternInstance Time="25" Pattern="Lead  Pattern 11"
			PatternInstance Time="26" Pattern="Lead  Pattern 14"
			PatternInstance Time="27" Pattern="Lead  Pattern 15"
			PatternInstance Time="28" Pattern="Lead  Pattern 10"
			PatternInstance Time="29" Pattern="Lead  Pattern 11"
			PatternInstance Time="30" Pattern="Lead  Pattern 12"
			PatternInstance Time="31" Pattern="Lead  Pattern 13"
			PatternInstance Time="32" Pattern="Lead  Pattern 16"
			PatternInstance Time="33" Pattern="Lead  Pattern 17"
			PatternInstance Time="34" Pattern="Lead  Pattern 18"
			PatternInstance Time="35" Pattern="Lead  Pattern 19"
		Channel Type="EPSMFM2"
			Pattern Name="Harmony  Pattern 1" Color="ff6464"
				Note Time="12" Value="D#5" Duration="384" Release="6" Instrument="81. Lead 1 (square)"
				Note Time="24" Value="C5" Duration="384" Release="6" Instrument="81. Lead 1 (square)"
				Note Time="36" Value="G4" Duration="384" Release="6" Instrument="81. Lead 1 (square)"
				Note Time="48" Value="B4" Duration="396" Release="12" Instrument="81. Lead 1 (square)"
				Note Time="72" Value="G#5" Duration="396" Release="12" Instrument="81. Lead 1 (square)"
			Pattern Name="Harmony  Pattern 2" Color="ff7f51"
				Note Time="0" Value="G5" Duration="384" Release="6" Instrument="81. Lead 1 (square)"
				Note Time="12" Value="F#5" Duration="384" Release="6" Instrument="81. Lead 1 (square)"
				Note Time="24" Value="G5" Duration="396" Release="12" Instrument="81. Lead 1 (square)"
				Note Time="48" Value="C6" Duration="384" Release="6" Instrument="81. Lead 1 (square)"
				Note Time="60" Value="G5" Duration="384" Release="6" Instrument="81. Lead 1 (square)"
				Note Time="72" Value="D#5" Duration="384" Release="6" Instrument="81. Lead 1 (square)"
				Note Time="84" Value="C5" Duration="384" Release="6" Instrument="81. Lead 1 (square)"
			Pattern Name="Harmony  Pattern 3" Color="ffa83c"
				Note Time="0" Value="G4" Duration="384" Release="6" Instrument="81. Lead 1 (square)"
				Note Time="12" Value="C5" Duration="384" Release="6" Instrument="81. Lead 1 (square)"
				Note Time="24" Value="D5" Duration="396" Release="12" Instrument="81. Lead 1 (square)"
				Note Time="48" Value="D#5" Duration="384" Release="6" Instrument="81. Lead 1 (square)"
				Note Time="60" Value="C5" Duration="384" Release="6" Instrument="81. Lead 1 (square)"
				Note Time="72" Value="G4" Duration="384" Release="6" Instrument="81. Lead 1 (square)"
				Note Time="84" Value="D#4" Duration="384" Release="6" Instrument="81. Lead 1 (square)"
			Pattern Name="Harmony  Pattern 4" Color="ffcb3c"
				Note Time="0" Value="G4" Duration="384" Release="6" Instrument="81. Lead 1 (square)"
				Note Time="12" Value="C5" Duration="384" Release="6" Instrument="81. Lead 1 (square)"
				Note Time="24" Value="D5" Duration="396" Release="12" Instrument="81. Lead 1 (square)"
				Note Time="48" Value="C5" Duration="468" Release="9" Instrument="81. Lead 1 (square)"
			Pattern Name="Harmony  Pattern 5" Color="ffe461"
				Note Time="48" Value="C4" Duration="390" Release="9" Instrument="81. Lead 1 (square)"
				Note Time="66" Value="F4" Duration="378" Release="3" Instrument="81. Lead 1 (square)"
				Note Time="72" Value="G4" Duration="396" Release="12" Instrument="81. Lead 1 (square)"
			Pattern Name="Harmony  Pattern 6" Color="dad960"
				Note Time="0" Value="F#4" Duration="384" Release="6" Instrument="81. Lead 1 (square)"
				Note Time="12" Value="E4" Duration="384" Release="6" Instrument="81. Lead 1 (square)"
				Note Time="24" Value="F#4" Duration="396" Release="12" Instrument="81. Lead 1 (square)"
				Note Time="48" Value="G4" Duration="384" Release="6" Instrument="81. Lead 1 (square)"
				Note Time="60" Value="D#4" Duration="384" Release="6" Instrument="81. Lead 1 (square)"
				Note Time="72" Value="C4" Duration="384" Release="6" Instrument="81. Lead 1 (square)"
				Note Time="84" Value="F3" Duration="384" Release="6" Instrument="81. Lead 1 (square)"
			Pattern Name="Harmony  Pattern 7" Color="91c76b"
				Note Time="0" Value="G3" Duration="384" Release="6" Instrument="81. Lead 1 (square)"
				Note Time="12" Value="C4" Duration="384" Release="6" Instrument="81. Lead 1 (square)"
				Note Time="24" Value="D4" Duration="396" Release="12" Instrument="81. Lead 1 (square)"
				Note Time="48" Value="D#4" Duration="384" Release="6" Instrument="81. Lead 1 (square)"
				Note Time="60" Value="C4" Duration="384" Release="6" Instrument="81. Lead 1 (square)"
				Note Time="72" Value="G3" Duration="384" Release="6" Instrument="81. Lead 1 (square)"
				Note Time="84" Value="D#3" Duration="384" Release="6" Instrument="81. Lead 1 (square)"
			Pattern Name="Harmony  Pattern 8" Color="6ab96e"
				Note Time="0" Value="B2" Duration="384" Release="6" Instrument="81. Lead 1 (square)"
				Note Time="12" Value="G2" Duration="384" Release="6" Instrument="81. Lead 1 (square)"
				Note Time="24" Value="G3" Duration="375" Release="1" Instrument="81. Lead 1 (square)"
				Note Time="27" Value="G#3" Duration="375" Release="1" Instrument="81. Lead 1 (square)"
				Note Time="30" Value="G3" Duration="375" Release="1" Instrument="81. Lead 1 (square)"
				Note Time="33" Value="G#3" Duration="375" Release="1" Instrument="81. Lead 1 (square)"
				Note Time="36" Value="G3" Duration="384" Release="6" Instrument="81. Lead 1 (square)"
				Note Time="48" Value="C3" Duration="432" Release="12" Instrument="81. Lead 1 (square)"
			Pattern Name="Harmony  Pattern 9" Color="3ca598"
				Note Time="12" Value="G#4" Duration="384" Release="6" Instrument="74. Flute"
				Note Time="24" Value="C5" Duration="384" Release="6" Instrument="74. Flute"
				Note Time="36" Value="F5" Duration="384" Release="6" Instrument="74. Flute"
				Note Time="48" Value="G#5" Duration="396" Release="12" Instrument="74. Flute"
				Note Time="72" Value="F5" Duration="396" Release="12" Instrument="74. Flute"
			Pattern Name="Harmony  Pattern 10" Color="3cbfcb"
				Note Time="0" Value="D5" Duration="384" Release="6" Instrument="74. Flute"
				Note Time="12" Value="D#5" Duration="384" Release="6" Instrument="74. Flute"
				Note Time="24" Value="F5" Duration="396" Release="12" Instrument="74. Flute"
				Note Time="48" Value="D5" Duration="384" Release="6" Instrument="74. Flute"
				Note Time="60" Value="B4" Duration="384" Release="6" Instrument="74. Flute"
				Note Time="72" Value="C5" Duration="384" Release="6" Instrument="74. Flute"
				Note Time="84" Value="D5" Duration="384" Release="6" Instrument="74. Flute"
			Pattern Name="Harmony  Pattern 11" Color="3eb3f9"
				Note Time="0" Value="D#5" Duration="390" Release="9" Instrument="74. Flute"
				Note Time="18" Value="F5" Duration="375" Release="1" Instrument="74. Flute"
				Note Time="21" Value="D#5" Duration="375" Release="1" Instrument="74. Flute"
				Note Time="24" Value="D5" Duration="384" Release="6" Instrument="74. Flute"
				Note Time="36" Value="C5" Duration="384" Release="6" Instrument="74. Flute"
				Note Time="48" Value="G#5" Duration="396" Release="12" Instrument="74. Flute"
				Note Time="72" Value="G5" Duration="384" Release="6" Instrument="74. Flute"
				Note Time="84" Value="F5" Duration="384" Release="6" Instrument="74. Flute"
			Pattern Name="Harmony  Pattern 12" Color="51a1fc"
				Note Time="0" Value="D#5" Duration="390" Release="9" Instrument="74. Flute"
				Note Time="18" Value="F5" Duration="375" Release="1" Instrument="74. Flute"
				Note Time="21" Value="D#5" Duration="375" Release="1" Instrument="74. Flute"
				Note Time="24" Value="D5" Duration="384" Release="6" Instrument="74. Flute"
				Note Time="36" Value="F5" Duration="384" Release="6" Instrument="74. Flute"
				Note Time="48" Value="D#5" Duration="432" Release="18" Instrument="74. Flute"
			Pattern Name="Harmony  Pattern 13" Color="6471cf"
				Note Time="0" Value="D#5" Duration="390" Release="9" Instrument="74. Flute"
				Note Time="18" Value="F5" Duration="375" Release="1" Instrument="74. Flute"
				Note Time="21" Value="D#5" Duration="375" Release="1" Instrument="74. Flute"
				Note Time="24" Value="D5" Duration="384" Release="6" Instrument="74. Flute"
				Note Time="36" Value="C5" Duration="384" Release="6" Instrument="74. Flute"
				Note Time="48" Value="G#5" Duration="396" Release="12" Instrument="74. Flute"
				Note Time="72" Value="A#5" Duration="384" Release="6" Instrument="74. Flute"
				Note Time="84" Value="C6" Duration="384" Release="6" Instrument="74. Flute"
			Pattern Name="Harmony  Pattern 14" Color="8163dc"
				Note Time="0" Value="A#5" Duration="384" Release="6" Instrument="74. Flute"
				Note Time="12" Value="G#5" Duration="384" Release="6" Instrument="74. Flute"
				Note Time="24" Value="G5" Duration="384" Release="6" Instrument="74. Flute"
				Note Time="36" Value="D5" Duration="384" Release="6" Instrument="74. Flute"
				Note Time="48" Value="B4" Duration="432" Release="20" Instrument="74. Flute"
			Pattern Name="Coda" Color="a657d6"
				Note Time="72" Value="C6" Duration="24" Release="6" Instrument="81. Lead 1 (square)"
			PatternInstance Time="12" Pattern="Harmony  Pattern 1"
			PatternInstance Time="13" Pattern="Harmony  Pattern 2"
			PatternInstance Time="14" Pattern="Harmony  Pattern 3"
			PatternInstance Time="15" Pattern="Harmony  Pattern 4"
			PatternInstance Time="16" Pattern="Harmony  Pattern 5"
			PatternInstance Time="17" Pattern="Harmony  Pattern 6"
			PatternInstance Time="18" Pattern="Harmony  Pattern 7"
			PatternInstance Time="19" Pattern="Harmony  Pattern 8"
			PatternInstance Time="20" Pattern="Harmony  Pattern 9"
			PatternInstance Time="21" Pattern="Harmony  Pattern 10"
			PatternInstance Time="22" Pattern="Harmony  Pattern 11"
			PatternInstance Time="23" Pattern="Harmony  Pattern 12"
			PatternInstance Time="24" Pattern="Harmony  Pattern 9"
			PatternInstance Time="25" Pattern="Harmony  Pattern 10"
			PatternInstance Time="26" Pattern="Harmony  Pattern 13"
			PatternInstance Time="27" Pattern="Harmony  Pattern 14"
			PatternInstance Time="28" Pattern="Harmony  Pattern 9"
			PatternInstance Time="29" Pattern="Harmony  Pattern 10"
			PatternInstance Time="30" Pattern="Harmony  Pattern 11"
			PatternInstance Time="31" Pattern="Harmony  Pattern 12"
			PatternInstance Time="35" Pattern="Coda"
		Channel Type="EPSMFM3"
			Pattern Name="Dyadic Harmony Lead  Pattern 1" Color="ff6464"
				Note Time="12" Value="G3" Duration="12" Release="6" Instrument="82. Lead 2 (sawtooth)"
				Note Time="36" Value="A3" Duration="12" Release="6" Instrument="82. Lead 2 (sawtooth)"
				Note Time="60" Value="G3" Duration="12" Release="6" Instrument="82. Lead 2 (sawtooth)"
				Note Time="84" Value="F#3" Duration="12" Release="6" Instrument="82. Lead 2 (sawtooth)"
			Pattern Name="Dyadic Harmony Lead  Pattern 2" Color="ff7f51"
				Note Time="12" Value="G3" Duration="12" Release="6" Instrument="82. Lead 2 (sawtooth)"
				Note Time="36" Value="A3" Duration="12" Release="6" Instrument="82. Lead 2 (sawtooth)"
			Pattern Name="Dyadic Harmony Lead  Pattern 3" Color="ffa83c"
				Note Time="12" Value="C5" Duration="12" Release="6" Instrument="1. Acoustic Grand Piano"
				Note Time="36" Value="C5" Duration="12" Release="6" Instrument="1. Acoustic Grand Piano"
				Note Time="60" Value="C5" Duration="12" Release="6" Instrument="1. Acoustic Grand Piano"
				Note Time="84" Value="C5" Duration="12" Release="6" Instrument="1. Acoustic Grand Piano"
			Pattern Name="Dyadic Harmony Lead  Pattern 4" Color="ffcb3c"
				Note Time="12" Value="D5" Duration="12" Release="6" Instrument="1. Acoustic Grand Piano"
				Note Time="36" Value="D5" Duration="12" Release="6" Instrument="1. Acoustic Grand Piano"
				Note Time="60" Value="D5" Duration="12" Release="6" Instrument="1. Acoustic Grand Piano"
				Note Time="84" Value="D5" Duration="12" Release="6" Instrument="1. Acoustic Grand Piano"
			Pattern Name="Dyadic Harmony Lead  Pattern 5" Color="ffe461"
				Note Time="12" Value="D#5" Duration="12" Release="6" Instrument="1. Acoustic Grand Piano"
				Note Time="36" Value="D#5" Duration="12" Release="6" Instrument="1. Acoustic Grand Piano"
				Note Time="60" Value="D#5" Duration="12" Release="6" Instrument="1. Acoustic Grand Piano"
				Note Time="84" Value="D#5" Duration="12" Release="6" Instrument="1. Acoustic Grand Piano"
			Pattern Name="Dyadic Harmony Lead  Pattern 6" Color="dad960"
				Note Time="12" Value="A#4" Duration="12" Release="6" Instrument="1. Acoustic Grand Piano"
				Note Time="36" Value="A#4" Duration="12" Release="6" Instrument="1. Acoustic Grand Piano"
				Note Time="60" Value="G#4" Duration="12" Release="6" Instrument="1. Acoustic Grand Piano"
				Note Time="84" Value="C#5" Duration="12" Release="6" Instrument="1. Acoustic Grand Piano"
			Pattern Name="Dyadic Harmony Lead  Pattern 7" Color="91c76b"
				Note Time="12" Value="D5" Duration="12" Release="6" Instrument="1. Acoustic Grand Piano"
				Note Time="36" Value="D5" Duration="12" Release="6" Instrument="1. Acoustic Grand Piano"
				Note Time="60" Value="B4" Duration="12" Release="6" Instrument="1. Acoustic Grand Piano"
				Note Time="84" Value="B4" Duration="12" Release="6" Instrument="1. Acoustic Grand Piano"
			Pattern Name="Dyadic Harmony Lead  Pattern 8" Color="6ab96e"
				Note Time="12" Value="C4" Duration="12" Release="6" Instrument="82. Lead 2 (sawtooth)"
				Note Time="36" Value="C4" Duration="12" Release="6" Instrument="82. Lead 2 (sawtooth)"
				Note Time="60" Value="C4" Duration="12" Release="6" Instrument="82. Lead 2 (sawtooth)"
				Note Time="84" Value="C4" Duration="12" Release="6" Instrument="82. Lead 2 (sawtooth)"
			Pattern Name="Dyadic Harmony Lead  Pattern 9" Color="3ca598"
				Note Time="12" Value="D4" Duration="12" Release="6" Instrument="82. Lead 2 (sawtooth)"
				Note Time="36" Value="D4" Duration="12" Release="6" Instrument="82. Lead 2 (sawtooth)"
				Note Time="60" Value="D4" Duration="12" Release="6" Instrument="82. Lead 2 (sawtooth)"
				Note Time="84" Value="D4" Duration="12" Release="6" Instrument="82. Lead 2 (sawtooth)"
			Pattern Name="Dyadic Harmony Lead  Pattern 10" Color="3cbfcb"
				Note Time="12" Value="G#4" Duration="12" Release="6" Instrument="82. Lead 2 (sawtooth)"
				Note Time="36" Value="G#4" Duration="12" Release="6" Instrument="82. Lead 2 (sawtooth)"
			PatternInstance Time="0" Pattern="Dyadic Harmony Lead  Pattern 1"
			PatternInstance Time="1" Pattern="Dyadic Harmony Lead  Pattern 1"
			PatternInstance Time="2" Pattern="Dyadic Harmony Lead  Pattern 1"
			PatternInstance Time="3" Pattern="Dyadic Harmony Lead  Pattern 1"
			PatternInstance Time="4" Pattern="Dyadic Harmony Lead  Pattern 1"
			PatternInstance Time="5" Pattern="Dyadic Harmony Lead  Pattern 1"
			PatternInstance Time="6" Pattern="Dyadic Harmony Lead  Pattern 1"
			PatternInstance Time="7" Pattern="Dyadic Harmony Lead  Pattern 1"
			PatternInstance Time="8" Pattern="Dyadic Harmony Lead  Pattern 1"
			PatternInstance Time="9" Pattern="Dyadic Harmony Lead  Pattern 1"
			PatternInstance Time="10" Pattern="Dyadic Harmony Lead  Pattern 1"
			PatternInstance Time="11" Pattern="Dyadic Harmony Lead  Pattern 1"
			PatternInstance Time="12" Pattern="Dyadic Harmony Lead  Pattern 1"
			PatternInstance Time="13" Pattern="Dyadic Harmony Lead  Pattern 1"
			PatternInstance Time="14" Pattern="Dyadic Harmony Lead  Pattern 1"
			PatternInstance Time="15" Pattern="Dyadic Harmony Lead  Pattern 1"
			PatternInstance Time="16" Pattern="Dyadic Harmony Lead  Pattern 1"
			PatternInstance Time="17" Pattern="Dyadic Harmony Lead  Pattern 1"
			PatternInstance Time="18" Pattern="Dyadic Harmony Lead  Pattern 1"
			PatternInstance Time="19" Pattern="Dyadic Harmony Lead  Pattern 2"
			PatternInstance Time="20" Pattern="Dyadic Harmony Lead  Pattern 3"
			PatternInstance Time="21" Pattern="Dyadic Harmony Lead  Pattern 4"
			PatternInstance Time="22" Pattern="Dyadic Harmony Lead  Pattern 5"
			PatternInstance Time="23" Pattern="Dyadic Harmony Lead  Pattern 6"
			PatternInstance Time="24" Pattern="Dyadic Harmony Lead  Pattern 3"
			PatternInstance Time="25" Pattern="Dyadic Harmony Lead  Pattern 4"
			PatternInstance Time="26" Pattern="Dyadic Harmony Lead  Pattern 5"
			PatternInstance Time="27" Pattern="Dyadic Harmony Lead  Pattern 7"
			PatternInstance Time="28" Pattern="Dyadic Harmony Lead  Pattern 3"
			PatternInstance Time="29" Pattern="Dyadic Harmony Lead  Pattern 4"
			PatternInstance Time="30" Pattern="Dyadic Harmony Lead  Pattern 5"
			PatternInstance Time="31" Pattern="Dyadic Harmony Lead  Pattern 6"
			PatternInstance Time="32" Pattern="Dyadic Harmony Lead  Pattern 8"
			PatternInstance Time="33" Pattern="Dyadic Harmony Lead  Pattern 9"
			PatternInstance Time="34" Pattern="Dyadic Harmony Lead  Pattern 10"
		Channel Type="EPSMFM4"
			Pattern Name="Dyadic Harmony Base  Pattern 1" Color="ff6464"
				Note Time="12" Value="D#3" Duration="12" Release="6" Instrument="82. Lead 2 (sawtooth)"
				Note Time="36" Value="F#3" Duration="12" Release="6" Instrument="82. Lead 2 (sawtooth)"
				Note Time="60" Value="D#3" Duration="12" Release="6" Instrument="82. Lead 2 (sawtooth)"
				Note Time="84" Value="D3" Duration="12" Release="6" Instrument="82. Lead 2 (sawtooth)"
			Pattern Name="Dyadic Harmony Base  Pattern 2" Color="ff7f51"
				Note Time="12" Value="D#3" Duration="12" Release="6" Instrument="82. Lead 2 (sawtooth)"
				Note Time="36" Value="F#3" Duration="12" Release="6" Instrument="82. Lead 2 (sawtooth)"
			Pattern Name="Dyadic Harmony Base  Pattern 3" Color="ffa83c"
				Note Time="12" Value="G4" Duration="12" Release="6" Instrument="1. Acoustic Grand Piano"
				Note Time="36" Value="G4" Duration="12" Release="6" Instrument="1. Acoustic Grand Piano"
				Note Time="60" Value="G4" Duration="12" Release="6" Instrument="1. Acoustic Grand Piano"
				Note Time="84" Value="G4" Duration="12" Release="6" Instrument="1. Acoustic Grand Piano"
			Pattern Name="Dyadic Harmony Base  Pattern 4" Color="ffcb3c"
				Note Time="12" Value="B4" Duration="12" Release="6" Instrument="1. Acoustic Grand Piano"
				Note Time="36" Value="B4" Duration="12" Release="6" Instrument="1. Acoustic Grand Piano"
				Note Time="60" Value="B4" Duration="12" Release="6" Instrument="1. Acoustic Grand Piano"
				Note Time="84" Value="B4" Duration="12" Release="6" Instrument="1. Acoustic Grand Piano"
			Pattern Name="Dyadic Harmony Base  Pattern 5" Color="ffe461"
				Note Time="12" Value="C5" Duration="12" Release="6" Instrument="1. Acoustic Grand Piano"
				Note Time="36" Value="C5" Duration="12" Release="6" Instrument="1. Acoustic Grand Piano"
				Note Time="60" Value="C5" Duration="12" Release="6" Instrument="1. Acoustic Grand Piano"
				Note Time="84" Value="C5" Duration="12" Release="6" Instrument="1. Acoustic Grand Piano"
			Pattern Name="Dyadic Harmony Base  Pattern 6" Color="dad960"
				Note Time="12" Value="G4" Duration="12" Release="6" Instrument="1. Acoustic Grand Piano"
				Note Time="36" Value="G4" Duration="12" Release="6" Instrument="1. Acoustic Grand Piano"
				Note Time="60" Value="F4" Duration="12" Release="6" Instrument="1. Acoustic Grand Piano"
				Note Time="84" Value="G#4" Duration="12" Release="6" Instrument="1. Acoustic Grand Piano"
			Pattern Name="Dyadic Harmony Base  Pattern 7" Color="91c76b"
				Note Time="12" Value="G4" Duration="12" Release="6" Instrument="1. Acoustic Grand Piano"
				Note Time="36" Value="G4" Duration="12" Release="6" Instrument="1. Acoustic Grand Piano"
				Note Time="60" Value="F#4" Duration="12" Release="6" Instrument="1. Acoustic Grand Piano"
				Note Time="84" Value="F#4" Duration="12" Release="6" Instrument="1. Acoustic Grand Piano"
			Pattern Name="Dyadic Harmony Base  Pattern 8" Color="6ab96e"
				Note Time="12" Value="G3" Duration="12" Release="6" Instrument="82. Lead 2 (sawtooth)"
				Note Time="36" Value="G3" Duration="12" Release="6" Instrument="82. Lead 2 (sawtooth)"
				Note Time="60" Value="G3" Duration="12" Release="6" Instrument="82. Lead 2 (sawtooth)"
				Note Time="84" Value="G3" Duration="12" Release="6" Instrument="82. Lead 2 (sawtooth)"
			Pattern Name="Dyadic Harmony Base  Pattern 9" Color="3ca598"
				Note Time="12" Value="B3" Duration="12" Release="6" Instrument="82. Lead 2 (sawtooth)"
				Note Time="36" Value="B3" Duration="12" Release="6" Instrument="82. Lead 2 (sawtooth)"
				Note Time="60" Value="B3" Duration="12" Release="6" Instrument="82. Lead 2 (sawtooth)"
				Note Time="84" Value="B3" Duration="12" Release="6" Instrument="82. Lead 2 (sawtooth)"
			Pattern Name="Dyadic Harmony Base  Pattern 10" Color="3cbfcb"
				Note Time="12" Value="D#4" Duration="12" Release="6" Instrument="82. Lead 2 (sawtooth)"
				Note Time="36" Value="D#4" Duration="12" Release="6" Instrument="82. Lead 2 (sawtooth)"
			PatternInstance Time="0" Pattern="Dyadic Harmony Base  Pattern 1"
			PatternInstance Time="1" Pattern="Dyadic Harmony Base  Pattern 1"
			PatternInstance Time="2" Pattern="Dyadic Harmony Base  Pattern 1"
			PatternInstance Time="3" Pattern="Dyadic Harmony Base  Pattern 1"
			PatternInstance Time="4" Pattern="Dyadic Harmony Base  Pattern 1"
			PatternInstance Time="5" Pattern="Dyadic Harmony Base  Pattern 1"
			PatternInstance Time="6" Pattern="Dyadic Harmony Base  Pattern 1"
			PatternInstance Time="7" Pattern="Dyadic Harmony Base  Pattern 1"
			PatternInstance Time="8" Pattern="Dyadic Harmony Base  Pattern 1"
			PatternInstance Time="9" Pattern="Dyadic Harmony Base  Pattern 1"
			PatternInstance Time="10" Pattern="Dyadic Harmony Base  Pattern 1"
			PatternInstance Time="11" Pattern="Dyadic Harmony Base  Pattern 1"
			PatternInstance Time="12" Pattern="Dyadic Harmony Base  Pattern 1"
			PatternInstance Time="13" Pattern="Dyadic Harmony Base  Pattern 1"
			PatternInstance Time="14" Pattern="Dyadic Harmony Base  Pattern 1"
			PatternInstance Time="15" Pattern="Dyadic Harmony Base  Pattern 1"
			PatternInstance Time="16" Pattern="Dyadic Harmony Base  Pattern 1"
			PatternInstance Time="17" Pattern="Dyadic Harmony Base  Pattern 1"
			PatternInstance Time="18" Pattern="Dyadic Harmony Base  Pattern 1"
			PatternInstance Time="19" Pattern="Dyadic Harmony Base  Pattern 2"
			PatternInstance Time="20" Pattern="Dyadic Harmony Base  Pattern 3"
			PatternInstance Time="21" Pattern="Dyadic Harmony Base  Pattern 4"
			PatternInstance Time="22" Pattern="Dyadic Harmony Base  Pattern 5"
			PatternInstance Time="23" Pattern="Dyadic Harmony Base  Pattern 6"
			PatternInstance Time="24" Pattern="Dyadic Harmony Base  Pattern 3"
			PatternInstance Time="25" Pattern="Dyadic Harmony Base  Pattern 4"
			PatternInstance Time="26" Pattern="Dyadic Harmony Base  Pattern 5"
			PatternInstance Time="27" Pattern="Dyadic Harmony Base  Pattern 7"
			PatternInstance Time="28" Pattern="Dyadic Harmony Base  Pattern 3"
			PatternInstance Time="29" Pattern="Dyadic Harmony Base  Pattern 4"
			PatternInstance Time="30" Pattern="Dyadic Harmony Base  Pattern 5"
			PatternInstance Time="31" Pattern="Dyadic Harmony Base  Pattern 6"
			PatternInstance Time="32" Pattern="Dyadic Harmony Base  Pattern 8"
			PatternInstance Time="33" Pattern="Dyadic Harmony Base  Pattern 9"
			PatternInstance Time="34" Pattern="Dyadic Harmony Base  Pattern 10"
		Channel Type="EPSMFM5"
			Pattern Name="Bass  Pattern 1" Color="ff6464"
				Note Time="0" Value="C2" Duration="24" Release="12" Instrument="82. Lead 2 (sawtooth)"
				Note Time="24" Value="C2" Duration="24" Release="12" Instrument="82. Lead 2 (sawtooth)"
				Note Time="48" Value="C2" Duration="24" Release="12" Instrument="82. Lead 2 (sawtooth)"
				Note Time="72" Value="C2" Duration="24" Release="12" Instrument="82. Lead 2 (sawtooth)"
			Pattern Name="Bass  Pattern 2" Color="ff7f51"
				Note Time="0" Value="C2" Duration="24" Release="12" Instrument="82. Lead 2 (sawtooth)"
				Note Time="24" Value="C2" Duration="24" Release="12" Instrument="82. Lead 2 (sawtooth)"
				Note Time="48" Value="C2" Duration="24" Release="12" Instrument="82. Lead 2 (sawtooth)"
			Pattern Name="Bass  Pattern 3" Color="ffa83c"
				Note Time="0" Value="F3" Duration="24" Release="12" Instrument="37. Slap Bass 1"
				Note Time="24" Value="C3" Duration="24" Release="12" Instrument="37. Slap Bass 1"
				Note Time="48" Value="F3" Duration="24" Release="12" Instrument="37. Slap Bass 1"
				Note Time="72" Value="C3" Duration="24" Release="12" Instrument="37. Slap Bass 1"
			Pattern Name="Bass  Pattern 4" Color="ffcb3c"
				Note Time="0" Value="G3" Duration="24" Release="12" Instrument="37. Slap Bass 1"
				Note Time="24" Value="D3" Duration="24" Release="12" Instrument="37. Slap Bass 1"
				Note Time="48" Value="G3" Duration="24" Release="12" Instrument="37. Slap Bass 1"
				Note Time="72" Value="D3" Duration="24" Release="12" Instrument="37. Slap Bass 1"
			Pattern Name="Bass  Pattern 5" Color="ffe461"
				Note Time="0" Value="G#3" Duration="24" Release="12" Instrument="37. Slap Bass 1"
				Note Time="24" Value="D#3" Duration="24" Release="12" Instrument="37. Slap Bass 1"
				Note Time="48" Value="G#3" Duration="24" Release="12" Instrument="37. Slap Bass 1"
				Note Time="72" Value="D#3" Duration="24" Release="12" Instrument="37. Slap Bass 1"
			Pattern Name="Bass  Pattern 6" Color="dad960"
				Note Time="0" Value="D#3" Duration="24" Release="12" Instrument="37. Slap Bass 1"
				Note Time="24" Value="A#2" Duration="24" Release="12" Instrument="37. Slap Bass 1"
				Note Time="48" Value="C#3" Duration="24" Release="12" Instrument="37. Slap Bass 1"
				Note Time="72" Value="G3" Duration="24" Release="12" Instrument="37. Slap Bass 1"
			Pattern Name="Bass  Pattern 7" Color="91c76b"
				Note Time="0" Value="F3" Duration="24" Release="12" Instrument="37. Slap Bass 1"
				Note Time="24" Value="C3" Duration="21" Release="12" Instrument="37. Slap Bass 1"
				Note Time="45" Value="F#3" Duration="3" Instrument="37. Slap Bass 1"
				Note Time="48" Value="G3" Duration="12" Release="6" Instrument="37. Slap Bass 1"
				Note Time="60" Value="F3" Duration="12" Release="6" Instrument="37. Slap Bass 1"
				Note Time="72" Value="D#3" Duration="12" Release="6" Instrument="37. Slap Bass 1"
				Note Time="84" Value="D3" Duration="12" Release="6" Instrument="37. Slap Bass 1"
			Pattern Name="Bass  Pattern 8" Color="6ab96e"
				Note Time="0" Value="F2" Duration="24" Release="12" Instrument="82. Lead 2 (sawtooth)"
				Note Time="24" Value="C2" Duration="24" Release="12" Instrument="82. Lead 2 (sawtooth)"
				Note Time="48" Value="F2" Duration="24" Release="12" Instrument="82. Lead 2 (sawtooth)"
				Note Time="72" Value="C2" Duration="24" Release="12" Instrument="82. Lead 2 (sawtooth)"
			Pattern Name="Bass  Pattern 9" Color="3ca598"
				Note Time="0" Value="G2" Duration="24" Release="12" Instrument="82. Lead 2 (sawtooth)"
				Note Time="24" Value="D2" Duration="24" Release="12" Instrument="82. Lead 2 (sawtooth)"
				Note Time="48" Value="G2" Duration="24" Release="12" Instrument="82. Lead 2 (sawtooth)"
				Note Time="72" Value="D2" Duration="24" Release="12" Instrument="82. Lead 2 (sawtooth)"
			Pattern Name="Bass  Pattern 10" Color="3cbfcb"
				Note Time="0" Value="G#2" Duration="24" Release="12" Instrument="82. Lead 2 (sawtooth)"
				Note Time="24" Value="G#2" Duration="24" Release="12" Instrument="82. Lead 2 (sawtooth)"
				Note Time="48" Value="G#2" Duration="24" Release="12" Instrument="82. Lead 2 (sawtooth)"
			Pattern Name="Bass  Pattern 11" Color="3ca598"
				Note Time="0" Value="G1" Duration="12" Instrument="82. Lead 2 (sawtooth)"
				Note Time="12" Value="G1" Duration="12" Instrument="82. Lead 2 (sawtooth)"
				Note Time="24" Value="B1" Duration="24" Release="12" Instrument="82. Lead 2 (sawtooth)"
				Note Time="48" Value="C2" Duration="24" Release="12" Instrument="82. Lead 2 (sawtooth)"
			PatternInstance Time="0" Pattern="Bass  Pattern 1"
			PatternInstance Time="1" Pattern="Bass  Pattern 1"
			PatternInstance Time="2" Pattern="Bass  Pattern 1"
			PatternInstance Time="3" Pattern="Bass  Pattern 1"
			PatternInstance Time="4" Pattern="Bass  Pattern 1"
			PatternInstance Time="5" Pattern="Bass  Pattern 1"
			PatternInstance Time="6" Pattern="Bass  Pattern 1"
			PatternInstance Time="7" Pattern="Bass  Pattern 1"
			PatternInstance Time="8" Pattern="Bass  Pattern 1"
			PatternInstance Time="9" Pattern="Bass  Pattern 1"
			PatternInstance Time="10" Pattern="Bass  Pattern 1"
			PatternInstance Time="11" Pattern="Bass  Pattern 1"
			PatternInstance Time="12" Pattern="Bass  Pattern 1"
			PatternInstance Time="13" Pattern="Bass  Pattern 1"
			PatternInstance Time="14" Pattern="Bass  Pattern 1"
			PatternInstance Time="15" Pattern="Bass  Pattern 1"
			PatternInstance Time="16" Pattern="Bass  Pattern 1"
			PatternInstance Time="17" Pattern="Bass  Pattern 1"
			PatternInstance Time="18" Pattern="Bass  Pattern 1"
			PatternInstance Time="19" Pattern="Bass  Pattern 2"
			PatternInstance Time="20" Pattern="Bass  Pattern 3"
			PatternInstance Time="21" Pattern="Bass  Pattern 4"
			PatternInstance Time="22" Pattern="Bass  Pattern 5"
			PatternInstance Time="23" Pattern="Bass  Pattern 6"
			PatternInstance Time="24" Pattern="Bass  Pattern 3"
			PatternInstance Time="25" Pattern="Bass  Pattern 4"
			PatternInstance Time="26" Pattern="Bass  Pattern 5"
			PatternInstance Time="27" Pattern="Bass  Pattern 7"
			PatternInstance Time="28" Pattern="Bass  Pattern 3"
			PatternInstance Time="29" Pattern="Bass  Pattern 4"
			PatternInstance Time="30" Pattern="Bass  Pattern 5"
			PatternInstance Time="31" Pattern="Bass  Pattern 6"
			PatternInstance Time="32" Pattern="Bass  Pattern 8"
			PatternInstance Time="33" Pattern="Bass  Pattern 9"
			PatternInstance Time="34" Pattern="Bass  Pattern 10"
			PatternInstance Time="35" Pattern="Bass  Pattern 11"
		Channel Type="EPSMFM6"
		Channel Type="EPSMRythm1"
			Pattern Name="Kick  Pattern 1" Color="ff6464"
				Note Time="0" Value="C2" Duration="6" Instrument="1. Acoustic Grand Piano"
				Note Time="48" Value="C2" Duration="6" Instrument="1. Acoustic Grand Piano"
				Note Time="84" Value="C2" Duration="6" Instrument="1. Acoustic Grand Piano"
			Pattern Name="Kick  Pattern 2" Color="ff7f51"
				Note Time="0" Value="C2" Duration="6" Instrument="1. Acoustic Grand Piano"
				Note Time="48" Value="C2" Duration="6" Instrument="1. Acoustic Grand Piano"
			Pattern Name="Kick  Pattern 3" Color="ffa83c"
				Note Time="0" Value="C2" Duration="6" Instrument="1. Acoustic Grand Piano"
				Note Time="24" Value="C2" Duration="6" Instrument="1. Acoustic Grand Piano"
				Note Time="48" Value="C2" Duration="6" Instrument="1. Acoustic Grand Piano"
			Pattern Name="Kick  Pattern 4" Color="ffcb3c"
				Note Time="0" Value="C2" Duration="6" Instrument="1. Acoustic Grand Piano"
				Note Time="12" Value="C2" Duration="6" Instrument="1. Acoustic Grand Piano"
				Note Time="36" Value="C2" Duration="6" Instrument="1. Acoustic Grand Piano"
			Pattern Name="Kick  Pattern 5" Color="ffe461"
				Note Time="24" Value="C2" Duration="6" Instrument="1. Acoustic Grand Piano"
				Note Time="48" Value="C2" Duration="6" Instrument="1. Acoustic Grand Piano"
			PatternInstance Time="0" Pattern="Kick  Pattern 1"
			PatternInstance Time="1" Pattern="Kick  Pattern 1"
			PatternInstance Time="2" Pattern="Kick  Pattern 1"
			PatternInstance Time="3" Pattern="Kick  Pattern 1"
			PatternInstance Time="4" Pattern="Kick  Pattern 1"
			PatternInstance Time="5" Pattern="Kick  Pattern 1"
			PatternInstance Time="6" Pattern="Kick  Pattern 1"
			PatternInstance Time="7" Pattern="Kick  Pattern 1"
			PatternInstance Time="8" Pattern="Kick  Pattern 1"
			PatternInstance Time="9" Pattern="Kick  Pattern 1"
			PatternInstance Time="10" Pattern="Kick  Pattern 1"
			PatternInstance Time="11" Pattern="Kick  Pattern 1"
			PatternInstance Time="12" Pattern="Kick  Pattern 1"
			PatternInstance Time="13" Pattern="Kick  Pattern 1"
			PatternInstance Time="14" Pattern="Kick  Pattern 1"
			PatternInstance Time="15" Pattern="Kick  Pattern 1"
			PatternInstance Time="16" Pattern="Kick  Pattern 1"
			PatternInstance Time="17" Pattern="Kick  Pattern 1"
			PatternInstance Time="18" Pattern="Kick  Pattern 1"
			PatternInstance Time="19" Pattern="Kick  Pattern 2"
			PatternInstance Time="20" Pattern="Kick  Pattern 1"
			PatternInstance Time="21" Pattern="Kick  Pattern 1"
			PatternInstance Time="22" Pattern="Kick  Pattern 1"
			PatternInstance Time="23" Pattern="Kick  Pattern 1"
			PatternInstance Time="24" Pattern="Kick  Pattern 1"
			PatternInstance Time="25" Pattern="Kick  Pattern 1"
			PatternInstance Time="26" Pattern="Kick  Pattern 1"
			PatternInstance Time="27" Pattern="Kick  Pattern 1"
			PatternInstance Time="28" Pattern="Kick  Pattern 1"
			PatternInstance Time="29" Pattern="Kick  Pattern 1"
			PatternInstance Time="30" Pattern="Kick  Pattern 1"
			PatternInstance Time="31" Pattern="Kick  Pattern 1"
			PatternInstance Time="32" Pattern="Kick  Pattern 3"
			PatternInstance Time="33" Pattern="Kick  Pattern 3"
			PatternInstance Time="34" Pattern="Kick  Pattern 4"
			PatternInstance Time="35" Pattern="Kick  Pattern 5"
		Channel Type="EPSMRythm2"
			Pattern Name="Snare  Pattern 1" Color="ff6464"
				Note Time="24" Value="E2" Duration="6" Instrument="1. Acoustic Grand Piano"
				Note Time="72" Value="E2" Duration="6" Instrument="1. Acoustic Grand Piano"
			Pattern Name="Snare  Pattern 2" Color="ff7f51"
				Note Time="24" Value="E2" Duration="6" Instrument="1. Acoustic Grand Piano"
			Pattern Name="Snare  Pattern 3" Color="ffa83c"
				Note Time="12" Value="E2" Duration="6" Instrument="1. Acoustic Grand Piano"
				Note Time="36" Value="E2" Duration="6" Instrument="1. Acoustic Grand Piano"
				Note Time="60" Value="E2" Duration="6" Instrument="1. Acoustic Grand Piano"
				Note Time="72" Value="E2" Duration="6" Instrument="1. Acoustic Grand Piano"
				Note Time="78" Value="E2" Duration="6" Instrument="1. Acoustic Grand Piano"
				Note Time="84" Value="E2" Duration="6" Instrument="1. Acoustic Grand Piano"
			Pattern Name="Snare  Pattern 4" Color="ffcb3c"
				Note Time="24" Value="E2" Duration="6" Instrument="1. Acoustic Grand Piano"
				Note Time="48" Value="E2" Duration="6" Instrument="1. Acoustic Grand Piano"
			Pattern Name="Snare  Pattern 5" Color="ffe461"
				Note Time="0" Value="E2" Duration="6" Instrument="1. Acoustic Grand Piano"
				Note Time="12" Value="E2" Duration="6" Instrument="1. Acoustic Grand Piano"
				Note Time="36" Value="E2" Duration="6" Instrument="1. Acoustic Grand Piano"
			PatternInstance Time="0" Pattern="Snare  Pattern 1"
			PatternInstance Time="1" Pattern="Snare  Pattern 1"
			PatternInstance Time="2" Pattern="Snare  Pattern 1"
			PatternInstance Time="3" Pattern="Snare  Pattern 1"
			PatternInstance Time="4" Pattern="Snare  Pattern 1"
			PatternInstance Time="5" Pattern="Snare  Pattern 1"
			PatternInstance Time="6" Pattern="Snare  Pattern 1"
			PatternInstance Time="7" Pattern="Snare  Pattern 1"
			PatternInstance Time="8" Pattern="Snare  Pattern 1"
			PatternInstance Time="9" Pattern="Snare  Pattern 1"
			PatternInstance Time="10" Pattern="Snare  Pattern 1"
			PatternInstance Time="11" Pattern="Snare  Pattern 1"
			PatternInstance Time="12" Pattern="Snare  Pattern 1"
			PatternInstance Time="13" Pattern="Snare  Pattern 1"
			PatternInstance Time="14" Pattern="Snare  Pattern 1"
			PatternInstance Time="15" Pattern="Snare  Pattern 1"
			PatternInstance Time="16" Pattern="Snare  Pattern 1"
			PatternInstance Time="17" Pattern="Snare  Pattern 1"
			PatternInstance Time="18" Pattern="Snare  Pattern 1"
			PatternInstance Time="19" Pattern="Snare  Pattern 2"
			PatternInstance Time="20" Pattern="Snare  Pattern 1"
			PatternInstance Time="21" Pattern="Snare  Pattern 1"
			PatternInstance Time="22" Pattern="Snare  Pattern 1"
			PatternInstance Time="23" Pattern="Snare  Pattern 1"
			PatternInstance Time="24" Pattern="Snare  Pattern 1"
			PatternInstance Time="25" Pattern="Snare  Pattern 1"
			PatternInstance Time="26" Pattern="Snare  Pattern 1"
			PatternInstance Time="27" Pattern="Snare  Pattern 1"
			PatternInstance Time="28" Pattern="Snare  Pattern 1"
			PatternInstance Time="29" Pattern="Snare  Pattern 1"
			PatternInstance Time="30" Pattern="Snare  Pattern 1"
			PatternInstance Time="31" Pattern="Snare  Pattern 1"
			PatternInstance Time="32" Pattern="Snare  Pattern 3"
			PatternInstance Time="33" Pattern="Snare  Pattern 3"
			PatternInstance Time="34" Pattern="Snare  Pattern 4"
			PatternInstance Time="35" Pattern="Snare  Pattern 5"
		Channel Type="EPSMRythm3"
			Pattern Name="Cymbal" Color="ff6464"
				Note Time="0" Value="C4" Duration="6" Instrument="1. Acoustic Grand Piano"
			PatternInstance Time="20" Pattern="Cymbal"
			PatternInstance Time="24" Pattern="Cymbal"
			PatternInstance Time="28" Pattern="Cymbal"
		Channel Type="EPSMRythm4"
			Pattern Name="Hi-Hat  Pattern 1" Color="ff6464"
				Note Time="12" Value="A#2" Duration="6" Instrument="1. Acoustic Grand Piano"
				Note Time="36" Value="A#2" Duration="6" Instrument="1. Acoustic Grand Piano"
				Note Time="48" Value="A#2" Duration="6" Instrument="1. Acoustic Grand Piano"
				Note Time="60" Value="A#2" Duration="6" Instrument="1. Acoustic Grand Piano"
				Note Time="72" Value="A#2" Duration="6" Instrument="1. Acoustic Grand Piano"
				Note Time="78" Value="A#2" Duration="6" Instrument="1. Acoustic Grand Piano"
				Note Time="84" Value="A#2" Duration="6" Instrument="1. Acoustic Grand Piano"
			Pattern Name="Hi-Hat  Pattern 2" Color="ff7f51"
				Note Time="0" Value="A#2" Duration="6" Instrument="1. Acoustic Grand Piano"
				Note Time="12" Value="A#2" Duration="6" Instrument="1. Acoustic Grand Piano"
				Note Time="24" Value="A#2" Duration="6" Instrument="1. Acoustic Grand Piano"
				Note Time="36" Value="A#2" Duration="6" Instrument="1. Acoustic Grand Piano"
				Note Time="48" Value="A#2" Duration="6" Instrument="1. Acoustic Grand Piano"
				Note Time="60" Value="A#2" Duration="6" Instrument="1. Acoustic Grand Piano"
				Note Time="72" Value="A#2" Duration="6" Instrument="1. Acoustic Grand Piano"
				Note Time="84" Value="A#2" Duration="6" Instrument="1. Acoustic Grand Piano"
			PatternInstance Time="0" Pattern="Hi-Hat  Pattern 1"
			PatternInstance Time="1" Pattern="Hi-Hat  Pattern 1"
			PatternInstance Time="2" Pattern="Hi-Hat  Pattern 1"
			PatternInstance Time="3" Pattern="Hi-Hat  Pattern 1"
			PatternInstance Time="4" Pattern="Hi-Hat  Pattern 1"
			PatternInstance Time="5" Pattern="Hi-Hat  Pattern 1"
			PatternInstance Time="6" Pattern="Hi-Hat  Pattern 1"
			PatternInstance Time="7" Pattern="Hi-Hat  Pattern 1"
			PatternInstance Time="8" Pattern="Hi-Hat  Pattern 1"
			PatternInstance Time="9" Pattern="Hi-Hat  Pattern 1"
			PatternInstance Time="10" Pattern="Hi-Hat  Pattern 1"
			PatternInstance Time="11" Pattern="Hi-Hat  Pattern 1"
			PatternInstance Time="12" Pattern="Hi-Hat  Pattern 1"
			PatternInstance Time="13" Pattern="Hi-Hat  Pattern 1"
			PatternInstance Time="14" Pattern="Hi-Hat  Pattern 1"
			PatternInstance Time="15" Pattern="Hi-Hat  Pattern 1"
			PatternInstance Time="16" Pattern="Hi-Hat  Pattern 1"
			PatternInstance Time="17" Pattern="Hi-Hat  Pattern 1"
			PatternInstance Time="18" Pattern="Hi-Hat  Pattern 1"
			PatternInstance Time="19" Pattern="Hi-Hat  Pattern 1"
			PatternInstance Time="20" Pattern="Hi-Hat  Pattern 2"
			PatternInstance Time="21" Pattern="Hi-Hat  Pattern 2"
			PatternInstance Time="22" Pattern="Hi-Hat  Pattern 2"
			PatternInstance Time="23" Pattern="Hi-Hat  Pattern 2"
			PatternInstance Time="24" Pattern="Hi-Hat  Pattern 2"
			PatternInstance Time="25" Pattern="Hi-Hat  Pattern 2"
			PatternInstance Time="26" Pattern="Hi-Hat  Pattern 2"
			PatternInstance Time="27" Pattern="Hi-Hat  Pattern 2"
			PatternInstance Time="28" Pattern="Hi-Hat  Pattern 2"
			PatternInstance Time="29" Pattern="Hi-Hat  Pattern 2"
			PatternInstance Time="30" Pattern="Hi-Hat  Pattern 2"
			PatternInstance Time="31" Pattern="Hi-Hat  Pattern 2"
		Channel Type="EPSMRythm5"
		Channel Type="EPSMRythm6"
	Song Name="30. Koopa's Theme" Color="8d69e4" Folder="Super Mario 64" Length="35" LoopPoint="3" PatternLength="16" BeatLength="4" NoteLength="7" Groove="8-8-8-8-8-8-8-7" GroovePaddingMode="Middle"
		Channel Type="Square1"
		Channel Type="Square2"
		Channel Type="Triangle"
		Channel Type="Noise"
		Channel Type="DPCM"
		Channel Type="EPSMSquare1"
		Channel Type="EPSMSquare2"
		Channel Type="EPSMSquare3"
		Channel Type="EPSMFM1"
			Pattern Name="00" Color="ff6464"
				Note Time="0" Value="D6" Duration="70" Instrument="105. Sitar"
				Note Time="70" Value="D#6" Duration="14" Instrument="105. Sitar"
				Note Time="84" Value="D6" Duration="14" Instrument="105. Sitar"
				Note Time="98" Value="G#5" Duration="14" Instrument="105. Sitar"
			Pattern Name="01" Color="ff7f51"
				Note Time="0" Value="A5" Duration="112" Instrument="105. Sitar"
			Pattern Name="02" Color="ffa83c"
				Note Time="0" Value="G#5" Duration="70" Instrument="105. Sitar"
				Note Time="70" Value="A5" Duration="14" Instrument="105. Sitar"
				Note Time="84" Value="G#5" Duration="14" Instrument="105. Sitar"
				Note Time="98" Value="G5" Duration="14" Instrument="105. Sitar"
			Pattern Name="03" Color="ffcb3c"
				Note Time="0" Value="C#5" Duration="14" Instrument="105. Sitar"
				Note Time="14" Value="D5" Duration="98" Instrument="105. Sitar"
			Pattern Name="04" Color="ffe461"
				Note Time="0" Value="F5" Duration="98" Instrument="105. Sitar"
				Note Time="98" Value="A4" Duration="14" Instrument="105. Sitar"
			Pattern Name="05" Color="dad960"
				Note Time="0" Value="G#4" Duration="112" Instrument="105. Sitar"
			Pattern Name="06" Color="91c76b"
				Note Time="0" Value="F5" Duration="112" Instrument="105. Sitar"
			Pattern Name="07" Color="6ab96e"
				Note Time="0" Value="E5" Duration="28" Instrument="105. Sitar"
				Note Time="28" Value="D5" Duration="84" Instrument="105. Sitar"
			Pattern Name="08" Color="3ca598"
				Note Time="0" Value="A4" Duration="56" Instrument="105. Sitar"
				Note Time="56" Value="G#4" Duration="56" Instrument="105. Sitar"
			Pattern Name="09" Color="3cbfcb"
				Note Time="0" Value="E5" Duration="42" Instrument="105. Sitar"
				Note Time="42" Value="D5" Duration="70" Instrument="105. Sitar"
			PatternInstance Time="11" Pattern="00"
			PatternInstance Time="12" Pattern="01"
			PatternInstance Time="13" Pattern="02"
			PatternInstance Time="14" Pattern="03"
			PatternInstance Time="15" Pattern="00"
			PatternInstance Time="16" Pattern="01"
			PatternInstance Time="17" Pattern="02"
			PatternInstance Time="18" Pattern="03"
			PatternInstance Time="19" Pattern="04"
			PatternInstance Time="20" Pattern="05"
			PatternInstance Time="21" Pattern="06"
			PatternInstance Time="22" Pattern="07"
			PatternInstance Time="23" Pattern="06"
			PatternInstance Time="24" Pattern="08"
			PatternInstance Time="25" Pattern="06"
			PatternInstance Time="26" Pattern="09"
			PatternInstance Time="27" Pattern="00"
			PatternInstance Time="28" Pattern="01"
			PatternInstance Time="29" Pattern="02"
			PatternInstance Time="30" Pattern="03"
		Channel Type="EPSMFM2"
			Pattern Name="00" Color="ff6464"
				Note Time="0" Volume="11"
				Note Time="7" Value="D6" Duration="70" Instrument="105. Sitar"
				Note Time="77" Value="D#6" Duration="14" Instrument="105. Sitar"
				Note Time="91" Value="D6" Duration="14" Instrument="105. Sitar"
				Note Time="105" Value="G#5" Duration="14" Instrument="105. Sitar"
			Pattern Name="01" Color="ff7f51"
				Note Time="7" Value="A5" Duration="112" Instrument="105. Sitar"
			Pattern Name="02" Color="ffa83c"
				Note Time="7" Value="G#5" Duration="70" Instrument="105. Sitar"
				Note Time="77" Value="A5" Duration="14" Instrument="105. Sitar"
				Note Time="91" Value="G#5" Duration="14" Instrument="105. Sitar"
				Note Time="105" Value="G5" Duration="14" Instrument="105. Sitar"
			Pattern Name="03" Color="ffcb3c"
				Note Time="7" Value="C#5" Duration="14" Instrument="105. Sitar"
				Note Time="21" Value="D5" Duration="98" Instrument="105. Sitar"
			Pattern Name="04" Color="ffe461"
				Note Time="7" Value="F5" Duration="98" Instrument="105. Sitar"
				Note Time="105" Value="A4" Duration="14" Instrument="105. Sitar"
			Pattern Name="05" Color="dad960"
				Note Time="7" Value="G#4" Duration="112" Instrument="105. Sitar"
			Pattern Name="06" Color="91c76b"
				Note Time="7" Value="F5" Duration="112" Instrument="105. Sitar"
			Pattern Name="07" Color="6ab96e"
				Note Time="7" Value="E5" Duration="28" Instrument="105. Sitar"
				Note Time="35" Value="D5" Duration="84" Instrument="105. Sitar"
			Pattern Name="08" Color="3ca598"
				Note Time="7" Value="A4" Duration="56" Instrument="105. Sitar"
				Note Time="63" Value="G#4" Duration="56" Instrument="105. Sitar"
			Pattern Name="09" Color="3cbfcb"
				Note Time="7" Value="E5" Duration="42" Instrument="105. Sitar"
				Note Time="49" Value="D5" Duration="70" Instrument="105. Sitar"
				Note Time="105" Volume="11"
			PatternInstance Time="11" Pattern="00"
			PatternInstance Time="12" Pattern="01"
			PatternInstance Time="13" Pattern="02"
			PatternInstance Time="14" Pattern="03"
			PatternInstance Time="15" Pattern="00"
			PatternInstance Time="16" Pattern="01"
			PatternInstance Time="17" Pattern="02"
			PatternInstance Time="18" Pattern="03"
			PatternInstance Time="19" Pattern="04"
			PatternInstance Time="20" Pattern="05"
			PatternInstance Time="21" Pattern="06"
			PatternInstance Time="22" Pattern="07"
			PatternInstance Time="23" Pattern="06"
			PatternInstance Time="24" Pattern="08"
			PatternInstance Time="25" Pattern="06"
			PatternInstance Time="26" Pattern="09"
			PatternInstance Time="27" Pattern="00"
			PatternInstance Time="28" Pattern="01"
			PatternInstance Time="29" Pattern="02"
			PatternInstance Time="30" Pattern="03"
		Channel Type="EPSMFM3"
			Pattern Name="00" Color="ff6464"
				Note Time="0" Volume="7"
				Note Time="14" Value="D6" Duration="70" Instrument="105. Sitar"
				Note Time="84" Value="D#6" Duration="14" Instrument="105. Sitar"
				Note Time="98" Value="D6" Duration="14" Instrument="105. Sitar"
			Pattern Name="01" Color="ff7f51"
				Note Time="0" Value="G#5" Duration="14" Instrument="105. Sitar"
				Note Time="14" Value="A5" Duration="112" Instrument="105. Sitar"
			Pattern Name="02" Color="ffa83c"
				Note Time="14" Value="G#5" Duration="70" Instrument="105. Sitar"
				Note Time="84" Value="A5" Duration="14" Instrument="105. Sitar"
				Note Time="98" Value="G#5" Duration="14" Instrument="105. Sitar"
			Pattern Name="03" Color="ffcb3c"
				Note Time="0" Value="G5" Duration="14" Instrument="105. Sitar"
				Note Time="14" Value="C#5" Duration="14" Instrument="105. Sitar"
				Note Time="28" Value="D5" Duration="98" Instrument="105. Sitar"
			Pattern Name="04" Color="ffe461"
				Note Time="14" Value="F5" Duration="98" Instrument="105. Sitar"
			Pattern Name="05" Color="dad960"
				Note Time="0" Value="A4" Duration="14" Instrument="105. Sitar"
				Note Time="14" Value="G#4" Duration="112" Instrument="105. Sitar"
			Pattern Name="06" Color="91c76b"
				Note Time="14" Value="F5" Duration="112" Instrument="105. Sitar"
			Pattern Name="07" Color="6ab96e"
				Note Time="14" Value="E5" Duration="28" Instrument="105. Sitar"
				Note Time="42" Value="D5" Duration="84" Instrument="105. Sitar"
			Pattern Name="08" Color="3ca598"
				Note Time="14" Value="A4" Duration="56" Instrument="105. Sitar"
				Note Time="70" Value="G#4" Duration="56" Instrument="105. Sitar"
			Pattern Name="09" Color="3cbfcb"
				Note Time="14" Value="E5" Duration="42" Instrument="105. Sitar"
				Note Time="56" Value="D5" Duration="70" Instrument="105. Sitar"
			PatternInstance Time="11" Pattern="00"
			PatternInstance Time="12" Pattern="01"
			PatternInstance Time="13" Pattern="02"
			PatternInstance Time="14" Pattern="03"
			PatternInstance Time="15" Pattern="00"
			PatternInstance Time="16" Pattern="01"
			PatternInstance Time="17" Pattern="02"
			PatternInstance Time="18" Pattern="03"
			PatternInstance Time="19" Pattern="04"
			PatternInstance Time="20" Pattern="05"
			PatternInstance Time="21" Pattern="06"
			PatternInstance Time="22" Pattern="07"
			PatternInstance Time="23" Pattern="06"
			PatternInstance Time="24" Pattern="08"
			PatternInstance Time="25" Pattern="06"
			PatternInstance Time="26" Pattern="09"
			PatternInstance Time="27" Pattern="00"
			PatternInstance Time="28" Pattern="01"
			PatternInstance Time="29" Pattern="02"
			PatternInstance Time="30" Pattern="03"
		Channel Type="EPSMFM4"
			Pattern Name="00" Color="ff6464"
				Note Time="0" Volume="3"
				Note Time="21" Value="D6" Duration="70" Instrument="105. Sitar"
				Note Time="91" Value="D#6" Duration="14" Instrument="105. Sitar"
				Note Time="105" Value="D6" Duration="14" Instrument="105. Sitar"
			Pattern Name="01" Color="ff7f51"
				Note Time="7" Value="G#5" Duration="14" Instrument="105. Sitar"
				Note Time="21" Value="A5" Duration="112" Instrument="105. Sitar"
			Pattern Name="02" Color="ffa83c"
				Note Time="21" Value="G#5" Duration="70" Instrument="105. Sitar"
				Note Time="91" Value="A5" Duration="14" Instrument="105. Sitar"
				Note Time="105" Value="G#5" Duration="14" Instrument="105. Sitar"
			Pattern Name="03" Color="ffcb3c"
				Note Time="7" Value="G5" Duration="14" Instrument="105. Sitar"
				Note Time="21" Value="C#5" Duration="14" Instrument="105. Sitar"
				Note Time="35" Value="D5" Duration="98" Instrument="105. Sitar"
			Pattern Name="04" Color="ffe461"
				Note Time="21" Value="F5" Duration="98" Instrument="105. Sitar"
			Pattern Name="05" Color="dad960"
				Note Time="7" Value="A4" Duration="14" Instrument="105. Sitar"
				Note Time="21" Value="G#4" Duration="112" Instrument="105. Sitar"
			Pattern Name="06" Color="91c76b"
				Note Time="21" Value="F5" Duration="112" Instrument="105. Sitar"
			Pattern Name="07" Color="6ab96e"
				Note Time="21" Value="E5" Duration="28" Instrument="105. Sitar"
				Note Time="49" Value="D5" Duration="84" Instrument="105. Sitar"
			Pattern Name="08" Color="3ca598"
				Note Time="21" Value="A4" Duration="56" Instrument="105. Sitar"
				Note Time="77" Value="G#4" Duration="56" Instrument="105. Sitar"
			Pattern Name="09" Color="3cbfcb"
				Note Time="21" Value="E5" Duration="42" Instrument="105. Sitar"
				Note Time="63" Value="D5" Duration="70" Instrument="105. Sitar"
			PatternInstance Time="11" Pattern="00"
			PatternInstance Time="12" Pattern="01"
			PatternInstance Time="13" Pattern="02"
			PatternInstance Time="14" Pattern="03"
			PatternInstance Time="15" Pattern="00"
			PatternInstance Time="16" Pattern="01"
			PatternInstance Time="17" Pattern="02"
			PatternInstance Time="18" Pattern="03"
			PatternInstance Time="19" Pattern="04"
			PatternInstance Time="20" Pattern="05"
			PatternInstance Time="21" Pattern="06"
			PatternInstance Time="22" Pattern="07"
			PatternInstance Time="23" Pattern="06"
			PatternInstance Time="24" Pattern="08"
			PatternInstance Time="25" Pattern="06"
			PatternInstance Time="26" Pattern="09"
			PatternInstance Time="27" Pattern="00"
			PatternInstance Time="28" Pattern="01"
			PatternInstance Time="29" Pattern="02"
			PatternInstance Time="30" Pattern="03"
		Channel Type="EPSMFM5"
			Pattern Name="00" Color="ff6464"
				Note Time="0" Value="A1" Duration="14" Instrument="31. Distortion Guitar"
				Note Time="14" Value="D2" Duration="14" Instrument="31. Distortion Guitar"
				Note Time="28" Value="A2" Duration="14" Instrument="31. Distortion Guitar"
				Note Time="42" Value="G#2" Duration="70" Instrument="31. Distortion Guitar"
			Pattern Name="01" Color="ff7f51"
				Note Time="0" Value="A1" Duration="14" Instrument="31. Distortion Guitar"
				Note Time="14" Value="D2" Duration="14" Instrument="31. Distortion Guitar"
				Note Time="28" Value="G2" Duration="14" Instrument="31. Distortion Guitar"
				Note Time="42" Value="F2" Duration="70" Instrument="31. Distortion Guitar"
			Pattern Name="02" Color="ffa83c"
				Note Time="0" Value="A1" Duration="14" Instrument="31. Distortion Guitar"
				Note Time="14" Value="D2" Duration="14" Instrument="31. Distortion Guitar"
				Note Time="28" Value="A2" Duration="14" Instrument="31. Distortion Guitar"
				Note Time="42" Value="G#2" Duration="28" Instrument="31. Distortion Guitar"
				Note Time="70" Value="G2" Duration="28" Instrument="31. Distortion Guitar"
				Note Time="98" Value="F2" Duration="28" Instrument="31. Distortion Guitar"
			Pattern Name="03" Color="ffcb3c"
				Note Time="14" Value="D2" Duration="98" Instrument="31. Distortion Guitar"
			Pattern Name="04" Color="ffe461"
				Note Time="0" Value="D2" Duration="14" Instrument="31. Distortion Guitar"
				Note Time="14" Value="A1" Duration="14" Instrument="31. Distortion Guitar"
				Note Time="28" Value="D2" Duration="14" Instrument="31. Distortion Guitar"
				Note Time="42" Value="C#2" Duration="70" Instrument="31. Distortion Guitar"
			Pattern Name="05" Color="dad960"
				Note Time="0" Value="C2" Duration="14" Instrument="31. Distortion Guitar"
				Note Time="14" Value="A1" Duration="14" Instrument="31. Distortion Guitar"
				Note Time="28" Value="C2" Duration="14" Instrument="31. Distortion Guitar"
				Note Time="42" Value="B1" Duration="70" Instrument="31. Distortion Guitar"
			Pattern Name="06" Color="91c76b"
				Note Time="0" Value="D2" Duration="14" Instrument="31. Distortion Guitar"
				Note Time="14" Value="A1" Duration="14" Instrument="31. Distortion Guitar"
				Note Time="28" Value="D2" Duration="14" Instrument="31. Distortion Guitar"
				Note Time="42" Value="C#2" Duration="28" Instrument="31. Distortion Guitar"
				Note Time="70" Value="E2" Duration="42" Instrument="31. Distortion Guitar"
			Pattern Name="07" Color="6ab96e"
				Note Time="0" Value="A1" Duration="14" Instrument="31. Distortion Guitar"
				Note Time="14" Value="D2" Duration="14" Instrument="31. Distortion Guitar"
				Note Time="28" Value="A2" Duration="14" Instrument="31. Distortion Guitar"
				Note Time="42" Value="G#2" Duration="28" Instrument="31. Distortion Guitar"
				Note Time="70" Value="D2" Duration="28" Instrument="31. Distortion Guitar"
				Note Time="98" Value="G2" Duration="28" Instrument="31. Distortion Guitar"
			Pattern Name="08" Color="3ca598"
				Note Time="14" Value="F2" Duration="14" Instrument="31. Distortion Guitar"
				Note Time="28" Value="D2" Duration="84" Instrument="31. Distortion Guitar"
			Pattern Name="09" Color="3cbfcb"
				Note Time="0" Value="D2" Duration="14" Instrument="31. Distortion Guitar"
				Note Time="14" Value="A2" Duration="14" Instrument="31. Distortion Guitar"
				Note Time="28" Value="D3" Duration="14" Instrument="31. Distortion Guitar"
				Note Time="42" Value="D2" Duration="14" Instrument="31. Distortion Guitar"
				Note Time="56" Value="A2" Duration="14" Instrument="31. Distortion Guitar"
				Note Time="70" Value="C#3" Duration="14" Instrument="31. Distortion Guitar"
				Note Time="84" Value="D2" Duration="14" Instrument="31. Distortion Guitar"
				Note Time="98" Value="A2" Duration="14" Instrument="31. Distortion Guitar"
			Pattern Name="0A" Color="3eb3f9"
				Note Time="0" Value="C3" Duration="14" Instrument="31. Distortion Guitar"
				Note Time="14" Value="D2" Duration="14" Instrument="31. Distortion Guitar"
				Note Time="28" Value="F2" Duration="14" Instrument="31. Distortion Guitar"
				Note Time="42" Value="C3" Duration="14" Instrument="31. Distortion Guitar"
				Note Time="56" Value="B2" Duration="14" Instrument="31. Distortion Guitar"
				Note Time="70" Value="G2" Duration="42" Instrument="31. Distortion Guitar"
			PatternInstance Time="3" Pattern="00"
			PatternInstance Time="4" Pattern="01"
			PatternInstance Time="5" Pattern="02"
			PatternInstance Time="6" Pattern="03"
			PatternInstance Time="7" Pattern="00"
			PatternInstance Time="8" Pattern="01"
			PatternInstance Time="9" Pattern="02"
			PatternInstance Time="10" Pattern="03"
			PatternInstance Time="11" Pattern="00"
			PatternInstance Time="12" Pattern="01"
			PatternInstance Time="13" Pattern="02"
			PatternInstance Time="14" Pattern="03"
			PatternInstance Time="15" Pattern="00"
			PatternInstance Time="16" Pattern="01"
			PatternInstance Time="17" Pattern="02"
			PatternInstance Time="18" Pattern="03"
			PatternInstance Time="19" Pattern="04"
			PatternInstance Time="20" Pattern="05"
			PatternInstance Time="21" Pattern="04"
			PatternInstance Time="22" Pattern="05"
			PatternInstance Time="23" Pattern="06"
			PatternInstance Time="24" Pattern="04"
			PatternInstance Time="25" Pattern="04"
			PatternInstance Time="26" Pattern="05"
			PatternInstance Time="27" Pattern="00"
			PatternInstance Time="28" Pattern="01"
			PatternInstance Time="29" Pattern="07"
			PatternInstance Time="30" Pattern="08"
			PatternInstance Time="31" Pattern="09"
			PatternInstance Time="32" Pattern="0A"
			PatternInstance Time="33" Pattern="09"
			PatternInstance Time="34" Pattern="0A"
		Channel Type="EPSMFM6"
		Channel Type="EPSMRythm1"
			Pattern Name="00" Color="ff6464"
				Note Time="0" Value="C2" Duration="14" Instrument="1. Acoustic Grand Piano"
				Note Time="56" Value="C2" Duration="14" Instrument="1. Acoustic Grand Piano"
				Note Time="70" Value="C2" Duration="14" Instrument="1. Acoustic Grand Piano"
			Pattern Name="01" Color="ff7f51"
				Note Time="0" Value="C2" Duration="14" Instrument="1. Acoustic Grand Piano"
				Note Time="21" Value="C2" Duration="14" Instrument="1. Acoustic Grand Piano"
				Note Time="42" Value="C2" Duration="14" Instrument="1. Acoustic Grand Piano"
				Note Time="56" Value="C2" Duration="14" Instrument="1. Acoustic Grand Piano"
				Note Time="105" Value="C2" Duration="7" Instrument="1. Acoustic Grand Piano"
			Pattern Name="02" Color="ffa83c"
				Note Time="0" Value="C2" Duration="14" Instrument="1. Acoustic Grand Piano"
				Note Time="21" Value="C2" Duration="14" Instrument="1. Acoustic Grand Piano"
				Note Time="42" Value="C2" Duration="14" Instrument="1. Acoustic Grand Piano"
				Note Time="63" Value="C2" Duration="14" Instrument="1. Acoustic Grand Piano"
				Note Time="77" Value="C2" Duration="14" Instrument="1. Acoustic Grand Piano"
				Note Time="91" Value="C2" Duration="14" Instrument="1. Acoustic Grand Piano"
				Note Time="105" Value="C2" Duration="7" Instrument="1. Acoustic Grand Piano"
			Pattern Name="03" Color="ffcb3c"
				Note Time="0" Value="C2" Duration="14" Instrument="1. Acoustic Grand Piano"
				Note Time="42" Value="C2" Duration="14" Instrument="1. Acoustic Grand Piano"
				Note Time="56" Value="C2" Duration="14" Instrument="1. Acoustic Grand Piano"
				Note Time="70" Value="C2" Duration="14" Instrument="1. Acoustic Grand Piano"
			Pattern Name="04" Color="ffe461"
				Note Time="0" Value="C2" Duration="14" Instrument="1. Acoustic Grand Piano"
				Note Time="56" Value="C2" Duration="14" Instrument="1. Acoustic Grand Piano"
				Note Time="84" Value="C2" Duration="14" Instrument="1. Acoustic Grand Piano"
			Pattern Name="05" Color="dad960"
				Note Time="0" Value="C2" Duration="14" Instrument="1. Acoustic Grand Piano"
				Note Time="14" Value="C2" Duration="14" Instrument="1. Acoustic Grand Piano"
				Note Time="56" Value="C2" Duration="14" Instrument="1. Acoustic Grand Piano"
				Note Time="70" Value="C2" Duration="14" Instrument="1. Acoustic Grand Piano"
			Pattern Name="06" Color="91c76b"
				Note Time="0" Value="C2" Duration="14" Instrument="1. Acoustic Grand Piano"
				Note Time="42" Value="C2" Duration="14" Instrument="1. Acoustic Grand Piano"
				Note Time="98" Value="C2" Duration="14" Instrument="1. Acoustic Grand Piano"
			PatternInstance Time="1" Pattern="00"
			PatternInstance Time="2" Pattern="00"
			PatternInstance Time="3" Pattern="00"
			PatternInstance Time="4" Pattern="00"
			PatternInstance Time="5" Pattern="00"
			PatternInstance Time="6" Pattern="00"
			PatternInstance Time="7" Pattern="00"
			PatternInstance Time="8" Pattern="00"
			PatternInstance Time="9" Pattern="00"
			PatternInstance Time="10" Pattern="00"
			PatternInstance Time="11" Pattern="01"
			PatternInstance Time="12" Pattern="01"
			PatternInstance Time="13" Pattern="01"
			PatternInstance Time="14" Pattern="01"
			PatternInstance Time="15" Pattern="02"
			PatternInstance Time="16" Pattern="02"
			PatternInstance Time="17" Pattern="02"
			PatternInstance Time="18" Pattern="02"
			PatternInstance Time="19" Pattern="03"
			PatternInstance Time="20" Pattern="03"
			PatternInstance Time="21" Pattern="03"
			PatternInstance Time="22" Pattern="03"
			PatternInstance Time="23" Pattern="03"
			PatternInstance Time="24" Pattern="03"
			PatternInstance Time="25" Pattern="03"
			PatternInstance Time="26" Pattern="03"
			PatternInstance Time="27" Pattern="04"
			PatternInstance Time="28" Pattern="04"
			PatternInstance Time="29" Pattern="05"
			PatternInstance Time="30" Pattern="00"
			PatternInstance Time="31" Pattern="06"
			PatternInstance Time="32" Pattern="06"
			PatternInstance Time="33" Pattern="06"
			PatternInstance Time="34" Pattern="06"
		Channel Type="EPSMRythm2"
			Pattern Name="00" Color="ff6464"
				Note Time="70" Value="C6" Duration="14" Instrument="1. Acoustic Grand Piano"
				Note Time="84" Value="C6" Duration="14" Instrument="1. Acoustic Grand Piano"
				Note Time="98" Value="C6" Duration="14" Instrument="1. Acoustic Grand Piano"
			Pattern Name="01" Color="ff7f51"
				Note Time="28" Value="C6" Duration="14" Instrument="1. Acoustic Grand Piano"
				Note Time="84" Value="C6" Duration="14" Instrument="1. Acoustic Grand Piano"
			Pattern Name="02" Color="ffa83c"
				Note Time="28" Value="C6" Duration="14" Instrument="1. Acoustic Grand Piano"
			Pattern Name="03" Color="ffcb3c"
				Note Time="0" Value="C6" Duration="14" Instrument="1. Acoustic Grand Piano"
				Note Time="42" Value="C6" Duration="14" Instrument="1. Acoustic Grand Piano"
				Note Time="98" Value="C6" Duration="14" Instrument="1. Acoustic Grand Piano"
			PatternInstance Time="0" Pattern="00"
			PatternInstance Time="1" Pattern="01"
			PatternInstance Time="2" Pattern="01"
			PatternInstance Time="3" Pattern="01"
			PatternInstance Time="4" Pattern="01"
			PatternInstance Time="5" Pattern="01"
			PatternInstance Time="6" Pattern="01"
			PatternInstance Time="7" Pattern="01"
			PatternInstance Time="8" Pattern="01"
			PatternInstance Time="9" Pattern="01"
			PatternInstance Time="10" Pattern="01"
			PatternInstance Time="11" Pattern="01"
			PatternInstance Time="12" Pattern="01"
			PatternInstance Time="13" Pattern="01"
			PatternInstance Time="14" Pattern="01"
			PatternInstance Time="15" Pattern="02"
			PatternInstance Time="16" Pattern="02"
			PatternInstance Time="17" Pattern="02"
			PatternInstance Time="18" Pattern="02"
			PatternInstance Time="19" Pattern="01"
			PatternInstance Time="20" Pattern="01"
			PatternInstance Time="21" Pattern="01"
			PatternInstance Time="22" Pattern="02"
			PatternInstance Time="23" Pattern="01"
			PatternInstance Time="24" Pattern="02"
			PatternInstance Time="25" Pattern="01"
			PatternInstance Time="26" Pattern="02"
			PatternInstance Time="27" Pattern="01"
			PatternInstance Time="28" Pattern="01"
			PatternInstance Time="29" Pattern="01"
			PatternInstance Time="30" Pattern="01"
			PatternInstance Time="31" Pattern="03"
			PatternInstance Time="32" Pattern="03"
			PatternInstance Time="33" Pattern="03"
			PatternInstance Time="34" Pattern="03"
		Channel Type="EPSMRythm3"
			Pattern Name="00" Color="ff6464"
				Note Time="0" Value="B3" Duration="14" Instrument="1. Acoustic Grand Piano"
				Note Time="14" Value="B3" Duration="14" Instrument="1. Acoustic Grand Piano"
				Note Time="28" Value="B3" Duration="14" Instrument="1. Acoustic Grand Piano"
				Note Time="42" Value="B3" Duration="14" Instrument="1. Acoustic Grand Piano"
				Note Time="56" Value="B3" Duration="14" Instrument="1. Acoustic Grand Piano"
				Note Time="70" Value="B3" Duration="14" Instrument="1. Acoustic Grand Piano"
				Note Time="84" Value="B3" Duration="14" Instrument="1. Acoustic Grand Piano"
				Note Time="98" Value="B3" Duration="14" Instrument="1. Acoustic Grand Piano"
			Pattern Name="01" Color="ff7f51"
				Note Time="14" Value="B3" Duration="14" Instrument="1. Acoustic Grand Piano"
				Note Time="42" Value="B3" Duration="14" Instrument="1. Acoustic Grand Piano"
				Note Time="70" Value="B3" Duration="14" Instrument="1. Acoustic Grand Piano"
				Note Time="98" Value="B3" Duration="14" Instrument="1. Acoustic Grand Piano"
			PatternInstance Time="7" Pattern="00"
			PatternInstance Time="8" Pattern="00"
			PatternInstance Time="9" Pattern="00"
			PatternInstance Time="10" Pattern="00"
			PatternInstance Time="11" Pattern="01"
			PatternInstance Time="12" Pattern="01"
			PatternInstance Time="13" Pattern="01"
			PatternInstance Time="14" Pattern="01"
		Channel Type="EPSMRythm4"
			Pattern Name="00" Color="ff6464"
				Note Time="0" Value="A#2" Duration="14" Instrument="1. Acoustic Grand Piano"
				Note Time="14" Value="A#2" Duration="14" Instrument="1. Acoustic Grand Piano"
				Note Time="28" Value="A#2" Duration="14" Instrument="1. Acoustic Grand Piano"
				Note Time="42" Value="A#2" Duration="14" Instrument="1. Acoustic Grand Piano"
				Note Time="56" Value="A#2" Duration="14" Instrument="1. Acoustic Grand Piano"
				Note Time="70" Value="A#2" Duration="14" Instrument="1. Acoustic Grand Piano"
				Note Time="84" Value="A#2" Duration="14" Instrument="1. Acoustic Grand Piano"
				Note Time="98" Value="A#2" Duration="14" Instrument="1. Acoustic Grand Piano"
			Pattern Name="01" Color="ff7f51"
				Note Time="0" Value="A#2" Duration="7" Instrument="1. Acoustic Grand Piano"
				Note Time="7" Value="A#2" Duration="14" Instrument="1. Acoustic Grand Piano"
				Note Time="21" Value="A#2" Duration="14" Instrument="1. Acoustic Grand Piano"
				Note Time="35" Value="A#2" Duration="14" Instrument="1. Acoustic Grand Piano"
				Note Time="49" Value="A#2" Duration="7" Instrument="1. Acoustic Grand Piano"
				Note Time="56" Value="A#2" Duration="7" Instrument="1. Acoustic Grand Piano"
				Note Time="63" Value="A#2" Duration="14" Instrument="1. Acoustic Grand Piano"
				Note Time="77" Value="A#2" Duration="14" Instrument="1. Acoustic Grand Piano"
				Note Time="91" Value="A#2" Duration="14" Instrument="1. Acoustic Grand Piano"
				Note Time="105" Value="A#2" Duration="7" Instrument="1. Acoustic Grand Piano"
			Pattern Name="02" Color="ffa83c"
				Note Time="0" Value="A#2" Duration="7" Instrument="1. Acoustic Grand Piano"
				Note Time="7" Value="A#2" Duration="7" Instrument="1. Acoustic Grand Piano"
				Note Time="14" Value="A#2" Duration="7" Instrument="1. Acoustic Grand Piano"
				Note Time="21" Value="A#2" Duration="14" Instrument="1. Acoustic Grand Piano"
				Note Time="35" Value="A#2" Duration="7" Instrument="1. Acoustic Grand Piano"
				Note Time="42" Value="A#2" Duration="7" Instrument="1. Acoustic Grand Piano"
				Note Time="49" Value="A#2" Duration="7" Instrument="1. Acoustic Grand Piano"
				Note Time="56" Value="A#2" Duration="7" Instrument="1. Acoustic Grand Piano"
				Note Time="63" Value="A#2" Duration="7" Instrument="1. Acoustic Grand Piano"
				Note Time="70" Value="A#2" Duration="7" Instrument="1. Acoustic Grand Piano"
				Note Time="77" Value="A#2" Duration="7" Instrument="1. Acoustic Grand Piano"
				Note Time="84" Value="A#2" Duration="7" Instrument="1. Acoustic Grand Piano"
				Note Time="91" Value="A#2" Duration="7" Instrument="1. Acoustic Grand Piano"
				Note Time="98" Value="A#2" Duration="7" Instrument="1. Acoustic Grand Piano"
				Note Time="105" Value="A#2" Duration="7" Instrument="1. Acoustic Grand Piano"
			Pattern Name="03" Color="ffcb3c"
				Note Time="0" Value="A#2" Duration="7" Instrument="1. Acoustic Grand Piano"
				Note Time="7" Value="A#2" Duration="7" Instrument="1. Acoustic Grand Piano"
				Note Time="14" Value="A#2" Duration="7" Instrument="1. Acoustic Grand Piano"
				Note Time="21" Value="A#2" Duration="7" Instrument="1. Acoustic Grand Piano"
				Note Time="35" Value="A#2" Duration="7" Instrument="1. Acoustic Grand Piano"
				Note Time="42" Value="A#2" Duration="7" Instrument="1. Acoustic Grand Piano"
				Note Time="49" Value="A#2" Duration="7" Instrument="1. Acoustic Grand Piano"
				Note Time="56" Value="A#2" Duration="7" Instrument="1. Acoustic Grand Piano"
				Note Time="63" Value="A#2" Duration="7" Instrument="1. Acoustic Grand Piano"
				Note Time="70" Value="A#2" Duration="7" Instrument="1. Acoustic Grand Piano"
				Note Time="77" Value="A#2" Duration="7" Instrument="1. Acoustic Grand Piano"
				Note Time="84" Value="A#2" Duration="7" Instrument="1. Acoustic Grand Piano"
				Note Time="91" Value="A#2" Duration="7" Instrument="1. Acoustic Grand Piano"
				Note Time="98" Value="A#2" Duration="7" Instrument="1. Acoustic Grand Piano"
				Note Time="105" Value="A#2" Duration="7" Instrument="1. Acoustic Grand Piano"
			Pattern Name="04" Color="ffe461"
				Note Time="0" Value="A#2" Duration="14" Instrument="1. Acoustic Grand Piano"
				Note Time="14" Value="A#2" Duration="7" Instrument="1. Acoustic Grand Piano"
				Note Time="28" Value="A#2" Duration="14" Instrument="1. Acoustic Grand Piano"
				Note Time="42" Value="A#2" Duration="14" Instrument="1. Acoustic Grand Piano"
				Note Time="56" Value="A#2" Duration="14" Instrument="1. Acoustic Grand Piano"
				Note Time="70" Value="A#2" Duration="14" Instrument="1. Acoustic Grand Piano"
				Note Time="84" Value="A#2" Duration="14" Instrument="1. Acoustic Grand Piano"
				Note Time="98" Value="A#2" Duration="14" Instrument="1. Acoustic Grand Piano"
			Pattern Name="05" Color="dad960"
				Note Time="0" Value="A#2" Duration="14" Instrument="1. Acoustic Grand Piano"
				Note Time="14" Value="A#2" Duration="14" Instrument="1. Acoustic Grand Piano"
				Note Time="28" Value="A#2" Duration="14" Instrument="1. Acoustic Grand Piano"
				Note Time="42" Value="A#2" Duration="7" Instrument="1. Acoustic Grand Piano"
				Note Time="49" Value="A#2" Duration="7" Instrument="1. Acoustic Grand Piano"
				Note Time="56" Value="A#2" Duration="14" Instrument="1. Acoustic Grand Piano"
				Note Time="70" Value="A#2" Duration="14" Instrument="1. Acoustic Grand Piano"
				Note Time="84" Value="A#2" Duration="7" Instrument="1. Acoustic Grand Piano"
				Note Time="91" Value="A#2" Duration="7" Instrument="1. Acoustic Grand Piano"
				Note Time="98" Value="A#2" Duration="14" Instrument="1. Acoustic Grand Piano"
			Pattern Name="06" Color="91c76b"
				Note Time="14" Value="A#2" Duration="14" Instrument="1. Acoustic Grand Piano"
				Note Time="42" Value="A#2" Duration="14" Instrument="1. Acoustic Grand Piano"
				Note Time="70" Value="A#2" Duration="14" Instrument="1. Acoustic Grand Piano"
				Note Time="98" Value="A#2" Duration="14" Instrument="1. Acoustic Grand Piano"
			Pattern Name="07" Color="6ab96e"
				Note Time="0" Value="A#2" Duration="14" Instrument="1. Acoustic Grand Piano"
				Note Time="28" Value="A#2" Duration="14" Instrument="1. Acoustic Grand Piano"
				Note Time="56" Value="A#2" Duration="14" Instrument="1. Acoustic Grand Piano"
				Note Time="84" Value="A#2" Duration="14" Instrument="1. Acoustic Grand Piano"
			Pattern Name="08" Color="3ca598"
				Note Time="0" Value="A#2" Duration="14" Instrument="1. Acoustic Grand Piano"
				Note Time="42" Value="A#2" Duration="14" Instrument="1. Acoustic Grand Piano"
				Note Time="84" Value="A#2" Duration="14" Instrument="1. Acoustic Grand Piano"
				Note Time="98" Value="A#2" Duration="14" Instrument="1. Acoustic Grand Piano"
			PatternInstance Time="1" Pattern="00"
			PatternInstance Time="2" Pattern="00"
			PatternInstance Time="3" Pattern="00"
			PatternInstance Time="4" Pattern="00"
			PatternInstance Time="5" Pattern="00"
			PatternInstance Time="6" Pattern="00"
			PatternInstance Time="11" Pattern="01"
			PatternInstance Time="12" Pattern="01"
			PatternInstance Time="13" Pattern="01"
			PatternInstance Time="14" Pattern="01"
			PatternInstance Time="15" Pattern="02"
			PatternInstance Time="16" Pattern="03"
			PatternInstance Time="17" Pattern="03"
			PatternInstance Time="18" Pattern="03"
			PatternInstance Time="19" Pattern="04"
			PatternInstance Time="20" Pattern="05"
			PatternInstance Time="21" Pattern="00"
			PatternInstance Time="22" Pattern="05"
			PatternInstance Time="23" Pattern="00"
			PatternInstance Time="24" Pattern="05"
			PatternInstance Time="25" Pattern="00"
			PatternInstance Time="26" Pattern="05"
			PatternInstance Time="27" Pattern="06"
			PatternInstance Time="28" Pattern="06"
			PatternInstance Time="29" Pattern="07"
			PatternInstance Time="30" Pattern="07"
			PatternInstance Time="31" Pattern="08"
			PatternInstance Time="32" Pattern="08"
			PatternInstance Time="33" Pattern="08"
			PatternInstance Time="34" Pattern="08"
		Channel Type="EPSMRythm5"
		Channel Type="EPSMRythm6"
	Song Name="33. THE WORLD REVOLVING" Color="ff6b6b" Folder="Deltarune: Chapter 1" Length="80" LoopPoint="0" PatternLength="16" BeatLength="4" NoteLength="4" Groove="5-5-5-4" GroovePaddingMode="Middle"
		Channel Type="Square1"
		Channel Type="Square2"
		Channel Type="Triangle"
		Channel Type="Noise"
		Channel Type="DPCM"
		Channel Type="EPSMSquare1"
			Pattern Name="Pattern 1" Color="8a706a"
				Note Time="8" Value="D#5" Duration="8" Release="4" Instrument="81. Lead 1 (square)"
				Note Time="16" Value="D5" Duration="8" Release="4" Instrument="81. Lead 1 (square)"
				Note Time="24" Value="D#5" Duration="8" Release="4" Instrument="81. Lead 1 (square)"
				Note Time="32" Value="D5" Duration="8" Release="4" Instrument="81. Lead 1 (square)"
				Note Time="40" Value="D#5" Duration="16" Release="8" Instrument="81. Lead 1 (square)"
				Note Time="56" Value="D#5" Duration="16" Release="8" Instrument="81. Lead 1 (square)"
			Pattern Name="Pattern 2" Color="8a706a"
				Note Time="8" Value="D#5" Duration="8" Release="4" Instrument="81. Lead 1 (square)"
				Note Time="16" Value="D5" Duration="8" Release="4" Instrument="81. Lead 1 (square)"
				Note Time="24" Value="D#5" Duration="8" Release="4" Instrument="81. Lead 1 (square)"
				Note Time="32" Value="D5" Duration="8" Release="4" Instrument="81. Lead 1 (square)"
				Note Time="40" Value="D#5" Duration="24" Release="12" Instrument="81. Lead 1 (square)"
			Pattern Name="Pattern 3" Color="8a706a"
				Note Time="0" Value="B4" Duration="72" Release="36" Instrument="81. Lead 1 (square)"
			Pattern Name="Pattern 4" Color="8a706a"
				Note Time="8" Value="B4" Duration="8" Release="4" Instrument="81. Lead 1 (square)"
				Note Time="16" Value="A#4" Duration="8" Release="4" Instrument="81. Lead 1 (square)"
				Note Time="24" Value="B4" Duration="8" Release="4" Instrument="81. Lead 1 (square)"
				Note Time="32" Value="F#5" Duration="16" Release="8" Instrument="81. Lead 1 (square)"
				Note Time="48" Value="A#4" Duration="8" Release="4" Instrument="81. Lead 1 (square)"
				Note Time="56" Value="B4" Duration="80" Release="40" Instrument="81. Lead 1 (square)"
			Pattern Name="Pattern 6" Color="8a706a"
				Note Time="8" Value="B4" Duration="8" Release="4" Instrument="81. Lead 1 (square)"
				Note Time="16" Value="A#4" Duration="8" Release="4" Instrument="81. Lead 1 (square)"
				Note Time="24" Value="G#4" Duration="8" Release="4" Instrument="81. Lead 1 (square)"
				Note Time="32" Value="F#4" Duration="16" Release="8" Instrument="81. Lead 1 (square)"
				Note Time="48" Value="A#4" Duration="16" Release="8" Instrument="81. Lead 1 (square)"
			Pattern Name="Pattern 7" Color="8a706a"
				Note Time="0" Value="B4" Duration="8" Release="4" Instrument="81. Lead 1 (square)"
				Note Time="8" Value="A#4" Duration="8" Release="4" Instrument="81. Lead 1 (square)"
				Note Time="16" Value="B4" Duration="8" Release="4" Instrument="81. Lead 1 (square)"
				Note Time="24" Value="F#5" Duration="24" Release="12" Instrument="81. Lead 1 (square)"
				Note Time="48" Value="F#5" Duration="8" Release="4" Instrument="81. Lead 1 (square)"
				Note Time="56" Value="G#5" Duration="8" Release="4" Instrument="81. Lead 1 (square)"
			Pattern Name="Pattern 8" Color="8a706a"
				Note Time="0" Value="F#5" Duration="16" Release="8" Instrument="81. Lead 1 (square)"
				Note Time="16" Value="E5" Duration="8" Release="4" Instrument="81. Lead 1 (square)"
				Note Time="24" Value="D#5" Duration="24" Release="12" Instrument="81. Lead 1 (square)"
				Note Time="48" Value="B4" Duration="16" Release="8" Instrument="81. Lead 1 (square)"
			Pattern Name="Pattern 9" Color="8a706a"
				Note Time="0" Value="C#5" Duration="24" Release="12" Instrument="81. Lead 1 (square)"
				Note Time="24" Value="G#4" Duration="24" Release="12" Instrument="81. Lead 1 (square)"
				Note Time="48" Value="C#5" Duration="16" Release="8" Instrument="81. Lead 1 (square)"
			Pattern Name="Pattern 10" Color="8a706a"
				Note Time="0" Value="D#5" Duration="24" Release="12" Instrument="81. Lead 1 (square)"
				Note Time="24" Value="E5" Duration="4" Release="2" Instrument="81. Lead 1 (square)"
				Note Time="28" Value="D#5" Duration="4" Release="2" Instrument="81. Lead 1 (square)"
				Note Time="32" Value="C#5" Duration="32" Release="16" Instrument="81. Lead 1 (square)"
			Pattern Name="Pattern 18" Color="8a706a"
				Note Time="0" Value="D#5" Duration="24" Release="12" Instrument="81. Lead 1 (square)"
				Note Time="24" Value="E5" Duration="4" Release="2" Instrument="81. Lead 1 (square)"
				Note Time="28" Value="D#5" Duration="4" Release="2" Instrument="81. Lead 1 (square)"
				Note Time="32" Value="C#5" Duration="40" Release="20" Instrument="81. Lead 1 (square)"
			Pattern Name="Pattern 19" Color="8a706a"
				Note Time="8" Value="B4" Duration="8" Release="4" Instrument="81. Lead 1 (square)"
				Note Time="16" Value="A#4" Duration="8" Release="4" Instrument="81. Lead 1 (square)"
				Note Time="24" Value="B4" Duration="8" Release="4" Instrument="81. Lead 1 (square)"
				Note Time="32" Value="F#5" Duration="8" Release="4" Instrument="81. Lead 1 (square)"
				Note Time="40" Value="B4" Duration="8" Release="4" Instrument="81. Lead 1 (square)"
				Note Time="48" Value="A#4" Duration="8" Release="4" Instrument="81. Lead 1 (square)"
				Note Time="56" Value="B4" Duration="8" Release="4" Instrument="81. Lead 1 (square)"
			Pattern Name="Pattern 20" Color="8a706a"
				Note Time="0" Value="G#5" Duration="8" Release="4" Instrument="81. Lead 1 (square)"
				Note Time="8" Value="B4" Duration="8" Release="4" Instrument="81. Lead 1 (square)"
				Note Time="16" Value="A#4" Duration="8" Release="4" Instrument="81. Lead 1 (square)"
				Note Time="24" Value="B4" Duration="8" Release="4" Instrument="81. Lead 1 (square)"
				Note Time="32" Value="A#5" Duration="8" Release="4" Instrument="81. Lead 1 (square)"
				Note Time="40" Value="B4" Duration="8" Release="4" Instrument="81. Lead 1 (square)"
				Note Time="48" Value="A#4" Duration="8" Release="4" Instrument="81. Lead 1 (square)"
				Note Time="56" Value="B4" Duration="8" Release="4" Instrument="81. Lead 1 (square)"
			Pattern Name="Pattern 21" Color="8a706a"
				Note Time="0" Value="B5" Duration="8" Release="4" Instrument="81. Lead 1 (square)"
				Note Time="8" Value="A#5" Duration="2" Release="1" Instrument="81. Lead 1 (square)"
				Note Time="10" Value="B5" Duration="4" Release="2" Instrument="81. Lead 1 (square)"
				Note Time="14" Value="A#5" Duration="2" Release="1" Instrument="81. Lead 1 (square)"
				Note Time="16" Value="G#5" Duration="8" Release="4" Instrument="81. Lead 1 (square)"
				Note Time="24" Value="F#5" Duration="8" Release="4" Instrument="81. Lead 1 (square)"
				Note Time="32" Value="D#5" Duration="8" Release="4" Instrument="81. Lead 1 (square)"
				Note Time="40" Value="B4" Duration="8" Release="4" Instrument="81. Lead 1 (square)"
				Note Time="48" Value="A#4" Duration="8" Release="4" Instrument="81. Lead 1 (square)"
				Note Time="56" Value="B4" Duration="8" Release="4" Instrument="81. Lead 1 (square)"
			Pattern Name="Pattern 22" Color="8a706a"
				Note Time="0" Value="F5" Duration="8" Release="4" Instrument="81. Lead 1 (square)"
				Note Time="8" Value="A#4" Duration="8" Release="4" Instrument="81. Lead 1 (square)"
				Note Time="16" Value="F#4" Duration="8" Release="4" Instrument="81. Lead 1 (square)"
				Note Time="24" Value="A#4" Duration="8" Release="4" Instrument="81. Lead 1 (square)"
				Note Time="32" Value="F#5" Duration="8" Release="4" Instrument="81. Lead 1 (square)"
				Note Time="40" Value="A#4" Duration="8" Release="4" Instrument="81. Lead 1 (square)"
				Note Time="48" Value="F#4" Duration="8" Release="4" Instrument="81. Lead 1 (square)"
				Note Time="56" Value="A#4" Duration="8" Release="4" Instrument="81. Lead 1 (square)"
			Pattern Name="Pattern 23" Color="8a706a"
				Note Time="0" Value="G#5" Duration="8" Release="4" Instrument="81. Lead 1 (square)"
				Note Time="8" Value="F#5" Duration="2" Release="1" Instrument="81. Lead 1 (square)"
				Note Time="10" Value="G#5" Duration="4" Release="2" Instrument="81. Lead 1 (square)"
				Note Time="14" Value="F#5" Duration="2" Release="1" Instrument="81. Lead 1 (square)"
				Note Time="16" Value="E5" Duration="8" Release="4" Instrument="81. Lead 1 (square)"
				Note Time="24" Value="D#5" Duration="8" Release="4" Instrument="81. Lead 1 (square)"
				Note Time="32" Value="C#5" Duration="8" Release="4" Instrument="81. Lead 1 (square)"
				Note Time="40" Value="B4" Duration="8" Release="4" Instrument="81. Lead 1 (square)"
				Note Time="48" Value="C#5" Duration="8" Release="4" Instrument="81. Lead 1 (square)"
				Note Time="56" Value="E5" Duration="8" Release="4" Instrument="81. Lead 1 (square)"
			Pattern Name="Pattern 24" Color="8a706a"
				Note Time="0" Value="D#5" Duration="8" Release="4" Instrument="81. Lead 1 (square)"
				Note Time="8" Value="B4" Duration="8" Release="4" Instrument="81. Lead 1 (square)"
				Note Time="16" Value="F#4" Duration="8" Release="4" Instrument="81. Lead 1 (square)"
				Note Time="24" Value="B4" Duration="8" Release="4" Instrument="81. Lead 1 (square)"
				Note Time="32" Value="D#5" Duration="24" Release="12" Instrument="81. Lead 1 (square)"
				Note Time="56" Value="B4" Duration="8" Release="4" Instrument="81. Lead 1 (square)"
			Pattern Name="Pattern 25" Color="8a706a"
				Note Time="0" Value="C#5" Duration="8" Release="4" Instrument="81. Lead 1 (square)"
				Note Time="8" Value="G#4" Duration="8" Release="4" Instrument="81. Lead 1 (square)"
				Note Time="16" Value="E4" Duration="8" Release="4" Instrument="81. Lead 1 (square)"
				Note Time="24" Value="G#4" Duration="8" Release="4" Instrument="81. Lead 1 (square)"
				Note Time="32" Value="C#5" Duration="16" Release="8" Instrument="81. Lead 1 (square)"
				Note Time="48" Value="E5" Duration="16" Release="8" Instrument="81. Lead 1 (square)"
			PatternInstance Time="0" Pattern="Pattern 1"
			PatternInstance Time="1" Pattern="Pattern 2"
			PatternInstance Time="4" Pattern="Pattern 1"
			PatternInstance Time="5" Pattern="Pattern 2"
			PatternInstance Time="8" Pattern="Pattern 1"
			PatternInstance Time="9" Pattern="Pattern 2"
			PatternInstance Time="12" Pattern="Pattern 1"
			PatternInstance Time="13" Pattern="Pattern 2"
			PatternInstance Time="16" Pattern="Pattern 3"
			PatternInstance Time="17" Pattern="Pattern 4"
			PatternInstance Time="19" Pattern="Pattern 6"
			PatternInstance Time="20" Pattern="Pattern 7"
			PatternInstance Time="21" Pattern="Pattern 8"
			PatternInstance Time="22" Pattern="Pattern 9"
			PatternInstance Time="23" Pattern="Pattern 10"
			PatternInstance Time="24" Pattern="Pattern 3"
			PatternInstance Time="25" Pattern="Pattern 4"
			PatternInstance Time="26" Pattern="Pattern 3"
			PatternInstance Time="27" Pattern="Pattern 6"
			PatternInstance Time="28" Pattern="Pattern 7"
			PatternInstance Time="29" Pattern="Pattern 8"
			PatternInstance Time="30" Pattern="Pattern 9"
			PatternInstance Time="31" Pattern="Pattern 18"
			PatternInstance Time="32" Pattern="Pattern 19"
			PatternInstance Time="33" Pattern="Pattern 20"
			PatternInstance Time="34" Pattern="Pattern 21"
			PatternInstance Time="35" Pattern="Pattern 22"
			PatternInstance Time="36" Pattern="Pattern 23"
			PatternInstance Time="37" Pattern="Pattern 24"
			PatternInstance Time="38" Pattern="Pattern 25"
			PatternInstance Time="39" Pattern="Pattern 18"
			PatternInstance Time="40" Pattern="Pattern 19"
			PatternInstance Time="41" Pattern="Pattern 20"
			PatternInstance Time="42" Pattern="Pattern 21"
			PatternInstance Time="43" Pattern="Pattern 22"
			PatternInstance Time="44" Pattern="Pattern 23"
			PatternInstance Time="45" Pattern="Pattern 24"
			PatternInstance Time="46" Pattern="Pattern 25"
			PatternInstance Time="47" Pattern="Pattern 10"
		Channel Type="EPSMSquare2"
			Pattern Name="Pattern 1" Color="8a706a"
				Note Time="8" Value="B4" Duration="8" Release="4" Instrument="81. Lead 1 (square)"
				Note Time="16" Value="A#4" Duration="8" Release="4" Instrument="81. Lead 1 (square)"
				Note Time="24" Value="B4" Duration="8" Release="4" Instrument="81. Lead 1 (square)"
				Note Time="32" Value="A#4" Duration="8" Release="4" Instrument="81. Lead 1 (square)"
				Note Time="40" Value="B4" Duration="16" Release="8" Instrument="81. Lead 1 (square)"
				Note Time="56" Value="B4" Duration="16" Release="8" Instrument="81. Lead 1 (square)"
			Pattern Name="Pattern 2" Color="8a706a"
				Note Time="8" Value="B4" Duration="8" Release="4" Instrument="81. Lead 1 (square)"
				Note Time="16" Value="A#4" Duration="8" Release="4" Instrument="81. Lead 1 (square)"
				Note Time="24" Value="B4" Duration="8" Release="4" Instrument="81. Lead 1 (square)"
				Note Time="32" Value="A#4" Duration="8" Release="4" Instrument="81. Lead 1 (square)"
				Note Time="40" Value="B4" Duration="24" Release="12" Instrument="81. Lead 1 (square)"
			Pattern Name="Pattern 17" Color="8a706a"
				Note Time="0" Value="E3" Duration="4" Release="2" Instrument="81. Lead 1 (square)"
				Note Time="4" Value="B3" Duration="4" Release="2" Instrument="81. Lead 1 (square)"
				Note Time="8" Value="E4" Duration="4" Release="2" Instrument="81. Lead 1 (square)"
				Note Time="12" Value="G#4" Duration="4" Release="2" Instrument="81. Lead 1 (square)"
				Note Time="16" Value="B4" Duration="4" Release="2" Instrument="81. Lead 1 (square)"
				Note Time="20" Value="G#4" Duration="4" Release="2" Instrument="81. Lead 1 (square)"
				Note Time="24" Value="E4" Duration="4" Release="2" Instrument="81. Lead 1 (square)"
				Note Time="28" Value="B3" Duration="4" Release="2" Instrument="81. Lead 1 (square)"
				Note Time="32" Value="E3" Duration="4" Release="2" Instrument="81. Lead 1 (square)"
				Note Time="36" Value="B3" Duration="4" Release="2" Instrument="81. Lead 1 (square)"
				Note Time="40" Value="E4" Duration="4" Release="2" Instrument="81. Lead 1 (square)"
				Note Time="44" Value="G#4" Duration="4" Release="2" Instrument="81. Lead 1 (square)"
				Note Time="48" Value="B4" Duration="4" Release="2" Instrument="81. Lead 1 (square)"
				Note Time="52" Value="G#4" Duration="4" Release="2" Instrument="81. Lead 1 (square)"
				Note Time="56" Value="E4" Duration="4" Release="2" Instrument="81. Lead 1 (square)"
				Note Time="60" Value="B3" Duration="4" Release="2" Instrument="81. Lead 1 (square)"
			Pattern Name="Pattern 18" Color="8a706a"
				Note Time="0" Value="F#3" Duration="4" Release="2" Instrument="81. Lead 1 (square)"
				Note Time="4" Value="C#4" Duration="4" Release="2" Instrument="81. Lead 1 (square)"
				Note Time="8" Value="F#4" Duration="4" Release="2" Instrument="81. Lead 1 (square)"
				Note Time="12" Value="A#4" Duration="4" Release="2" Instrument="81. Lead 1 (square)"
				Note Time="16" Value="C#5" Duration="4" Release="2" Instrument="81. Lead 1 (square)"
				Note Time="20" Value="A#4" Duration="4" Release="2" Instrument="81. Lead 1 (square)"
				Note Time="24" Value="F#4" Duration="4" Release="2" Instrument="81. Lead 1 (square)"
				Note Time="28" Value="C#4" Duration="4" Release="2" Instrument="81. Lead 1 (square)"
				Note Time="32" Value="F#3" Duration="4" Release="2" Instrument="81. Lead 1 (square)"
				Note Time="36" Value="C#4" Duration="4" Release="2" Instrument="81. Lead 1 (square)"
				Note Time="40" Value="F#4" Duration="4" Release="2" Instrument="81. Lead 1 (square)"
				Note Time="44" Value="A#4" Duration="4" Release="2" Instrument="81. Lead 1 (square)"
				Note Time="48" Value="C#5" Duration="4" Release="2" Instrument="81. Lead 1 (square)"
				Note Time="52" Value="A#4" Duration="4" Release="2" Instrument="81. Lead 1 (square)"
				Note Time="56" Value="F#4" Duration="4" Release="2" Instrument="81. Lead 1 (square)"
				Note Time="60" Value="C#4" Duration="4" Release="2" Instrument="81. Lead 1 (square)"
			Pattern Name="Pattern 19" Color="8a706a"
				Note Time="0" Value="G#3" Duration="4" Release="2" Instrument="81. Lead 1 (square)"
				Note Time="4" Value="D#4" Duration="4" Release="2" Instrument="81. Lead 1 (square)"
				Note Time="8" Value="G#4" Duration="4" Release="2" Instrument="81. Lead 1 (square)"
				Note Time="12" Value="B4" Duration="4" Release="2" Instrument="81. Lead 1 (square)"
				Note Time="16" Value="D#5" Duration="4" Release="2" Instrument="81. Lead 1 (square)"
				Note Time="20" Value="B4" Duration="4" Release="2" Instrument="81. Lead 1 (square)"
				Note Time="24" Value="G#4" Duration="4" Release="2" Instrument="81. Lead 1 (square)"
				Note Time="28" Value="D#4" Duration="4" Release="2" Instrument="81. Lead 1 (square)"
				Note Time="32" Value="G#3" Duration="4" Release="2" Instrument="81. Lead 1 (square)"
				Note Time="36" Value="D#4" Duration="4" Release="2" Instrument="81. Lead 1 (square)"
				Note Time="40" Value="G#4" Duration="4" Release="2" Instrument="81. Lead 1 (square)"
				Note Time="44" Value="B4" Duration="4" Release="2" Instrument="81. Lead 1 (square)"
				Note Time="48" Value="D#5" Duration="4" Release="2" Instrument="81. Lead 1 (square)"
				Note Time="52" Value="B4" Duration="4" Release="2" Instrument="81. Lead 1 (square)"
				Note Time="56" Value="G#4" Duration="4" Release="2" Instrument="81. Lead 1 (square)"
				Note Time="60" Value="D#4" Duration="4" Release="2" Instrument="81. Lead 1 (square)"
			Pattern Name="Pattern 20" Color="8a706a"
				Note Time="0" Value="F#3" Duration="4" Release="2" Instrument="81. Lead 1 (square)"
				Note Time="4" Value="A#3" Duration="4" Release="2" Instrument="81. Lead 1 (square)"
				Note Time="8" Value="D#4" Duration="4" Release="2" Instrument="81. Lead 1 (square)"
				Note Time="12" Value="F#4" Duration="4" Release="2" Instrument="81. Lead 1 (square)"
				Note Time="16" Value="A#4" Duration="4" Release="2" Instrument="81. Lead 1 (square)"
				Note Time="20" Value="F#4" Duration="4" Release="2" Instrument="81. Lead 1 (square)"
				Note Time="24" Value="D#4" Duration="4" Release="2" Instrument="81. Lead 1 (square)"
				Note Time="28" Value="A#3" Duration="4" Release="2" Instrument="81. Lead 1 (square)"
				Note Time="32" Value="F#3" Duration="4" Release="2" Instrument="81. Lead 1 (square)"
				Note Time="36" Value="A#3" Duration="4" Release="2" Instrument="81. Lead 1 (square)"
				Note Time="40" Value="D#4" Duration="4" Release="2" Instrument="81. Lead 1 (square)"
				Note Time="44" Value="F#4" Duration="4" Release="2" Instrument="81. Lead 1 (square)"
				Note Time="48" Value="A#4" Duration="4" Release="2" Instrument="81. Lead 1 (square)"
				Note Time="52" Value="F#4" Duration="4" Release="2" Instrument="81. Lead 1 (square)"
				Note Time="56" Value="D#4" Duration="4" Release="2" Instrument="81. Lead 1 (square)"
				Note Time="60" Value="A#3" Duration="4" Release="2" Instrument="81. Lead 1 (square)"
			Pattern Name="Pattern 22" Color="8a706a"
				Note Time="0" Value="B3" Duration="4" Release="2" Instrument="81. Lead 1 (square)"
				Note Time="4" Value="F#4" Duration="4" Release="2" Instrument="81. Lead 1 (square)"
				Note Time="8" Value="B4" Duration="4" Release="2" Instrument="81. Lead 1 (square)"
				Note Time="12" Value="D#5" Duration="4" Release="2" Instrument="81. Lead 1 (square)"
				Note Time="16" Value="F#5" Duration="4" Release="2" Instrument="81. Lead 1 (square)"
				Note Time="20" Value="D#5" Duration="4" Release="2" Instrument="81. Lead 1 (square)"
				Note Time="24" Value="B4" Duration="4" Release="2" Instrument="81. Lead 1 (square)"
				Note Time="28" Value="F#4" Duration="4" Release="2" Instrument="81. Lead 1 (square)"
				Note Time="32" Value="B3" Duration="4" Release="2" Instrument="81. Lead 1 (square)"
				Note Time="36" Value="F#4" Duration="4" Release="2" Instrument="81. Lead 1 (square)"
				Note Time="40" Value="B4" Duration="4" Release="2" Instrument="81. Lead 1 (square)"
				Note Time="44" Value="D#5" Duration="4" Release="2" Instrument="81. Lead 1 (square)"
				Note Time="48" Value="F#5" Duration="4" Release="2" Instrument="81. Lead 1 (square)"
				Note Time="52" Value="D#5" Duration="4" Release="2" Instrument="81. Lead 1 (square)"
				Note Time="56" Value="B4" Duration="4" Release="2" Instrument="81. Lead 1 (square)"
				Note Time="60" Value="F#4" Duration="4" Release="2" Instrument="81. Lead 1 (square)"
			Pattern Name="Pattern 23" Color="8a706a"
				Note Time="0" Value="C#4" Duration="4" Release="2" Instrument="81. Lead 1 (square)"
				Note Time="4" Value="G#4" Duration="4" Release="2" Instrument="81. Lead 1 (square)"
				Note Time="8" Value="C#5" Duration="4" Release="2" Instrument="81. Lead 1 (square)"
				Note Time="12" Value="E5" Duration="4" Release="2" Instrument="81. Lead 1 (square)"
				Note Time="16" Value="G#5" Duration="4" Release="2" Instrument="81. Lead 1 (square)"
				Note Time="20" Value="E5" Duration="4" Release="2" Instrument="81. Lead 1 (square)"
				Note Time="24" Value="C#5" Duration="4" Release="2" Instrument="81. Lead 1 (square)"
				Note Time="28" Value="G#4" Duration="4" Release="2" Instrument="81. Lead 1 (square)"
				Note Time="32" Value="C#4" Duration="4" Release="2" Instrument="81. Lead 1 (square)"
				Note Time="36" Value="G#4" Duration="4" Release="2" Instrument="81. Lead 1 (square)"
				Note Time="40" Value="C#5" Duration="4" Release="2" Instrument="81. Lead 1 (square)"
				Note Time="44" Value="E5" Duration="4" Release="2" Instrument="81. Lead 1 (square)"
				Note Time="48" Value="G#5" Duration="4" Release="2" Instrument="81. Lead 1 (square)"
				Note Time="52" Value="E5" Duration="4" Release="2" Instrument="81. Lead 1 (square)"
				Note Time="56" Value="C#5" Duration="4" Release="2" Instrument="81. Lead 1 (square)"
				Note Time="60" Value="G#4" Duration="4" Release="2" Instrument="81. Lead 1 (square)"
			Pattern Name="Pattern 24" Color="8a706a"
				Note Time="0" Value="G3" Duration="4" Release="2" Instrument="81. Lead 1 (square)"
				Note Time="4" Value="D#4" Duration="4" Release="2" Instrument="81. Lead 1 (square)"
				Note Time="8" Value="G4" Duration="4" Release="2" Instrument="81. Lead 1 (square)"
				Note Time="12" Value="A#4" Duration="4" Release="2" Instrument="81. Lead 1 (square)"
				Note Time="16" Value="D#5" Duration="4" Release="2" Instrument="81. Lead 1 (square)"
				Note Time="20" Value="A#4" Duration="4" Release="2" Instrument="81. Lead 1 (square)"
				Note Time="24" Value="G4" Duration="4" Release="2" Instrument="81. Lead 1 (square)"
				Note Time="28" Value="D#4" Duration="4" Release="2" Instrument="81. Lead 1 (square)"
				Note Time="32" Value="G3" Duration="4" Release="2" Instrument="81. Lead 1 (square)"
				Note Time="36" Value="D#4" Duration="4" Release="2" Instrument="81. Lead 1 (square)"
				Note Time="40" Value="G4" Duration="4" Release="2" Instrument="81. Lead 1 (square)"
				Note Time="44" Value="A#4" Duration="4" Release="2" Instrument="81. Lead 1 (square)"
				Note Time="48" Value="D#5" Duration="4" Release="2" Instrument="81. Lead 1 (square)"
				Note Time="52" Value="A#4" Duration="4" Release="2" Instrument="81. Lead 1 (square)"
				Note Time="56" Value="G4" Duration="4" Release="2" Instrument="81. Lead 1 (square)"
				Note Time="60" Value="D#4" Duration="4" Release="2" Instrument="81. Lead 1 (square)"
			Pattern Name="Pattern 47" Color="8a706a"
				Note Time="0" Value="C#4" Duration="4" Release="2" Instrument="81. Lead 1 (square)"
				Note Time="4" Value="G#4" Duration="4" Release="2" Instrument="81. Lead 1 (square)"
				Note Time="8" Value="C#5" Duration="4" Release="2" Instrument="81. Lead 1 (square)"
				Note Time="12" Value="E5" Duration="4" Release="2" Instrument="81. Lead 1 (square)"
				Note Time="16" Value="G#5" Duration="4" Release="2" Instrument="81. Lead 1 (square)"
				Note Time="20" Value="E5" Duration="4" Release="2" Instrument="81. Lead 1 (square)"
				Note Time="24" Value="C#5" Duration="4" Release="2" Instrument="81. Lead 1 (square)"
				Note Time="28" Value="G#4" Duration="4" Release="2" Instrument="81. Lead 1 (square)"
			Pattern Name="Pattern 49" Color="8a706a"
				Note Time="0" Value="E4" Duration="4" Release="2" Instrument="81. Lead 1 (square)"
				Note Time="4" Value="G4" Duration="4" Release="2" Instrument="81. Lead 1 (square)"
				Note Time="8" Value="B4" Duration="4" Release="2" Instrument="81. Lead 1 (square)"
				Note Time="12" Value="E5" Duration="4" Release="2" Instrument="81. Lead 1 (square)"
				Note Time="16" Value="G5" Duration="4" Release="2" Instrument="81. Lead 1 (square)"
				Note Time="20" Value="E5" Duration="4" Release="2" Instrument="81. Lead 1 (square)"
				Note Time="24" Value="B4" Duration="4" Release="2" Instrument="81. Lead 1 (square)"
				Note Time="28" Value="G4" Duration="4" Release="2" Instrument="81. Lead 1 (square)"
				Note Time="32" Value="E4" Duration="4" Release="2" Instrument="81. Lead 1 (square)"
				Note Time="36" Value="G4" Duration="4" Release="2" Instrument="81. Lead 1 (square)"
				Note Time="40" Value="B4" Duration="4" Release="2" Instrument="81. Lead 1 (square)"
				Note Time="44" Value="E5" Duration="4" Release="2" Instrument="81. Lead 1 (square)"
				Note Time="48" Value="G5" Duration="4" Release="2" Instrument="81. Lead 1 (square)"
				Note Time="52" Value="E5" Duration="4" Release="2" Instrument="81. Lead 1 (square)"
				Note Time="56" Value="B4" Duration="4" Release="2" Instrument="81. Lead 1 (square)"
				Note Time="60" Value="G4" Duration="4" Release="2" Instrument="81. Lead 1 (square)"
			Pattern Name="Pattern 51" Color="8a706a"
				Note Time="0" Value="B4" Duration="4" Release="2" Instrument="81. Lead 1 (square)"
				Note Time="4" Value="D#5" Duration="4" Release="2" Instrument="81. Lead 1 (square)"
				Note Time="8" Value="F#5" Duration="4" Release="2" Instrument="81. Lead 1 (square)"
				Note Time="12" Value="B5" Duration="4" Release="2" Instrument="81. Lead 1 (square)"
				Note Time="16" Value="D#6" Duration="4" Release="2" Instrument="81. Lead 1 (square)"
				Note Time="20" Value="B5" Duration="4" Release="2" Instrument="81. Lead 1 (square)"
				Note Time="24" Value="F#5" Duration="4" Release="2" Instrument="81. Lead 1 (square)"
				Note Time="28" Value="D#5" Duration="4" Release="2" Instrument="81. Lead 1 (square)"
				Note Time="32" Value="B4" Duration="4" Release="2" Instrument="81. Lead 1 (square)"
				Note Time="36" Value="D#5" Duration="4" Release="2" Instrument="81. Lead 1 (square)"
				Note Time="40" Value="F#5" Duration="4" Release="2" Instrument="81. Lead 1 (square)"
				Note Time="44" Value="B5" Duration="4" Release="2" Instrument="81. Lead 1 (square)"
				Note Time="48" Value="D#6" Duration="4" Release="2" Instrument="81. Lead 1 (square)"
				Note Time="52" Value="B5" Duration="4" Release="2" Instrument="81. Lead 1 (square)"
				Note Time="56" Value="F#5" Duration="4" Release="2" Instrument="81. Lead 1 (square)"
				Note Time="60" Value="D#5" Duration="4" Release="2" Instrument="81. Lead 1 (square)"
			Pattern Name="Pattern 52" Color="8a706a"
				Note Time="0" Value="A#4" Duration="4" Release="2" Instrument="81. Lead 1 (square)"
				Note Time="4" Value="C#5" Duration="4" Release="2" Instrument="81. Lead 1 (square)"
				Note Time="8" Value="F#5" Duration="4" Release="2" Instrument="81. Lead 1 (square)"
				Note Time="12" Value="A#5" Duration="4" Release="2" Instrument="81. Lead 1 (square)"
				Note Time="16" Value="C#6" Duration="4" Release="2" Instrument="81. Lead 1 (square)"
				Note Time="20" Value="A#5" Duration="4" Release="2" Instrument="81. Lead 1 (square)"
				Note Time="24" Value="F#5" Duration="4" Release="2" Instrument="81. Lead 1 (square)"
				Note Time="28" Value="C#5" Duration="4" Release="2" Instrument="81. Lead 1 (square)"
				Note Time="32" Value="A#4" Duration="4" Release="2" Instrument="81. Lead 1 (square)"
				Note Time="36" Value="C#5" Duration="4" Release="2" Instrument="81. Lead 1 (square)"
				Note Time="40" Value="F#5" Duration="4" Release="2" Instrument="81. Lead 1 (square)"
				Note Time="44" Value="A#5" Duration="4" Release="2" Instrument="81. Lead 1 (square)"
				Note Time="48" Value="C#6" Duration="4" Release="2" Instrument="81. Lead 1 (square)"
				Note Time="52" Value="A#5" Duration="4" Release="2" Instrument="81. Lead 1 (square)"
				Note Time="56" Value="F#5" Duration="4" Release="2" Instrument="81. Lead 1 (square)"
				Note Time="60" Value="C#5" Duration="4" Release="2" Instrument="81. Lead 1 (square)"
			Pattern Name="Pattern 65" Color="8a706a"
				Note Time="0" Value="E4" Duration="4" Release="2" Instrument="81. Lead 1 (square)"
				Note Time="4" Value="G#4" Duration="4" Release="2" Instrument="81. Lead 1 (square)"
				Note Time="8" Value="B4" Duration="4" Release="2" Instrument="81. Lead 1 (square)"
				Note Time="12" Value="E5" Duration="4" Release="2" Instrument="81. Lead 1 (square)"
				Note Time="16" Value="G#5" Duration="4" Release="2" Instrument="81. Lead 1 (square)"
				Note Time="20" Value="E5" Duration="4" Release="2" Instrument="81. Lead 1 (square)"
				Note Time="24" Value="B4" Duration="4" Release="2" Instrument="81. Lead 1 (square)"
				Note Time="28" Value="G#4" Duration="4" Release="2" Instrument="81. Lead 1 (square)"
				Note Time="32" Value="E4" Duration="4" Release="2" Instrument="81. Lead 1 (square)"
				Note Time="36" Value="G#4" Duration="4" Release="2" Instrument="81. Lead 1 (square)"
				Note Time="40" Value="B4" Duration="4" Release="2" Instrument="81. Lead 1 (square)"
				Note Time="44" Value="E5" Duration="4" Release="2" Instrument="81. Lead 1 (square)"
				Note Time="48" Value="G#5" Duration="4" Release="2" Instrument="81. Lead 1 (square)"
				Note Time="52" Value="E5" Duration="4" Release="2" Instrument="81. Lead 1 (square)"
				Note Time="56" Value="B4" Duration="4" Release="2" Instrument="81. Lead 1 (square)"
				Note Time="60" Value="G#4" Duration="4" Release="2" Instrument="81. Lead 1 (square)"
			Pattern Name="Pattern 66" Color="8a706a"
				Note Time="0" Value="F#4" Duration="4" Release="2" Instrument="81. Lead 1 (square)"
				Note Time="4" Value="A#4" Duration="4" Release="2" Instrument="81. Lead 1 (square)"
				Note Time="8" Value="C#5" Duration="4" Release="2" Instrument="81. Lead 1 (square)"
				Note Time="12" Value="F#5" Duration="4" Release="2" Instrument="81. Lead 1 (square)"
				Note Time="16" Value="A#5" Duration="4" Release="2" Instrument="81. Lead 1 (square)"
				Note Time="20" Value="F#5" Duration="4" Release="2" Instrument="81. Lead 1 (square)"
				Note Time="24" Value="C#5" Duration="4" Release="2" Instrument="81. Lead 1 (square)"
				Note Time="28" Value="A#4" Duration="4" Release="2" Instrument="81. Lead 1 (square)"
				Note Time="32" Value="F#4" Duration="4" Release="2" Instrument="81. Lead 1 (square)"
				Note Time="36" Value="A#4" Duration="4" Release="2" Instrument="81. Lead 1 (square)"
				Note Time="40" Value="C#5" Duration="4" Release="2" Instrument="81. Lead 1 (square)"
				Note Time="44" Value="F#5" Duration="4" Release="2" Instrument="81. Lead 1 (square)"
				Note Time="48" Value="A#5" Duration="4" Release="2" Instrument="81. Lead 1 (square)"
				Note Time="52" Value="F#5" Duration="4" Release="2" Instrument="81. Lead 1 (square)"
				Note Time="56" Value="C#5" Duration="4" Release="2" Instrument="81. Lead 1 (square)"
				Note Time="60" Value="A#4" Duration="4" Release="2" Instrument="81. Lead 1 (square)"
			Pattern Name="Pattern 67" Color="8a706a"
				Note Time="0" Value="G#4" Duration="4" Release="2" Instrument="81. Lead 1 (square)"
				Note Time="4" Value="B4" Duration="4" Release="2" Instrument="81. Lead 1 (square)"
				Note Time="8" Value="D#5" Duration="4" Release="2" Instrument="81. Lead 1 (square)"
				Note Time="12" Value="G#5" Duration="4" Release="2" Instrument="81. Lead 1 (square)"
				Note Time="16" Value="B5" Duration="4" Release="2" Instrument="81. Lead 1 (square)"
				Note Time="20" Value="G#5" Duration="4" Release="2" Instrument="81. Lead 1 (square)"
				Note Time="24" Value="D#5" Duration="4" Release="2" Instrument="81. Lead 1 (square)"
				Note Time="28" Value="B4" Duration="4" Release="2" Instrument="81. Lead 1 (square)"
				Note Time="32" Value="G#4" Duration="4" Release="2" Instrument="81. Lead 1 (square)"
				Note Time="36" Value="B4" Duration="4" Release="2" Instrument="81. Lead 1 (square)"
				Note Time="40" Value="D#5" Duration="4" Release="2" Instrument="81. Lead 1 (square)"
				Note Time="44" Value="G#5" Duration="4" Release="2" Instrument="81. Lead 1 (square)"
				Note Time="48" Value="B5" Duration="4" Release="2" Instrument="81. Lead 1 (square)"
				Note Time="52" Value="G#5" Duration="4" Release="2" Instrument="81. Lead 1 (square)"
				Note Time="56" Value="D#5" Duration="4" Release="2" Instrument="81. Lead 1 (square)"
				Note Time="60" Value="B4" Duration="4" Release="2" Instrument="81. Lead 1 (square)"
			Pattern Name="Pattern 69" Color="8a706a"
				Note Time="0" Value="D#4" Duration="4" Release="2" Instrument="81. Lead 1 (square)"
				Note Time="4" Value="G#4" Duration="4" Release="2" Instrument="81. Lead 1 (square)"
				Note Time="8" Value="B4" Duration="4" Release="2" Instrument="81. Lead 1 (square)"
				Note Time="12" Value="D#5" Duration="4" Release="2" Instrument="81. Lead 1 (square)"
				Note Time="16" Value="G#5" Duration="4" Release="2" Instrument="81. Lead 1 (square)"
				Note Time="20" Value="D#5" Duration="4" Release="2" Instrument="81. Lead 1 (square)"
				Note Time="24" Value="B4" Duration="4" Release="2" Instrument="81. Lead 1 (square)"
				Note Time="28" Value="G#4" Duration="4" Release="2" Instrument="81. Lead 1 (square)"
				Note Time="32" Value="D#4" Duration="4" Release="2" Instrument="81. Lead 1 (square)"
				Note Time="36" Value="G#4" Duration="4" Release="2" Instrument="81. Lead 1 (square)"
				Note Time="40" Value="B4" Duration="4" Release="2" Instrument="81. Lead 1 (square)"
				Note Time="44" Value="D#5" Duration="4" Release="2" Instrument="81. Lead 1 (square)"
				Note Time="48" Value="G#5" Duration="4" Release="2" Instrument="81. Lead 1 (square)"
				Note Time="52" Value="D#5" Duration="4" Release="2" Instrument="81. Lead 1 (square)"
				Note Time="56" Value="B4" Duration="4" Release="2" Instrument="81. Lead 1 (square)"
				Note Time="60" Value="G#4" Duration="4" Release="2" Instrument="81. Lead 1 (square)"
			Pattern Name="Pattern 79" Color="8a706a"
				Note Time="0" Value="G#4" Duration="4" Release="2" Instrument="81. Lead 1 (square)"
				Note Time="4" Value="B4" Duration="4" Release="2" Instrument="81. Lead 1 (square)"
				Note Time="8" Value="D#5" Duration="4" Release="2" Instrument="81. Lead 1 (square)"
				Note Time="12" Value="G#5" Duration="4" Release="2" Instrument="81. Lead 1 (square)"
				Note Time="16" Value="B5" Duration="4" Release="2" Instrument="81. Lead 1 (square)"
				Note Time="20" Value="G#5" Duration="4" Release="2" Instrument="81. Lead 1 (square)"
				Note Time="24" Value="D#5" Duration="4" Release="2" Instrument="81. Lead 1 (square)"
				Note Time="28" Value="B4" Duration="4" Release="2" Instrument="81. Lead 1 (square)"
				Note Time="32" Value="G#4" Duration="4" Release="2" Instrument="81. Lead 1 (square)"
			PatternInstance Time="0" Pattern="Pattern 1"
			PatternInstance Time="1" Pattern="Pattern 2"
			PatternInstance Time="4" Pattern="Pattern 1"
			PatternInstance Time="5" Pattern="Pattern 2"
			PatternInstance Time="8" Pattern="Pattern 1"
			PatternInstance Time="9" Pattern="Pattern 2"
			PatternInstance Time="12" Pattern="Pattern 1"
			PatternInstance Time="13" Pattern="Pattern 2"
			PatternInstance Time="16" Pattern="Pattern 17"
			PatternInstance Time="17" Pattern="Pattern 18"
			PatternInstance Time="18" Pattern="Pattern 19"
			PatternInstance Time="19" Pattern="Pattern 20"
			PatternInstance Time="20" Pattern="Pattern 17"
			PatternInstance Time="21" Pattern="Pattern 22"
			PatternInstance Time="22" Pattern="Pattern 23"
			PatternInstance Time="23" Pattern="Pattern 24"
			PatternInstance Time="24" Pattern="Pattern 17"
			PatternInstance Time="25" Pattern="Pattern 18"
			PatternInstance Time="26" Pattern="Pattern 19"
			PatternInstance Time="27" Pattern="Pattern 20"
			PatternInstance Time="28" Pattern="Pattern 17"
			PatternInstance Time="29" Pattern="Pattern 22"
			PatternInstance Time="30" Pattern="Pattern 23"
			PatternInstance Time="31" Pattern="Pattern 24"
			PatternInstance Time="32" Pattern="Pattern 17"
			PatternInstance Time="33" Pattern="Pattern 18"
			PatternInstance Time="34" Pattern="Pattern 19"
			PatternInstance Time="35" Pattern="Pattern 20"
			PatternInstance Time="36" Pattern="Pattern 17"
			PatternInstance Time="37" Pattern="Pattern 22"
			PatternInstance Time="38" Pattern="Pattern 23"
			PatternInstance Time="39" Pattern="Pattern 24"
			PatternInstance Time="40" Pattern="Pattern 17"
			PatternInstance Time="41" Pattern="Pattern 18"
			PatternInstance Time="42" Pattern="Pattern 19"
			PatternInstance Time="43" Pattern="Pattern 20"
			PatternInstance Time="44" Pattern="Pattern 17"
			PatternInstance Time="45" Pattern="Pattern 22"
			PatternInstance Time="46" Pattern="Pattern 47"
			PatternInstance Time="48" Pattern="Pattern 49"
			PatternInstance Time="49" Pattern="Pattern 49"
			PatternInstance Time="50" Pattern="Pattern 51"
			PatternInstance Time="51" Pattern="Pattern 52"
			PatternInstance Time="52" Pattern="Pattern 49"
			PatternInstance Time="53" Pattern="Pattern 49"
			PatternInstance Time="54" Pattern="Pattern 51"
			PatternInstance Time="55" Pattern="Pattern 52"
			PatternInstance Time="56" Pattern="Pattern 49"
			PatternInstance Time="57" Pattern="Pattern 49"
			PatternInstance Time="58" Pattern="Pattern 51"
			PatternInstance Time="59" Pattern="Pattern 52"
			PatternInstance Time="60" Pattern="Pattern 49"
			PatternInstance Time="61" Pattern="Pattern 49"
			PatternInstance Time="62" Pattern="Pattern 51"
			PatternInstance Time="63" Pattern="Pattern 52"
			PatternInstance Time="64" Pattern="Pattern 65"
			PatternInstance Time="65" Pattern="Pattern 66"
			PatternInstance Time="66" Pattern="Pattern 67"
			PatternInstance Time="67" Pattern="Pattern 52"
			PatternInstance Time="68" Pattern="Pattern 69"
			PatternInstance Time="69" Pattern="Pattern 66"
			PatternInstance Time="70" Pattern="Pattern 67"
			PatternInstance Time="71" Pattern="Pattern 52"
			PatternInstance Time="72" Pattern="Pattern 65"
			PatternInstance Time="73" Pattern="Pattern 66"
			PatternInstance Time="74" Pattern="Pattern 67"
			PatternInstance Time="75" Pattern="Pattern 52"
			PatternInstance Time="76" Pattern="Pattern 69"
			PatternInstance Time="77" Pattern="Pattern 66"
			PatternInstance Time="78" Pattern="Pattern 79"
		Channel Type="EPSMSquare3"
			Pattern Name="Pattern 1" Color="8a706a"
				Note Time="0" Value="C4" Duration="8" Release="4" Instrument="117. Taiko Drum"
				Note Time="8" Value="C4" Duration="8" Release="4" Instrument="117. Taiko Drum"
				Note Time="16" Value="C4" Duration="8" Release="4" Instrument="117. Taiko Drum"
				Note Time="24" Value="C4" Duration="8" Release="4" Instrument="117. Taiko Drum"
				Note Time="32" Value="C4" Duration="8" Release="4" Instrument="117. Taiko Drum"
				Note Time="40" Value="C4" Duration="8" Release="4" Instrument="117. Taiko Drum"
				Note Time="48" Value="C4" Duration="8" Release="4" Instrument="117. Taiko Drum"
				Note Time="56" Value="C4" Duration="8" Release="4" Instrument="117. Taiko Drum"
			Pattern Name="Pattern 18" Color="8a706a"
				Note Time="0" Value="C4" Duration="8" Release="4" Instrument="117. Taiko Drum"
				Note Time="8" Value="C4" Duration="8" Release="4" Instrument="117. Taiko Drum"
				Note Time="16" Value="C4" Duration="8" Release="4" Instrument="117. Taiko Drum"
				Note Time="24" Value="C4" Duration="8" Release="4" Instrument="117. Taiko Drum"
				Note Time="32" Value="C4" Duration="8" Release="4" Instrument="117. Taiko Drum"
				Note Time="40" Value="C4" Duration="8" Release="4" Instrument="117. Taiko Drum"
				Note Time="48" Value="C4" Duration="8" Release="4" Instrument="117. Taiko Drum"
			PatternInstance Time="0" Pattern="Pattern 1"
			PatternInstance Time="1" Pattern="Pattern 1"
			PatternInstance Time="4" Pattern="Pattern 1"
			PatternInstance Time="5" Pattern="Pattern 1"
			PatternInstance Time="8" Pattern="Pattern 1"
			PatternInstance Time="9" Pattern="Pattern 1"
			PatternInstance Time="12" Pattern="Pattern 1"
			PatternInstance Time="13" Pattern="Pattern 1"
			PatternInstance Time="16" Pattern="Pattern 1"
			PatternInstance Time="17" Pattern="Pattern 18"
			PatternInstance Time="18" Pattern="Pattern 1"
			PatternInstance Time="19" Pattern="Pattern 1"
			PatternInstance Time="20" Pattern="Pattern 1"
			PatternInstance Time="21" Pattern="Pattern 18"
			PatternInstance Time="22" Pattern="Pattern 1"
			PatternInstance Time="23" Pattern="Pattern 1"
			PatternInstance Time="24" Pattern="Pattern 1"
			PatternInstance Time="25" Pattern="Pattern 18"
			PatternInstance Time="26" Pattern="Pattern 1"
			PatternInstance Time="27" Pattern="Pattern 1"
			PatternInstance Time="28" Pattern="Pattern 1"
			PatternInstance Time="29" Pattern="Pattern 18"
			PatternInstance Time="30" Pattern="Pattern 1"
			PatternInstance Time="31" Pattern="Pattern 1"
			PatternInstance Time="32" Pattern="Pattern 1"
			PatternInstance Time="33" Pattern="Pattern 18"
			PatternInstance Time="34" Pattern="Pattern 1"
			PatternInstance Time="35" Pattern="Pattern 1"
			PatternInstance Time="36" Pattern="Pattern 1"
			PatternInstance Time="37" Pattern="Pattern 18"
			PatternInstance Time="38" Pattern="Pattern 1"
			PatternInstance Time="39" Pattern="Pattern 1"
			PatternInstance Time="40" Pattern="Pattern 1"
			PatternInstance Time="41" Pattern="Pattern 18"
			PatternInstance Time="42" Pattern="Pattern 1"
			PatternInstance Time="43" Pattern="Pattern 1"
			PatternInstance Time="44" Pattern="Pattern 1"
			PatternInstance Time="45" Pattern="Pattern 18"
			PatternInstance Time="46" Pattern="Pattern 1"
			PatternInstance Time="48" Pattern="Pattern 1"
			PatternInstance Time="49" Pattern="Pattern 18"
			PatternInstance Time="50" Pattern="Pattern 1"
			PatternInstance Time="51" Pattern="Pattern 1"
			PatternInstance Time="52" Pattern="Pattern 1"
			PatternInstance Time="53" Pattern="Pattern 18"
			PatternInstance Time="54" Pattern="Pattern 1"
			PatternInstance Time="55" Pattern="Pattern 1"
			PatternInstance Time="56" Pattern="Pattern 1"
			PatternInstance Time="57" Pattern="Pattern 18"
			PatternInstance Time="58" Pattern="Pattern 1"
			PatternInstance Time="59" Pattern="Pattern 1"
			PatternInstance Time="60" Pattern="Pattern 1"
			PatternInstance Time="61" Pattern="Pattern 18"
			PatternInstance Time="62" Pattern="Pattern 1"
			PatternInstance Time="64" Pattern="Pattern 1"
			PatternInstance Time="65" Pattern="Pattern 18"
			PatternInstance Time="66" Pattern="Pattern 1"
			PatternInstance Time="67" Pattern="Pattern 1"
			PatternInstance Time="68" Pattern="Pattern 1"
			PatternInstance Time="69" Pattern="Pattern 18"
			PatternInstance Time="70" Pattern="Pattern 1"
			PatternInstance Time="71" Pattern="Pattern 1"
			PatternInstance Time="72" Pattern="Pattern 1"
			PatternInstance Time="73" Pattern="Pattern 18"
			PatternInstance Time="74" Pattern="Pattern 1"
			PatternInstance Time="75" Pattern="Pattern 1"
			PatternInstance Time="76" Pattern="Pattern 1"
			PatternInstance Time="77" Pattern="Pattern 18"
			PatternInstance Time="78" Pattern="Pattern 1"
		Channel Type="EPSMFM1"
			Pattern Name="Pattern 6" Color="8a706a"
				Note Time="0" Value="B3" Duration="24" Instrument="49. String Ensembles 1"
				Note Time="24" Value="E3" Duration="24" Instrument="49. String Ensembles 1"
				Note Time="48" Value="G3" Duration="16" Instrument="49. String Ensembles 1"
			Pattern Name="Pattern 11" Color="8a706a"
				Note Time="0" Value="F#4" Duration="16" Instrument="49. String Ensembles 1"
				Note Time="16" Value="E4" Duration="16" Instrument="49. String Ensembles 1"
				Note Time="32" Value="B3" Duration="16" Instrument="49. String Ensembles 1"
				Note Time="48" Value="C#4" Duration="16" Instrument="49. String Ensembles 1"
			Pattern Name="Pattern 12" Color="8a706a"
				Note Time="0" Value="D#4" Duration="112" Instrument="49. String Ensembles 1"
			Pattern Name="Pattern 15" Color="8a706a"
				Note Time="0" Value="B4" Duration="24" Instrument="49. String Ensembles 1"
				Note Time="24" Value="E4" Duration="24" Instrument="49. String Ensembles 1"
				Note Time="48" Value="G#4" Duration="16" Instrument="49. String Ensembles 1"
			Pattern Name="Pattern 16" Color="8a706a"
				Note Time="0" Value="D#5" Duration="24" Instrument="49. String Ensembles 1"
				Note Time="24" Value="E5" Duration="4" Instrument="49. String Ensembles 1"
				Note Time="28" Value="D#5" Duration="4" Instrument="49. String Ensembles 1"
				Note Time="32" Value="C#5" Duration="32" Instrument="49. String Ensembles 1"
			Pattern Name="Pattern 33" Color="8a706a"
				Note Time="0" Value="B3" Duration="64" Instrument="49. String Ensembles 1"
			Pattern Name="Pattern 34" Color="8a706a"
				Note Time="0" Value="C#4" Duration="64" Instrument="49. String Ensembles 1"
			Pattern Name="Pattern 35" Color="8a706a"
				Note Time="0" Value="D#4" Duration="64" Instrument="49. String Ensembles 1"
			Pattern Name="Pattern 36" Color="8a706a"
				Note Time="0" Value="F4" Duration="32" Instrument="49. String Ensembles 1"
				Note Time="32" Value="F#4" Duration="32" Instrument="49. String Ensembles 1"
			Pattern Name="Pattern 37" Color="8a706a"
				Note Time="0" Value="G#4" Duration="64" Instrument="49. String Ensembles 1"
			Pattern Name="Pattern 38" Color="8a706a"
				Note Time="0" Value="F#4" Duration="64" Instrument="49. String Ensembles 1"
			Pattern Name="Pattern 39" Color="8a706a"
				Note Time="0" Value="E4" Duration="64" Instrument="49. String Ensembles 1"
			Pattern Name="Pattern 49" Color="8a706a"
				Note Time="0" Value="B2" Duration="64" Instrument="4. Honky-tonk Piano"
			Pattern Name="Pattern 50" Color="8a706a"
				Note Time="8" Value="B2" Duration="4" Instrument="4. Honky-tonk Piano"
				Note Time="16" Value="A2" Duration="8" Instrument="4. Honky-tonk Piano"
				Note Time="24" Value="G2" Duration="8" Instrument="4. Honky-tonk Piano"
				Note Time="32" Value="F#2" Duration="16" Instrument="4. Honky-tonk Piano"
				Note Time="48" Value="E2" Duration="8" Instrument="4. Honky-tonk Piano"
				Note Time="56" Value="D#2" Duration="64" Instrument="4. Honky-tonk Piano"
			Pattern Name="Pattern 52" Color="8a706a"
				Note Time="8" Value="D#2" Duration="4" Instrument="4. Honky-tonk Piano"
				Note Time="16" Value="E2" Duration="4" Instrument="4. Honky-tonk Piano"
				Note Time="24" Value="D#2" Duration="4" Instrument="4. Honky-tonk Piano"
				Note Time="32" Value="C#2" Duration="16" Instrument="4. Honky-tonk Piano"
				Note Time="48" Value="F#2" Duration="16" Instrument="4. Honky-tonk Piano"
			Pattern Name="Pattern 53" Color="8a706a"
				Note Time="0" Value="B2" Duration="57" Instrument="4. Honky-tonk Piano"
			Pattern Name="Pattern 54" Color="8a706a"
				Note Time="8" Value="B2" Duration="8" Instrument="4. Honky-tonk Piano"
				Note Time="16" Value="A#2" Duration="8" Instrument="4. Honky-tonk Piano"
				Note Time="24" Value="B2" Duration="8" Instrument="4. Honky-tonk Piano"
				Note Time="32" Value="F#3" Duration="16" Instrument="4. Honky-tonk Piano"
				Note Time="48" Value="B2" Duration="4" Instrument="4. Honky-tonk Piano"
				Note Time="56" Value="B2" Duration="48" Instrument="4. Honky-tonk Piano"
			Pattern Name="Pattern 55" Color="8a706a"
				Note Time="56" Value="C#3" Duration="4" Instrument="4. Honky-tonk Piano"
				Note Time="60" Value="B2" Duration="4" Instrument="4. Honky-tonk Piano"
			Pattern Name="Pattern 56" Color="8a706a"
				Note Time="0" Value="A#2" Duration="16" Instrument="4. Honky-tonk Piano"
				Note Time="16" Value="B2" Duration="16" Instrument="4. Honky-tonk Piano"
				Note Time="32" Value="C#3" Duration="16" Instrument="4. Honky-tonk Piano"
				Note Time="48" Value="A#2" Duration="16" Instrument="4. Honky-tonk Piano"
			Pattern Name="Pattern 65" Color="8a706a"
				Note Time="0" Value="B2" Duration="46" Instrument="4. Honky-tonk Piano"
				Note Time="48" Value="F#2" Duration="16" Instrument="4. Honky-tonk Piano"
			Pattern Name="Pattern 66" Color="8a706a"
				Note Time="0" Value="D#3" Duration="16" Instrument="4. Honky-tonk Piano"
				Note Time="16" Value="E3" Duration="16" Instrument="4. Honky-tonk Piano"
				Note Time="32" Value="C#3" Duration="22" Instrument="4. Honky-tonk Piano"
				Note Time="56" Value="B2" Duration="4" Instrument="4. Honky-tonk Piano"
			Pattern Name="Pattern 67" Color="8a706a"
				Note Time="0" Value="B2" Duration="48" Instrument="4. Honky-tonk Piano"
				Note Time="48" Value="F#2" Duration="16" Instrument="4. Honky-tonk Piano"
			Pattern Name="Pattern 68" Color="8a706a"
				Note Time="0" Value="D#3" Duration="16" Instrument="4. Honky-tonk Piano"
				Note Time="16" Value="E3" Duration="16" Instrument="4. Honky-tonk Piano"
				Note Time="32" Value="C#3" Duration="16" Instrument="4. Honky-tonk Piano"
				Note Time="48" Value="B2" Duration="16" Instrument="4. Honky-tonk Piano"
			Pattern Name="Pattern 80" Color="8a706a"
				Note Time="0" Value="D#5" Duration="16" Instrument="49. String Ensembles 1"
				Note Time="16" Value="E5" Duration="16" Instrument="49. String Ensembles 1"
				Note Time="32" Value="C#5" Duration="16" Instrument="49. String Ensembles 1"
				Note Time="48" Value="B4" Duration="16" Instrument="49. String Ensembles 1"
			PatternInstance Time="2" Pattern="Pattern 6"
			PatternInstance Time="3" Pattern="Pattern 11"
			PatternInstance Time="4" Pattern="Pattern 12"
			PatternInstance Time="10" Pattern="Pattern 6"
			PatternInstance Time="11" Pattern="Pattern 11"
			PatternInstance Time="12" Pattern="Pattern 12"
			PatternInstance Time="14" Pattern="Pattern 15"
			PatternInstance Time="15" Pattern="Pattern 16"
			PatternInstance Time="32" Pattern="Pattern 33"
			PatternInstance Time="33" Pattern="Pattern 34"
			PatternInstance Time="34" Pattern="Pattern 35"
			PatternInstance Time="35" Pattern="Pattern 36"
			PatternInstance Time="36" Pattern="Pattern 37"
			PatternInstance Time="37" Pattern="Pattern 38"
			PatternInstance Time="38" Pattern="Pattern 39"
			PatternInstance Time="39" Pattern="Pattern 35"
			PatternInstance Time="40" Pattern="Pattern 33"
			PatternInstance Time="41" Pattern="Pattern 34"
			PatternInstance Time="42" Pattern="Pattern 35"
			PatternInstance Time="43" Pattern="Pattern 36"
			PatternInstance Time="44" Pattern="Pattern 37"
			PatternInstance Time="45" Pattern="Pattern 38"
			PatternInstance Time="46" Pattern="Pattern 39"
			PatternInstance Time="47" Pattern="Pattern 35"
			PatternInstance Time="48" Pattern="Pattern 49"
			PatternInstance Time="49" Pattern="Pattern 50"
			PatternInstance Time="51" Pattern="Pattern 52"
			PatternInstance Time="52" Pattern="Pattern 53"
			PatternInstance Time="53" Pattern="Pattern 54"
			PatternInstance Time="54" Pattern="Pattern 55"
			PatternInstance Time="55" Pattern="Pattern 56"
			PatternInstance Time="56" Pattern="Pattern 49"
			PatternInstance Time="57" Pattern="Pattern 50"
			PatternInstance Time="59" Pattern="Pattern 52"
			PatternInstance Time="60" Pattern="Pattern 53"
			PatternInstance Time="61" Pattern="Pattern 54"
			PatternInstance Time="62" Pattern="Pattern 55"
			PatternInstance Time="63" Pattern="Pattern 56"
			PatternInstance Time="64" Pattern="Pattern 65"
			PatternInstance Time="65" Pattern="Pattern 66"
			PatternInstance Time="66" Pattern="Pattern 67"
			PatternInstance Time="67" Pattern="Pattern 68"
			PatternInstance Time="68" Pattern="Pattern 65"
			PatternInstance Time="69" Pattern="Pattern 66"
			PatternInstance Time="70" Pattern="Pattern 67"
			PatternInstance Time="71" Pattern="Pattern 68"
			PatternInstance Time="72" Pattern="Pattern 65"
			PatternInstance Time="73" Pattern="Pattern 66"
			PatternInstance Time="74" Pattern="Pattern 67"
			PatternInstance Time="75" Pattern="Pattern 68"
			PatternInstance Time="76" Pattern="Pattern 65"
			PatternInstance Time="77" Pattern="Pattern 66"
			PatternInstance Time="78" Pattern="Pattern 67"
			PatternInstance Time="79" Pattern="Pattern 80"
		Channel Type="EPSMFM2"
			Pattern Name="Pattern 1" Color="8a706a"
				Note Time="0" Value="C5" Duration="64" Instrument="Crash"
			Pattern Name="Pattern 16" Color="8a706a"
				Note Time="0" Value="C5" Duration="64" Instrument="120. Reverse Cymbal"
			PatternInstance Time="0" Pattern="Pattern 1"
			PatternInstance Time="8" Pattern="Pattern 1"
			PatternInstance Time="15" Pattern="Pattern 16"
			PatternInstance Time="16" Pattern="Pattern 1"
			PatternInstance Time="20" Pattern="Pattern 1"
			PatternInstance Time="24" Pattern="Pattern 1"
			PatternInstance Time="28" Pattern="Pattern 1"
			PatternInstance Time="32" Pattern="Pattern 1"
			PatternInstance Time="36" Pattern="Pattern 1"
			PatternInstance Time="40" Pattern="Pattern 1"
			PatternInstance Time="44" Pattern="Pattern 1"
			PatternInstance Time="47" Pattern="Pattern 16"
			PatternInstance Time="48" Pattern="Pattern 1"
			PatternInstance Time="52" Pattern="Pattern 1"
			PatternInstance Time="56" Pattern="Pattern 1"
			PatternInstance Time="60" Pattern="Pattern 1"
			PatternInstance Time="64" Pattern="Pattern 1"
			PatternInstance Time="68" Pattern="Pattern 1"
			PatternInstance Time="72" Pattern="Pattern 1"
			PatternInstance Time="76" Pattern="Pattern 1"
		Channel Type="EPSMFM3"
			Pattern Name="Pattern 3" Color="8a706a"
				Note Time="0" Value="B4" Duration="24" Instrument="22. Accordion"
				Note Time="24" Value="E4" Duration="24" Instrument="22. Accordion"
				Note Time="48" Value="G4" Duration="16" Instrument="22. Accordion"
			Pattern Name="Pattern 4" Color="8a706a"
				Note Time="0" Value="F#5" Duration="16" Instrument="22. Accordion"
				Note Time="16" Value="E5" Duration="16" Instrument="22. Accordion"
				Note Time="32" Value="B4" Duration="16" Instrument="22. Accordion"
				Note Time="48" Value="C#5" Duration="16" Instrument="22. Accordion"
			Pattern Name="Pattern 9" Color="8a706a"
				Note Time="0" Value="D#5" Duration="64" Instrument="22. Accordion"
			Pattern Name="Pattern 17" Color="8a706a"
				Note Time="0" Value="B4" Duration="24" Instrument="22. Accordion"
				Note Time="24" Value="E4" Duration="24" Instrument="22. Accordion"
				Note Time="48" Value="G#4" Duration="16" Instrument="22. Accordion"
			Pattern Name="Pattern 18" Color="8a706a"
				Note Time="0" Value="D#5" Duration="24" Instrument="22. Accordion"
				Note Time="24" Value="E5" Duration="4" Instrument="22. Accordion"
				Note Time="28" Value="D#5" Duration="4" Instrument="22. Accordion"
				Note Time="32" Value="C#5" Duration="32" Instrument="22. Accordion"
			Pattern Name="Pattern 15" Color="8a706a"
				Note Time="0" Value="B3" Duration="24" Instrument="2. Bright Acoustic Piano"
				Note Time="24" Value="E3" Duration="24" Instrument="2. Bright Acoustic Piano"
				Note Time="48" Value="G#3" Duration="16" Instrument="2. Bright Acoustic Piano"
			Pattern Name="Pattern 16" Color="8a706a"
				Note Time="0" Value="D#4" Duration="24" Instrument="2. Bright Acoustic Piano"
				Note Time="24" Value="E4" Duration="4" Instrument="2. Bright Acoustic Piano"
				Note Time="28" Value="D#4" Duration="4" Instrument="2. Bright Acoustic Piano"
				Note Time="32" Value="C#4" Duration="32" Instrument="2. Bright Acoustic Piano"
			Pattern Name="Pattern 33" Color="8a706a"
				Note Time="0" Value="G#3" Duration="64" Instrument="49. String Ensembles 1"
			Pattern Name="Pattern 34" Color="8a706a"
				Note Time="0" Value="A#3" Duration="64" Instrument="49. String Ensembles 1"
			Pattern Name="Pattern 35" Color="8a706a"
				Note Time="0" Value="B3" Duration="64" Instrument="49. String Ensembles 1"
			Pattern Name="Pattern 36" Color="8a706a"
				Note Time="0" Value="C#4" Duration="32" Instrument="49. String Ensembles 1"
				Note Time="32" Value="D#4" Duration="32" Instrument="49. String Ensembles 1"
			Pattern Name="Pattern 37" Color="8a706a"
				Note Time="0" Value="E4" Duration="64" Instrument="49. String Ensembles 1"
			Pattern Name="Pattern 38" Color="8a706a"
				Note Time="0" Value="D#4" Duration="64" Instrument="49. String Ensembles 1"
			Pattern Name="Pattern 39" Color="8a706a"
				Note Time="0" Value="C#4" Duration="64" Instrument="49. String Ensembles 1"
			Pattern Name="Pattern 49" Color="8a706a"
				Note Time="0" Value="B3" Duration="64" Instrument="57. Trumpet"
			Pattern Name="Pattern 50" Color="8a706a"
				Note Time="8" Value="B3" Duration="4" Instrument="57. Trumpet"
				Note Time="16" Value="A3" Duration="8" Instrument="57. Trumpet"
				Note Time="24" Value="G3" Duration="8" Instrument="57. Trumpet"
				Note Time="32" Value="F#3" Duration="16" Instrument="57. Trumpet"
				Note Time="48" Value="E3" Duration="8" Instrument="57. Trumpet"
				Note Time="56" Value="D#3" Duration="64" Instrument="57. Trumpet"
			Pattern Name="Pattern 52" Color="8a706a"
				Note Time="8" Value="D#3" Duration="4" Instrument="57. Trumpet"
				Note Time="16" Value="E3" Duration="4" Instrument="57. Trumpet"
				Note Time="24" Value="D#3" Duration="4" Instrument="57. Trumpet"
				Note Time="32" Value="C#3" Duration="16" Instrument="57. Trumpet"
				Note Time="48" Value="F#3" Duration="16" Instrument="57. Trumpet"
			Pattern Name="Pattern 53" Color="8a706a"
				Note Time="0" Value="B3" Duration="57" Instrument="57. Trumpet"
			Pattern Name="Pattern 54" Color="8a706a"
				Note Time="8" Value="B3" Duration="8" Instrument="57. Trumpet"
				Note Time="16" Value="A#3" Duration="8" Instrument="57. Trumpet"
				Note Time="24" Value="B3" Duration="8" Instrument="57. Trumpet"
				Note Time="32" Value="F#4" Duration="16" Instrument="57. Trumpet"
				Note Time="48" Value="B3" Duration="4" Instrument="57. Trumpet"
				Note Time="56" Value="B3" Duration="48" Instrument="57. Trumpet"
			Pattern Name="Pattern 55" Color="8a706a"
				Note Time="56" Value="C#4" Duration="4" Instrument="57. Trumpet"
				Note Time="60" Value="B3" Duration="4" Instrument="57. Trumpet"
			Pattern Name="Pattern 56" Color="8a706a"
				Note Time="0" Value="A#3" Duration="16" Instrument="57. Trumpet"
				Note Time="16" Value="B3" Duration="16" Instrument="57. Trumpet"
				Note Time="32" Value="C#4" Duration="16" Instrument="57. Trumpet"
				Note Time="48" Value="A#3" Duration="16" Instrument="57. Trumpet"
			Pattern Name="Pattern 65" Color="8a706a"
				Note Time="0" Value="B3" Duration="46" Instrument="57. Trumpet"
				Note Time="48" Value="F#3" Duration="16" Instrument="57. Trumpet"
			Pattern Name="Pattern 66" Color="8a706a"
				Note Time="0" Value="D#4" Duration="16" Instrument="57. Trumpet"
				Note Time="16" Value="E4" Duration="16" Instrument="57. Trumpet"
				Note Time="32" Value="C#4" Duration="22" Instrument="57. Trumpet"
				Note Time="56" Value="B3" Duration="4" Instrument="57. Trumpet"
			Pattern Name="Pattern 67" Color="8a706a"
				Note Time="0" Value="B3" Duration="48" Instrument="57. Trumpet"
				Note Time="48" Value="F#3" Duration="16" Instrument="57. Trumpet"
			Pattern Name="Pattern 68" Color="8a706a"
				Note Time="0" Value="D#4" Duration="16" Instrument="57. Trumpet"
				Note Time="16" Value="E4" Duration="16" Instrument="57. Trumpet"
				Note Time="32" Value="C#4" Duration="16" Instrument="57. Trumpet"
				Note Time="48" Value="B3" Duration="16" Instrument="57. Trumpet"
			PatternInstance Time="2" Pattern="Pattern 3"
			PatternInstance Time="3" Pattern="Pattern 4"
			PatternInstance Time="4" Pattern="Pattern 9"
			PatternInstance Time="6" Pattern="Pattern 17"
			PatternInstance Time="7" Pattern="Pattern 18"
			PatternInstance Time="10" Pattern="Pattern 3"
			PatternInstance Time="11" Pattern="Pattern 4"
			PatternInstance Time="12" Pattern="Pattern 9"
			PatternInstance Time="14" Pattern="Pattern 15"
			PatternInstance Time="15" Pattern="Pattern 16"
			PatternInstance Time="32" Pattern="Pattern 33"
			PatternInstance Time="33" Pattern="Pattern 34"
			PatternInstance Time="34" Pattern="Pattern 35"
			PatternInstance Time="35" Pattern="Pattern 36"
			PatternInstance Time="36" Pattern="Pattern 37"
			PatternInstance Time="37" Pattern="Pattern 38"
			PatternInstance Time="38" Pattern="Pattern 39"
			PatternInstance Time="39" Pattern="Pattern 35"
			PatternInstance Time="40" Pattern="Pattern 33"
			PatternInstance Time="41" Pattern="Pattern 34"
			PatternInstance Time="42" Pattern="Pattern 35"
			PatternInstance Time="43" Pattern="Pattern 36"
			PatternInstance Time="44" Pattern="Pattern 37"
			PatternInstance Time="45" Pattern="Pattern 38"
			PatternInstance Time="46" Pattern="Pattern 39"
			PatternInstance Time="47" Pattern="Pattern 35"
			PatternInstance Time="48" Pattern="Pattern 49"
			PatternInstance Time="49" Pattern="Pattern 50"
			PatternInstance Time="51" Pattern="Pattern 52"
			PatternInstance Time="52" Pattern="Pattern 53"
			PatternInstance Time="53" Pattern="Pattern 54"
			PatternInstance Time="54" Pattern="Pattern 55"
			PatternInstance Time="55" Pattern="Pattern 56"
			PatternInstance Time="56" Pattern="Pattern 49"
			PatternInstance Time="57" Pattern="Pattern 50"
			PatternInstance Time="59" Pattern="Pattern 52"
			PatternInstance Time="60" Pattern="Pattern 53"
			PatternInstance Time="61" Pattern="Pattern 54"
			PatternInstance Time="62" Pattern="Pattern 55"
			PatternInstance Time="63" Pattern="Pattern 56"
			PatternInstance Time="64" Pattern="Pattern 65"
			PatternInstance Time="65" Pattern="Pattern 66"
			PatternInstance Time="66" Pattern="Pattern 67"
			PatternInstance Time="67" Pattern="Pattern 68"
			PatternInstance Time="68" Pattern="Pattern 65"
			PatternInstance Time="69" Pattern="Pattern 66"
			PatternInstance Time="70" Pattern="Pattern 67"
			PatternInstance Time="71" Pattern="Pattern 68"
			PatternInstance Time="72" Pattern="Pattern 65"
			PatternInstance Time="73" Pattern="Pattern 66"
			PatternInstance Time="74" Pattern="Pattern 67"
			PatternInstance Time="75" Pattern="Pattern 68"
			PatternInstance Time="76" Pattern="Pattern 65"
			PatternInstance Time="77" Pattern="Pattern 66"
			PatternInstance Time="78" Pattern="Pattern 67"
			PatternInstance Time="79" Pattern="Pattern 68"
		Channel Type="EPSMFM4"
			Pattern Name="Pattern 2" Color="8a706a"
				Note Time="0" Value="G#4" Duration="16" Release="8" Instrument="12. Vibraphone"
				Note Time="16" Value="D#5" Duration="16" Release="8" Instrument="12. Vibraphone"
				Note Time="32" Value="G#4" Duration="16" Release="8" Instrument="12. Vibraphone"
				Note Time="48" Value="D#5" Duration="16" Release="8" Instrument="12. Vibraphone"
			Pattern Name="Pattern 5" Color="8a706a"
				Note Time="0" Value="B4" Duration="8" Instrument="12. Vibraphone"
				Note Time="8" Value="B3" Duration="8" Instrument="12. Vibraphone"
				Note Time="16" Value="E4" Duration="8" Instrument="12. Vibraphone"
				Note Time="24" Value="B3" Duration="8" Instrument="12. Vibraphone"
				Note Time="32" Value="B4" Duration="8" Instrument="12. Vibraphone"
				Note Time="40" Value="B3" Duration="8" Instrument="12. Vibraphone"
				Note Time="48" Value="E4" Duration="8" Instrument="12. Vibraphone"
				Note Time="56" Value="B3" Duration="8" Instrument="12. Vibraphone"
			Pattern Name="Pattern 6" Color="8a706a"
				Note Time="0" Value="C#5" Duration="8" Instrument="12. Vibraphone"
				Note Time="8" Value="C#4" Duration="8" Instrument="12. Vibraphone"
				Note Time="16" Value="G#4" Duration="8" Instrument="12. Vibraphone"
				Note Time="24" Value="C#4" Duration="8" Instrument="12. Vibraphone"
				Note Time="32" Value="C#5" Duration="8" Instrument="12. Vibraphone"
				Note Time="40" Value="C#4" Duration="8" Instrument="12. Vibraphone"
				Note Time="48" Value="G#4" Duration="8" Instrument="12. Vibraphone"
				Note Time="56" Value="C#4" Duration="8" Instrument="12. Vibraphone"
			Pattern Name="Pattern 9" Color="8a706a"
				Note Time="0" Value="B4" Duration="8" Instrument="12. Vibraphone"
				Note Time="8" Value="F#5" Duration="8" Instrument="12. Vibraphone"
				Note Time="16" Value="G#4" Duration="8" Instrument="12. Vibraphone"
				Note Time="24" Value="F#5" Duration="8" Instrument="12. Vibraphone"
				Note Time="32" Value="B4" Duration="8" Instrument="12. Vibraphone"
				Note Time="40" Value="F#5" Duration="8" Instrument="12. Vibraphone"
				Note Time="48" Value="G#4" Duration="8" Instrument="12. Vibraphone"
				Note Time="56" Value="F#5" Duration="8" Instrument="12. Vibraphone"
			Pattern Name="Pattern 10" Color="8a706a"
				Note Time="0" Value="C#5" Duration="8" Instrument="12. Vibraphone"
				Note Time="8" Value="C#3" Duration="8" Instrument="12. Vibraphone"
				Note Time="16" Value="C#4" Duration="8" Instrument="12. Vibraphone"
				Note Time="24" Value="C#3" Duration="8" Instrument="12. Vibraphone"
				Note Time="32" Value="C#5" Duration="8" Instrument="12. Vibraphone"
				Note Time="40" Value="C#3" Duration="8" Instrument="12. Vibraphone"
				Note Time="48" Value="C#4" Duration="8" Instrument="12. Vibraphone"
				Note Time="56" Value="C#3" Duration="8" Instrument="12. Vibraphone"
			Pattern Name="Pattern 19" Color="8a706a"
				Note Time="0" Value="E3" Duration="16" Release="8" Instrument="58. Trombone"
				Note Time="16" Value="B2" Duration="16" Release="8" Instrument="58. Trombone"
				Note Time="32" Value="E3" Duration="16" Release="8" Instrument="58. Trombone"
				Note Time="48" Value="B2" Duration="16" Release="8" Instrument="58. Trombone"
			Pattern Name="Pattern 25" Color="8a706a"
				Note Time="0" Value="F#3" Duration="16" Release="8" Instrument="58. Trombone"
				Note Time="16" Value="C#3" Duration="16" Release="8" Instrument="58. Trombone"
				Note Time="32" Value="F#3" Duration="16" Release="8" Instrument="58. Trombone"
				Note Time="48" Value="C#3" Duration="16" Release="8" Instrument="58. Trombone"
			Pattern Name="Pattern 26" Color="8a706a"
				Note Time="0" Value="G#3" Duration="16" Release="8" Instrument="58. Trombone"
				Note Time="16" Value="D#3" Duration="16" Release="8" Instrument="58. Trombone"
				Note Time="32" Value="G#3" Duration="16" Release="8" Instrument="58. Trombone"
				Note Time="48" Value="D#3" Duration="16" Release="8" Instrument="58. Trombone"
			Pattern Name="Pattern 27" Color="8a706a"
				Note Time="0" Value="D#3" Duration="16" Release="8" Instrument="58. Trombone"
				Note Time="16" Value="A#2" Duration="16" Release="8" Instrument="58. Trombone"
				Note Time="32" Value="D#3" Duration="16" Release="8" Instrument="58. Trombone"
				Note Time="48" Value="A#2" Duration="16" Release="8" Instrument="58. Trombone"
			Pattern Name="Pattern 28" Color="8a706a"
				Note Time="0" Value="B3" Duration="16" Release="8" Instrument="58. Trombone"
				Note Time="16" Value="F#3" Duration="16" Release="8" Instrument="58. Trombone"
				Note Time="32" Value="B3" Duration="16" Release="8" Instrument="58. Trombone"
				Note Time="48" Value="F#3" Duration="16" Release="8" Instrument="58. Trombone"
			Pattern Name="Pattern 29" Color="8a706a"
				Note Time="0" Value="C#3" Duration="16" Release="8" Instrument="58. Trombone"
				Note Time="16" Value="G#2" Duration="16" Release="8" Instrument="58. Trombone"
				Note Time="32" Value="C#3" Duration="16" Release="8" Instrument="58. Trombone"
				Note Time="48" Value="G#2" Duration="16" Release="8" Instrument="58. Trombone"
			Pattern Name="Pattern 30" Color="8a706a"
				Note Time="0" Value="G3" Duration="16" Release="8" Instrument="58. Trombone"
				Note Time="16" Value="D#3" Duration="16" Release="8" Instrument="58. Trombone"
				Note Time="32" Value="G3" Duration="16" Release="8" Instrument="58. Trombone"
				Note Time="48" Value="D#3" Duration="16" Release="8" Instrument="58. Trombone"
			Pattern Name="Pattern 47" Color="8a706a"
				Note Time="0" Value="C#3" Duration="16" Release="8" Instrument="58. Trombone"
				Note Time="16" Value="B2" Duration="16" Release="8" Instrument="58. Trombone"
				Note Time="32" Value="A#2" Duration="16" Release="8" Instrument="58. Trombone"
				Note Time="48" Value="G#2" Duration="16" Release="8" Instrument="58. Trombone"
			Pattern Name="Pattern 64" Color="8a706a"
				Note Time="0" Value="F#3" Duration="16" Release="8" Instrument="58. Trombone"
				Note Time="16" Value="G#3" Duration="16" Release="8" Instrument="58. Trombone"
				Note Time="32" Value="A#3" Duration="16" Release="8" Instrument="58. Trombone"
				Note Time="48" Value="C#4" Duration="16" Release="8" Instrument="58. Trombone"
			Pattern Name="Pattern 82" Color="8a706a"
				Note Time="0" Value="D#4" Duration="16" Instrument="49. String Ensembles 1"
				Note Time="16" Value="E4" Duration="16" Instrument="49. String Ensembles 1"
				Note Time="32" Value="C#4" Duration="16" Instrument="49. String Ensembles 1"
				Note Time="48" Value="E3" Duration="16" Instrument="49. String Ensembles 1"
			PatternInstance Time="0" Pattern="Pattern 2"
			PatternInstance Time="1" Pattern="Pattern 2"
			PatternInstance Time="2" Pattern="Pattern 5"
			PatternInstance Time="3" Pattern="Pattern 6"
			PatternInstance Time="4" Pattern="Pattern 2"
			PatternInstance Time="5" Pattern="Pattern 2"
			PatternInstance Time="6" Pattern="Pattern 9"
			PatternInstance Time="7" Pattern="Pattern 10"
			PatternInstance Time="8" Pattern="Pattern 2"
			PatternInstance Time="9" Pattern="Pattern 2"
			PatternInstance Time="10" Pattern="Pattern 5"
			PatternInstance Time="11" Pattern="Pattern 6"
			PatternInstance Time="12" Pattern="Pattern 2"
			PatternInstance Time="13" Pattern="Pattern 2"
			PatternInstance Time="16" Pattern="Pattern 19"
			PatternInstance Time="17" Pattern="Pattern 25"
			PatternInstance Time="18" Pattern="Pattern 26"
			PatternInstance Time="19" Pattern="Pattern 27"
			PatternInstance Time="20" Pattern="Pattern 19"
			PatternInstance Time="21" Pattern="Pattern 28"
			PatternInstance Time="22" Pattern="Pattern 29"
			PatternInstance Time="23" Pattern="Pattern 30"
			PatternInstance Time="24" Pattern="Pattern 19"
			PatternInstance Time="25" Pattern="Pattern 25"
			PatternInstance Time="26" Pattern="Pattern 26"
			PatternInstance Time="27" Pattern="Pattern 27"
			PatternInstance Time="28" Pattern="Pattern 19"
			PatternInstance Time="29" Pattern="Pattern 28"
			PatternInstance Time="30" Pattern="Pattern 29"
			PatternInstance Time="31" Pattern="Pattern 30"
			PatternInstance Time="32" Pattern="Pattern 19"
			PatternInstance Time="33" Pattern="Pattern 25"
			PatternInstance Time="34" Pattern="Pattern 26"
			PatternInstance Time="35" Pattern="Pattern 27"
			PatternInstance Time="36" Pattern="Pattern 19"
			PatternInstance Time="37" Pattern="Pattern 28"
			PatternInstance Time="38" Pattern="Pattern 29"
			PatternInstance Time="39" Pattern="Pattern 30"
			PatternInstance Time="40" Pattern="Pattern 19"
			PatternInstance Time="41" Pattern="Pattern 25"
			PatternInstance Time="42" Pattern="Pattern 26"
			PatternInstance Time="43" Pattern="Pattern 27"
			PatternInstance Time="44" Pattern="Pattern 19"
			PatternInstance Time="45" Pattern="Pattern 28"
			PatternInstance Time="46" Pattern="Pattern 47"
			PatternInstance Time="48" Pattern="Pattern 19"
			PatternInstance Time="49" Pattern="Pattern 19"
			PatternInstance Time="50" Pattern="Pattern 28"
			PatternInstance Time="51" Pattern="Pattern 25"
			PatternInstance Time="52" Pattern="Pattern 19"
			PatternInstance Time="53" Pattern="Pattern 19"
			PatternInstance Time="54" Pattern="Pattern 28"
			PatternInstance Time="55" Pattern="Pattern 25"
			PatternInstance Time="56" Pattern="Pattern 19"
			PatternInstance Time="57" Pattern="Pattern 19"
			PatternInstance Time="58" Pattern="Pattern 28"
			PatternInstance Time="59" Pattern="Pattern 25"
			PatternInstance Time="60" Pattern="Pattern 19"
			PatternInstance Time="61" Pattern="Pattern 19"
			PatternInstance Time="62" Pattern="Pattern 28"
			PatternInstance Time="63" Pattern="Pattern 64"
			PatternInstance Time="64" Pattern="Pattern 19"
			PatternInstance Time="65" Pattern="Pattern 25"
			PatternInstance Time="66" Pattern="Pattern 26"
			PatternInstance Time="67" Pattern="Pattern 25"
			PatternInstance Time="68" Pattern="Pattern 19"
			PatternInstance Time="69" Pattern="Pattern 25"
			PatternInstance Time="70" Pattern="Pattern 26"
			PatternInstance Time="71" Pattern="Pattern 25"
			PatternInstance Time="72" Pattern="Pattern 19"
			PatternInstance Time="73" Pattern="Pattern 25"
			PatternInstance Time="74" Pattern="Pattern 26"
			PatternInstance Time="75" Pattern="Pattern 25"
			PatternInstance Time="76" Pattern="Pattern 19"
			PatternInstance Time="77" Pattern="Pattern 25"
			PatternInstance Time="78" Pattern="Pattern 26"
			PatternInstance Time="79" Pattern="Pattern 82"
		Channel Type="EPSMFM5"
			Pattern Name="Pattern 6" Color="8a706a"
				Note Time="0" Value="F#3" Duration="24" Instrument="49. String Ensembles 1"
				Note Time="24" Value="B2" Duration="24" Instrument="49. String Ensembles 1"
				Note Time="48" Value="D3" Duration="16" Instrument="49. String Ensembles 1"
			Pattern Name="Pattern 7" Color="8a706a"
				Note Time="0" Value="C#4" Duration="16" Instrument="49. String Ensembles 1"
				Note Time="16" Value="B3" Duration="16" Instrument="49. String Ensembles 1"
				Note Time="32" Value="F#3" Duration="16" Instrument="49. String Ensembles 1"
				Note Time="48" Value="C#3" Duration="16" Instrument="49. String Ensembles 1"
			Pattern Name="Pattern 9" Color="8a706a"
				Note Time="0" Value="B2" Duration="112" Instrument="49. String Ensembles 1"
			Pattern Name="Pattern 8" Color="8a706a"
				Note Time="0" Value="E3" Duration="48" Instrument="2. Bright Acoustic Piano"
				Note Time="48" Value="G#3" Duration="16" Instrument="2. Bright Acoustic Piano"
			Pattern Name="Pattern 11" Color="8a706a"
				Note Time="0" Value="F#3" Duration="32" Instrument="2. Bright Acoustic Piano"
				Note Time="32" Value="C#4" Duration="32" Instrument="2. Bright Acoustic Piano"
			Pattern Name="Pattern 21" Color="8a706a"
				Note Time="8" Value="E4" Duration="8" Instrument="2. Bright Acoustic Piano"
				Note Time="24" Value="E4" Duration="8" Instrument="2. Bright Acoustic Piano"
				Note Time="40" Value="E4" Duration="8" Instrument="2. Bright Acoustic Piano"
				Note Time="56" Value="E4" Duration="8" Instrument="2. Bright Acoustic Piano"
			Pattern Name="Pattern 25" Color="8a706a"
				Note Time="8" Value="F#4" Duration="8" Instrument="2. Bright Acoustic Piano"
				Note Time="24" Value="F#4" Duration="8" Instrument="2. Bright Acoustic Piano"
				Note Time="40" Value="F#4" Duration="8" Instrument="2. Bright Acoustic Piano"
				Note Time="56" Value="F#4" Duration="8" Instrument="2. Bright Acoustic Piano"
			Pattern Name="Pattern 26" Color="8a706a"
				Note Time="8" Value="G#4" Duration="8" Instrument="2. Bright Acoustic Piano"
				Note Time="24" Value="G#4" Duration="8" Instrument="2. Bright Acoustic Piano"
				Note Time="40" Value="G#4" Duration="8" Instrument="2. Bright Acoustic Piano"
				Note Time="56" Value="G#4" Duration="8" Instrument="2. Bright Acoustic Piano"
			Pattern Name="Pattern 27" Color="8a706a"
				Note Time="8" Value="B4" Duration="8" Instrument="2. Bright Acoustic Piano"
				Note Time="24" Value="B4" Duration="8" Instrument="2. Bright Acoustic Piano"
				Note Time="40" Value="B4" Duration="8" Instrument="2. Bright Acoustic Piano"
				Note Time="56" Value="B4" Duration="8" Instrument="2. Bright Acoustic Piano"
			Pattern Name="Pattern 28" Color="8a706a"
				Note Time="8" Value="C#4" Duration="8" Instrument="2. Bright Acoustic Piano"
				Note Time="24" Value="C#4" Duration="8" Instrument="2. Bright Acoustic Piano"
				Note Time="40" Value="C#4" Duration="8" Instrument="2. Bright Acoustic Piano"
				Note Time="56" Value="C#4" Duration="8" Instrument="2. Bright Acoustic Piano"
			Pattern Name="Pattern 29" Color="8a706a"
				Note Time="8" Value="G4" Duration="8" Instrument="2. Bright Acoustic Piano"
				Note Time="24" Value="G4" Duration="8" Instrument="2. Bright Acoustic Piano"
				Note Time="40" Value="G4" Duration="8" Instrument="2. Bright Acoustic Piano"
				Note Time="56" Value="A#4" Duration="8" Instrument="2. Bright Acoustic Piano"
			Pattern Name="Pattern 49" Color="8a706a"
				Note Time="0" Value="G2" Duration="32" Instrument="2. Bright Acoustic Piano"
				Note Time="32" Value="G3" Duration="32" Instrument="2. Bright Acoustic Piano"
			Pattern Name="Pattern 50" Color="8a706a"
				Note Time="8" Value="G4" Duration="8" Instrument="2. Bright Acoustic Piano"
				Note Time="24" Value="G4" Duration="8" Instrument="2. Bright Acoustic Piano"
				Note Time="40" Value="G4" Duration="8" Instrument="2. Bright Acoustic Piano"
				Note Time="56" Value="G4" Duration="8" Instrument="2. Bright Acoustic Piano"
			Pattern Name="Pattern 68" Color="8a706a"
				Note Time="8" Value="A#4" Duration="8" Instrument="2. Bright Acoustic Piano"
				Note Time="24" Value="A#4" Duration="8" Instrument="2. Bright Acoustic Piano"
				Note Time="40" Value="A#4" Duration="8" Instrument="2. Bright Acoustic Piano"
				Note Time="56" Value="A#4" Duration="8" Instrument="2. Bright Acoustic Piano"
			Pattern Name="Pattern 81" Color="8a706a"
				Note Time="0" Value="F#3" Duration="32" Instrument="2. Bright Acoustic Piano"
				Note Time="32" Value="G3" Duration="32" Instrument="2. Bright Acoustic Piano"
			PatternInstance Time="2" Pattern="Pattern 6"
			PatternInstance Time="3" Pattern="Pattern 7"
			PatternInstance Time="4" Pattern="Pattern 9"
			PatternInstance Time="6" Pattern="Pattern 8"
			PatternInstance Time="7" Pattern="Pattern 11"
			PatternInstance Time="10" Pattern="Pattern 6"
			PatternInstance Time="11" Pattern="Pattern 7"
			PatternInstance Time="12" Pattern="Pattern 9"
			PatternInstance Time="14" Pattern="Pattern 8"
			PatternInstance Time="15" Pattern="Pattern 11"
			PatternInstance Time="16" Pattern="Pattern 21"
			PatternInstance Time="17" Pattern="Pattern 25"
			PatternInstance Time="18" Pattern="Pattern 26"
			PatternInstance Time="19" Pattern="Pattern 25"
			PatternInstance Time="20" Pattern="Pattern 21"
			PatternInstance Time="21" Pattern="Pattern 27"
			PatternInstance Time="22" Pattern="Pattern 28"
			PatternInstance Time="23" Pattern="Pattern 29"
			PatternInstance Time="24" Pattern="Pattern 21"
			PatternInstance Time="25" Pattern="Pattern 25"
			PatternInstance Time="26" Pattern="Pattern 26"
			PatternInstance Time="27" Pattern="Pattern 25"
			PatternInstance Time="28" Pattern="Pattern 21"
			PatternInstance Time="29" Pattern="Pattern 27"
			PatternInstance Time="30" Pattern="Pattern 28"
			PatternInstance Time="31" Pattern="Pattern 29"
			PatternInstance Time="32" Pattern="Pattern 21"
			PatternInstance Time="33" Pattern="Pattern 25"
			PatternInstance Time="34" Pattern="Pattern 26"
			PatternInstance Time="35" Pattern="Pattern 25"
			PatternInstance Time="36" Pattern="Pattern 21"
			PatternInstance Time="37" Pattern="Pattern 27"
			PatternInstance Time="38" Pattern="Pattern 28"
			PatternInstance Time="39" Pattern="Pattern 29"
			PatternInstance Time="40" Pattern="Pattern 21"
			PatternInstance Time="41" Pattern="Pattern 25"
			PatternInstance Time="42" Pattern="Pattern 26"
			PatternInstance Time="43" Pattern="Pattern 25"
			PatternInstance Time="44" Pattern="Pattern 21"
			PatternInstance Time="45" Pattern="Pattern 27"
			PatternInstance Time="46" Pattern="Pattern 21"
			PatternInstance Time="47" Pattern="Pattern 49"
			PatternInstance Time="48" Pattern="Pattern 50"
			PatternInstance Time="49" Pattern="Pattern 50"
			PatternInstance Time="50" Pattern="Pattern 25"
			PatternInstance Time="51" Pattern="Pattern 25"
			PatternInstance Time="52" Pattern="Pattern 50"
			PatternInstance Time="53" Pattern="Pattern 50"
			PatternInstance Time="54" Pattern="Pattern 25"
			PatternInstance Time="55" Pattern="Pattern 25"
			PatternInstance Time="56" Pattern="Pattern 50"
			PatternInstance Time="57" Pattern="Pattern 50"
			PatternInstance Time="58" Pattern="Pattern 25"
			PatternInstance Time="59" Pattern="Pattern 25"
			PatternInstance Time="60" Pattern="Pattern 50"
			PatternInstance Time="61" Pattern="Pattern 50"
			PatternInstance Time="62" Pattern="Pattern 25"
			PatternInstance Time="63" Pattern="Pattern 25"
			PatternInstance Time="64" Pattern="Pattern 21"
			PatternInstance Time="65" Pattern="Pattern 25"
			PatternInstance Time="66" Pattern="Pattern 27"
			PatternInstance Time="67" Pattern="Pattern 68"
			PatternInstance Time="68" Pattern="Pattern 21"
			PatternInstance Time="69" Pattern="Pattern 25"
			PatternInstance Time="70" Pattern="Pattern 27"
			PatternInstance Time="71" Pattern="Pattern 68"
			PatternInstance Time="72" Pattern="Pattern 21"
			PatternInstance Time="73" Pattern="Pattern 25"
			PatternInstance Time="74" Pattern="Pattern 27"
			PatternInstance Time="75" Pattern="Pattern 68"
			PatternInstance Time="76" Pattern="Pattern 21"
			PatternInstance Time="77" Pattern="Pattern 25"
			PatternInstance Time="78" Pattern="Pattern 27"
			PatternInstance Time="79" Pattern="Pattern 81"
		Channel Type="EPSMFM6"
			Pattern Name="Pattern 1" Color="8a706a"
				Note Time="0" Value="G#3" Duration="8" Instrument="2. Bright Acoustic Piano"
				Note Time="8" Value="B3" Duration="8" Instrument="2. Bright Acoustic Piano"
				Note Time="16" Value="D#3" Duration="8" Instrument="2. Bright Acoustic Piano"
				Note Time="24" Value="B3" Duration="8" Instrument="2. Bright Acoustic Piano"
				Note Time="32" Value="G#3" Duration="8" Instrument="2. Bright Acoustic Piano"
				Note Time="40" Value="B3" Duration="8" Instrument="2. Bright Acoustic Piano"
				Note Time="48" Value="D#3" Duration="8" Instrument="2. Bright Acoustic Piano"
				Note Time="56" Value="B3" Duration="8" Instrument="2. Bright Acoustic Piano"
			Pattern Name="Pattern 3" Color="8a706a"
				Note Time="0" Value="E3" Duration="8" Instrument="2. Bright Acoustic Piano"
				Note Time="8" Value="G3" Duration="8" Instrument="2. Bright Acoustic Piano"
				Note Time="16" Value="B2" Duration="8" Instrument="2. Bright Acoustic Piano"
				Note Time="24" Value="G3" Duration="8" Instrument="2. Bright Acoustic Piano"
				Note Time="32" Value="E3" Duration="8" Instrument="2. Bright Acoustic Piano"
				Note Time="40" Value="G3" Duration="8" Instrument="2. Bright Acoustic Piano"
				Note Time="48" Value="B2" Duration="8" Instrument="2. Bright Acoustic Piano"
				Note Time="56" Value="G3" Duration="8" Instrument="2. Bright Acoustic Piano"
			Pattern Name="Pattern 4" Color="8a706a"
				Note Time="0" Value="E3" Duration="8" Instrument="2. Bright Acoustic Piano"
				Note Time="8" Value="G3" Duration="8" Instrument="2. Bright Acoustic Piano"
				Note Time="16" Value="B2" Duration="8" Instrument="2. Bright Acoustic Piano"
				Note Time="24" Value="G3" Duration="8" Instrument="2. Bright Acoustic Piano"
				Note Time="32" Value="F#3" Duration="8" Instrument="2. Bright Acoustic Piano"
				Note Time="40" Value="G3" Duration="8" Instrument="2. Bright Acoustic Piano"
				Note Time="48" Value="C#3" Duration="8" Instrument="2. Bright Acoustic Piano"
				Note Time="56" Value="G3" Duration="8" Instrument="2. Bright Acoustic Piano"
			Pattern Name="Pattern 7" Color="8a706a"
				Note Time="0" Value="E2" Duration="64" Instrument="2. Bright Acoustic Piano"
			Pattern Name="Pattern 8" Color="8a706a"
				Note Time="0" Value="C#3" Duration="32" Instrument="2. Bright Acoustic Piano"
				Note Time="32" Value="F#3" Duration="32" Instrument="2. Bright Acoustic Piano"
			Pattern Name="Pattern 17" Color="8a706a"
				Note Time="0" Value="E3" Duration="8" Instrument="2. Bright Acoustic Piano"
				Note Time="8" Value="B3" Duration="8" Instrument="2. Bright Acoustic Piano"
				Note Time="16" Value="B2" Duration="8" Instrument="2. Bright Acoustic Piano"
				Note Time="24" Value="B3" Duration="8" Instrument="2. Bright Acoustic Piano"
				Note Time="32" Value="E3" Duration="8" Instrument="2. Bright Acoustic Piano"
				Note Time="40" Value="B3" Duration="8" Instrument="2. Bright Acoustic Piano"
				Note Time="48" Value="B2" Duration="8" Instrument="2. Bright Acoustic Piano"
				Note Time="56" Value="B3" Duration="8" Instrument="2. Bright Acoustic Piano"
			Pattern Name="Pattern 18" Color="8a706a"
				Note Time="0" Value="F#3" Duration="8" Instrument="2. Bright Acoustic Piano"
				Note Time="8" Value="C#4" Duration="8" Instrument="2. Bright Acoustic Piano"
				Note Time="16" Value="C#3" Duration="8" Instrument="2. Bright Acoustic Piano"
				Note Time="24" Value="C#4" Duration="8" Instrument="2. Bright Acoustic Piano"
				Note Time="32" Value="F#3" Duration="8" Instrument="2. Bright Acoustic Piano"
				Note Time="40" Value="C#4" Duration="8" Instrument="2. Bright Acoustic Piano"
				Note Time="48" Value="C#3" Duration="8" Instrument="2. Bright Acoustic Piano"
				Note Time="56" Value="C#4" Duration="8" Instrument="2. Bright Acoustic Piano"
			Pattern Name="Pattern 19" Color="8a706a"
				Note Time="0" Value="G#3" Duration="8" Instrument="2. Bright Acoustic Piano"
				Note Time="8" Value="D#4" Duration="8" Instrument="2. Bright Acoustic Piano"
				Note Time="16" Value="D#3" Duration="8" Instrument="2. Bright Acoustic Piano"
				Note Time="24" Value="D#4" Duration="8" Instrument="2. Bright Acoustic Piano"
				Note Time="32" Value="G#3" Duration="8" Instrument="2. Bright Acoustic Piano"
				Note Time="40" Value="D#4" Duration="8" Instrument="2. Bright Acoustic Piano"
				Note Time="48" Value="D#3" Duration="8" Instrument="2. Bright Acoustic Piano"
				Note Time="56" Value="D#4" Duration="8" Instrument="2. Bright Acoustic Piano"
			Pattern Name="Pattern 20" Color="8a706a"
				Note Time="0" Value="D#3" Duration="8" Instrument="2. Bright Acoustic Piano"
				Note Time="8" Value="A#3" Duration="8" Instrument="2. Bright Acoustic Piano"
				Note Time="16" Value="A#2" Duration="8" Instrument="2. Bright Acoustic Piano"
				Note Time="24" Value="A#3" Duration="8" Instrument="2. Bright Acoustic Piano"
				Note Time="32" Value="D#3" Duration="8" Instrument="2. Bright Acoustic Piano"
				Note Time="40" Value="A#3" Duration="8" Instrument="2. Bright Acoustic Piano"
				Note Time="48" Value="A#2" Duration="8" Instrument="2. Bright Acoustic Piano"
				Note Time="56" Value="A#3" Duration="8" Instrument="2. Bright Acoustic Piano"
			Pattern Name="Pattern 22" Color="8a706a"
				Note Time="0" Value="B3" Duration="8" Instrument="2. Bright Acoustic Piano"
				Note Time="8" Value="F#4" Duration="8" Instrument="2. Bright Acoustic Piano"
				Note Time="16" Value="F#3" Duration="8" Instrument="2. Bright Acoustic Piano"
				Note Time="24" Value="F#4" Duration="8" Instrument="2. Bright Acoustic Piano"
				Note Time="32" Value="B3" Duration="8" Instrument="2. Bright Acoustic Piano"
				Note Time="40" Value="F#4" Duration="8" Instrument="2. Bright Acoustic Piano"
				Note Time="48" Value="F#3" Duration="8" Instrument="2. Bright Acoustic Piano"
				Note Time="56" Value="F#4" Duration="8" Instrument="2. Bright Acoustic Piano"
			Pattern Name="Pattern 23" Color="8a706a"
				Note Time="0" Value="C#3" Duration="8" Instrument="2. Bright Acoustic Piano"
				Note Time="8" Value="G#3" Duration="8" Instrument="2. Bright Acoustic Piano"
				Note Time="16" Value="G#2" Duration="8" Instrument="2. Bright Acoustic Piano"
				Note Time="24" Value="G#3" Duration="8" Instrument="2. Bright Acoustic Piano"
				Note Time="32" Value="C#3" Duration="8" Instrument="2. Bright Acoustic Piano"
				Note Time="40" Value="G#3" Duration="8" Instrument="2. Bright Acoustic Piano"
				Note Time="48" Value="G#2" Duration="8" Instrument="2. Bright Acoustic Piano"
				Note Time="56" Value="G#3" Duration="8" Instrument="2. Bright Acoustic Piano"
			Pattern Name="Pattern 24" Color="8a706a"
				Note Time="0" Value="G3" Duration="8" Instrument="2. Bright Acoustic Piano"
				Note Time="8" Value="D#4" Duration="8" Instrument="2. Bright Acoustic Piano"
				Note Time="16" Value="D#3" Duration="8" Instrument="2. Bright Acoustic Piano"
				Note Time="24" Value="D#4" Duration="8" Instrument="2. Bright Acoustic Piano"
				Note Time="32" Value="G3" Duration="8" Instrument="2. Bright Acoustic Piano"
				Note Time="40" Value="D#4" Duration="8" Instrument="2. Bright Acoustic Piano"
				Note Time="48" Value="D#3" Duration="8" Instrument="2. Bright Acoustic Piano"
				Note Time="56" Value="D#4" Duration="8" Instrument="2. Bright Acoustic Piano"
			Pattern Name="Pattern 47" Color="8a706a"
				Note Time="0" Value="C#3" Duration="8" Instrument="2. Bright Acoustic Piano"
				Note Time="8" Value="G#3" Duration="8" Instrument="2. Bright Acoustic Piano"
				Note Time="16" Value="B2" Duration="8" Instrument="2. Bright Acoustic Piano"
				Note Time="24" Value="G#3" Duration="8" Instrument="2. Bright Acoustic Piano"
				Note Time="32" Value="A#2" Duration="8" Instrument="2. Bright Acoustic Piano"
				Note Time="40" Value="G#3" Duration="8" Instrument="2. Bright Acoustic Piano"
				Note Time="48" Value="G#2" Duration="8" Instrument="2. Bright Acoustic Piano"
				Note Time="56" Value="G#3" Duration="8" Instrument="2. Bright Acoustic Piano"
			Pattern Name="Pattern 48" Color="8a706a"
				Note Time="0" Value="D#2" Duration="32" Instrument="2. Bright Acoustic Piano"
				Note Time="32" Value="D#3" Duration="32" Instrument="2. Bright Acoustic Piano"
			Pattern Name="Pattern 51" Color="8a706a"
				Note Time="0" Value="B3" Duration="8" Instrument="2. Bright Acoustic Piano"
				Note Time="8" Value="B3" Duration="8" Instrument="2. Bright Acoustic Piano"
				Note Time="16" Value="F#3" Duration="8" Instrument="2. Bright Acoustic Piano"
				Note Time="24" Value="B3" Duration="8" Instrument="2. Bright Acoustic Piano"
				Note Time="32" Value="B3" Duration="8" Instrument="2. Bright Acoustic Piano"
				Note Time="40" Value="B3" Duration="8" Instrument="2. Bright Acoustic Piano"
				Note Time="48" Value="F#3" Duration="8" Instrument="2. Bright Acoustic Piano"
				Note Time="56" Value="B3" Duration="8" Instrument="2. Bright Acoustic Piano"
			Pattern Name="Pattern 52" Color="8a706a"
				Note Time="0" Value="F#3" Duration="8" Instrument="2. Bright Acoustic Piano"
				Note Time="8" Value="A#3" Duration="8" Instrument="2. Bright Acoustic Piano"
				Note Time="16" Value="C#3" Duration="8" Instrument="2. Bright Acoustic Piano"
				Note Time="24" Value="A#3" Duration="8" Instrument="2. Bright Acoustic Piano"
				Note Time="32" Value="F#3" Duration="8" Instrument="2. Bright Acoustic Piano"
				Note Time="40" Value="A#3" Duration="8" Instrument="2. Bright Acoustic Piano"
				Note Time="48" Value="C#3" Duration="8" Instrument="2. Bright Acoustic Piano"
				Note Time="56" Value="A#3" Duration="8" Instrument="2. Bright Acoustic Piano"
			Pattern Name="Pattern 63" Color="8a706a"
				Note Time="0" Value="B3" Duration="8" Instrument="2. Bright Acoustic Piano"
				Note Time="8" Value="A#3" Duration="8" Instrument="2. Bright Acoustic Piano"
				Note Time="16" Value="F#3" Duration="8" Instrument="2. Bright Acoustic Piano"
				Note Time="24" Value="A#3" Duration="8" Instrument="2. Bright Acoustic Piano"
				Note Time="32" Value="B3" Duration="8" Instrument="2. Bright Acoustic Piano"
				Note Time="40" Value="A#3" Duration="8" Instrument="2. Bright Acoustic Piano"
				Note Time="48" Value="F#3" Duration="8" Instrument="2. Bright Acoustic Piano"
				Note Time="56" Value="A#3" Duration="8" Instrument="2. Bright Acoustic Piano"
			Pattern Name="Pattern 64" Color="8a706a"
				Note Time="0" Value="F#3" Duration="8" Instrument="2. Bright Acoustic Piano"
				Note Time="8" Value="A#3" Duration="8" Instrument="2. Bright Acoustic Piano"
				Note Time="16" Value="G#3" Duration="8" Instrument="2. Bright Acoustic Piano"
				Note Time="24" Value="A#3" Duration="8" Instrument="2. Bright Acoustic Piano"
				Note Time="32" Value="A#3" Duration="8" Instrument="2. Bright Acoustic Piano"
				Note Time="40" Value="A#3" Duration="8" Instrument="2. Bright Acoustic Piano"
				Note Time="48" Value="C#4" Duration="8" Instrument="2. Bright Acoustic Piano"
				Note Time="56" Value="A#3" Duration="8" Instrument="2. Bright Acoustic Piano"
			Pattern Name="Pattern 80" Color="8a706a"
				Note Time="0" Value="C#3" Duration="32" Instrument="2. Bright Acoustic Piano"
				Note Time="32" Value="D#3" Duration="32" Instrument="2. Bright Acoustic Piano"
			PatternInstance Time="0" Pattern="Pattern 1"
			PatternInstance Time="1" Pattern="Pattern 1"
			PatternInstance Time="2" Pattern="Pattern 3"
			PatternInstance Time="3" Pattern="Pattern 4"
			PatternInstance Time="4" Pattern="Pattern 1"
			PatternInstance Time="5" Pattern="Pattern 1"
			PatternInstance Time="6" Pattern="Pattern 7"
			PatternInstance Time="7" Pattern="Pattern 8"
			PatternInstance Time="8" Pattern="Pattern 1"
			PatternInstance Time="9" Pattern="Pattern 1"
			PatternInstance Time="10" Pattern="Pattern 3"
			PatternInstance Time="11" Pattern="Pattern 4"
			PatternInstance Time="12" Pattern="Pattern 1"
			PatternInstance Time="13" Pattern="Pattern 1"
			PatternInstance Time="14" Pattern="Pattern 7"
			PatternInstance Time="15" Pattern="Pattern 8"
			PatternInstance Time="16" Pattern="Pattern 17"
			PatternInstance Time="17" Pattern="Pattern 18"
			PatternInstance Time="18" Pattern="Pattern 19"
			PatternInstance Time="19" Pattern="Pattern 20"
			PatternInstance Time="20" Pattern="Pattern 17"
			PatternInstance Time="21" Pattern="Pattern 22"
			PatternInstance Time="22" Pattern="Pattern 23"
			PatternInstance Time="23" Pattern="Pattern 24"
			PatternInstance Time="24" Pattern="Pattern 17"
			PatternInstance Time="25" Pattern="Pattern 18"
			PatternInstance Time="26" Pattern="Pattern 19"
			PatternInstance Time="27" Pattern="Pattern 20"
			PatternInstance Time="28" Pattern="Pattern 17"
			PatternInstance Time="29" Pattern="Pattern 22"
			PatternInstance Time="30" Pattern="Pattern 23"
			PatternInstance Time="31" Pattern="Pattern 24"
			PatternInstance Time="32" Pattern="Pattern 17"
			PatternInstance Time="33" Pattern="Pattern 18"
			PatternInstance Time="34" Pattern="Pattern 19"
			PatternInstance Time="35" Pattern="Pattern 20"
			PatternInstance Time="36" Pattern="Pattern 17"
			PatternInstance Time="37" Pattern="Pattern 22"
			PatternInstance Time="38" Pattern="Pattern 23"
			PatternInstance Time="39" Pattern="Pattern 24"
			PatternInstance Time="40" Pattern="Pattern 17"
			PatternInstance Time="41" Pattern="Pattern 18"
			PatternInstance Time="42" Pattern="Pattern 19"
			PatternInstance Time="43" Pattern="Pattern 20"
			PatternInstance Time="44" Pattern="Pattern 17"
			PatternInstance Time="45" Pattern="Pattern 22"
			PatternInstance Time="46" Pattern="Pattern 47"
			PatternInstance Time="47" Pattern="Pattern 48"
			PatternInstance Time="48" Pattern="Pattern 17"
			PatternInstance Time="49" Pattern="Pattern 17"
			PatternInstance Time="50" Pattern="Pattern 51"
			PatternInstance Time="51" Pattern="Pattern 52"
			PatternInstance Time="52" Pattern="Pattern 17"
			PatternInstance Time="53" Pattern="Pattern 17"
			PatternInstance Time="54" Pattern="Pattern 51"
			PatternInstance Time="55" Pattern="Pattern 52"
			PatternInstance Time="56" Pattern="Pattern 17"
			PatternInstance Time="57" Pattern="Pattern 17"
			PatternInstance Time="58" Pattern="Pattern 51"
			PatternInstance Time="59" Pattern="Pattern 52"
			PatternInstance Time="60" Pattern="Pattern 17"
			PatternInstance Time="61" Pattern="Pattern 17"
			PatternInstance Time="62" Pattern="Pattern 63"
			PatternInstance Time="63" Pattern="Pattern 64"
			PatternInstance Time="64" Pattern="Pattern 17"
			PatternInstance Time="65" Pattern="Pattern 18"
			PatternInstance Time="66" Pattern="Pattern 19"
			PatternInstance Time="67" Pattern="Pattern 18"
			PatternInstance Time="68" Pattern="Pattern 17"
			PatternInstance Time="69" Pattern="Pattern 18"
			PatternInstance Time="70" Pattern="Pattern 19"
			PatternInstance Time="71" Pattern="Pattern 18"
			PatternInstance Time="72" Pattern="Pattern 17"
			PatternInstance Time="73" Pattern="Pattern 18"
			PatternInstance Time="74" Pattern="Pattern 19"
			PatternInstance Time="75" Pattern="Pattern 18"
			PatternInstance Time="76" Pattern="Pattern 17"
			PatternInstance Time="77" Pattern="Pattern 18"
			PatternInstance Time="78" Pattern="Pattern 19"
			PatternInstance Time="79" Pattern="Pattern 80"
		Channel Type="EPSMRythm1"
			Pattern Name="00" Color="ff6464"
				Note Time="0" Value="C4" Duration="4" Instrument="1. Acoustic Grand Piano"
				Note Time="8" Value="C4" Duration="4" Instrument="1. Acoustic Grand Piano"
				Note Time="16" Value="C4" Duration="4" Instrument="1. Acoustic Grand Piano"
				Note Time="24" Value="C4" Duration="4" Instrument="1. Acoustic Grand Piano"
				Note Time="32" Value="C4" Duration="4" Instrument="1. Acoustic Grand Piano"
				Note Time="40" Value="C4" Duration="4" Instrument="1. Acoustic Grand Piano"
				Note Time="48" Value="C4" Duration="4" Instrument="1. Acoustic Grand Piano"
				Note Time="56" Value="C4" Duration="4" Instrument="1. Acoustic Grand Piano"
			Pattern Name="01" Color="ff7f51"
				Note Time="0" Value="C4" Duration="4" Instrument="1. Acoustic Grand Piano"
				Note Time="8" Value="C4" Duration="4" Instrument="1. Acoustic Grand Piano"
				Note Time="16" Value="C4" Duration="4" Instrument="1. Acoustic Grand Piano"
				Note Time="24" Value="C4" Duration="4" Instrument="1. Acoustic Grand Piano"
				Note Time="32" Value="C4" Duration="4" Instrument="1. Acoustic Grand Piano"
				Note Time="40" Value="C4" Duration="4" Instrument="1. Acoustic Grand Piano"
				Note Time="48" Value="C4" Duration="4" Instrument="1. Acoustic Grand Piano"
				Note Time="56" Value="C4" Duration="2" Instrument="1. Acoustic Grand Piano"
				Note Time="58" Value="C4" Duration="2" Instrument="1. Acoustic Grand Piano"
				Note Time="60" Value="C4" Duration="2" Instrument="1. Acoustic Grand Piano"
				Note Time="62" Value="C4" Duration="2" Instrument="1. Acoustic Grand Piano"
			Pattern Name="02" Color="ffa83c"
				Note Time="0" Value="C4" Duration="4" Instrument="1. Acoustic Grand Piano"
				Note Time="8" Value="C4" Duration="4" Instrument="1. Acoustic Grand Piano"
				Note Time="16" Value="C4" Duration="4" Instrument="1. Acoustic Grand Piano"
				Note Time="24" Value="C4" Duration="4" Instrument="1. Acoustic Grand Piano"
				Note Time="32" Value="C4" Duration="4" Instrument="1. Acoustic Grand Piano"
				Note Time="40" Value="C4" Duration="4" Instrument="1. Acoustic Grand Piano"
				Note Time="56" Value="C4" Duration="4" Instrument="1. Acoustic Grand Piano"
			Pattern Name="03" Color="ffcb3c"
				Note Time="0" Value="C4" Duration="4" Instrument="1. Acoustic Grand Piano"
				Note Time="8" Value="C4" Duration="4" Instrument="1. Acoustic Grand Piano"
				Note Time="16" Value="C4" Duration="4" Instrument="1. Acoustic Grand Piano"
				Note Time="24" Value="C4" Duration="4" Instrument="1. Acoustic Grand Piano"
				Note Time="32" Value="C4" Duration="4" Instrument="1. Acoustic Grand Piano"
				Note Time="40" Value="C4" Duration="4" Instrument="1. Acoustic Grand Piano"
				Note Time="48" Value="C4" Duration="4" Instrument="1. Acoustic Grand Piano"
				Note Time="52" Value="C4" Duration="4" Instrument="1. Acoustic Grand Piano"
				Note Time="56" Value="C4" Duration="4" Instrument="1. Acoustic Grand Piano"
			PatternInstance Time="0" Pattern="00"
			PatternInstance Time="1" Pattern="01"
			PatternInstance Time="2" Pattern="02"
			PatternInstance Time="3" Pattern="00"
			PatternInstance Time="4" Pattern="00"
			PatternInstance Time="5" Pattern="01"
			PatternInstance Time="6" Pattern="02"
			PatternInstance Time="7" Pattern="00"
			PatternInstance Time="8" Pattern="00"
			PatternInstance Time="9" Pattern="01"
			PatternInstance Time="10" Pattern="02"
			PatternInstance Time="11" Pattern="00"
			PatternInstance Time="12" Pattern="00"
			PatternInstance Time="13" Pattern="01"
			PatternInstance Time="16" Pattern="03"
			PatternInstance Time="17" Pattern="03"
			PatternInstance Time="18" Pattern="03"
			PatternInstance Time="19" Pattern="03"
			PatternInstance Time="20" Pattern="03"
			PatternInstance Time="21" Pattern="03"
			PatternInstance Time="22" Pattern="03"
			PatternInstance Time="23" Pattern="03"
			PatternInstance Time="24" Pattern="03"
			PatternInstance Time="25" Pattern="03"
			PatternInstance Time="26" Pattern="03"
			PatternInstance Time="27" Pattern="03"
			PatternInstance Time="28" Pattern="03"
			PatternInstance Time="29" Pattern="03"
			PatternInstance Time="30" Pattern="03"
			PatternInstance Time="31" Pattern="03"
			PatternInstance Time="32" Pattern="03"
			PatternInstance Time="33" Pattern="03"
			PatternInstance Time="34" Pattern="03"
			PatternInstance Time="35" Pattern="03"
			PatternInstance Time="36" Pattern="03"
			PatternInstance Time="37" Pattern="03"
			PatternInstance Time="38" Pattern="03"
			PatternInstance Time="39" Pattern="03"
			PatternInstance Time="40" Pattern="03"
			PatternInstance Time="41" Pattern="03"
			PatternInstance Time="42" Pattern="03"
			PatternInstance Time="43" Pattern="03"
			PatternInstance Time="44" Pattern="03"
			PatternInstance Time="45" Pattern="03"
			PatternInstance Time="46" Pattern="03"
			PatternInstance Time="48" Pattern="03"
			PatternInstance Time="49" Pattern="03"
			PatternInstance Time="50" Pattern="03"
			PatternInstance Time="51" Pattern="03"
			PatternInstance Time="52" Pattern="03"
			PatternInstance Time="53" Pattern="03"
			PatternInstance Time="54" Pattern="03"
			PatternInstance Time="55" Pattern="03"
			PatternInstance Time="56" Pattern="03"
			PatternInstance Time="57" Pattern="03"
			PatternInstance Time="58" Pattern="03"
			PatternInstance Time="59" Pattern="03"
			PatternInstance Time="60" Pattern="03"
			PatternInstance Time="61" Pattern="03"
			PatternInstance Time="62" Pattern="03"
			PatternInstance Time="64" Pattern="03"
			PatternInstance Time="65" Pattern="03"
			PatternInstance Time="66" Pattern="03"
			PatternInstance Time="67" Pattern="03"
			PatternInstance Time="68" Pattern="03"
			PatternInstance Time="69" Pattern="03"
			PatternInstance Time="70" Pattern="03"
			PatternInstance Time="71" Pattern="03"
			PatternInstance Time="72" Pattern="03"
			PatternInstance Time="73" Pattern="03"
			PatternInstance Time="74" Pattern="03"
			PatternInstance Time="75" Pattern="03"
			PatternInstance Time="76" Pattern="03"
			PatternInstance Time="77" Pattern="03"
			PatternInstance Time="78" Pattern="03"
		Channel Type="EPSMRythm2"
			Pattern Name="00" Color="ff6464"
				Note Time="16" Value="C4" Duration="4" Instrument="1. Acoustic Grand Piano"
				Note Time="48" Value="C4" Duration="4" Instrument="1. Acoustic Grand Piano"
			Pattern Name="01" Color="ff7f51"
				Note Time="16" Value="C4" Duration="4" Instrument="1. Acoustic Grand Piano"
				Note Time="48" Value="C4" Duration="4" Instrument="1. Acoustic Grand Piano"
				Note Time="56" Value="C4" Duration="4" Instrument="1. Acoustic Grand Piano"
			Pattern Name="02" Color="ffa83c"
				Note Time="0" Value="C4" Duration="4" Instrument="1. Acoustic Grand Piano"
				Note Time="16" Value="C4" Duration="4" Instrument="1. Acoustic Grand Piano"
				Note Time="32" Value="C4" Duration="4" Instrument="1. Acoustic Grand Piano"
				Note Time="48" Value="C4" Duration="4" Instrument="1. Acoustic Grand Piano"
			PatternInstance Time="0" Pattern="00"
			PatternInstance Time="1" Pattern="00"
			PatternInstance Time="2" Pattern="00"
			PatternInstance Time="3" Pattern="00"
			PatternInstance Time="4" Pattern="00"
			PatternInstance Time="5" Pattern="00"
			PatternInstance Time="6" Pattern="00"
			PatternInstance Time="7" Pattern="01"
			PatternInstance Time="8" Pattern="00"
			PatternInstance Time="9" Pattern="00"
			PatternInstance Time="10" Pattern="00"
			PatternInstance Time="11" Pattern="00"
			PatternInstance Time="12" Pattern="00"
			PatternInstance Time="13" Pattern="00"
			PatternInstance Time="16" Pattern="02"
			PatternInstance Time="17" Pattern="02"
			PatternInstance Time="18" Pattern="02"
			PatternInstance Time="19" Pattern="02"
			PatternInstance Time="20" Pattern="02"
			PatternInstance Time="21" Pattern="02"
			PatternInstance Time="22" Pattern="02"
			PatternInstance Time="23" Pattern="02"
			PatternInstance Time="24" Pattern="02"
			PatternInstance Time="25" Pattern="02"
			PatternInstance Time="26" Pattern="02"
			PatternInstance Time="27" Pattern="02"
			PatternInstance Time="28" Pattern="02"
			PatternInstance Time="29" Pattern="02"
			PatternInstance Time="30" Pattern="02"
			PatternInstance Time="31" Pattern="02"
			PatternInstance Time="32" Pattern="02"
			PatternInstance Time="33" Pattern="02"
			PatternInstance Time="34" Pattern="02"
			PatternInstance Time="35" Pattern="02"
			PatternInstance Time="36" Pattern="02"
			PatternInstance Time="37" Pattern="02"
			PatternInstance Time="38" Pattern="02"
			PatternInstance Time="39" Pattern="02"
			PatternInstance Time="40" Pattern="02"
			PatternInstance Time="41" Pattern="02"
			PatternInstance Time="42" Pattern="02"
			PatternInstance Time="43" Pattern="02"
			PatternInstance Time="44" Pattern="02"
			PatternInstance Time="45" Pattern="02"
			PatternInstance Time="46" Pattern="02"
			PatternInstance Time="48" Pattern="02"
			PatternInstance Time="49" Pattern="02"
			PatternInstance Time="50" Pattern="02"
			PatternInstance Time="51" Pattern="02"
			PatternInstance Time="52" Pattern="02"
			PatternInstance Time="53" Pattern="02"
			PatternInstance Time="54" Pattern="02"
			PatternInstance Time="55" Pattern="02"
			PatternInstance Time="56" Pattern="02"
			PatternInstance Time="57" Pattern="02"
			PatternInstance Time="58" Pattern="02"
			PatternInstance Time="59" Pattern="02"
			PatternInstance Time="60" Pattern="02"
			PatternInstance Time="61" Pattern="02"
			PatternInstance Time="62" Pattern="02"
			PatternInstance Time="64" Pattern="02"
			PatternInstance Time="65" Pattern="02"
			PatternInstance Time="66" Pattern="02"
			PatternInstance Time="67" Pattern="02"
			PatternInstance Time="68" Pattern="02"
			PatternInstance Time="69" Pattern="02"
			PatternInstance Time="70" Pattern="02"
			PatternInstance Time="71" Pattern="02"
			PatternInstance Time="72" Pattern="02"
			PatternInstance Time="73" Pattern="02"
			PatternInstance Time="74" Pattern="02"
			PatternInstance Time="75" Pattern="02"
			PatternInstance Time="76" Pattern="02"
			PatternInstance Time="77" Pattern="02"
			PatternInstance Time="78" Pattern="02"
		Channel Type="EPSMRythm3"
			Pattern Name="00" Color="ff6464"
				Note Time="8" Value="C4" Duration="4" Instrument="1. Acoustic Grand Piano"
				Note Time="24" Value="C4" Duration="4" Instrument="1. Acoustic Grand Piano"
				Note Time="40" Value="C4" Duration="4" Instrument="1. Acoustic Grand Piano"
				Note Time="56" Value="C4" Duration="4" Instrument="1. Acoustic Grand Piano"
			PatternInstance Time="16" Pattern="00"
			PatternInstance Time="17" Pattern="00"
			PatternInstance Time="18" Pattern="00"
			PatternInstance Time="19" Pattern="00"
			PatternInstance Time="20" Pattern="00"
			PatternInstance Time="21" Pattern="00"
			PatternInstance Time="22" Pattern="00"
			PatternInstance Time="23" Pattern="00"
			PatternInstance Time="24" Pattern="00"
			PatternInstance Time="25" Pattern="00"
			PatternInstance Time="26" Pattern="00"
			PatternInstance Time="27" Pattern="00"
			PatternInstance Time="28" Pattern="00"
			PatternInstance Time="29" Pattern="00"
			PatternInstance Time="30" Pattern="00"
			PatternInstance Time="31" Pattern="00"
			PatternInstance Time="32" Pattern="00"
			PatternInstance Time="33" Pattern="00"
			PatternInstance Time="34" Pattern="00"
			PatternInstance Time="35" Pattern="00"
			PatternInstance Time="36" Pattern="00"
			PatternInstance Time="37" Pattern="00"
			PatternInstance Time="38" Pattern="00"
			PatternInstance Time="39" Pattern="00"
			PatternInstance Time="40" Pattern="00"
			PatternInstance Time="41" Pattern="00"
			PatternInstance Time="42" Pattern="00"
			PatternInstance Time="43" Pattern="00"
			PatternInstance Time="44" Pattern="00"
			PatternInstance Time="45" Pattern="00"
			PatternInstance Time="46" Pattern="00"
			PatternInstance Time="48" Pattern="00"
			PatternInstance Time="49" Pattern="00"
			PatternInstance Time="50" Pattern="00"
			PatternInstance Time="51" Pattern="00"
			PatternInstance Time="52" Pattern="00"
			PatternInstance Time="53" Pattern="00"
			PatternInstance Time="54" Pattern="00"
			PatternInstance Time="55" Pattern="00"
			PatternInstance Time="56" Pattern="00"
			PatternInstance Time="57" Pattern="00"
			PatternInstance Time="58" Pattern="00"
			PatternInstance Time="59" Pattern="00"
			PatternInstance Time="60" Pattern="00"
			PatternInstance Time="61" Pattern="00"
			PatternInstance Time="62" Pattern="00"
			PatternInstance Time="64" Pattern="00"
			PatternInstance Time="65" Pattern="00"
			PatternInstance Time="66" Pattern="00"
			PatternInstance Time="67" Pattern="00"
			PatternInstance Time="68" Pattern="00"
			PatternInstance Time="69" Pattern="00"
			PatternInstance Time="70" Pattern="00"
			PatternInstance Time="71" Pattern="00"
			PatternInstance Time="72" Pattern="00"
			PatternInstance Time="73" Pattern="00"
			PatternInstance Time="74" Pattern="00"
			PatternInstance Time="75" Pattern="00"
			PatternInstance Time="76" Pattern="00"
			PatternInstance Time="77" Pattern="00"
			PatternInstance Time="78" Pattern="00"
		Channel Type="EPSMRythm4"
			Pattern Name="00" Color="ff6464"
				Note Time="0" Value="C4" Duration="4" Instrument="1. Acoustic Grand Piano"
				Note Time="4" Value="C4" Duration="4" Instrument="1. Acoustic Grand Piano"
				Note Time="8" Value="C4" Duration="4" Instrument="1. Acoustic Grand Piano"
				Note Time="16" Value="C4" Duration="4" Instrument="1. Acoustic Grand Piano"
				Note Time="20" Value="C4" Duration="4" Instrument="1. Acoustic Grand Piano"
				Note Time="24" Value="C4" Duration="4" Instrument="1. Acoustic Grand Piano"
				Note Time="28" Value="C4" Duration="4" Instrument="1. Acoustic Grand Piano"
				Note Time="32" Value="C4" Duration="4" Instrument="1. Acoustic Grand Piano"
				Note Time="48" Value="C4" Duration="4" Instrument="1. Acoustic Grand Piano"
				Note Time="56" Value="C4" Duration="4" Instrument="1. Acoustic Grand Piano"
			Pattern Name="01" Color="ff7f51"
				Note Time="8" Value="C4" Duration="4" Instrument="1. Acoustic Grand Piano"
				Note Time="16" Value="C4" Duration="4" Instrument="1. Acoustic Grand Piano"
				Note Time="20" Value="C4" Duration="4" Instrument="1. Acoustic Grand Piano"
				Note Time="24" Value="C4" Duration="4" Instrument="1. Acoustic Grand Piano"
				Note Time="32" Value="C4" Duration="4" Instrument="1. Acoustic Grand Piano"
				Note Time="40" Value="C4" Duration="4" Instrument="1. Acoustic Grand Piano"
				Note Time="48" Value="C4" Duration="4" Instrument="1. Acoustic Grand Piano"
				Note Time="56" Value="C4" Duration="4" Instrument="1. Acoustic Grand Piano"
				Note Time="60" Value="C4" Duration="4" Instrument="1. Acoustic Grand Piano"
			Pattern Name="03" Color="ffcb3c"
				Note Time="0" Value="C4" Duration="4" Instrument="1. Acoustic Grand Piano"
				Note Time="8" Value="C4" Duration="4" Instrument="1. Acoustic Grand Piano"
				Note Time="16" Value="C4" Duration="4" Instrument="1. Acoustic Grand Piano"
				Note Time="24" Value="C4" Duration="4" Instrument="1. Acoustic Grand Piano"
				Note Time="32" Value="C4" Duration="4" Instrument="1. Acoustic Grand Piano"
				Note Time="40" Value="C4" Duration="4" Instrument="1. Acoustic Grand Piano"
				Note Time="48" Value="C4" Duration="4" Instrument="1. Acoustic Grand Piano"
			Pattern Name="04" Color="ffe461"
				Note Time="0" Value="C4" Duration="4" Instrument="1. Acoustic Grand Piano"
				Note Time="8" Value="C4" Duration="4" Instrument="1. Acoustic Grand Piano"
				Note Time="16" Value="C4" Duration="4" Instrument="1. Acoustic Grand Piano"
				Note Time="24" Value="C4" Duration="4" Instrument="1. Acoustic Grand Piano"
				Note Time="32" Value="C4" Duration="4" Instrument="1. Acoustic Grand Piano"
				Note Time="40" Value="C4" Duration="4" Instrument="1. Acoustic Grand Piano"
				Note Time="48" Value="C4" Duration="4" Instrument="1. Acoustic Grand Piano"
				Note Time="56" Value="C4" Duration="4" Instrument="1. Acoustic Grand Piano"
			PatternInstance Time="0" Pattern="00"
			PatternInstance Time="1" Pattern="01"
			PatternInstance Time="2" Pattern="00"
			PatternInstance Time="3" Pattern="01"
			PatternInstance Time="4" Pattern="00"
			PatternInstance Time="5" Pattern="01"
			PatternInstance Time="6" Pattern="00"
			PatternInstance Time="7" Pattern="01"
			PatternInstance Time="8" Pattern="00"
			PatternInstance Time="9" Pattern="01"
			PatternInstance Time="10" Pattern="00"
			PatternInstance Time="11" Pattern="01"
			PatternInstance Time="12" Pattern="00"
			PatternInstance Time="13" Pattern="01"
			PatternInstance Time="16" Pattern="03"
			PatternInstance Time="17" Pattern="04"
			PatternInstance Time="18" Pattern="03"
			PatternInstance Time="19" Pattern="03"
			PatternInstance Time="20" Pattern="03"
			PatternInstance Time="21" Pattern="04"
			PatternInstance Time="22" Pattern="03"
			PatternInstance Time="23" Pattern="03"
			PatternInstance Time="24" Pattern="03"
			PatternInstance Time="25" Pattern="04"
			PatternInstance Time="26" Pattern="03"
			PatternInstance Time="27" Pattern="03"
			PatternInstance Time="28" Pattern="03"
			PatternInstance Time="29" Pattern="04"
			PatternInstance Time="30" Pattern="03"
			PatternInstance Time="31" Pattern="03"
			PatternInstance Time="32" Pattern="03"
			PatternInstance Time="33" Pattern="04"
			PatternInstance Time="34" Pattern="03"
			PatternInstance Time="35" Pattern="03"
			PatternInstance Time="36" Pattern="03"
			PatternInstance Time="37" Pattern="04"
			PatternInstance Time="38" Pattern="03"
			PatternInstance Time="39" Pattern="03"
			PatternInstance Time="40" Pattern="03"
			PatternInstance Time="41" Pattern="04"
			PatternInstance Time="42" Pattern="03"
			PatternInstance Time="43" Pattern="03"
			PatternInstance Time="44" Pattern="03"
			PatternInstance Time="45" Pattern="04"
			PatternInstance Time="46" Pattern="03"
			PatternInstance Time="48" Pattern="03"
			PatternInstance Time="49" Pattern="04"
			PatternInstance Time="50" Pattern="03"
			PatternInstance Time="51" Pattern="03"
			PatternInstance Time="52" Pattern="03"
			PatternInstance Time="53" Pattern="04"
			PatternInstance Time="54" Pattern="03"
			PatternInstance Time="55" Pattern="03"
			PatternInstance Time="56" Pattern="03"
			PatternInstance Time="57" Pattern="04"
			PatternInstance Time="58" Pattern="03"
			PatternInstance Time="59" Pattern="03"
			PatternInstance Time="60" Pattern="03"
			PatternInstance Time="61" Pattern="04"
			PatternInstance Time="62" Pattern="03"
			PatternInstance Time="64" Pattern="03"
			PatternInstance Time="65" Pattern="04"
			PatternInstance Time="66" Pattern="03"
			PatternInstance Time="67" Pattern="03"
			PatternInstance Time="68" Pattern="03"
			PatternInstance Time="69" Pattern="04"
			PatternInstance Time="70" Pattern="03"
			PatternInstance Time="71" Pattern="03"
			PatternInstance Time="72" Pattern="03"
			PatternInstance Time="73" Pattern="04"
			PatternInstance Time="74" Pattern="03"
			PatternInstance Time="75" Pattern="03"
			PatternInstance Time="76" Pattern="03"
			PatternInstance Time="77" Pattern="04"
			PatternInstance Time="78" Pattern="03"
		Channel Type="EPSMRythm5"
			Pattern Name="00" Color="ff6464"
				Note Time="0" Value="C4" Duration="4" Instrument="1. Acoustic Grand Piano"
				Note Time="8" Value="C4" Duration="4" Instrument="1. Acoustic Grand Piano"
				Note Time="16" Value="C4" Duration="4" Instrument="1. Acoustic Grand Piano"
				Note Time="24" Value="C4" Duration="4" Instrument="1. Acoustic Grand Piano"
				Note Time="32" Value="C4" Duration="4" Instrument="1. Acoustic Grand Piano"
				Note Time="40" Value="C4" Duration="4" Instrument="1. Acoustic Grand Piano"
				Note Time="48" Value="C4" Duration="4" Instrument="1. Acoustic Grand Piano"
				Note Time="56" Value="C4" Duration="4" Instrument="1. Acoustic Grand Piano"
			Pattern Name="01" Color="ff7f51"
				Note Time="0" Value="C4" Duration="4" Instrument="1. Acoustic Grand Piano"
				Note Time="8" Value="C4" Duration="4" Instrument="1. Acoustic Grand Piano"
				Note Time="16" Value="C4" Duration="4" Instrument="1. Acoustic Grand Piano"
				Note Time="24" Value="C4" Duration="4" Instrument="1. Acoustic Grand Piano"
				Note Time="32" Value="C4" Duration="4" Instrument="1. Acoustic Grand Piano"
				Note Time="40" Value="C4" Duration="4" Instrument="1. Acoustic Grand Piano"
				Note Time="48" Value="C4" Duration="4" Instrument="1. Acoustic Grand Piano"
				Note Time="56" Value="C4" Duration="2" Instrument="1. Acoustic Grand Piano"
				Note Time="58" Value="C4" Duration="2" Instrument="1. Acoustic Grand Piano"
				Note Time="60" Value="C4" Duration="2" Instrument="1. Acoustic Grand Piano"
				Note Time="62" Value="C4" Duration="2" Instrument="1. Acoustic Grand Piano"
			Pattern Name="02" Color="ffa83c"
				Note Time="0" Value="C4" Duration="4" Instrument="1. Acoustic Grand Piano"
				Note Time="8" Value="C4" Duration="4" Instrument="1. Acoustic Grand Piano"
				Note Time="16" Value="C4" Duration="4" Instrument="1. Acoustic Grand Piano"
				Note Time="24" Value="C4" Duration="4" Instrument="1. Acoustic Grand Piano"
				Note Time="32" Value="C4" Duration="4" Instrument="1. Acoustic Grand Piano"
				Note Time="40" Value="C4" Duration="4" Instrument="1. Acoustic Grand Piano"
				Note Time="56" Value="C4" Duration="4" Instrument="1. Acoustic Grand Piano"
			Pattern Name="03" Color="ffcb3c"
				Note Time="0" Value="C4" Duration="4" Instrument="1. Acoustic Grand Piano"
				Note Time="8" Value="C4" Duration="4" Instrument="1. Acoustic Grand Piano"
				Note Time="16" Value="C4" Duration="4" Instrument="1. Acoustic Grand Piano"
				Note Time="24" Value="C4" Duration="4" Instrument="1. Acoustic Grand Piano"
				Note Time="32" Value="C4" Duration="4" Instrument="1. Acoustic Grand Piano"
				Note Time="40" Value="C4" Duration="4" Instrument="1. Acoustic Grand Piano"
				Note Time="48" Value="C4" Duration="4" Instrument="1. Acoustic Grand Piano"
				Note Time="52" Value="C4" Duration="4" Instrument="1. Acoustic Grand Piano"
				Note Time="56" Value="C4" Duration="4" Instrument="1. Acoustic Grand Piano"
			PatternInstance Time="0" Pattern="00"
			PatternInstance Time="1" Pattern="01"
			PatternInstance Time="2" Pattern="02"
			PatternInstance Time="3" Pattern="00"
			PatternInstance Time="4" Pattern="00"
			PatternInstance Time="5" Pattern="01"
			PatternInstance Time="6" Pattern="02"
			PatternInstance Time="7" Pattern="00"
			PatternInstance Time="8" Pattern="00"
			PatternInstance Time="9" Pattern="01"
			PatternInstance Time="10" Pattern="02"
			PatternInstance Time="11" Pattern="00"
			PatternInstance Time="12" Pattern="00"
			PatternInstance Time="13" Pattern="01"
			PatternInstance Time="16" Pattern="03"
			PatternInstance Time="17" Pattern="03"
			PatternInstance Time="18" Pattern="03"
			PatternInstance Time="19" Pattern="03"
			PatternInstance Time="20" Pattern="03"
			PatternInstance Time="21" Pattern="03"
			PatternInstance Time="22" Pattern="03"
			PatternInstance Time="23" Pattern="03"
			PatternInstance Time="24" Pattern="03"
			PatternInstance Time="25" Pattern="03"
			PatternInstance Time="26" Pattern="03"
			PatternInstance Time="27" Pattern="03"
			PatternInstance Time="28" Pattern="03"
			PatternInstance Time="29" Pattern="03"
			PatternInstance Time="30" Pattern="03"
			PatternInstance Time="31" Pattern="03"
			PatternInstance Time="32" Pattern="03"
			PatternInstance Time="33" Pattern="03"
			PatternInstance Time="34" Pattern="03"
			PatternInstance Time="35" Pattern="03"
			PatternInstance Time="36" Pattern="03"
			PatternInstance Time="37" Pattern="03"
			PatternInstance Time="38" Pattern="03"
			PatternInstance Time="39" Pattern="03"
			PatternInstance Time="40" Pattern="03"
			PatternInstance Time="41" Pattern="03"
			PatternInstance Time="42" Pattern="03"
			PatternInstance Time="43" Pattern="03"
			PatternInstance Time="44" Pattern="03"
			PatternInstance Time="45" Pattern="03"
			PatternInstance Time="46" Pattern="03"
			PatternInstance Time="48" Pattern="03"
			PatternInstance Time="49" Pattern="03"
			PatternInstance Time="50" Pattern="03"
			PatternInstance Time="51" Pattern="03"
			PatternInstance Time="52" Pattern="03"
			PatternInstance Time="53" Pattern="03"
			PatternInstance Time="54" Pattern="03"
			PatternInstance Time="55" Pattern="03"
			PatternInstance Time="56" Pattern="03"
			PatternInstance Time="57" Pattern="03"
			PatternInstance Time="58" Pattern="03"
			PatternInstance Time="59" Pattern="03"
			PatternInstance Time="60" Pattern="03"
			PatternInstance Time="61" Pattern="03"
			PatternInstance Time="62" Pattern="03"
			PatternInstance Time="64" Pattern="03"
			PatternInstance Time="65" Pattern="03"
			PatternInstance Time="66" Pattern="03"
			PatternInstance Time="67" Pattern="03"
			PatternInstance Time="68" Pattern="03"
			PatternInstance Time="69" Pattern="03"
			PatternInstance Time="70" Pattern="03"
			PatternInstance Time="71" Pattern="03"
			PatternInstance Time="72" Pattern="03"
			PatternInstance Time="73" Pattern="03"
			PatternInstance Time="74" Pattern="03"
			PatternInstance Time="75" Pattern="03"
			PatternInstance Time="76" Pattern="03"
			PatternInstance Time="77" Pattern="03"
			PatternInstance Time="78" Pattern="03"
		Channel Type="EPSMRythm6"
			Pattern Name="00" Color="ff6464"
				Note Time="0" Value="C4" Duration="4" Instrument="1. Acoustic Grand Piano"
				Note Time="16" Value="C4" Duration="4" Instrument="1. Acoustic Grand Piano"
				Note Time="32" Value="C4" Duration="4" Instrument="1. Acoustic Grand Piano"
				Note Time="48" Value="C4" Duration="4" Instrument="1. Acoustic Grand Piano"
			PatternInstance Time="16" Pattern="00"
			PatternInstance Time="17" Pattern="00"
			PatternInstance Time="18" Pattern="00"
			PatternInstance Time="19" Pattern="00"
			PatternInstance Time="20" Pattern="00"
			PatternInstance Time="21" Pattern="00"
			PatternInstance Time="22" Pattern="00"
			PatternInstance Time="23" Pattern="00"
			PatternInstance Time="24" Pattern="00"
			PatternInstance Time="25" Pattern="00"
			PatternInstance Time="26" Pattern="00"
			PatternInstance Time="27" Pattern="00"
			PatternInstance Time="28" Pattern="00"
			PatternInstance Time="29" Pattern="00"
			PatternInstance Time="30" Pattern="00"
			PatternInstance Time="31" Pattern="00"
			PatternInstance Time="32" Pattern="00"
			PatternInstance Time="33" Pattern="00"
			PatternInstance Time="34" Pattern="00"
			PatternInstance Time="35" Pattern="00"
			PatternInstance Time="36" Pattern="00"
			PatternInstance Time="37" Pattern="00"
			PatternInstance Time="38" Pattern="00"
			PatternInstance Time="39" Pattern="00"
			PatternInstance Time="40" Pattern="00"
			PatternInstance Time="41" Pattern="00"
			PatternInstance Time="42" Pattern="00"
			PatternInstance Time="43" Pattern="00"
			PatternInstance Time="44" Pattern="00"
			PatternInstance Time="45" Pattern="00"
			PatternInstance Time="46" Pattern="00"
			PatternInstance Time="48" Pattern="00"
			PatternInstance Time="49" Pattern="00"
			PatternInstance Time="50" Pattern="00"
			PatternInstance Time="51" Pattern="00"
			PatternInstance Time="52" Pattern="00"
			PatternInstance Time="53" Pattern="00"
			PatternInstance Time="54" Pattern="00"
			PatternInstance Time="55" Pattern="00"
			PatternInstance Time="56" Pattern="00"
			PatternInstance Time="57" Pattern="00"
			PatternInstance Time="58" Pattern="00"
			PatternInstance Time="59" Pattern="00"
			PatternInstance Time="60" Pattern="00"
			PatternInstance Time="61" Pattern="00"
			PatternInstance Time="62" Pattern="00"
			PatternInstance Time="64" Pattern="00"
			PatternInstance Time="65" Pattern="00"
			PatternInstance Time="66" Pattern="00"
			PatternInstance Time="67" Pattern="00"
			PatternInstance Time="68" Pattern="00"
			PatternInstance Time="69" Pattern="00"
			PatternInstance Time="70" Pattern="00"
			PatternInstance Time="71" Pattern="00"
			PatternInstance Time="72" Pattern="00"
			PatternInstance Time="73" Pattern="00"
			PatternInstance Time="74" Pattern="00"
			PatternInstance Time="75" Pattern="00"
			PatternInstance Time="76" Pattern="00"
			PatternInstance Time="77" Pattern="00"
			PatternInstance Time="78" Pattern="00"
	Song Name="41. Dialtone" Color="3ce8fd" Folder="Deltarune: Chapter 2" Length="32" LoopPoint="0" PatternLength="12" BeatLength="4" NoteLength="6" Groove="7-7-7-7-7-7-7-6" GroovePaddingMode="Middle"
		Channel Type="Square1"
		Channel Type="Square2"
		Channel Type="Triangle"
		Channel Type="Noise"
		Channel Type="DPCM"
		Channel Type="EPSMSquare1"
		Channel Type="EPSMSquare2"
		Channel Type="EPSMSquare3"
		Channel Type="EPSMFM1"
			Pattern Name="00" Color="ff6464"
				Note Time="0" Value="B4" Duration="576" Release="12" Instrument="4. Honky-tonk Piano"
			Pattern Name="01" Color="ff7f51"
				Note Time="12" Value="B4" Duration="564" Instrument="4. Honky-tonk Piano"
				Note Time="24" Value="A4" Duration="564" Instrument="4. Honky-tonk Piano"
				Note Time="36" Value="G4" Duration="564" Instrument="4. Honky-tonk Piano"
				Note Time="48" Value="F#4" Duration="564" Instrument="4. Honky-tonk Piano"
				Note Time="60" Value="E4" Duration="564" Instrument="4. Honky-tonk Piano"
			Pattern Name="02" Color="ffa83c"
				Note Time="0" Value="D#4" Duration="576" Release="12" Instrument="4. Honky-tonk Piano"
			Pattern Name="03" Color="ffcb3c"
				Note Time="12" Value="D#4" Duration="564" Instrument="4. Honky-tonk Piano"
				Note Time="24" Value="E4" Duration="564" Instrument="4. Honky-tonk Piano"
				Note Time="36" Value="D#4" Duration="564" Instrument="4. Honky-tonk Piano"
				Note Time="48" Value="C#4" Duration="564" Instrument="4. Honky-tonk Piano"
				Note Time="60" Value="F#4" Duration="564" Instrument="4. Honky-tonk Piano"
			Pattern Name="04" Color="ffe461"
				Note Time="12" Value="B4" Duration="564" Instrument="4. Honky-tonk Piano"
				Note Time="24" Value="A#4" Duration="564" Instrument="4. Honky-tonk Piano"
				Note Time="36" Value="B4" Duration="564" Instrument="4. Honky-tonk Piano"
				Note Time="48" Value="F#5" Duration="564" Instrument="4. Honky-tonk Piano"
				Note Time="60" Value="B4" Duration="564" Instrument="4. Honky-tonk Piano"
			Pattern Name="05" Color="dad960"
				Note Time="60" Value="C#5" Duration="558" Instrument="4. Honky-tonk Piano"
				Note Time="66" Value="B4" Duration="558" Instrument="4. Honky-tonk Piano"
			Pattern Name="06" Color="91c76b"
				Note Time="0" Value="A#4" Duration="564" Release="6" Instrument="4. Honky-tonk Piano"
				Note Time="48" Value="C#5" Duration="564" Instrument="4. Honky-tonk Piano"
				Note Time="60" Value="B4" Duration="564" Instrument="4. Honky-tonk Piano"
			Pattern Name="07" Color="6ab96e"
				Note Time="0" Value="A#4" Duration="588" Instrument="4. Honky-tonk Piano"
				Note Time="36" Value="B4" Duration="564" Instrument="4. Honky-tonk Piano"
				Note Time="48" Value="C#5" Duration="564" Instrument="4. Honky-tonk Piano"
				Note Time="60" Value="A#4" Duration="564" Instrument="4. Honky-tonk Piano"
			PatternInstance Time="0" Pattern="00"
			PatternInstance Time="3" Pattern="01"
			PatternInstance Time="4" Pattern="02"
			PatternInstance Time="7" Pattern="03"
			PatternInstance Time="8" Pattern="00"
			PatternInstance Time="11" Pattern="04"
			PatternInstance Time="12" Pattern="00"
			PatternInstance Time="13" Pattern="05"
			PatternInstance Time="14" Pattern="06"
			PatternInstance Time="15" Pattern="07"
			PatternInstance Time="16" Pattern="00"
			PatternInstance Time="19" Pattern="01"
			PatternInstance Time="20" Pattern="02"
			PatternInstance Time="23" Pattern="03"
			PatternInstance Time="24" Pattern="00"
			PatternInstance Time="27" Pattern="04"
			PatternInstance Time="28" Pattern="00"
			PatternInstance Time="29" Pattern="05"
			PatternInstance Time="30" Pattern="06"
			PatternInstance Time="31" Pattern="07"
		Channel Type="EPSMFM2"
			Pattern Name="00" Color="ff6464"
				Note Time="0" Value="B4" Duration="288" Instrument="50. String Ensembles 2"
			Pattern Name="01" Color="ff7f51"
				Note Time="0" Value="A#4" Duration="288" Instrument="50. String Ensembles 2"
			PatternInstance Time="16" Pattern="00"
			PatternInstance Time="20" Pattern="01"
			PatternInstance Time="24" Pattern="00"
			PatternInstance Time="28" Pattern="01"
		Channel Type="EPSMFM3"
			Pattern Name="00" Color="ff6464"
				Note Time="24" Value="F#3" Duration="846" Release="6" Instrument="4. Honky-tonk Piano"
				Note Time="48" Value="F#3" Duration="846" Release="6" Instrument="4. Honky-tonk Piano"
			Pattern Name="01" Color="ff7f51"
				Note Time="0" Value="B2" Duration="846" Release="6" Instrument="4. Honky-tonk Piano"
				Note Time="24" Value="A#3" Duration="846" Release="6" Instrument="4. Honky-tonk Piano"
				Note Time="48" Value="A#3" Duration="846" Release="6" Instrument="4. Honky-tonk Piano"
			PatternInstance Time="0" Pattern="00"
			PatternInstance Time="1" Pattern="00"
			PatternInstance Time="4" Pattern="01"
			PatternInstance Time="5" Pattern="01"
			PatternInstance Time="8" Pattern="00"
			PatternInstance Time="9" Pattern="00"
			PatternInstance Time="12" Pattern="01"
			PatternInstance Time="13" Pattern="01"
			PatternInstance Time="16" Pattern="00"
			PatternInstance Time="17" Pattern="00"
			PatternInstance Time="20" Pattern="01"
			PatternInstance Time="21" Pattern="01"
			PatternInstance Time="24" Pattern="00"
			PatternInstance Time="25" Pattern="00"
			PatternInstance Time="28" Pattern="01"
			PatternInstance Time="29" Pattern="01"
		Channel Type="EPSMFM4"
			Pattern Name="00" Color="ff6464"
				Note Time="0" Value="G2" Duration="474" Release="6" Instrument="4. Honky-tonk Piano"
				Note Time="24" Value="B2" Duration="474" Release="6" Instrument="4. Honky-tonk Piano"
				Note Time="48" Value="B2" Duration="474" Release="6" Instrument="4. Honky-tonk Piano"
			Pattern Name="01" Color="ff7f51"
				Note Time="0" Value="G2" Duration="474" Release="6" Instrument="4. Honky-tonk Piano"
			Pattern Name="02" Color="ffa83c"
				Note Time="24" Value="D#3" Duration="474" Release="6" Instrument="4. Honky-tonk Piano"
				Note Time="48" Value="D#3" Duration="474" Release="6" Instrument="4. Honky-tonk Piano"
			Pattern Name="03" Color="ffcb3c"
				Note Time="0" Value="B2" Duration="474" Release="6" Instrument="4. Honky-tonk Piano"
			PatternInstance Time="0" Pattern="00"
			PatternInstance Time="1" Pattern="00"
			PatternInstance Time="2" Pattern="01"
			PatternInstance Time="4" Pattern="02"
			PatternInstance Time="5" Pattern="02"
			PatternInstance Time="6" Pattern="03"
			PatternInstance Time="8" Pattern="00"
			PatternInstance Time="9" Pattern="00"
			PatternInstance Time="10" Pattern="01"
			PatternInstance Time="12" Pattern="02"
			PatternInstance Time="13" Pattern="02"
			PatternInstance Time="14" Pattern="03"
			PatternInstance Time="16" Pattern="00"
			PatternInstance Time="17" Pattern="00"
			PatternInstance Time="18" Pattern="01"
			PatternInstance Time="20" Pattern="02"
			PatternInstance Time="21" Pattern="02"
			PatternInstance Time="22" Pattern="03"
			PatternInstance Time="24" Pattern="00"
			PatternInstance Time="25" Pattern="00"
			PatternInstance Time="26" Pattern="01"
			PatternInstance Time="28" Pattern="02"
			PatternInstance Time="29" Pattern="02"
			PatternInstance Time="30" Pattern="03"
		Channel Type="EPSMFM5"
			Pattern Name="00" Color="ff6464"
				Note Time="24" Value="C1" Duration="48" Instrument="125. Telephone Ring"
			PatternInstance Time="18" Pattern="00"
			PatternInstance Time="22" Pattern="00"
			PatternInstance Time="26" Pattern="00"
		Channel Type="EPSMFM6"
		Channel Type="EPSMRythm1"
		Channel Type="EPSMRythm2"
		Channel Type="EPSMRythm3"
		Channel Type="EPSMRythm4"
		Channel Type="EPSMRythm5"
		Channel Type="EPSMRythm6"
	Song Name="Prelude and Fugue No. 1 in C Major, BWV 846" Color="ff6464" Folder="The Well-Tempered Clavier, Book I, BWV 846869" Length="35" LoopPoint="0" PatternLength="32" BeatLength="4" NoteLength="6" Groove="7-6-6-6" GroovePaddingMode="Middle"
		Channel Type="Square1"
		Channel Type="Square2"
		Channel Type="Triangle"
		Channel Type="Noise"
		Channel Type="DPCM"
		Channel Type="EPSMSquare1"
		Channel Type="EPSMSquare2"
		Channel Type="EPSMSquare3"
		Channel Type="EPSMFM1"
			Pattern Name="00" Color="ff6464"
				Note Time="48" Value="E5" Duration="36" Release="12" Instrument="1. Acoustic Grand Piano"
				Note Time="84" Value="E5" Duration="60" Release="12" Instrument="1. Acoustic Grand Piano"
				Note Time="144" Value="E5" Duration="36" Release="12" Instrument="1. Acoustic Grand Piano"
				Note Time="180" Value="E5" Duration="60" Release="12" Instrument="1. Acoustic Grand Piano"
			Pattern Name="01" Color="ff7f51"
				Note Time="48" Value="F5" Duration="36" Release="12" Instrument="1. Acoustic Grand Piano"
				Note Time="84" Value="F5" Duration="60" Release="12" Instrument="1. Acoustic Grand Piano"
				Note Time="144" Value="F5" Duration="36" Release="12" Instrument="1. Acoustic Grand Piano"
				Note Time="180" Value="F5" Duration="60" Release="12" Instrument="1. Acoustic Grand Piano"
			Pattern Name="03" Color="ffcb3c"
				Note Time="48" Value="A5" Duration="36" Release="12" Instrument="1. Acoustic Grand Piano"
				Note Time="84" Value="A5" Duration="60" Release="12" Instrument="1. Acoustic Grand Piano"
				Note Time="144" Value="A5" Duration="36" Release="12" Instrument="1. Acoustic Grand Piano"
				Note Time="180" Value="A5" Duration="60" Release="12" Instrument="1. Acoustic Grand Piano"
			Pattern Name="04" Color="ffe461"
				Note Time="48" Value="D5" Duration="36" Release="12" Instrument="1. Acoustic Grand Piano"
				Note Time="84" Value="D5" Duration="60" Release="12" Instrument="1. Acoustic Grand Piano"
				Note Time="144" Value="D5" Duration="36" Release="12" Instrument="1. Acoustic Grand Piano"
				Note Time="180" Value="D5" Duration="60" Release="12" Instrument="1. Acoustic Grand Piano"
			Pattern Name="05" Color="dad960"
				Note Time="48" Value="G5" Duration="36" Release="12" Instrument="1. Acoustic Grand Piano"
				Note Time="84" Value="G5" Duration="60" Release="12" Instrument="1. Acoustic Grand Piano"
				Note Time="144" Value="G5" Duration="36" Release="12" Instrument="1. Acoustic Grand Piano"
				Note Time="180" Value="G5" Duration="60" Release="12" Instrument="1. Acoustic Grand Piano"
			Pattern Name="06" Color="91c76b"
				Note Time="48" Value="C5" Duration="36" Release="12" Instrument="1. Acoustic Grand Piano"
				Note Time="84" Value="C5" Duration="60" Release="12" Instrument="1. Acoustic Grand Piano"
				Note Time="144" Value="C5" Duration="36" Release="12" Instrument="1. Acoustic Grand Piano"
				Note Time="180" Value="C5" Duration="60" Release="12" Instrument="1. Acoustic Grand Piano"
			Pattern Name="08" Color="3ca598"
				Note Time="48" Value="B4" Duration="36" Release="12" Instrument="1. Acoustic Grand Piano"
				Note Time="84" Value="B4" Duration="60" Release="12" Instrument="1. Acoustic Grand Piano"
				Note Time="144" Value="B4" Duration="36" Release="12" Instrument="1. Acoustic Grand Piano"
				Note Time="180" Value="B4" Duration="60" Release="12" Instrument="1. Acoustic Grand Piano"
			Pattern Name="09" Color="3cbfcb"
				Note Time="48" Value="C#5" Duration="36" Release="12" Instrument="1. Acoustic Grand Piano"
				Note Time="84" Value="C#5" Duration="60" Release="12" Instrument="1. Acoustic Grand Piano"
				Note Time="144" Value="C#5" Duration="36" Release="12" Instrument="1. Acoustic Grand Piano"
				Note Time="180" Value="C#5" Duration="60" Release="12" Instrument="1. Acoustic Grand Piano"
			Pattern Name="0D" Color="8163dc"
				Note Time="48" Value="F4" Duration="36" Release="12" Instrument="1. Acoustic Grand Piano"
				Note Time="84" Value="F4" Duration="60" Release="12" Instrument="1. Acoustic Grand Piano"
				Note Time="144" Value="F4" Duration="36" Release="12" Instrument="1. Acoustic Grand Piano"
				Note Time="180" Value="F4" Duration="60" Release="12" Instrument="1. Acoustic Grand Piano"
			Pattern Name="0F" Color="e95093"
				Note Time="48" Value="E4" Duration="36" Release="12" Instrument="1. Acoustic Grand Piano"
				Note Time="84" Value="E4" Duration="60" Release="12" Instrument="1. Acoustic Grand Piano"
				Note Time="144" Value="E4" Duration="36" Release="12" Instrument="1. Acoustic Grand Piano"
				Note Time="180" Value="E4" Duration="60" Release="12" Instrument="1. Acoustic Grand Piano"
			Pattern Name="12" Color="ffb83c"
				Note Time="48" Value="D#4" Duration="36" Release="12" Instrument="1. Acoustic Grand Piano"
				Note Time="84" Value="D#4" Duration="60" Release="12" Instrument="1. Acoustic Grand Piano"
				Note Time="144" Value="D#4" Duration="36" Release="12" Instrument="1. Acoustic Grand Piano"
				Note Time="180" Value="D#4" Duration="60" Release="12" Instrument="1. Acoustic Grand Piano"
			Pattern Name="13" Color="ffdc3c"
				Note Time="48" Value="D4" Duration="36" Release="12" Instrument="1. Acoustic Grand Piano"
				Note Time="84" Value="D4" Duration="60" Release="12" Instrument="1. Acoustic Grand Piano"
				Note Time="144" Value="D4" Duration="36" Release="12" Instrument="1. Acoustic Grand Piano"
				Note Time="180" Value="D4" Duration="60" Release="12" Instrument="1. Acoustic Grand Piano"
			Pattern Name="16" Color="a4db74"
				Note Time="48" Value="F#4" Duration="36" Release="12" Instrument="1. Acoustic Grand Piano"
				Note Time="84" Value="F#4" Duration="60" Release="12" Instrument="1. Acoustic Grand Piano"
				Note Time="144" Value="F#4" Duration="36" Release="12" Instrument="1. Acoustic Grand Piano"
				Note Time="180" Value="F#4" Duration="60" Release="12" Instrument="1. Acoustic Grand Piano"
			Pattern Name="17" Color="74ca78"
				Note Time="48" Value="G4" Duration="36" Release="12" Instrument="1. Acoustic Grand Piano"
				Note Time="84" Value="G4" Duration="60" Release="12" Instrument="1. Acoustic Grand Piano"
				Note Time="144" Value="G4" Duration="36" Release="12" Instrument="1. Acoustic Grand Piano"
				Note Time="180" Value="G4" Duration="60" Release="12" Instrument="1. Acoustic Grand Piano"
			Pattern Name="19" Color="3cd3e3"
				Note Time="48" Value="C4" Duration="36" Release="12" Instrument="1. Acoustic Grand Piano"
				Note Time="84" Value="A3" Duration="36" Release="12" Instrument="1. Acoustic Grand Piano"
				Note Time="120" Value="F3" Duration="36" Release="12" Instrument="1. Acoustic Grand Piano"
				Note Time="156" Value="D3" Duration="84" Release="12" Instrument="1. Acoustic Grand Piano"
			Pattern Name="1A" Color="3ec4ff"
				Note Time="48" Value="D5" Duration="36" Release="12" Instrument="1. Acoustic Grand Piano"
				Note Time="84" Value="B4" Duration="36" Release="12" Instrument="1. Acoustic Grand Piano"
				Note Time="120" Value="G4" Duration="36" Release="12" Instrument="1. Acoustic Grand Piano"
				Note Time="156" Value="F4" Duration="18" Release="12" Instrument="1. Acoustic Grand Piano"
				Note Time="174" Value="E4" Duration="18" Release="6" Instrument="1. Acoustic Grand Piano"
			Pattern Name="1B" Color="55b2ff"
				Note Time="0" Value="C5" Duration="192" Instrument="1. Acoustic Grand Piano"
			PatternInstance Time="0" Pattern="00"
			PatternInstance Time="1" Pattern="01"
			PatternInstance Time="2" Pattern="01"
			PatternInstance Time="3" Pattern="00"
			PatternInstance Time="4" Pattern="03"
			PatternInstance Time="5" Pattern="04"
			PatternInstance Time="6" Pattern="05"
			PatternInstance Time="7" Pattern="06"
			PatternInstance Time="8" Pattern="06"
			PatternInstance Time="9" Pattern="06"
			PatternInstance Time="10" Pattern="08"
			PatternInstance Time="11" Pattern="09"
			PatternInstance Time="12" Pattern="04"
			PatternInstance Time="13" Pattern="08"
			PatternInstance Time="14" Pattern="06"
			PatternInstance Time="15" Pattern="0D"
			PatternInstance Time="16" Pattern="0D"
			PatternInstance Time="17" Pattern="0D"
			PatternInstance Time="18" Pattern="0F"
			PatternInstance Time="19" Pattern="0F"
			PatternInstance Time="20" Pattern="0F"
			PatternInstance Time="21" Pattern="12"
			PatternInstance Time="22" Pattern="13"
			PatternInstance Time="23" Pattern="13"
			PatternInstance Time="24" Pattern="0F"
			PatternInstance Time="25" Pattern="0D"
			PatternInstance Time="26" Pattern="0D"
			PatternInstance Time="27" Pattern="16"
			PatternInstance Time="28" Pattern="17"
			PatternInstance Time="29" Pattern="0D"
			PatternInstance Time="30" Pattern="0D"
			PatternInstance Time="31" Pattern="0F"
			PatternInstance Time="32" Pattern="19"
			PatternInstance Time="33" Pattern="1A"
			PatternInstance Time="34" Pattern="1B"
		Channel Type="EPSMFM2"
			Pattern Name="00" Color="ff6464"
				Note Time="36" Value="C5" Duration="36" Release="12" Instrument="1. Acoustic Grand Piano"
				Note Time="72" Value="C5" Duration="60" Release="12" Instrument="1. Acoustic Grand Piano"
				Note Time="132" Value="C5" Duration="36" Release="12" Instrument="1. Acoustic Grand Piano"
				Note Time="168" Value="C5" Duration="60" Release="12" Instrument="1. Acoustic Grand Piano"
			Pattern Name="01" Color="ff7f51"
				Note Time="36" Value="D5" Duration="36" Release="12" Instrument="1. Acoustic Grand Piano"
				Note Time="72" Value="D5" Duration="60" Release="12" Instrument="1. Acoustic Grand Piano"
				Note Time="132" Value="D5" Duration="36" Release="12" Instrument="1. Acoustic Grand Piano"
				Note Time="168" Value="D5" Duration="60" Release="12" Instrument="1. Acoustic Grand Piano"
			Pattern Name="03" Color="ffcb3c"
				Note Time="36" Value="E5" Duration="36" Release="12" Instrument="1. Acoustic Grand Piano"
				Note Time="72" Value="E5" Duration="60" Release="12" Instrument="1. Acoustic Grand Piano"
				Note Time="132" Value="E5" Duration="36" Release="12" Instrument="1. Acoustic Grand Piano"
				Note Time="168" Value="E5" Duration="60" Release="12" Instrument="1. Acoustic Grand Piano"
			Pattern Name="04" Color="ffe461"
				Note Time="36" Value="A4" Duration="36" Release="12" Instrument="1. Acoustic Grand Piano"
				Note Time="72" Value="A4" Duration="60" Release="12" Instrument="1. Acoustic Grand Piano"
				Note Time="132" Value="A4" Duration="36" Release="12" Instrument="1. Acoustic Grand Piano"
				Note Time="168" Value="A4" Duration="60" Release="12" Instrument="1. Acoustic Grand Piano"
			Pattern Name="06" Color="91c76b"
				Note Time="36" Value="G4" Duration="36" Release="12" Instrument="1. Acoustic Grand Piano"
				Note Time="72" Value="G4" Duration="60" Release="12" Instrument="1. Acoustic Grand Piano"
				Note Time="132" Value="G4" Duration="36" Release="12" Instrument="1. Acoustic Grand Piano"
				Note Time="168" Value="G4" Duration="60" Release="12" Instrument="1. Acoustic Grand Piano"
			Pattern Name="07" Color="6ab96e"
				Note Time="36" Value="F#4" Duration="36" Release="12" Instrument="1. Acoustic Grand Piano"
				Note Time="72" Value="F#4" Duration="60" Release="12" Instrument="1. Acoustic Grand Piano"
				Note Time="132" Value="F#4" Duration="36" Release="12" Instrument="1. Acoustic Grand Piano"
				Note Time="168" Value="F#4" Duration="60" Release="12" Instrument="1. Acoustic Grand Piano"
			Pattern Name="0B" Color="51a1fc"
				Note Time="36" Value="F4" Duration="36" Release="12" Instrument="1. Acoustic Grand Piano"
				Note Time="72" Value="F4" Duration="60" Release="12" Instrument="1. Acoustic Grand Piano"
				Note Time="132" Value="F4" Duration="36" Release="12" Instrument="1. Acoustic Grand Piano"
				Note Time="168" Value="F4" Duration="60" Release="12" Instrument="1. Acoustic Grand Piano"
			Pattern Name="0D" Color="8163dc"
				Note Time="36" Value="C4" Duration="36" Release="12" Instrument="1. Acoustic Grand Piano"
				Note Time="72" Value="C4" Duration="60" Release="12" Instrument="1. Acoustic Grand Piano"
				Note Time="132" Value="C4" Duration="36" Release="12" Instrument="1. Acoustic Grand Piano"
				Note Time="168" Value="C4" Duration="60" Release="12" Instrument="1. Acoustic Grand Piano"
			Pattern Name="0E" Color="a657d6"
				Note Time="36" Value="B3" Duration="36" Release="12" Instrument="1. Acoustic Grand Piano"
				Note Time="72" Value="B3" Duration="60" Release="12" Instrument="1. Acoustic Grand Piano"
				Note Time="132" Value="B3" Duration="36" Release="12" Instrument="1. Acoustic Grand Piano"
				Note Time="168" Value="B3" Duration="60" Release="12" Instrument="1. Acoustic Grand Piano"
			Pattern Name="18" Color="3cb5a7"
				Note Time="36" Value="A#3" Duration="36" Release="12" Instrument="1. Acoustic Grand Piano"
				Note Time="72" Value="A#3" Duration="60" Release="12" Instrument="1. Acoustic Grand Piano"
				Note Time="132" Value="A#3" Duration="36" Release="12" Instrument="1. Acoustic Grand Piano"
				Note Time="168" Value="A#3" Duration="60" Release="12" Instrument="1. Acoustic Grand Piano"
			Pattern Name="19" Color="3cd3e3"
				Note Time="36" Value="A3" Duration="36" Release="12" Instrument="1. Acoustic Grand Piano"
				Note Time="72" Value="C4" Duration="36" Release="12" Instrument="1. Acoustic Grand Piano"
				Note Time="108" Value="A3" Duration="36" Release="12" Instrument="1. Acoustic Grand Piano"
				Note Time="144" Value="F3" Duration="36" Release="12" Instrument="1. Acoustic Grand Piano"
				Note Time="180" Value="D3" Duration="48" Release="12" Instrument="1. Acoustic Grand Piano"
			Pattern Name="1A" Color="3ec4ff"
				Note Time="36" Value="B4" Duration="36" Release="12" Instrument="1. Acoustic Grand Piano"
				Note Time="72" Value="D5" Duration="36" Release="12" Instrument="1. Acoustic Grand Piano"
				Note Time="108" Value="B4" Duration="36" Release="12" Instrument="1. Acoustic Grand Piano"
				Note Time="144" Value="D4" Duration="27" Release="12" Instrument="1. Acoustic Grand Piano"
				Note Time="171" Value="F4" Duration="21" Release="3" Instrument="1. Acoustic Grand Piano"
			Pattern Name="1B" Color="55b2ff"
				Note Time="0" Value="G4" Duration="192" Instrument="1. Acoustic Grand Piano"
			PatternInstance Time="0" Pattern="00"
			PatternInstance Time="1" Pattern="01"
			PatternInstance Time="2" Pattern="01"
			PatternInstance Time="3" Pattern="00"
			PatternInstance Time="4" Pattern="03"
			PatternInstance Time="5" Pattern="04"
			PatternInstance Time="6" Pattern="01"
			PatternInstance Time="7" Pattern="06"
			PatternInstance Time="8" Pattern="06"
			PatternInstance Time="9" Pattern="07"
			PatternInstance Time="10" Pattern="06"
			PatternInstance Time="11" Pattern="06"
			PatternInstance Time="12" Pattern="04"
			PatternInstance Time="13" Pattern="0B"
			PatternInstance Time="14" Pattern="06"
			PatternInstance Time="15" Pattern="0D"
			PatternInstance Time="16" Pattern="0D"
			PatternInstance Time="17" Pattern="0E"
			PatternInstance Time="18" Pattern="0D"
			PatternInstance Time="19" Pattern="0D"
			PatternInstance Time="20" Pattern="0D"
			PatternInstance Time="21" Pattern="0D"
			PatternInstance Time="22" Pattern="0D"
			PatternInstance Time="23" Pattern="0E"
			PatternInstance Time="24" Pattern="0D"
			PatternInstance Time="25" Pattern="0D"
			PatternInstance Time="26" Pattern="0E"
			PatternInstance Time="27" Pattern="0D"
			PatternInstance Time="28" Pattern="0D"
			PatternInstance Time="29" Pattern="0D"
			PatternInstance Time="30" Pattern="0E"
			PatternInstance Time="31" Pattern="18"
			PatternInstance Time="32" Pattern="19"
			PatternInstance Time="33" Pattern="1A"
			PatternInstance Time="34" Pattern="1B"
		Channel Type="EPSMFM3"
			Pattern Name="00" Color="ff6464"
				Note Time="24" Value="G4" Duration="36" Release="12" Instrument="1. Acoustic Grand Piano"
				Note Time="60" Value="G4" Duration="60" Release="12" Instrument="1. Acoustic Grand Piano"
				Note Time="120" Value="G4" Duration="36" Release="12" Instrument="1. Acoustic Grand Piano"
				Note Time="156" Value="G4" Duration="60" Release="12" Instrument="1. Acoustic Grand Piano"
			Pattern Name="01" Color="ff7f51"
				Note Time="24" Value="A4" Duration="36" Release="12" Instrument="1. Acoustic Grand Piano"
				Note Time="60" Value="A4" Duration="60" Release="12" Instrument="1. Acoustic Grand Piano"
				Note Time="120" Value="A4" Duration="36" Release="12" Instrument="1. Acoustic Grand Piano"
				Note Time="156" Value="A4" Duration="60" Release="12" Instrument="1. Acoustic Grand Piano"
			Pattern Name="04" Color="ffe461"
				Note Time="24" Value="F#4" Duration="36" Release="12" Instrument="1. Acoustic Grand Piano"
				Note Time="60" Value="F#4" Duration="60" Release="12" Instrument="1. Acoustic Grand Piano"
				Note Time="120" Value="F#4" Duration="36" Release="12" Instrument="1. Acoustic Grand Piano"
				Note Time="156" Value="F#4" Duration="60" Release="12" Instrument="1. Acoustic Grand Piano"
			Pattern Name="06" Color="91c76b"
				Note Time="24" Value="E4" Duration="36" Release="12" Instrument="1. Acoustic Grand Piano"
				Note Time="60" Value="E4" Duration="60" Release="12" Instrument="1. Acoustic Grand Piano"
				Note Time="120" Value="E4" Duration="36" Release="12" Instrument="1. Acoustic Grand Piano"
				Note Time="156" Value="E4" Duration="60" Release="12" Instrument="1. Acoustic Grand Piano"
			Pattern Name="07" Color="6ab96e"
				Note Time="24" Value="D4" Duration="36" Release="12" Instrument="1. Acoustic Grand Piano"
				Note Time="60" Value="D4" Duration="60" Release="12" Instrument="1. Acoustic Grand Piano"
				Note Time="120" Value="D4" Duration="36" Release="12" Instrument="1. Acoustic Grand Piano"
				Note Time="156" Value="D4" Duration="60" Release="12" Instrument="1. Acoustic Grand Piano"
			Pattern Name="0C" Color="6471cf"
				Note Time="24" Value="C4" Duration="36" Release="12" Instrument="1. Acoustic Grand Piano"
				Note Time="60" Value="C4" Duration="60" Release="12" Instrument="1. Acoustic Grand Piano"
				Note Time="120" Value="C4" Duration="36" Release="12" Instrument="1. Acoustic Grand Piano"
				Note Time="156" Value="C4" Duration="60" Release="12" Instrument="1. Acoustic Grand Piano"
			Pattern Name="0D" Color="8163dc"
				Note Time="24" Value="A3" Duration="36" Release="12" Instrument="1. Acoustic Grand Piano"
				Note Time="60" Value="A3" Duration="60" Release="12" Instrument="1. Acoustic Grand Piano"
				Note Time="120" Value="A3" Duration="36" Release="12" Instrument="1. Acoustic Grand Piano"
				Note Time="156" Value="A3" Duration="60" Release="12" Instrument="1. Acoustic Grand Piano"
			Pattern Name="0E" Color="a657d6"
				Note Time="24" Value="G3" Duration="36" Release="12" Instrument="1. Acoustic Grand Piano"
				Note Time="60" Value="G3" Duration="60" Release="12" Instrument="1. Acoustic Grand Piano"
				Note Time="120" Value="G3" Duration="36" Release="12" Instrument="1. Acoustic Grand Piano"
				Note Time="156" Value="G3" Duration="60" Release="12" Instrument="1. Acoustic Grand Piano"
			Pattern Name="10" Color="ff6b6b"
				Note Time="24" Value="A#3" Duration="36" Release="12" Instrument="1. Acoustic Grand Piano"
				Note Time="60" Value="A#3" Duration="60" Release="12" Instrument="1. Acoustic Grand Piano"
				Note Time="120" Value="A#3" Duration="36" Release="12" Instrument="1. Acoustic Grand Piano"
				Note Time="156" Value="A#3" Duration="60" Release="12" Instrument="1. Acoustic Grand Piano"
			Pattern Name="13" Color="ffdc3c"
				Note Time="24" Value="B3" Duration="36" Release="12" Instrument="1. Acoustic Grand Piano"
				Note Time="60" Value="B3" Duration="60" Release="12" Instrument="1. Acoustic Grand Piano"
				Note Time="120" Value="B3" Duration="36" Release="12" Instrument="1. Acoustic Grand Piano"
				Note Time="156" Value="B3" Duration="60" Release="12" Instrument="1. Acoustic Grand Piano"
			Pattern Name="19" Color="3cd3e3"
				Note Time="24" Value="F3" Duration="36" Release="12" Instrument="1. Acoustic Grand Piano"
				Note Time="60" Value="F4" Duration="36" Release="12" Instrument="1. Acoustic Grand Piano"
				Note Time="96" Value="C4" Duration="36" Release="12" Instrument="1. Acoustic Grand Piano"
				Note Time="132" Value="A3" Duration="36" Release="12" Instrument="1. Acoustic Grand Piano"
				Note Time="168" Value="F3" Duration="48" Release="12" Instrument="1. Acoustic Grand Piano"
			Pattern Name="1A" Color="3ec4ff"
				Note Time="24" Value="G4" Duration="36" Release="12" Instrument="1. Acoustic Grand Piano"
				Note Time="60" Value="F5" Duration="36" Release="12" Instrument="1. Acoustic Grand Piano"
				Note Time="96" Value="D5" Duration="36" Release="12" Instrument="1. Acoustic Grand Piano"
				Note Time="132" Value="B4" Duration="36" Release="12" Instrument="1. Acoustic Grand Piano"
				Note Time="168" Value="E4" Duration="12" Release="3" Instrument="1. Acoustic Grand Piano"
				Note Time="180" Value="D4" Duration="12" Instrument="1. Acoustic Grand Piano"
			Pattern Name="1B" Color="55b2ff"
				Note Time="0" Value="E4" Duration="192" Instrument="1. Acoustic Grand Piano"
			PatternInstance Time="0" Pattern="00"
			PatternInstance Time="1" Pattern="01"
			PatternInstance Time="2" Pattern="00"
			PatternInstance Time="3" Pattern="00"
			PatternInstance Time="4" Pattern="01"
			PatternInstance Time="5" Pattern="04"
			PatternInstance Time="6" Pattern="00"
			PatternInstance Time="7" Pattern="06"
			PatternInstance Time="8" Pattern="06"
			PatternInstance Time="9" Pattern="07"
			PatternInstance Time="10" Pattern="07"
			PatternInstance Time="11" Pattern="06"
			PatternInstance Time="12" Pattern="07"
			PatternInstance Time="13" Pattern="07"
			PatternInstance Time="14" Pattern="0C"
			PatternInstance Time="15" Pattern="0D"
			PatternInstance Time="16" Pattern="0D"
			PatternInstance Time="17" Pattern="0E"
			PatternInstance Time="18" Pattern="0E"
			PatternInstance Time="19" Pattern="10"
			PatternInstance Time="20" Pattern="0D"
			PatternInstance Time="21" Pattern="0D"
			PatternInstance Time="22" Pattern="13"
			PatternInstance Time="23" Pattern="0E"
			PatternInstance Time="24" Pattern="0E"
			PatternInstance Time="25" Pattern="0E"
			PatternInstance Time="26" Pattern="0E"
			PatternInstance Time="27" Pattern="0D"
			PatternInstance Time="28" Pattern="0E"
			PatternInstance Time="29" Pattern="0E"
			PatternInstance Time="30" Pattern="0E"
			PatternInstance Time="31" Pattern="0E"
			PatternInstance Time="32" Pattern="19"
			PatternInstance Time="33" Pattern="1A"
			PatternInstance Time="34" Pattern="1B"
		Channel Type="EPSMFM4"
			Pattern Name="00" Color="ff6464"
				Note Time="12" Value="E4" Duration="96" Release="84" Instrument="1. Acoustic Grand Piano"
				Note Time="108" Value="E4" Duration="96" Release="84" Instrument="1. Acoustic Grand Piano"
			Pattern Name="01" Color="ff7f51"
				Note Time="12" Value="D4" Duration="96" Release="84" Instrument="1. Acoustic Grand Piano"
				Note Time="108" Value="D4" Duration="96" Release="84" Instrument="1. Acoustic Grand Piano"
			Pattern Name="02" Color="ffa83c"
				Note Time="12" Value="C4" Duration="96" Release="84" Instrument="1. Acoustic Grand Piano"
				Note Time="108" Value="C4" Duration="96" Release="84" Instrument="1. Acoustic Grand Piano"
			Pattern Name="03" Color="ffcb3c"
				Note Time="12" Value="A3" Duration="96" Release="84" Instrument="1. Acoustic Grand Piano"
				Note Time="108" Value="A3" Duration="96" Release="84" Instrument="1. Acoustic Grand Piano"
			Pattern Name="04" Color="ffe461"
				Note Time="12" Value="B3" Duration="96" Release="84" Instrument="1. Acoustic Grand Piano"
				Note Time="108" Value="B3" Duration="96" Release="84" Instrument="1. Acoustic Grand Piano"
			Pattern Name="05" Color="dad960"
				Note Time="12" Value="A#3" Duration="96" Release="84" Instrument="1. Acoustic Grand Piano"
				Note Time="108" Value="A#3" Duration="96" Release="84" Instrument="1. Acoustic Grand Piano"
			Pattern Name="06" Color="91c76b"
				Note Time="12" Value="G#3" Duration="96" Release="84" Instrument="1. Acoustic Grand Piano"
				Note Time="108" Value="G#3" Duration="96" Release="84" Instrument="1. Acoustic Grand Piano"
			Pattern Name="07" Color="6ab96e"
				Note Time="12" Value="G3" Duration="96" Release="84" Instrument="1. Acoustic Grand Piano"
				Note Time="108" Value="G3" Duration="96" Release="84" Instrument="1. Acoustic Grand Piano"
			Pattern Name="08" Color="3ca598"
				Note Time="12" Value="F3" Duration="96" Release="84" Instrument="1. Acoustic Grand Piano"
				Note Time="108" Value="F3" Duration="96" Release="84" Instrument="1. Acoustic Grand Piano"
			Pattern Name="09" Color="3cbfcb"
				Note Time="12" Value="D3" Duration="96" Release="84" Instrument="1. Acoustic Grand Piano"
				Note Time="108" Value="D3" Duration="96" Release="84" Instrument="1. Acoustic Grand Piano"
			Pattern Name="0A" Color="3eb3f9"
				Note Time="12" Value="E3" Duration="96" Release="84" Instrument="1. Acoustic Grand Piano"
				Note Time="108" Value="E3" Duration="96" Release="84" Instrument="1. Acoustic Grand Piano"
			Pattern Name="0B" Color="51a1fc"
				Note Time="12" Value="C3" Duration="96" Release="84" Instrument="1. Acoustic Grand Piano"
				Note Time="108" Value="C3" Duration="96" Release="84" Instrument="1. Acoustic Grand Piano"
			Pattern Name="0C" Color="6471cf"
				Note Time="12" Value="D#3" Duration="96" Release="84" Instrument="1. Acoustic Grand Piano"
				Note Time="108" Value="D#3" Duration="96" Release="84" Instrument="1. Acoustic Grand Piano"
			Pattern Name="0D" Color="8163dc"
				Note Time="12" Value="B2" Duration="96" Release="84" Instrument="1. Acoustic Grand Piano"
				Note Time="108" Value="B2" Duration="84" Release="78" Instrument="1. Acoustic Grand Piano"
			Pattern Name="0E" Color="a657d6"
				Note Time="0" Value="C2" Duration="192" Instrument="1. Acoustic Grand Piano"
			PatternInstance Time="0" Pattern="00"
			PatternInstance Time="1" Pattern="01"
			PatternInstance Time="2" Pattern="01"
			PatternInstance Time="3" Pattern="00"
			PatternInstance Time="4" Pattern="00"
			PatternInstance Time="5" Pattern="01"
			PatternInstance Time="6" Pattern="01"
			PatternInstance Time="7" Pattern="02"
			PatternInstance Time="8" Pattern="02"
			PatternInstance Time="9" Pattern="03"
			PatternInstance Time="10" Pattern="04"
			PatternInstance Time="11" Pattern="05"
			PatternInstance Time="12" Pattern="03"
			PatternInstance Time="13" Pattern="06"
			PatternInstance Time="14" Pattern="07"
			PatternInstance Time="15" Pattern="08"
			PatternInstance Time="16" Pattern="08"
			PatternInstance Time="17" Pattern="09"
			PatternInstance Time="18" Pattern="0A"
			PatternInstance Time="19" Pattern="07"
			PatternInstance Time="20" Pattern="08"
			PatternInstance Time="21" Pattern="0B"
			PatternInstance Time="22" Pattern="08"
			PatternInstance Time="23" Pattern="08"
			PatternInstance Time="24" Pattern="0A"
			PatternInstance Time="25" Pattern="09"
			PatternInstance Time="26" Pattern="09"
			PatternInstance Time="27" Pattern="0C"
			PatternInstance Time="28" Pattern="0A"
			PatternInstance Time="29" Pattern="09"
			PatternInstance Time="30" Pattern="09"
			PatternInstance Time="31" Pattern="0B"
			PatternInstance Time="32" Pattern="0B"
			PatternInstance Time="33" Pattern="0D"
			PatternInstance Time="34" Pattern="0E"
		Channel Type="EPSMFM5"
			Pattern Name="00" Color="ff6464"
				Note Time="96" Value="C4" Duration="192" Release="96" Instrument="1. Acoustic Grand Piano"
			Pattern Name="01" Color="ff7f51"
				Note Time="96" Value="B3" Duration="192" Release="96" Instrument="1. Acoustic Grand Piano"
			Pattern Name="02" Color="ff7f51"
				Note Time="96" Value="A3" Duration="192" Release="96" Instrument="1. Acoustic Grand Piano"
			Pattern Name="03" Color="ffcb3c"
				Note Time="96" Value="D3" Duration="192" Release="96" Instrument="1. Acoustic Grand Piano"
			Pattern Name="04" Color="ffe461"
				Note Time="96" Value="G3" Duration="192" Release="96" Instrument="1. Acoustic Grand Piano"
			Pattern Name="05" Color="dad960"
				Note Time="96" Value="F3" Duration="192" Release="96" Instrument="1. Acoustic Grand Piano"
			Pattern Name="06" Color="91c76b"
				Note Time="96" Value="E3" Duration="192" Release="96" Instrument="1. Acoustic Grand Piano"
			Pattern Name="07" Color="6ab96e"
				Note Time="96" Value="G2" Duration="192" Release="96" Instrument="1. Acoustic Grand Piano"
			Pattern Name="08" Color="3ca598"
				Note Time="96" Value="C3" Duration="192" Release="96" Instrument="1. Acoustic Grand Piano"
			Pattern Name="09" Color="3cbfcb"
				Note Time="96" Value="F2" Duration="192" Release="96" Instrument="1. Acoustic Grand Piano"
			Pattern Name="0A" Color="3eb3f9"
				Note Time="96" Value="F#2" Duration="192" Release="96" Instrument="1. Acoustic Grand Piano"
			Pattern Name="0B" Color="51a1fc"
				Note Time="96" Value="G#2" Duration="192" Release="96" Instrument="1. Acoustic Grand Piano"
			Pattern Name="0C" Color="6471cf"
				Note Time="96" Value="C2" Duration="192" Release="96" Instrument="1. Acoustic Grand Piano"
			Pattern Name="0D" Color="8163dc"
				Note Time="0" Value="C1" Duration="192" Instrument="1. Acoustic Grand Piano"
			PatternInstance Time="0" Pattern="00"
			PatternInstance Time="1" Pattern="00"
			PatternInstance Time="2" Pattern="01"
			PatternInstance Time="3" Pattern="00"
			PatternInstance Time="4" Pattern="00"
			PatternInstance Time="5" Pattern="00"
			PatternInstance Time="6" Pattern="01"
			PatternInstance Time="7" Pattern="01"
			PatternInstance Time="8" Pattern="02"
			PatternInstance Time="9" Pattern="03"
			PatternInstance Time="10" Pattern="04"
			PatternInstance Time="11" Pattern="04"
			PatternInstance Time="12" Pattern="05"
			PatternInstance Time="13" Pattern="05"
			PatternInstance Time="14" Pattern="06"
			PatternInstance Time="15" Pattern="06"
			PatternInstance Time="16" Pattern="03"
			PatternInstance Time="17" Pattern="07"
			PatternInstance Time="18" Pattern="08"
			PatternInstance Time="19" Pattern="08"
			PatternInstance Time="20" Pattern="09"
			PatternInstance Time="21" Pattern="0A"
			PatternInstance Time="22" Pattern="0B"
			PatternInstance Time="23" Pattern="07"
			PatternInstance Time="24" Pattern="07"
			PatternInstance Time="25" Pattern="07"
			PatternInstance Time="26" Pattern="07"
			PatternInstance Time="27" Pattern="07"
			PatternInstance Time="28" Pattern="07"
			PatternInstance Time="29" Pattern="07"
			PatternInstance Time="30" Pattern="07"
			PatternInstance Time="31" Pattern="0C"
			PatternInstance Time="32" Pattern="0C"
			PatternInstance Time="33" Pattern="0C"
			PatternInstance Time="34" Pattern="0D"
		Channel Type="EPSMFM6"
			Pattern Name="00" Color="ff6464"
				Note Time="0" Value="C4" Duration="192" Release="96" Instrument="1. Acoustic Grand Piano"
			Pattern Name="01" Color="ff7f51"
				Note Time="0" Value="B3" Duration="192" Release="96" Instrument="1. Acoustic Grand Piano"
			Pattern Name="02" Color="ffa83c"
				Note Time="0" Value="A3" Duration="192" Release="96" Instrument="1. Acoustic Grand Piano"
			Pattern Name="03" Color="ffcb3c"
				Note Time="0" Value="D3" Duration="192" Release="96" Instrument="1. Acoustic Grand Piano"
			Pattern Name="04" Color="ffe461"
				Note Time="0" Value="G3" Duration="192" Release="96" Instrument="1. Acoustic Grand Piano"
			Pattern Name="05" Color="dad960"
				Note Time="0" Value="F3" Duration="192" Release="96" Instrument="1. Acoustic Grand Piano"
			Pattern Name="06" Color="91c76b"
				Note Time="0" Value="E3" Duration="192" Release="96" Instrument="1. Acoustic Grand Piano"
			Pattern Name="07" Color="6ab96e"
				Note Time="0" Value="G2" Duration="192" Release="96" Instrument="1. Acoustic Grand Piano"
			Pattern Name="08" Color="3ca598"
				Note Time="0" Value="C3" Duration="192" Release="96" Instrument="1. Acoustic Grand Piano"
			Pattern Name="09" Color="3cbfcb"
				Note Time="0" Value="F2" Duration="192" Release="96" Instrument="1. Acoustic Grand Piano"
			Pattern Name="0A" Color="3eb3f9"
				Note Time="0" Value="F#2" Duration="192" Release="96" Instrument="1. Acoustic Grand Piano"
			Pattern Name="0B" Color="51a1fc"
				Note Time="0" Value="G#2" Duration="192" Release="96" Instrument="1. Acoustic Grand Piano"
			Pattern Name="0C" Color="6471cf"
				Note Time="0" Value="C2" Duration="192" Release="96" Instrument="1. Acoustic Grand Piano"
			PatternInstance Time="0" Pattern="00"
			PatternInstance Time="1" Pattern="00"
			PatternInstance Time="2" Pattern="01"
			PatternInstance Time="3" Pattern="00"
			PatternInstance Time="4" Pattern="00"
			PatternInstance Time="5" Pattern="00"
			PatternInstance Time="6" Pattern="01"
			PatternInstance Time="7" Pattern="01"
			PatternInstance Time="8" Pattern="02"
			PatternInstance Time="9" Pattern="03"
			PatternInstance Time="10" Pattern="04"
			PatternInstance Time="11" Pattern="04"
			PatternInstance Time="12" Pattern="05"
			PatternInstance Time="13" Pattern="05"
			PatternInstance Time="14" Pattern="06"
			PatternInstance Time="15" Pattern="06"
			PatternInstance Time="16" Pattern="03"
			PatternInstance Time="17" Pattern="07"
			PatternInstance Time="18" Pattern="08"
			PatternInstance Time="19" Pattern="08"
			PatternInstance Time="20" Pattern="09"
			PatternInstance Time="21" Pattern="0A"
			PatternInstance Time="22" Pattern="0B"
			PatternInstance Time="23" Pattern="07"
			PatternInstance Time="24" Pattern="07"
			PatternInstance Time="25" Pattern="07"
			PatternInstance Time="26" Pattern="07"
			PatternInstance Time="27" Pattern="07"
			PatternInstance Time="28" Pattern="07"
			PatternInstance Time="29" Pattern="07"
			PatternInstance Time="30" Pattern="07"
			PatternInstance Time="31" Pattern="0C"
			PatternInstance Time="32" Pattern="0C"
			PatternInstance Time="33" Pattern="0C"
		Channel Type="EPSMRythm1"
		Channel Type="EPSMRythm2"
		Channel Type="EPSMRythm3"
		Channel Type="EPSMRythm4"
		Channel Type="EPSMRythm5"
		Channel Type="EPSMRythm6"
